<svg width="21" height="22" viewBox="0 0 21 22" fill="none" xmlns="http://www.w3.org/2000/svg">
<path d="M10.375 0L9.72617 0.948115C9.72617 0.948115 9.296 1.54907 8.87861 2.26973C8.66951 2.63126 8.47319 3.00875 8.30479 3.39182C8.1372 3.7749 7.98077 4.12765 7.98077 4.58894C7.98077 5.90177 9.06217 6.98317 10.375 6.98317C11.6878 6.98317 12.7692 5.90177 12.7692 4.58894C12.7692 4.12765 12.6136 3.7749 12.4452 3.39182C12.2768 3.00875 12.0805 2.63126 11.8714 2.26973C11.454 1.54907 11.023 0.947317 11.023 0.947317L10.375 0ZM10.375 6.98317H9.04487C8.45719 6.98317 7.98077 7.45958 7.98077 8.04727V10.1755H3.19231C1.42857 10.1755 1.04588e-05 11.604 1.04588e-05 13.3678C-0.00198607 14.1481 0.281923 14.9022 0.798087 15.4875V20.2844C0.798087 20.8721 1.2745 21.3485 1.86219 21.3485H18.8878C19.4755 21.3485 19.9519 20.8721 19.9519 20.2844V15.4875C20.4681 14.9022 20.752 14.1481 20.75 13.3678C20.75 11.604 19.3214 10.1755 17.5577 10.1755H12.7692V8.04727C12.7692 7.45958 12.2928 6.98317 11.7051 6.98317H10.375ZM10.375 2.89303C10.4277 2.98081 10.4221 2.97443 10.4748 3.06781C10.6647 3.39502 10.8674 3.74378 10.9983 4.03986C11.1292 4.33675 11.1731 4.61049 11.1731 4.58894C11.1731 5.03187 10.8179 5.38701 10.375 5.38701C9.93207 5.38701 9.57693 5.03187 9.57693 4.58894C9.57693 4.61049 9.62082 4.33675 9.7517 4.03986C9.88259 3.74457 10.0853 3.39502 10.2752 3.06781C10.3279 2.97443 10.3223 2.98002 10.375 2.89303ZM9.57693 9.3774C9.57693 8.93663 9.93424 8.57932 10.375 8.57932C10.8158 8.57932 11.1731 8.93663 11.1731 9.3774C11.1731 9.81816 10.8158 10.1755 10.375 10.1755C9.93424 10.1755 9.57693 9.81816 9.57693 9.3774ZM5.58654 15.4875C5.88653 15.8261 6.25523 16.0969 6.66806 16.2818C7.0809 16.4668 7.5284 16.5616 7.98077 16.5601C8.43314 16.5616 8.88065 16.4668 9.29348 16.2818C9.70632 16.0969 10.075 15.8261 10.375 15.4875C10.675 15.8261 11.0437 16.0969 11.4565 16.2818C11.8694 16.4668 12.3169 16.5616 12.7692 16.5601C13.2216 16.5616 13.6691 16.4668 14.0819 16.2818C14.4948 16.0969 14.8635 15.8261 15.1635 15.4875C15.4634 15.8261 15.8321 16.0969 16.245 16.2818C16.6578 16.4668 17.1053 16.5616 17.5577 16.5601C17.8354 16.5601 18.1004 16.501 18.3558 16.4356V19.7524H2.39424V16.4356C2.64962 16.501 2.91458 16.5601 3.19231 16.5601C3.64468 16.5616 4.09219 16.4668 4.50503 16.2818C4.91786 16.0969 5.28655 15.8261 5.58654 15.4875Z" fill="#BDBDBD"/>
</svg>
