<svg width="163" height="163" viewBox="0 0 163 163" fill="none" xmlns="http://www.w3.org/2000/svg">
<path d="M42.5918 44.962C47.653 69.5545 50.2737 94.5867 50.4158 119.694C50.4233 120.124 50.5975 120.534 50.9015 120.838C51.2056 121.143 51.6158 121.317 52.0458 121.324C72.8655 122.7 93.7554 122.635 114.566 121.129C120.319 120.711 126.063 120.182 131.798 119.541C132.718 119.44 133.37 118.889 133.428 117.911C134.938 92.916 133.826 67.8316 130.113 43.0679C129.999 42.3051 129.197 41.953 128.542 41.8715C105.969 39.02 83.149 38.6854 60.5022 40.8739C54.8885 41.4173 49.2922 42.1116 43.7132 42.9571C41.6431 43.2668 42.5233 46.4094 44.5804 46.0997C66.0533 42.8792 87.8074 41.946 109.477 43.3157C115.852 43.7199 122.206 44.3252 128.542 45.1315L126.97 43.9351C130.612 68.4148 131.684 93.2083 130.168 117.911L131.798 116.281C110.88 118.606 89.8246 119.469 68.7859 118.863C63.2091 118.7 57.6367 118.434 52.0686 118.064L53.6986 119.694C53.5414 94.2939 50.8759 68.9712 45.7409 44.0948C45.3139 42.054 42.168 42.9114 42.5918 44.962Z" fill="white"/>
<path d="M121.598 122.018C121.342 123.801 121.086 125.585 120.832 127.371L122.403 126.175C96.4978 125.015 70.55 125.185 44.662 126.683L46.292 128.313C45.7702 102.906 43.5374 77.5635 39.609 52.4566L38.0376 54.5201L45.0662 53.9822C47.1428 53.8225 47.1624 50.5625 45.0662 50.7222L38.0376 51.2601C36.8934 51.3482 36.2935 52.2381 36.4663 53.3237C40.3363 78.1445 42.5298 103.198 43.032 128.313C43.0483 129.155 43.7655 129.996 44.662 129.943C70.5443 128.441 96.4867 128.267 122.387 129.422C123.023 129.448 123.864 128.897 123.958 128.222C124.212 126.438 124.468 124.655 124.724 122.873C125.018 120.822 121.875 119.939 121.582 122.005L121.598 122.018Z" fill="white"/>
<path d="M29.4965 55.746C32.0806 79.6157 34.0073 103.544 35.2765 127.531C35.3841 129.618 38.6474 129.631 38.5365 127.531C37.2695 103.561 35.3428 79.6331 32.7565 55.746C32.5316 53.6824 29.2683 53.6596 29.4965 55.746Z" fill="white"/>
<path d="M66.2173 39.5113C65.9988 36.9457 66.4487 33.6726 68.897 32.2285C70.6215 31.2113 72.9981 31.7003 73.8098 33.6205C74.7128 35.7525 74.3673 38.4583 74.0608 40.6816C73.7209 43.3827 73.1004 46.0409 72.2091 48.6132C71.5017 50.592 74.6509 51.4429 75.355 49.4804C76.5202 46.1017 77.2434 42.5865 77.5066 39.0223C77.7609 35.9742 77.6338 32.2056 75.1725 30.0019C72.9622 28.0231 69.3501 28.0002 66.9312 29.6172C63.7364 31.7558 62.6476 35.8601 62.9573 39.5113C63.1333 41.5847 66.3966 41.6042 66.2173 39.5113Z" fill="white"/>
<path d="M102.038 40.0198C101.474 37.8323 101.754 35.4949 103.136 33.653C104.44 31.9122 108.026 30.9472 109.2 33.3759C110.178 35.3743 109.265 38.5202 108.916 40.5479C108.432 43.4934 107.713 46.3954 106.765 49.226C106.087 51.2179 109.236 52.072 109.908 50.0932C111.204 46.1734 112.098 42.1319 112.577 38.0312C112.956 35.0255 113.005 31.5112 110.129 29.6921C107.003 27.7068 102.846 28.7141 100.646 31.5536C98.5757 34.2137 98.0607 37.6335 98.892 40.8641C99.4168 42.8951 102.563 42.0345 102.038 39.997V40.0198Z" fill="white"/>
<path d="M72.7403 44.0915C70.2236 44.6424 68.0687 46.5756 67.9481 49.2716C67.8977 50.4772 68.2133 51.6698 68.8533 52.6927C69.4933 53.7155 70.4279 54.5208 71.5341 55.0027C73.9889 56.0198 76.7827 55.019 78.3149 52.9098C79.7689 50.9114 79.7395 48.1371 78.4583 46.0638C77.3597 44.2806 74.5463 45.9138 75.6417 47.6938C76.8283 49.6237 75.3972 53.0728 72.7827 52.0133C72.2986 51.7905 71.8907 51.4304 71.6096 50.9778C71.3285 50.5251 71.1866 49.9998 71.2016 49.4672C71.2668 48.1143 72.4404 47.4884 73.6172 47.2309C75.6678 46.781 74.8006 43.6449 72.7501 44.0882L72.7403 44.0915Z" fill="white"/>
<path d="M107.296 44.0783C105.07 44.2902 103.058 45.4964 102.224 47.6643C101.278 50.1322 102.152 53.1379 104.457 54.5266C106.869 55.9773 110.191 55.3547 111.746 52.9618C113.269 50.6244 112.802 47.5372 110.886 45.591C109.412 44.0914 107.107 46.3962 108.581 47.8958C110.586 49.9333 108.134 53.6432 105.79 51.4818C105.422 51.1037 105.183 50.6191 105.106 50.097C105.029 49.5749 105.119 49.0418 105.363 48.5739C105.634 48.0923 106.065 47.7217 106.582 47.5274C106.815 47.4456 107.054 47.3824 107.296 47.3383C109.366 47.1395 109.386 43.8762 107.296 44.0783Z" fill="white"/>
<path d="M58.028 65.4738C58.0997 68.1079 58.028 70.7322 58.0085 73.3663C58.0085 74.4682 58.1063 75.5603 58.9213 76.3851C59.6515 77.1186 60.6719 77.3174 61.6564 77.4315C63.7363 77.6728 65.8748 77.5391 67.958 77.4315C71.0811 77.2913 75.4136 77.6108 75.7591 73.5489C75.9515 71.2669 75.6483 68.9197 75.5864 66.6507C75.5472 65.2522 75.7331 63.6026 74.8333 62.4127C73.6238 60.8316 71.5472 60.8675 69.7444 60.975C66.4907 61.2225 63.2262 61.2987 59.9645 61.2032C57.865 61.1087 57.8715 64.3687 59.9645 64.4632C62.3032 64.5697 64.6459 64.5556 66.9832 64.4209C68.4991 64.3296 70.3638 63.9058 71.8732 64.235C72.1503 64.297 72.3459 64.46 72.2286 64.3133C72.1112 64.1666 72.2546 64.5806 72.2286 64.4046C72.2579 64.7306 72.2644 65.0566 72.2742 65.363C72.3492 67.4983 72.4274 69.6336 72.4894 71.7689C72.5203 72.3259 72.5203 72.8842 72.4894 73.4413C72.4894 73.5619 72.3329 73.9172 72.4339 73.7347C72.4535 73.6988 72.4992 73.7608 72.359 73.7999C72.5383 73.7477 72.0721 73.8651 72.0101 73.8781C71.0691 74.0298 70.1173 74.105 69.1642 74.1031C67.1136 74.2074 65.0501 74.3182 62.9963 74.2432C62.5655 74.237 62.1356 74.2054 61.7085 74.1487C61.5358 74.1161 61.3826 74.0639 61.2033 74.0313C60.9294 73.9727 61.2033 73.9564 61.1413 74.002C61.1413 74.002 61.3076 74.1389 61.288 74.2106C61.3304 74.0639 61.2359 74.3117 61.2522 73.9531C61.2685 73.5945 61.2522 73.2131 61.2522 72.8447C61.3043 70.3801 61.3239 67.9156 61.2522 65.4478C61.1967 63.3548 57.9367 63.3451 57.9922 65.4478L58.028 65.4738Z" fill="#0FAFE9"/>
<path d="M83.4135 64.7436C86.2894 64.32 89.1866 64.0555 92.0916 63.9514C93.024 63.8905 93.96 63.9112 94.8887 64.0134C95.4657 64.0949 95.4951 64.0818 95.6385 64.3035C95.6795 64.592 95.7034 64.8826 95.7102 65.1739C95.7265 66.2791 95.7102 67.3777 95.7852 68.4828C95.8732 69.7868 96.0297 71.0908 96.2481 72.3948C96.3329 72.8904 96.3394 73.6728 96.4992 74.0574C96.5448 74.1683 96.4242 73.7608 96.6524 73.8716C96.1895 73.6499 94.9344 73.8195 94.3965 73.7738C91.7926 73.5615 89.1755 73.567 86.5725 73.7901C85.9205 73.8455 85.1446 73.9955 84.4828 73.8358C84.8381 73.9205 84.6556 74.0966 84.6621 73.9042C84.6621 73.8325 84.6914 73.3728 84.7045 73.187C84.8414 71.1854 85.0305 69.275 84.7664 67.2799C84.5056 65.2261 81.2424 65.2033 81.5064 67.2799C81.7542 69.2359 81.5879 71.1626 81.4445 73.187C81.3467 74.6051 81.6955 76.0297 83.0484 76.7469C84.6002 77.5717 86.7192 77.011 88.3655 76.9165C90.8822 76.7698 93.3272 77.0599 95.8309 77.1414C97.2098 77.187 98.5856 76.8741 99.3386 75.6027C100.066 74.3802 99.6646 72.9947 99.4364 71.6907C99.042 69.3826 99.0778 67.1006 98.9768 64.7762C98.9246 63.5081 98.5432 62.3638 97.4935 61.5814C96.0754 60.5252 94.0248 60.6262 92.3492 60.6686C89.0744 60.7868 85.809 61.0926 82.5692 61.5847C80.4991 61.8813 81.3793 65.024 83.4363 64.7273L83.4135 64.7436Z" fill="#7B23D1"/>
<path d="M109.732 74.7617C109.728 72.528 109.51 70.2999 109.08 68.108C108.865 67.0453 108.558 66.0086 108.31 64.9556C108.252 64.7111 108.05 64.196 108.138 63.9222C108.226 63.6484 107.812 64.0167 108.213 63.9222C109.07 63.7429 110.1 63.9222 110.977 63.9222C112.2 63.9222 113.419 63.8472 114.631 63.7168C115.776 63.5929 117.135 63.1528 118.296 63.2995C118.237 63.2995 118.416 63.2637 118.534 63.4528C118.801 63.8831 118.86 64.6753 118.931 65.1871C119.322 67.3396 119.54 69.5199 119.583 71.7071C119.583 73.223 118.869 73.3012 117.416 73.3925C116.438 73.4544 115.31 73.6207 114.341 73.4414C113.865 73.3534 113.422 73.1154 112.946 73.0046C110.902 72.5416 110.028 75.6843 112.079 76.1472C113.592 76.4928 114.768 76.7536 116.382 76.6981C118.123 76.6362 120.196 76.6329 121.552 75.3583C122.674 74.3053 122.879 72.8057 122.837 71.3354C122.728 68.9871 122.469 66.6481 122.061 64.333C121.618 61.5685 120.17 59.769 117.223 60.121C115.336 60.3395 113.487 60.6198 111.583 60.6655C109.895 60.7046 107.671 60.2645 106.172 61.2979C104.304 62.6019 104.917 64.9198 105.393 66.7584C106.082 69.3735 106.444 72.0639 106.472 74.7682C106.491 76.8644 109.751 76.8709 109.732 74.7682V74.7617Z" fill="#FF2D76"/>
<path d="M58.1551 94.8367C58.2203 96.9459 58.1551 99.0453 58.1551 101.155C58.1551 102.256 58.2497 103.349 59.0679 104.173C59.7949 104.907 60.8153 105.106 61.8031 105.22C63.883 105.458 66.0183 105.327 68.1047 105.22C71.2277 105.083 75.557 105.402 75.9026 101.337C76.0949 99.0714 75.7917 96.7079 75.7298 94.4422C75.6907 93.0404 75.8765 91.3941 74.9767 90.2042C73.7673 88.6231 71.6907 88.659 69.8879 88.7666C66.6341 89.0124 63.3696 89.0886 60.1079 88.9947C58.0084 88.9002 58.015 92.1602 60.1079 92.2547C62.4467 92.3618 64.7895 92.3466 67.1267 92.2091C68.6426 92.1211 70.5073 91.6973 72.0167 92.0266C72.2938 92.0852 72.4926 92.2515 72.372 92.1048C72.2514 91.9581 72.4013 92.3721 72.372 92.1961C72.4013 92.5221 72.4046 92.8481 72.4144 93.1545C72.4894 95.2898 72.5676 97.4251 72.6295 99.5604C72.6638 100.117 72.6638 100.676 72.6295 101.233C72.6295 101.35 72.4763 101.709 72.5741 101.526C72.5969 101.487 72.6393 101.549 72.4991 101.588C72.6817 101.539 72.2155 101.653 72.1536 101.67C71.2115 101.822 70.2586 101.896 69.3043 101.891C67.2538 101.999 65.1902 102.106 63.1364 102.031C62.7003 102.028 62.2647 101.998 61.8324 101.94C61.6629 101.908 61.5064 101.855 61.3271 101.82C61.0533 101.764 61.3271 101.748 61.2652 101.794C61.2847 101.794 61.4314 101.93 61.4119 102.002C61.4543 101.855 61.3597 102.103 61.3793 101.745C61.3988 101.386 61.3793 101.005 61.3793 100.636C61.4217 98.6802 61.4445 96.7568 61.3793 94.8138C61.3173 92.7209 58.0573 92.7111 58.1193 94.8138L58.1551 94.8367Z" fill="#A7B9D1"/>
<path d="M83.544 92.5318C86.421 92.1082 89.3192 91.8437 92.2254 91.7396C93.1577 91.6777 94.0936 91.6973 95.0225 91.7983C95.5962 91.8831 95.6256 91.8668 95.7723 92.0917C95.8112 92.3804 95.8341 92.671 95.8407 92.9621C95.857 94.0673 95.8407 95.1659 95.9157 96.2678C96.0037 97.5718 96.1635 98.8921 96.3786 100.18C96.4471 100.571 96.4438 101.67 96.6264 101.924C96.4243 101.64 96.9524 101.732 96.5677 101.673C95.7918 101.556 94.9377 101.588 94.1488 101.526C91.5428 101.344 88.9264 101.371 86.3248 101.608C85.839 101.644 84.9621 101.732 84.6622 101.63C85.0077 101.748 84.7991 101.745 84.7991 101.722C84.8154 101.37 84.8317 101.018 84.8643 100.666C85.0681 98.7905 85.0583 96.8985 84.835 95.0257C84.5546 92.9556 81.4152 93.8358 81.6923 95.8929C81.9205 97.5848 81.6271 99.4137 81.5521 101.246C81.4902 102.739 82.0835 104.147 83.5668 104.698C85.2164 105.308 87.3256 104.75 89.0208 104.672C91.4039 104.564 93.725 104.884 96.095 104.933C97.4577 104.959 98.7976 104.584 99.5115 103.303C100.225 102.022 99.7528 100.61 99.5343 99.2963C99.1497 97.0143 99.2344 94.7323 99.104 92.434C99.0323 91.1594 98.5694 89.9499 97.4577 89.2327C96.0363 88.3166 94.0934 88.4047 92.4797 88.447C89.2048 88.5651 85.9395 88.871 82.6997 89.3631C80.6328 89.6598 81.513 92.7991 83.5668 92.5057L83.544 92.5318Z" fill="#A7B9D1"/>
<path d="M109.862 102.55C109.857 100.316 109.639 98.0882 109.21 95.8961C108.995 94.8333 108.692 93.7967 108.441 92.7437C108.382 92.4959 108.18 91.9841 108.268 91.7103C108.356 91.4364 107.942 91.8048 108.343 91.7103C109.2 91.531 110.23 91.7103 111.111 91.7103C112.33 91.7103 113.549 91.6385 114.762 91.5081C115.909 91.3843 117.266 90.9442 118.426 91.0876C118.367 91.0876 118.547 91.055 118.667 91.2441C118.935 91.6744 118.993 92.4633 119.062 92.9784C119.452 95.1309 119.67 97.3112 119.714 99.4984C119.714 101.014 119 101.093 117.549 101.184C116.571 101.246 115.44 101.412 114.472 101.233C113.996 101.141 113.552 100.907 113.076 100.796C111.032 100.333 110.162 103.472 112.209 103.939C113.722 104.284 114.899 104.545 116.512 104.489C118.253 104.428 120.327 104.421 121.683 103.15C122.804 102.097 123.013 100.594 122.967 99.1268C122.858 96.7786 122.6 94.4397 122.195 92.1243C121.748 89.3598 120.304 87.5603 117.354 87.9091C115.469 88.1275 113.621 88.4111 111.714 88.4535C110.025 88.4959 107.785 88.0558 106.302 89.086C104.437 90.39 105.047 92.7111 105.523 94.5497C106.21 97.1619 106.573 99.8489 106.602 102.55C106.618 104.646 109.878 104.649 109.862 102.55Z" fill="#A7B9D1"/>
</svg>
