<svg width="25" height="24" viewBox="0 0 25 24" fill="none" xmlns="http://www.w3.org/2000/svg">
<path d="M20.3125 13.282C20.3125 13.6727 19.9219 14.0633 19.5312 14.0633H18.75C18.3594 14.0633 17.9688 13.6727 17.9688 13.282V12.5007H6.25V13.282C6.25 13.6727 5.85938 14.0633 5.46875 14.0633H4.6875C4.29688 14.0633 3.90625 13.6727 3.90625 13.282V12.5007H0V20.3137C0 22.0326 1.40625 23.4389 3.125 23.4389H21.875C23.5938 23.4389 25 22.0326 25 20.3137V12.5007H20.3125V13.282Z" fill="white"/>
<path d="M21.875 5.46899H3.125C1.40625 5.46899 0 6.87533 0 8.59418V10.9381H3.90625V10.1568C3.90625 9.76613 4.29688 9.37548 4.6875 9.37548H5.46875C5.85938 9.37548 6.25 9.76613 6.25 10.1568V10.9381H17.9688V10.1568C17.9688 9.76613 18.3594 9.37548 18.75 9.37548H19.5312C19.9219 9.37548 20.3125 9.76613 20.3125 10.1568V10.9381H25V8.59418C25 6.87533 23.5938 5.46899 21.875 5.46899Z" fill="white"/>
<path d="M7.81208 2.34389C7.81208 1.87511 8.12458 1.5626 8.59333 1.5626H15.6246C16.0933 1.5626 16.4058 1.87511 16.4058 2.34389V3.90649H17.9683V2.34389C17.9683 1.01569 16.9527 0 15.6246 0H8.59333C7.2652 0 6.24957 1.01569 6.24957 2.34389V3.90649H7.81208V2.34389Z" fill="white"/>
</svg>
