<svg width="38" height="37" viewBox="0 0 38 37" fill="none" xmlns="http://www.w3.org/2000/svg">
<path d="M9.83366 25.9452L9.16241 26.6342C8.95353 26.8537 8.70405 27.028 8.42862 27.1471C8.1532 27.2663 7.85736 27.3277 7.55849 27.3278C7.25571 27.3303 6.95545 27.2711 6.67511 27.1537C6.39476 27.0363 6.13988 26.8629 5.92522 26.6437C5.71056 26.4245 5.54039 26.1638 5.42454 25.8767C5.3087 25.5895 5.24948 25.2816 5.25033 24.9708V21.2407C4.03475 21.2407 2.86896 20.7451 2.00942 19.8628C1.14988 18.9805 0.666992 17.7839 0.666992 16.5362V4.77485C0.666992 3.52713 1.14988 2.33051 2.00942 1.44824C2.86896 0.565967 4.03475 0.0703125 5.25033 0.0703125H21.292C22.5076 0.0703125 23.6734 0.565967 24.5329 1.44824C25.3924 2.33051 25.8753 3.52713 25.8753 4.77485V16.5362C25.8753 17.7839 25.3924 18.9805 24.5329 19.8628C23.6734 20.7451 22.5076 21.2407 21.292 21.2407H14.417L12.1253 23.593L9.83366 25.9452ZM32.7503 9.47938H29.3128V16.5362C29.3104 18.7189 28.4646 20.8116 26.9609 22.355C25.4572 23.8984 23.4185 24.7666 21.292 24.7691H15.8409L12.6352 28.0596C13.0138 28.8363 13.5951 29.4897 14.3144 29.9471C15.0337 30.4045 15.8626 30.6477 16.7087 30.6498H23.5837L28.8382 36.0433C29.0471 36.2627 29.2966 36.4371 29.572 36.5562C29.8475 36.6753 30.1433 36.7368 30.4422 36.7369C30.7449 36.7394 31.0452 36.6802 31.3255 36.5628C31.6059 36.4453 31.8608 36.272 32.0754 36.0528C32.2901 35.8336 32.4603 35.5729 32.5761 35.2857C32.692 34.9986 32.7512 34.6907 32.7503 34.3799V30.6498C33.9659 30.6498 35.1317 30.1541 35.9912 29.2719C36.8508 28.3896 37.3337 27.193 37.3337 25.9452V14.1839C37.3337 12.9362 36.8508 11.7396 35.9912 10.8573C35.1317 9.97504 33.9659 9.47938 32.7503 9.47938V9.47938Z" fill="white"/>
</svg>
