<svg width="40" height="41" viewBox="0 0 40 41" fill="none" xmlns="http://www.w3.org/2000/svg">
<rect y="0.142334" width="40" height="40.712" rx="20" fill="#F2F2F2" fill-opacity="0.3"/>
<path d="M28 12.3562H12C10.9 12.3562 10.01 13.2722 10.01 14.3918L10 26.6054C10 27.725 10.9 28.641 12 28.641H28C29.1 28.641 30 27.725 30 26.6054V14.3918C30 13.2722 29.1 12.3562 28 12.3562ZM27.6 16.6819L20.53 21.1805C20.21 21.3841 19.79 21.3841 19.47 21.1805L12.4 16.6819C12.2997 16.6246 12.2119 16.5472 12.1419 16.4543C12.0719 16.3615 12.0211 16.2552 11.9926 16.1418C11.9641 16.0284 11.9585 15.9103 11.9762 15.7946C11.9938 15.679 12.0343 15.5682 12.0953 15.4689C12.1562 15.3697 12.2363 15.2841 12.3307 15.2172C12.4251 15.1504 12.5319 15.1038 12.6445 15.0801C12.7571 15.0565 12.8733 15.0564 12.986 15.0798C13.0986 15.1032 13.2055 15.1496 13.3 15.2162L20 19.4808L26.7 15.2162C26.7945 15.1496 26.9014 15.1032 27.014 15.0798C27.1267 15.0564 27.2429 15.0565 27.3555 15.0801C27.4681 15.1038 27.5749 15.1504 27.6693 15.2172C27.7637 15.2841 27.8438 15.3697 27.9047 15.4689C27.9657 15.5682 28.0062 15.679 28.0238 15.7946C28.0415 15.9103 28.0359 16.0284 28.0074 16.1418C27.9789 16.2552 27.9281 16.3615 27.8581 16.4543C27.7881 16.5472 27.7003 16.6246 27.6 16.6819Z" fill="white"/>
</svg>
