<svg width="38" height="38" viewBox="0 0 38 38" fill="none" xmlns="http://www.w3.org/2000/svg">
<g clip-path="url(#clip0_2208_55700)">
<path d="M21.0683 0L15.6269 0C14.9074 0 14.3228 0.584629 14.3228 1.30414C14.3228 2.02365 14.9074 2.60828 15.6269 2.60828L21.0683 2.60828C21.7878 2.60828 22.3724 2.02365 22.3724 1.30414C22.3724 0.584629 21.7878 0 21.0683 0Z" fill="white"/>
<path d="M35.5938 8.58917L32.0412 5.03654C31.5465 4.54186 30.737 4.54186 30.1974 5.03654C29.7027 5.53122 29.7027 6.34068 30.1974 6.88029L33.7051 10.388C33.975 10.6578 34.2898 10.7478 34.6045 10.7478C34.9193 10.7478 35.2791 10.6129 35.504 10.388C36.0885 9.89331 36.0885 9.08385 35.5938 8.58917Z" fill="white"/>
<path d="M18.3252 5.44141C9.33113 5.44141 2.0459 12.7266 2.0459 21.7207C2.0459 30.7149 9.33113 38.0001 18.3252 38.0001C27.3194 38.0001 34.6045 30.7149 34.6045 21.7207C34.6045 12.7266 27.3194 5.44141 18.3252 5.44141ZM25.0708 23.4746H18.3252C17.6057 23.4746 17.0211 22.8899 17.0211 22.1704V13.716C17.0211 12.9965 17.6057 12.4119 18.3252 12.4119C19.0448 12.4119 19.6294 12.9965 19.6294 13.716L19.6294 20.9113L25.0708 20.9113C25.7903 20.9113 26.3749 21.4959 26.3749 22.2154C26.3749 22.89 25.7903 23.4746 25.0708 23.4746Z" fill="white"/>
</g>
<defs>
<clipPath id="clip0_2208_55700">
<rect width="38" height="38" fill="white"/>
</clipPath>
</defs>
</svg>
