<svg width="25" height="24" viewBox="0 0 25 24" fill="none" xmlns="http://www.w3.org/2000/svg">
<path d="M6.54663 16.7671L6.14388 17.1805C6.01855 17.3122 5.86887 17.4168 5.70361 17.4883C5.53835 17.5598 5.36085 17.5966 5.18153 17.5967C4.99986 17.5982 4.81971 17.5627 4.6515 17.4922C4.48329 17.4218 4.33036 17.3178 4.20157 17.1862C4.07277 17.0547 3.97067 16.8983 3.90116 16.726C3.83165 16.5537 3.79613 16.369 3.79663 16.1825V13.9444C3.06729 13.9444 2.36781 13.647 1.85209 13.1177C1.33636 12.5883 1.04663 11.8703 1.04663 11.1217V4.06491C1.04663 3.31628 1.33636 2.59831 1.85209 2.06894C2.36781 1.53958 3.06729 1.24219 3.79663 1.24219H13.4216C14.151 1.24219 14.8504 1.53958 15.3662 2.06894C15.8819 2.59831 16.1716 3.31628 16.1716 4.06491V11.1217C16.1716 11.8703 15.8819 12.5883 15.3662 13.1177C14.8504 13.647 14.151 13.9444 13.4216 13.9444H9.29663L7.92163 15.3558L6.54663 16.7671ZM20.2966 6.88763H18.2341V11.1217C18.2327 12.4314 17.7252 13.6869 16.823 14.613C15.9208 15.5391 14.6975 16.06 13.4216 16.0615H10.151L8.22753 18.0358C8.45469 18.5018 8.8035 18.8938 9.23506 19.1683C9.66663 19.4427 10.164 19.5886 10.6716 19.5899H14.7966L17.9494 22.826C18.0747 22.9576 18.2244 23.0623 18.3897 23.1337C18.5549 23.2052 18.7324 23.2421 18.9117 23.2421C19.0934 23.2436 19.2736 23.2081 19.4418 23.1377C19.61 23.0672 19.7629 22.9632 19.8917 22.8317C20.0205 22.7002 20.1226 22.5437 20.1921 22.3714C20.2616 22.1991 20.2971 22.0144 20.2966 21.8279V19.5899C21.026 19.5899 21.7254 19.2925 22.2412 18.7631C22.7569 18.2337 23.0466 17.5158 23.0466 16.7671V9.71035C23.0466 8.96172 22.7569 8.24375 22.2412 7.71438C21.7254 7.18502 21.026 6.88763 20.2966 6.88763Z" fill="#1787E7"/>
</svg>
