<svg width="104" height="104" viewBox="0 0 104 104" fill="none" xmlns="http://www.w3.org/2000/svg">
<path d="M37.8402 78.9996V71.6754H40.4242V70.5446H33.9379V71.6754H36.5277V78.9996H37.8402ZM44.6488 70.4039C42.2113 70.4039 40.6879 72.0856 40.6879 74.775C40.6879 77.4645 42.2113 79.1403 44.6488 79.1403C47.0804 79.1403 48.6097 77.4645 48.6097 74.775C48.6097 72.0856 47.0804 70.4039 44.6488 70.4039ZM44.6488 71.5582C46.2543 71.5582 47.2621 72.8004 47.2621 74.775C47.2621 76.7438 46.2543 77.986 44.6488 77.986C43.0433 77.986 42.0297 76.7438 42.0297 74.775C42.0297 72.8004 43.0433 71.5582 44.6488 71.5582ZM49.8636 70.5446V78.9996H52.8461C55.3656 78.9996 56.848 77.4293 56.848 74.7574C56.848 72.0914 55.3597 70.5446 52.8461 70.5446H49.8636ZM51.1761 71.6754H52.723C54.5101 71.6754 55.5062 72.777 55.5062 74.7692C55.5062 76.7672 54.516 77.8629 52.723 77.8629H51.1761V71.6754ZM63.3285 78.9996H64.7172L61.6644 70.5446H60.2465L57.1937 78.9996H58.559L59.3324 76.7145H62.5551L63.3285 78.9996ZM60.9261 71.9508H60.9613L62.2211 75.6598H59.6664L60.9261 71.9508ZM68.2094 78.9996V75.5367L71.1918 70.5446H69.7386L67.5824 74.277H67.5414L65.3851 70.5446H63.9203L66.8969 75.5367V78.9996H68.2094Z" fill="#9EA3AE"/>
<path d="M39.4974 88.1354H39.1556V94.5885C39.1556 96.7487 40.557 98.1364 42.7719 98.1364C44.9935 98.1364 46.3949 96.7487 46.3949 94.5885V88.1354H46.0531V94.5817C46.0531 96.5709 44.7816 97.8151 42.7719 97.8151C40.7689 97.8151 39.4974 96.5709 39.4974 94.5817V88.1354ZM48.0424 97.9996H48.3773V93.734C48.3773 92.1823 49.3822 91.0953 50.8383 91.0953C52.2191 91.0953 53.1898 91.9772 53.1898 93.4196V97.9996H53.5248V93.399C53.5248 91.7994 52.4515 90.7877 50.8861 90.7877C49.642 90.7877 48.6713 91.5123 48.3705 92.5582H48.3568V90.8903H48.0424V97.9996ZM57.7357 98.1022C59.1439 98.1022 60.2377 97.1246 60.5316 95.8873H60.5453V97.9996H60.8597V88.1354H60.5179V92.9684H60.5043C60.2308 91.7653 59.1439 90.7877 57.7357 90.7877C55.9584 90.7877 54.7074 92.2643 54.7074 94.4449C54.7074 96.6188 55.9652 98.1022 57.7357 98.1022ZM57.7562 91.0953C59.3695 91.0953 60.5179 92.4694 60.5179 94.4449C60.5179 96.4205 59.3695 97.7946 57.7562 97.7946C56.1703 97.7946 55.0492 96.4342 55.0492 94.4381C55.0492 92.4489 56.1703 91.0953 57.7562 91.0953ZM65.2347 91.0953C66.8412 91.0953 67.9213 92.3395 67.9213 94.1578H62.4935C62.5687 92.319 63.6488 91.0953 65.2347 91.0953ZM67.8256 96.024C67.6136 97.0289 66.7113 97.7946 65.2963 97.7946C63.601 97.7946 62.4867 96.5846 62.4867 94.4791V94.4655H68.2631V94.2057C68.2631 92.1686 67.0531 90.7877 65.2347 90.7877C63.3754 90.7877 62.1449 92.2369 62.1449 94.4449C62.1449 96.7555 63.3822 98.1022 65.2894 98.1022C66.8822 98.1022 67.9349 97.2203 68.1742 96.024H67.8256ZM69.4935 97.9996H69.8285V93.5699C69.8285 92.1412 70.5531 91.109 71.7289 91.109C72.0775 91.109 72.3304 91.1842 72.4945 91.2731V90.9244C72.351 90.8561 72.0775 90.7877 71.7767 90.7877C70.806 90.7877 70.1293 91.3278 69.8217 92.3668H69.808V90.8903H69.4935V97.9996Z" fill="#192126"/>
<circle cx="51.2449" cy="52.0357" r="10.4796" fill="#E5E6EB" stroke="#F9FAFB" stroke-width="2"/>
<mask id="path-4-inside-1_2208_54135" fill="white">
<path d="M103.86 52.0357C103.86 38.3351 98.4171 25.1957 88.7294 15.5079C79.0416 5.82011 65.9021 0.377565 52.2015 0.377563C38.5009 0.377562 25.3615 5.8201 15.6737 15.5079C5.98588 25.1957 0.543337 38.3351 0.543335 52.0357H13.4579C13.4579 41.7603 17.5398 31.9057 24.8056 24.6398C32.0715 17.374 41.9261 13.2921 52.2015 13.2921C62.477 13.2921 72.3316 17.374 79.5974 24.6399C86.8632 31.9057 90.9451 41.7603 90.9451 52.0357H103.86Z"/>
</mask>
<path d="M103.86 52.0357C103.86 38.3351 98.4171 25.1957 88.7294 15.5079C79.0416 5.82011 65.9021 0.377565 52.2015 0.377563C38.5009 0.377562 25.3615 5.8201 15.6737 15.5079C5.98588 25.1957 0.543337 38.3351 0.543335 52.0357H13.4579C13.4579 41.7603 17.5398 31.9057 24.8056 24.6398C32.0715 17.374 41.9261 13.2921 52.2015 13.2921C62.477 13.2921 72.3316 17.374 79.5974 24.6399C86.8632 31.9057 90.9451 41.7603 90.9451 52.0357H103.86Z" stroke="#E5E6EB" stroke-width="24" mask="url(#path-4-inside-1_2208_54135)"/>
<mask id="path-5-inside-2_2208_54135" fill="white">
<path d="M0.543335 52.0357C0.543336 41.5346 3.74372 31.2828 9.71797 22.6467C15.6922 14.0106 24.1566 7.4003 33.983 3.69681L39.4485 18.1985C32.5701 20.7909 26.645 25.4181 22.463 31.4634C18.2811 37.5087 16.0408 44.6849 16.0408 52.0357H0.543335Z"/>
</mask>
<path d="M0.543335 52.0357C0.543336 41.5346 3.74372 31.2828 9.71797 22.6467C15.6922 14.0106 24.1566 7.4003 33.983 3.69681L39.4485 18.1985C32.5701 20.7909 26.645 25.4181 22.463 31.4634C18.2811 37.5087 16.0408 44.6849 16.0408 52.0357H0.543335Z" stroke="#F3A735" stroke-width="24" mask="url(#path-5-inside-2_2208_54135)"/>
<mask id="path-6-inside-3_2208_54135" fill="white">
<path d="M82.8137 52.0357C82.8137 43.9168 79.5885 36.1305 73.8476 30.3896C68.1067 24.6487 60.3204 21.4235 52.2015 21.4235C44.0826 21.4235 36.2963 24.6487 30.5554 30.3896C24.8144 36.1305 21.5892 43.9168 21.5892 52.0357H22.2015C22.2015 44.0792 25.3622 36.4486 30.9883 30.8225C36.6144 25.1964 44.245 22.0357 52.2015 22.0357C60.158 22.0357 67.7886 25.1964 73.4147 30.8225C79.0408 36.4486 82.2015 44.0792 82.2015 52.0357H82.8137Z"/>
</mask>
<path d="M82.8137 52.0357C82.8137 43.9168 79.5885 36.1305 73.8476 30.3896C68.1067 24.6487 60.3204 21.4235 52.2015 21.4235C44.0826 21.4235 36.2963 24.6487 30.5554 30.3896C24.8144 36.1305 21.5892 43.9168 21.5892 52.0357H22.2015C22.2015 44.0792 25.3622 36.4486 30.9883 30.8225C36.6144 25.1964 44.245 22.0357 52.2015 22.0357C60.158 22.0357 67.7886 25.1964 73.4147 30.8225C79.0408 36.4486 82.2015 44.0792 82.2015 52.0357H82.8137Z" stroke="#E5E6EB" stroke-width="4" mask="url(#path-6-inside-3_2208_54135)"/>
<path d="M44.196 32.3483C44.051 31.332 45.4478 30.9049 45.896 31.8286L54.8193 50.2213C55.9162 52.4822 54.7361 55.1885 52.333 55.9232C49.9299 56.6579 47.4382 55.0742 47.0833 52.5864L44.196 32.3483Z" fill="#192126"/>
<ellipse cx="50.9345" cy="51.349" rx="1.91326" ry="1.91327" transform="rotate(-17 50.9345 51.349)" fill="#F9FAFB"/>
</svg>
