<svg width="63" height="17" viewBox="0 0 63 17" fill="none" xmlns="http://www.w3.org/2000/svg">
<path d="M0.96232 16.842C1.18632 15.498 1.43432 14.29 1.70632 13.218C1.97832 12.13 2.28232 11.146 2.61832 10.266C2.97032 9.37004 3.35432 8.56204 3.77032 7.84204C4.20232 7.10604 4.68232 6.41004 5.21032 5.75404C5.73832 5.09804 6.32232 4.47404 6.96232 3.88204C7.61832 3.27404 8.33832 2.65004 9.12232 2.01004H1.13032L1.46632 0.0420399H12.0983L11.8103 1.77004C10.9143 2.52204 10.1143 3.24204 9.41032 3.93004C8.72232 4.61804 8.09832 5.31404 7.53832 6.01804C6.99432 6.70604 6.51432 7.42604 6.09832 8.17804C5.68232 8.91404 5.31432 9.71404 4.99432 10.578C4.67432 11.442 4.38632 12.394 4.13032 13.434C3.87432 14.458 3.62632 15.594 3.38632 16.842H0.96232ZM37.3422 5.98204C37.3422 6.68871 37.1689 7.31537 36.8222 7.86204C36.4889 8.39537 36.0622 8.89537 35.5422 9.36204C35.0355 9.81537 34.4755 10.2554 33.8622 10.682C33.2489 11.0954 32.6622 11.5287 32.1022 11.982C31.5422 12.422 31.0489 12.902 30.6222 13.422C30.1955 13.942 29.9222 14.5354 29.8022 15.202H36.1622L35.8822 16.842H27.8422C27.8155 16.7354 27.7955 16.6154 27.7822 16.482C27.7822 16.3487 27.7822 16.222 27.7822 16.102C27.7822 15.182 27.9689 14.3687 28.3422 13.662C28.7155 12.942 29.1822 12.302 29.7422 11.742C30.3155 11.1687 30.9289 10.6554 31.5822 10.202C32.2489 9.73537 32.8622 9.28871 33.4222 8.86204C33.9955 8.42204 34.4689 7.98871 34.8422 7.56204C35.2155 7.12204 35.4022 6.64204 35.4022 6.12204C35.4022 5.52204 35.2022 5.05537 34.8022 4.72204C34.4155 4.37537 33.9222 4.20204 33.3222 4.20204C32.7489 4.20204 32.2289 4.30871 31.7622 4.52204C31.3089 4.73537 30.8555 5.03537 30.4022 5.42204L29.5622 4.06204C30.1089 3.62204 30.6955 3.26871 31.3222 3.00204C31.9622 2.73537 32.7022 2.60204 33.5422 2.60204C34.1022 2.60204 34.6155 2.68871 35.0822 2.86204C35.5489 3.02204 35.9489 3.25537 36.2822 3.56204C36.6155 3.85537 36.8755 4.20871 37.0622 4.62204C37.2489 5.03537 37.3422 5.48871 37.3422 5.98204ZM43.6344 15.242L45.4144 5.18204L42.4344 7.26204L41.6144 5.82204L46.2944 2.84204H47.6144L45.4344 15.242H47.8144L47.5344 16.842H40.4944L40.7744 15.242H43.6344Z" fill="#192126"/>
<path d="M14.6609 10.724C14.9223 10.3414 15.2489 10.024 15.6409 9.77204C16.0423 9.52004 16.5183 9.39404 17.0689 9.39404C17.8903 9.39404 18.5016 9.64137 18.9029 10.136C19.3136 10.6307 19.5189 11.284 19.5189 12.096V16.842H18.2589V12.236C18.2589 11.704 18.1376 11.284 17.8949 10.976C17.6616 10.6587 17.3209 10.5 16.8729 10.5C16.6583 10.5 16.4436 10.542 16.2289 10.626C16.0236 10.7007 15.8276 10.808 15.6409 10.948C15.4543 11.088 15.2769 11.2514 15.1089 11.438C14.9409 11.6247 14.7916 11.8207 14.6609 12.026V16.842H13.4009V6.48204H14.6609V10.724ZM52.8846 10.78C53.1459 10.388 53.4726 10.0614 53.8646 9.80004C54.2659 9.52937 54.7279 9.39404 55.2506 9.39404C55.8292 9.39404 56.3006 9.53404 56.6646 9.81404C57.0286 10.0847 57.2899 10.458 57.4486 10.934C57.7379 10.5047 58.0786 10.1407 58.4706 9.84204C58.8719 9.54337 59.3666 9.39404 59.9546 9.39404C60.3466 9.39404 60.6872 9.45937 60.9766 9.59004C61.2752 9.72071 61.5226 9.90737 61.7186 10.15C61.9146 10.3834 62.0592 10.668 62.1526 11.004C62.2552 11.3307 62.3066 11.6947 62.3066 12.096V16.842H61.0466V12.194C61.0466 11.69 60.9299 11.284 60.6966 10.976C60.4632 10.6587 60.1412 10.5 59.7306 10.5C59.5159 10.5 59.3106 10.542 59.1146 10.626C58.9186 10.71 58.7319 10.8267 58.5546 10.976C58.3772 11.116 58.2092 11.284 58.0506 11.48C57.8919 11.6667 57.7472 11.8627 57.6166 12.068V16.842H56.3566V12.194C56.3566 11.69 56.2399 11.284 56.0066 10.976C55.7732 10.6587 55.4512 10.5 55.0406 10.5C54.8352 10.5 54.6346 10.542 54.4386 10.626C54.2426 10.7007 54.0512 10.808 53.8646 10.948C53.6872 11.088 53.5192 11.2514 53.3606 11.438C53.2019 11.6247 53.0572 11.8207 52.9266 12.026V16.842H51.6666V9.56204H52.8846V10.78Z" fill="#9EA3AE"/>
</svg>
