<svg width="68" height="21" viewBox="0 0 68 21" fill="none" xmlns="http://www.w3.org/2000/svg">
<path d="M4.42578 17.9998H7.92969V1.0896H4.41406L0.0429688 4.12476V7.31226L4.35547 4.33569H4.42578V17.9998ZM15.957 17.9998H19.4609V1.0896H15.9453L11.5742 4.12476V7.31226L15.8867 4.33569H15.957V17.9998ZM29.8789 18.3748C34.1328 18.3748 36.7109 14.9646 36.7109 9.50366C36.7109 4.04272 34.1094 0.702881 29.8789 0.702881C25.6484 0.702881 23.0352 4.05444 23.0352 9.51538C23.0352 14.988 25.625 18.3748 29.8789 18.3748ZM29.8789 15.5388C27.8633 15.5388 26.6328 13.3591 26.6328 9.51538C26.6328 5.70679 27.8867 3.53882 29.8789 3.53882C31.8828 3.53882 33.1133 5.69507 33.1133 9.51538C33.1133 13.3708 31.8945 15.5388 29.8789 15.5388ZM45.9668 18.1228C47.7852 18.1228 48.9883 16.6804 48.9883 14.4451C48.9883 12.2166 47.7783 10.7673 45.9873 10.7673C44.9824 10.7673 44.1553 11.2664 43.7109 12.0798H43.6836V8.1355H42.4941V17.9998H43.6289V16.7966H43.6562C44.1143 17.6169 44.9277 18.1228 45.9668 18.1228ZM45.7344 11.8132C46.9922 11.8132 47.7715 12.8318 47.7715 14.4451C47.7715 16.072 46.9922 17.0769 45.7344 17.0769C44.5312 17.0769 43.6768 16.031 43.6768 14.4451C43.6768 12.866 44.5312 11.8132 45.7344 11.8132ZM53.6504 10.7673C52.6182 10.7673 51.791 11.2937 51.3535 12.0935H51.3262V10.8904H50.1982V20.3718H51.3877V16.8445H51.415C51.8389 17.6238 52.6592 18.1228 53.6777 18.1228C55.4688 18.1228 56.6924 16.6736 56.6924 14.4451C56.6924 12.2166 55.4619 10.7673 53.6504 10.7673ZM53.418 17.0769C52.2012 17.0769 51.3809 16.031 51.3809 14.4451C51.3809 12.866 52.2012 11.8132 53.418 11.8132C54.6826 11.8132 55.4756 12.8386 55.4756 14.4451C55.4756 16.0583 54.6826 17.0769 53.418 17.0769ZM57.8955 17.9998H59.085V13.5427C59.085 12.5583 59.7686 11.8201 60.7119 11.8201C61.5938 11.8201 62.168 12.3806 62.168 13.2351V17.9998H63.3574V13.4812C63.3574 12.5173 64.0205 11.8201 64.9639 11.8201C65.9004 11.8201 66.4404 12.3943 66.4404 13.365V17.9998H67.6299V13.0916C67.6299 11.6833 66.7207 10.7673 65.3125 10.7673C64.3145 10.7673 63.4805 11.2732 63.084 12.1208H63.0566C62.749 11.2595 62.0312 10.7673 61.0605 10.7673C60.1035 10.7673 59.3789 11.2732 59.0439 12.0251H59.0166V10.8904H57.8955V17.9998Z" fill="#192126"/>
</svg>
