<svg width="106" height="45" viewBox="0 0 106 45" fill="none" xmlns="http://www.w3.org/2000/svg">
<path d="M1.95917 29.4681H11.0503L20.8327 2.90141C21.2076 1.88311 22.7085 2.1073 22.7695 3.19072L24.9746 42.3472C25.0327 43.3781 26.4248 43.6555 26.8736 42.7257L33.2732 29.4681H43.3744L52.6048 2.83377C52.9585 1.81306 54.4552 2.00062 54.5461 3.07705L57.8819 42.5662C57.9676 43.5802 59.3366 43.8332 59.7789 42.9168L66.2707 29.4681H75.0251L84.1949 3.8105C84.5725 2.75384 86.1365 3.02493 86.1365 4.14704V42.3956C86.1365 43.4244 87.5031 43.7827 88.0079 42.8863L95.5644 29.4681H104.319" stroke="url(#paint0_linear_2208_54149)" stroke-width="3" stroke-linecap="round"/>
<defs>
<linearGradient id="paint0_linear_2208_54149" x1="1.95917" y1="28.9898" x2="124.708" y2="28.9898" gradientUnits="userSpaceOnUse">
<stop stop-color="#F3A735"/>
<stop offset="1" stop-color="#F3A735" stop-opacity="0"/>
</linearGradient>
</defs>
</svg>
