<svg width="236" height="242" viewBox="0 0 236 242" fill="none" xmlns="http://www.w3.org/2000/svg">
<circle cx="111.5" cy="116.5" r="76.5" fill="#192126" stroke="#394150" stroke-width="16"/>
<g filter="url(#filter0_d_2208_55055)">
<path d="M48.3739 73.2872C54.9792 63.638 63.7087 55.6314 73.8916 49.8828C84.0745 44.1341 95.4397 40.7963 107.114 40.1258C118.788 39.4554 130.461 41.4702 141.235 46.0153C152.009 50.5605 161.598 57.5151 169.264 66.3447C176.931 75.1743 182.471 85.644 185.46 96.9492C188.448 108.254 188.805 120.094 186.503 131.559C184.201 143.024 179.302 153.808 172.181 163.084C165.061 172.359 155.908 179.879 145.428 185.065" stroke="#F3A735" stroke-width="16" stroke-linecap="round" stroke-linejoin="round"/>
</g>
<g filter="url(#filter1_d_2208_55055)">
<circle cx="111.5" cy="116.5" r="69.1364" fill="#192126"/>
</g>
<g clip-path="url(#clip0_2208_55055)">
<path fill-rule="evenodd" clip-rule="evenodd" d="M124.163 92.6804C123.458 92.9631 122.689 93.1186 121.883 93.1186C118.498 93.1186 115.754 90.3745 115.754 86.9895C115.754 85.848 116.066 84.7794 116.609 83.8643C114.353 84.769 112.76 86.976 112.76 89.5552C112.76 92.9402 115.504 95.6843 118.889 95.6843C121.133 95.6843 123.095 94.4789 124.163 92.6804Z" fill="#E5E6EB"/>
<g filter="url(#filter2_b_2208_55055)">
<path fill-rule="evenodd" clip-rule="evenodd" d="M124.163 92.6804C123.458 92.9631 122.689 93.1186 121.883 93.1186C118.498 93.1186 115.754 90.3745 115.754 86.9895C115.754 85.848 116.066 84.7794 116.609 83.8643C114.353 84.769 112.76 86.976 112.76 89.5552C112.76 92.9402 115.504 95.6843 118.889 95.6843C121.133 95.6843 123.095 94.4789 124.163 92.6804Z" fill="url(#paint0_linear_2208_55055)"/>
</g>
<path fill-rule="evenodd" clip-rule="evenodd" d="M123.872 92.9154C123.247 93.1251 122.578 93.2387 121.883 93.2387C118.431 93.2387 115.633 90.4408 115.633 86.9895C115.633 85.9536 115.886 84.9762 116.332 84.1158C114.292 85.0766 112.88 87.1512 112.88 89.5552C112.88 92.8739 115.571 95.5642 118.889 95.5642C120.963 95.5642 122.792 94.5138 123.872 92.9154ZM123.979 92.7507C123.325 92.9888 122.619 93.1186 121.883 93.1186C118.498 93.1186 115.754 90.3745 115.754 86.9895C115.754 85.9182 116.028 84.9111 116.511 84.0349C116.543 83.9774 116.576 83.9206 116.609 83.8643C116.548 83.8889 116.487 83.9145 116.426 83.9411C114.268 84.8895 112.76 87.0463 112.76 89.5552C112.76 92.9402 115.504 95.6843 118.889 95.6843C121.062 95.6843 122.97 94.5539 124.059 92.8493C124.094 92.7936 124.129 92.7373 124.163 92.6804C124.102 92.7048 124.041 92.7282 123.979 92.7507Z" fill="url(#paint1_linear_2208_55055)"/>
<g filter="url(#filter3_f_2208_55055)">
<path d="M118.522 107.96C118.522 108.208 115.378 108.41 111.5 108.41C107.622 108.41 104.478 108.208 104.478 107.96C104.478 107.711 107.622 107.51 111.5 107.51C115.378 107.51 118.522 107.711 118.522 107.96Z" fill="#192126"/>
</g>
<g filter="url(#filter4_b_2208_55055)">
<path d="M122.963 100.963C122.963 103.087 121.237 104.809 119.108 104.809H105.162C102.332 104.809 100.037 102.519 100.037 99.694C100.037 96.8694 102.332 94.579 105.162 94.579C105.416 94.579 105.665 94.5984 105.91 94.6338C107.067 92.3399 109.447 90.7657 112.197 90.7657C115.523 90.7657 118.31 93.0713 119.043 96.1687C119.116 96.478 119.169 96.7948 119.199 97.1176V97.1184C121.285 97.1659 122.963 98.8686 122.963 100.963Z" fill="url(#paint2_linear_2208_55055)" fill-opacity="0.8"/>
</g>
<g filter="url(#filter5_b_2208_55055)">
<path fill-rule="evenodd" clip-rule="evenodd" d="M105.978 94.7649L105.893 94.7526C105.653 94.718 105.41 94.699 105.162 94.699C102.398 94.699 100.157 96.9359 100.157 99.694C100.157 102.453 102.398 104.689 105.162 104.689H119.108C121.171 104.689 122.843 103.02 122.843 100.963C122.843 98.9342 121.217 97.2844 119.196 97.2384L119.079 97.2357V97.1232C119.049 96.808 118.997 96.4986 118.926 96.1963C118.206 93.152 115.467 90.8858 112.197 90.8858C109.494 90.8858 107.155 92.4329 106.017 94.6878L105.978 94.7649ZM119.199 97.1176V97.1184C121.285 97.1659 122.963 98.8686 122.963 100.963C122.963 103.087 121.237 104.809 119.108 104.809H105.162C102.332 104.809 100.037 102.519 100.037 99.694C100.037 96.8694 102.332 94.579 105.162 94.579C105.416 94.579 105.665 94.5984 105.91 94.6338C107.067 92.3399 109.447 90.7657 112.197 90.7657C115.523 90.7657 118.31 93.0713 119.043 96.1687C119.116 96.478 119.169 96.7948 119.199 97.1176Z" fill="url(#paint3_linear_2208_55055)"/>
</g>
<path d="M106.579 86.0849L106.862 86.9557H107.777L107.037 87.494L107.32 88.3648L106.579 87.8266L105.838 88.3648L106.121 87.494L105.38 86.9557H106.296L106.579 86.0849Z" fill="white"/>
<path d="M105.949 90.8259L106.09 91.2613H106.548L106.178 91.5304L106.319 91.9658L105.949 91.6967L105.578 91.9658L105.72 91.5304L105.349 91.2613H105.807L105.949 90.8259Z" fill="white"/>
<path d="M102.138 89.9258L102.421 90.7966H103.336L102.596 91.3348L102.879 92.2057L102.138 91.6675L101.397 92.2057L101.68 91.3348L100.939 90.7966H101.855L102.138 89.9258Z" fill="white"/>
</g>
<circle cx="111.5" cy="116.5" r="59.4545" stroke="#6C727F" stroke-width="4" stroke-dasharray="1 6"/>
<circle cx="111.5" cy="116.5" r="58.4545" stroke="white" stroke-width="6" stroke-dasharray="2 48"/>
<path d="M71.1514 138.354H75.7949L84.6133 120.776V117.217H69.4961V120.732H80.248V120.82L71.1514 138.354ZM110.772 123.574V123.647H114.874V123.574C114.874 121.626 116.383 120.19 118.434 120.19C120.396 120.19 121.788 121.45 121.788 123.032C121.788 124.497 121.129 125.566 118.99 127.705L111.021 135.381V138.354H126.388V134.839H116.852V134.751L122.008 129.785C124.337 127.471 126.095 125.493 126.095 122.856C126.095 119.326 123.033 116.748 118.58 116.748C113.966 116.748 110.772 119.575 110.772 123.574ZM134.415 138.354H138.795V117.217H134.4L128.937 121.011V124.995L134.327 121.274H134.415V138.354Z" fill="white"/>
<path d="M86.8496 138.354H88.959V132.417C88.959 130.796 89.916 129.722 91.4785 129.722C92.9629 129.722 93.7246 130.63 93.7246 132.144V138.354H95.8438V131.733C95.8438 129.409 94.4961 127.905 92.2402 127.905C90.6777 127.905 89.5547 128.599 88.9883 129.8H88.9395V124.263H86.8496V138.354ZM143.092 138.354H145.201V132.007C145.201 130.688 146.09 129.712 147.34 129.712C148.531 129.712 149.283 130.464 149.283 131.646V138.354H151.354V131.938C151.354 130.64 152.223 129.712 153.473 129.712C154.723 129.712 155.436 130.474 155.436 131.802V138.354H157.555V131.294C157.555 129.253 156.227 127.905 154.195 127.905C152.73 127.905 151.52 128.667 150.992 129.917H150.943C150.533 128.638 149.498 127.905 148.072 127.905C146.686 127.905 145.611 128.667 145.152 129.81H145.104V128.081H143.092V138.354Z" fill="#9EA3AE"/>
<path d="M160.759 118.528H161.813C162.927 118.528 163.618 119.091 163.618 120.005C163.618 120.831 162.88 121.417 161.849 121.417C160.782 121.417 160.114 120.86 160.032 120.052H158.772C158.854 121.511 160.026 122.513 161.849 122.513C163.612 122.513 164.954 121.499 164.954 120.022C164.954 118.839 164.134 118.06 162.862 117.972V117.948C163.911 117.761 164.602 117.005 164.602 115.95C164.602 114.649 163.436 113.741 161.837 113.741C160.161 113.741 159.042 114.696 158.942 116.179H160.179C160.255 115.347 160.864 114.819 161.778 114.819C162.78 114.819 163.319 115.341 163.319 116.126C163.319 116.923 162.692 117.497 161.778 117.497H160.759V118.528Z" fill="white"/>
<path d="M114.503 167.257C114.503 165.699 113.39 164.544 111.878 164.544C111.316 164.544 110.712 164.773 110.425 165.107L110.337 165.072C110.402 164.949 110.519 164.779 110.607 164.656C110.718 164.497 112.886 161.632 112.986 161.527H111.439C111.351 161.632 109.64 164.011 109.576 164.099C108.738 165.277 108.38 166.22 108.38 167.216C108.38 168.956 109.64 170.175 111.451 170.175C113.244 170.175 114.503 168.974 114.503 167.257ZM109.669 167.298C109.669 166.296 110.437 165.529 111.445 165.529C112.453 165.529 113.226 166.296 113.226 167.298C113.226 168.306 112.453 169.074 111.445 169.074C110.437 169.074 109.669 168.306 109.669 167.298Z" fill="white"/>
<path d="M57.6452 116.624C57.6452 118.183 58.7585 119.337 60.2702 119.337C60.8269 119.337 61.4421 119.091 61.7234 118.769L61.8112 118.81C61.7527 118.915 61.6472 119.085 61.5417 119.226C61.4128 119.396 59.2507 122.267 59.1628 122.354H60.7038C60.7976 122.249 62.5085 119.864 62.5671 119.782C63.4109 118.604 63.7683 117.661 63.7683 116.665C63.7683 114.925 62.5027 113.706 60.698 113.706C58.905 113.706 57.6452 114.907 57.6452 116.624ZM62.4792 116.583C62.4792 117.585 61.7116 118.353 60.7038 118.353C59.6902 118.353 58.9226 117.585 58.9226 116.583C58.9226 115.575 59.6902 114.808 60.7038 114.808C61.7116 114.808 62.4792 115.575 62.4792 116.583Z" fill="white"/>
<path d="M108.737 74.7273H110.02V66.2722H108.725L106.499 67.8542V69.1433L108.708 67.573H108.737V74.7273ZM112.013 68.7507V68.7625H113.255V68.7449C113.255 67.866 113.952 67.198 114.878 67.198C115.757 67.198 116.436 67.7957 116.436 68.5457C116.436 69.2078 116.167 69.6531 115.136 70.7253L112.083 73.8367V74.7273H117.866V73.6199H113.852V73.5906L115.968 71.4636C117.204 70.198 117.731 69.4656 117.731 68.4812C117.731 67.1394 116.53 66.114 114.919 66.114C113.237 66.114 112.013 67.2273 112.013 68.7507Z" fill="white"/>
<defs>
<filter id="filter0_d_2208_55055" x="0.373108" y="0" width="235.627" height="241.067" filterUnits="userSpaceOnUse" color-interpolation-filters="sRGB">
<feFlood flood-opacity="0" result="BackgroundImageFix"/>
<feColorMatrix in="SourceAlpha" type="matrix" values="0 0 0 0 0 0 0 0 0 0 0 0 0 0 0 0 0 0 127 0" result="hardAlpha"/>
<feOffset dy="8"/>
<feGaussianBlur stdDeviation="20"/>
<feComposite in2="hardAlpha" operator="out"/>
<feColorMatrix type="matrix" values="0 0 0 0 0.219608 0 0 0 0 0.25098 0 0 0 0 0.27451 0 0 0 0.08 0"/>
<feBlend mode="normal" in2="BackgroundImageFix" result="effect1_dropShadow_2208_55055"/>
<feBlend mode="normal" in="SourceGraphic" in2="effect1_dropShadow_2208_55055" result="shape"/>
</filter>
<filter id="filter1_d_2208_55055" x="2.36365" y="15.3636" width="218.273" height="218.273" filterUnits="userSpaceOnUse" color-interpolation-filters="sRGB">
<feFlood flood-opacity="0" result="BackgroundImageFix"/>
<feColorMatrix in="SourceAlpha" type="matrix" values="0 0 0 0 0 0 0 0 0 0 0 0 0 0 0 0 0 0 127 0" result="hardAlpha"/>
<feOffset dy="8"/>
<feGaussianBlur stdDeviation="20"/>
<feComposite in2="hardAlpha" operator="out"/>
<feColorMatrix type="matrix" values="0 0 0 0 0.219608 0 0 0 0 0.25098 0 0 0 0 0.27451 0 0 0 0.1 0"/>
<feBlend mode="normal" in2="BackgroundImageFix" result="effect1_dropShadow_2208_55055"/>
<feBlend mode="normal" in="SourceGraphic" in2="effect1_dropShadow_2208_55055" result="shape"/>
</filter>
<filter id="filter2_b_2208_55055" x="50.6846" y="21.7886" width="135.554" height="135.971" filterUnits="userSpaceOnUse" color-interpolation-filters="sRGB">
<feFlood flood-opacity="0" result="BackgroundImageFix"/>
<feGaussianBlur in="BackgroundImage" stdDeviation="31.0378"/>
<feComposite in2="SourceAlpha" operator="in" result="effect1_backgroundBlur_2208_55055"/>
<feBlend mode="normal" in="SourceGraphic" in2="effect1_backgroundBlur_2208_55055" result="shape"/>
</filter>
<filter id="filter3_f_2208_55055" x="89.5801" y="92.6116" width="43.8396" height="30.6966" filterUnits="userSpaceOnUse" color-interpolation-filters="sRGB">
<feFlood flood-opacity="0" result="BackgroundImageFix"/>
<feBlend mode="normal" in="SourceGraphic" in2="BackgroundImageFix" result="shape"/>
<feGaussianBlur stdDeviation="7.44908" result="effect1_foregroundBlur_2208_55055"/>
</filter>
<filter id="filter4_b_2208_55055" x="68.9994" y="59.7279" width="85.0011" height="76.119" filterUnits="userSpaceOnUse" color-interpolation-filters="sRGB">
<feFlood flood-opacity="0" result="BackgroundImageFix"/>
<feGaussianBlur in="BackgroundImage" stdDeviation="15.5189"/>
<feComposite in2="SourceAlpha" operator="in" result="effect1_backgroundBlur_2208_55055"/>
<feBlend mode="normal" in="SourceGraphic" in2="effect1_backgroundBlur_2208_55055" result="shape"/>
</filter>
<filter id="filter5_b_2208_55055" x="68.9994" y="59.7279" width="85.0011" height="76.119" filterUnits="userSpaceOnUse" color-interpolation-filters="sRGB">
<feFlood flood-opacity="0" result="BackgroundImageFix"/>
<feGaussianBlur in="BackgroundImage" stdDeviation="15.5189"/>
<feComposite in2="SourceAlpha" operator="in" result="effect1_backgroundBlur_2208_55055"/>
<feBlend mode="normal" in="SourceGraphic" in2="effect1_backgroundBlur_2208_55055" result="shape"/>
</filter>
<linearGradient id="paint0_linear_2208_55055" x1="114.702" y1="85.5738" x2="125.713" y2="90.3776" gradientUnits="userSpaceOnUse">
<stop stop-color="white"/>
<stop offset="1" stop-color="white" stop-opacity="0"/>
</linearGradient>
<linearGradient id="paint1_linear_2208_55055" x1="111.822" y1="86.6562" x2="117.398" y2="89.1134" gradientUnits="userSpaceOnUse">
<stop stop-color="white"/>
<stop offset="1" stop-color="white" stop-opacity="0"/>
</linearGradient>
<linearGradient id="paint2_linear_2208_55055" x1="103.668" y1="93.2263" x2="123.023" y2="103.825" gradientUnits="userSpaceOnUse">
<stop stop-color="white" stop-opacity="0.7"/>
<stop offset="1" stop-color="white" stop-opacity="0"/>
</linearGradient>
<linearGradient id="paint3_linear_2208_55055" x1="98.2817" y1="94.4664" x2="106.49" y2="100.37" gradientUnits="userSpaceOnUse">
<stop stop-color="white"/>
<stop offset="1" stop-color="white" stop-opacity="0"/>
</linearGradient>
<clipPath id="clip0_2208_55055">
<rect x="96.1364" y="81.1636" width="30.7273" height="30.7273" rx="15.3636" fill="white"/>
</clipPath>
</defs>
</svg>
