<svg width="24" height="24" viewBox="0 0 24 24" fill="none" xmlns="http://www.w3.org/2000/svg">
<path d="M12 1.2V3.6H16.8V6H12V8.4H14.4V10.8H12V13.2H16.8V15.6H12V18H14.4V20.4H12V22.8C12 23.4624 12.5376 24 13.2 24H20.4C21.0624 24 21.6 23.4624 21.6 22.8V1.2C21.6 0.5376 21.0624 0 20.4 0H13.2C12.5376 0 12 0.5376 12 1.2Z" fill="#BDBDBD"/>
<path d="M3.50537 4.79992C3.07529 4.79992 2.84589 4.29295 3.12978 3.96988L5.6248 1.13055C5.82392 0.903944 6.17686 0.903944 6.37598 1.13055L8.871 3.96988C9.15489 4.29295 8.92549 4.79992 8.49541 4.79992H7.20039V23.4999C7.20039 23.7761 6.97653 23.9999 6.70039 23.9999H5.30039C5.02425 23.9999 4.80039 23.7761 4.80039 23.4999V4.79992H3.50537Z" fill="#BDBDBD"/>
</svg>
