<svg width="32" height="32" viewBox="0 0 32 32" fill="none" xmlns="http://www.w3.org/2000/svg">
<path d="M11.2213 9.98507L11.2399 9.98041L11.2581 9.97434C11.5143 9.88893 11.8739 9.79594 12.6313 9.7H19.4C19.9877 9.7 20.3139 9.81943 20.5761 9.91539L20.5806 9.91705L20.5841 9.91831C20.6232 9.93263 20.6652 9.94803 20.7074 9.9626C20.7844 10.0007 20.8573 10.0351 20.9232 10.0663L20.9247 10.067L21.1383 9.61488L20.9247 10.067C21.215 10.2041 21.3777 10.2848 21.5464 10.4536C21.8014 10.7085 21.9426 10.932 22.0149 11.2213L22.0196 11.2399L22.0257 11.2581C22.1111 11.5143 22.2041 11.8739 22.3 12.6313V19.4C22.3 19.9877 22.1806 20.3139 22.0846 20.5761L22.0829 20.5806C22.0683 20.6207 22.0524 20.664 22.0374 20.7073C21.9993 20.7844 21.965 20.8571 21.9338 20.923L21.933 20.9247L22.3851 21.1383L21.933 20.9247C21.7959 21.215 21.7152 21.3777 21.5464 21.5464C21.2915 21.8014 21.068 21.9426 20.7787 22.0149L20.7601 22.0196L20.7419 22.0257C20.4857 22.1111 20.1261 22.2041 19.3687 22.3H12.6C12.0124 22.3 11.6861 22.1806 11.4239 22.0846L11.4194 22.0829L11.4161 22.0817C11.3769 22.0674 11.3348 22.052 11.2927 22.0374C11.2157 21.9993 11.143 21.965 11.0771 21.9339L11.0753 21.933C10.785 21.7959 10.6223 21.7152 10.4536 21.5464C10.1986 21.2915 10.0574 21.068 9.98507 20.7787L9.98041 20.7601L9.97434 20.7419C9.88894 20.4857 9.79595 20.1261 9.7 19.3687V12.6C9.7 12.0123 9.81943 11.6861 9.91539 11.4239L9.91706 11.4194L9.9183 11.416C9.93262 11.3769 9.94803 11.3348 9.9626 11.2926C10.0006 11.2158 10.0349 11.1431 10.066 11.0773L10.067 11.0753L10.067 11.0753C10.2041 10.785 10.2848 10.6223 10.4536 10.4536C10.7085 10.1986 10.932 10.0574 11.2213 9.98507ZM19.4552 7.20305L19.4277 7.2H19.4H12.6C11.6139 7.2 10.9481 7.42222 10.4143 7.63576C9.85566 7.85922 9.29744 8.19545 8.74645 8.74644C8.18901 9.30388 7.95837 9.76518 7.65966 10.3626L7.65279 10.3764L7.64349 10.395L7.63576 10.4143C7.40799 10.9837 7.30306 11.6448 7.20306 12.5448L7.2 12.5723V12.6V19.4C7.2 20.3861 7.42223 21.0519 7.63576 21.5857C7.85922 22.1443 8.19545 22.7026 8.74645 23.2536C9.30389 23.811 9.7652 24.0416 10.3627 24.3403L10.3764 24.3472L10.395 24.3565L10.4143 24.3642C10.9837 24.592 11.6448 24.6969 12.5448 24.7969L12.5723 24.8H12.6H19.4C20.3861 24.8 21.0519 24.5778 21.5857 24.3642C22.1443 24.1408 22.7026 23.8045 23.2536 23.2536C23.811 22.6961 24.0416 22.2348 24.3403 21.6374L24.3472 21.6236L24.3565 21.605L24.3642 21.5857C24.592 21.0163 24.6969 20.3552 24.7969 19.4552L24.8 19.4277V19.4V12.6C24.8 11.6139 24.5778 10.9481 24.3642 10.4143C24.1408 9.85565 23.8045 9.29744 23.2536 8.74644C22.6961 8.18901 22.2348 7.95837 21.6374 7.65966L21.6236 7.65278L21.605 7.64348L21.5857 7.63576C21.0163 7.40799 20.3552 7.30306 19.4552 7.20305ZM16 18.3C14.7644 18.3 13.7 17.3123 13.7 16C13.7 14.7644 14.6877 13.7 16 13.7C17.2356 13.7 18.3 14.6877 18.3 16C18.3 17.2239 17.2239 18.3 16 18.3ZM16 11.2C13.3239 11.2 11.2 13.3239 11.2 16C11.2 18.6761 13.3239 20.8 16 20.8C18.6761 20.8 20.8 18.6761 20.8 16C20.8 14.8267 20.3918 13.7596 19.7077 12.931C19.9148 13.039 20.1503 13.1 20.4 13.1C21.2284 13.1 21.9 12.4284 21.9 11.6C21.9 10.7716 21.2284 10.1 20.4 10.1C19.5716 10.1 18.9 10.7716 18.9 11.6C18.9 11.8497 18.961 12.0852 19.069 12.2923C18.2404 11.6082 17.1733 11.2 16 11.2ZM0.5 16C0.5 7.43959 7.43959 0.5 16 0.5C24.5604 0.5 31.5 7.43959 31.5 16C31.5 24.5604 24.5604 31.5 16 31.5C7.43959 31.5 0.5 24.5604 0.5 16Z" fill="#F3A735" stroke="black"/>
</svg>
