<svg width="247" height="282" viewBox="0 0 247 282" fill="none" xmlns="http://www.w3.org/2000/svg">
<path d="M23.4786 113.02C23.8706 112.973 24.2906 112.941 24.7386 112.922C25.1959 112.894 25.6766 112.88 26.1806 112.88C26.7872 112.88 27.3286 112.955 27.8046 113.104C28.2806 113.253 28.6819 113.459 29.0086 113.72C29.3352 113.981 29.5826 114.299 29.7506 114.672C29.9186 115.036 30.0026 115.433 30.0026 115.862C30.0026 116.385 29.8999 116.851 29.6946 117.262C29.4986 117.663 29.2186 118.004 28.8546 118.284C28.4999 118.564 28.0706 118.779 27.5666 118.928C27.0626 119.068 26.5072 119.138 25.9006 119.138C25.5086 119.138 25.1446 119.124 24.8086 119.096V122.792H23.4786V113.02ZM26.0686 118.032C26.9086 118.032 27.5526 117.85 28.0006 117.486C28.4579 117.113 28.6866 116.609 28.6866 115.974C28.6866 115.367 28.4672 114.887 28.0286 114.532C27.5992 114.177 26.9739 114 26.1526 114C25.9006 114 25.6626 114.005 25.4386 114.014C25.2146 114.023 25.0046 114.037 24.8086 114.056V117.962C24.9579 117.981 25.1352 117.999 25.3406 118.018C25.5552 118.027 25.7979 118.032 26.0686 118.032ZM32.7333 116.674C32.9947 116.291 33.3213 115.974 33.7133 115.722C34.1147 115.47 34.5907 115.344 35.1413 115.344C35.9627 115.344 36.574 115.591 36.9753 116.086C37.386 116.581 37.5913 117.234 37.5913 118.046V122.792H36.3313V118.186C36.3313 117.654 36.21 117.234 35.9673 116.926C35.734 116.609 35.3933 116.45 34.9453 116.45C34.7307 116.45 34.516 116.492 34.3013 116.576C34.096 116.651 33.9 116.758 33.7133 116.898C33.5267 117.038 33.3493 117.201 33.1813 117.388C33.0133 117.575 32.864 117.771 32.7333 117.976V122.792H31.4733V112.432H32.7333V116.674ZM39.9405 126.04C39.6605 126.04 39.4132 126.012 39.1985 125.956C38.9932 125.9 38.8298 125.835 38.7085 125.76L38.9885 124.71C39.1005 124.775 39.2358 124.831 39.3945 124.878C39.5625 124.925 39.7538 124.948 39.9685 124.948C40.1645 124.948 40.3465 124.92 40.5145 124.864C40.6918 124.808 40.8598 124.71 41.0185 124.57C41.1772 124.43 41.3265 124.239 41.4665 123.996C41.6158 123.753 41.7605 123.45 41.9005 123.086L42.2225 122.246H41.5505L38.7085 115.848L39.8285 115.344L42.5445 121.406L44.6585 115.4L45.8205 115.848L43.1465 123.156C42.9412 123.716 42.7218 124.178 42.4885 124.542C42.2645 124.915 42.0218 125.214 41.7605 125.438C41.4992 125.662 41.2145 125.816 40.9065 125.9C40.6078 125.993 40.2858 126.04 39.9405 126.04ZM46.9886 121.154C47.2313 121.369 47.5346 121.541 47.8986 121.672C48.2719 121.803 48.6686 121.868 49.0886 121.868C49.6113 121.868 50.0033 121.784 50.2646 121.616C50.5353 121.439 50.6706 121.215 50.6706 120.944C50.6706 120.804 50.6426 120.673 50.5866 120.552C50.5399 120.431 50.4466 120.314 50.3066 120.202C50.1759 120.09 49.9939 119.983 49.7606 119.88C49.5273 119.768 49.2239 119.647 48.8506 119.516C48.1599 119.283 47.6466 119.007 47.3106 118.69C46.9746 118.363 46.8066 117.915 46.8066 117.346C46.8066 117.066 46.8673 116.805 46.9886 116.562C47.1193 116.319 47.3013 116.109 47.5346 115.932C47.7773 115.745 48.0666 115.601 48.4026 115.498C48.7479 115.395 49.1399 115.344 49.5786 115.344C50.0546 115.344 50.4699 115.395 50.8246 115.498C51.1886 115.591 51.5153 115.713 51.8046 115.862L51.4546 116.898C51.2026 116.749 50.9133 116.627 50.5866 116.534C50.2693 116.441 49.9146 116.394 49.5226 116.394C49.0373 116.394 48.6686 116.492 48.4166 116.688C48.1646 116.884 48.0386 117.099 48.0386 117.332C48.0386 117.444 48.0573 117.547 48.0946 117.64C48.1413 117.733 48.2206 117.822 48.3326 117.906C48.4446 117.99 48.5939 118.074 48.7806 118.158C48.9673 118.242 49.2006 118.331 49.4806 118.424C49.9379 118.583 50.3253 118.746 50.6426 118.914C50.9599 119.073 51.2166 119.25 51.4126 119.446C51.6086 119.642 51.7486 119.857 51.8326 120.09C51.9166 120.314 51.9586 120.566 51.9586 120.846C51.9586 121.173 51.8886 121.467 51.7486 121.728C51.6086 121.989 51.4126 122.213 51.1606 122.4C50.9086 122.577 50.6006 122.713 50.2366 122.806C49.8819 122.909 49.4853 122.96 49.0466 122.96C48.4866 122.96 47.9873 122.89 47.5486 122.75C47.1099 122.61 46.7459 122.428 46.4566 122.204L46.9886 121.154ZM54.8954 122.792H53.6354V115.512H54.8954V122.792ZM54.2654 114.266C54.0228 114.266 53.8128 114.182 53.6354 114.014C53.4674 113.837 53.3834 113.627 53.3834 113.384C53.3834 113.113 53.4628 112.899 53.6214 112.74C53.7801 112.581 53.9948 112.502 54.2654 112.502C54.5081 112.502 54.7134 112.591 54.8814 112.768C55.0588 112.936 55.1474 113.141 55.1474 113.384C55.1474 113.655 55.0681 113.869 54.9094 114.028C54.7508 114.187 54.5361 114.266 54.2654 114.266ZM61.7834 116.842C61.5128 116.711 61.2608 116.618 61.0274 116.562C60.7941 116.497 60.5328 116.464 60.2434 116.464C59.9168 116.464 59.6088 116.525 59.3194 116.646C59.0394 116.767 58.7968 116.945 58.5914 117.178C58.3861 117.402 58.2228 117.677 58.1014 118.004C57.9894 118.331 57.9334 118.704 57.9334 119.124C57.9334 119.507 57.9848 119.861 58.0874 120.188C58.1994 120.515 58.3534 120.804 58.5494 121.056C58.7454 121.299 58.9788 121.49 59.2494 121.63C59.5201 121.77 59.8234 121.84 60.1594 121.84C60.5141 121.84 60.8174 121.803 61.0694 121.728C61.3214 121.653 61.5921 121.537 61.8814 121.378L62.2734 122.442C61.9748 122.601 61.6481 122.727 61.2934 122.82C60.9388 122.913 60.5328 122.96 60.0754 122.96C59.5528 122.96 59.0814 122.867 58.6614 122.68C58.2414 122.493 57.8821 122.232 57.5834 121.896C57.2848 121.56 57.0514 121.159 56.8834 120.692C56.7248 120.225 56.6454 119.712 56.6454 119.152C56.6454 118.629 56.7248 118.139 56.8834 117.682C57.0514 117.215 57.2894 116.809 57.5974 116.464C57.9054 116.119 58.2741 115.848 58.7034 115.652C59.1421 115.447 59.6321 115.344 60.1734 115.344C60.5934 115.344 60.9574 115.381 61.2654 115.456C61.5734 115.531 61.8721 115.638 62.1614 115.778L61.7834 116.842ZM63.1122 119.194C63.1122 118.653 63.1962 118.149 63.3642 117.682C63.5322 117.206 63.7656 116.795 64.0642 116.45C64.3722 116.105 64.7362 115.834 65.1562 115.638C65.5856 115.442 66.0522 115.344 66.5562 115.344C66.9762 115.344 67.3542 115.419 67.6902 115.568C68.0356 115.708 68.3342 115.885 68.5862 116.1V115.512H69.7342V121.028C69.7342 121.383 69.8182 121.616 69.9862 121.728C70.1636 121.831 70.3549 121.882 70.5602 121.882L70.2942 122.862C69.3982 122.862 68.8569 122.498 68.6702 121.77C68.5582 121.919 68.4276 122.069 68.2782 122.218C68.1382 122.358 67.9749 122.484 67.7882 122.596C67.6016 122.708 67.3916 122.797 67.1582 122.862C66.9249 122.927 66.6682 122.96 66.3882 122.96C65.9309 122.96 65.5016 122.871 65.1002 122.694C64.7082 122.517 64.3629 122.265 64.0642 121.938C63.7749 121.611 63.5416 121.219 63.3642 120.762C63.1962 120.295 63.1122 119.773 63.1122 119.194ZM66.6682 121.84C67.0229 121.84 67.3589 121.756 67.6762 121.588C67.9936 121.42 68.2596 121.201 68.4742 120.93V117.024C68.2222 116.847 67.9422 116.707 67.6342 116.604C67.3356 116.492 67.0182 116.436 66.6822 116.436C66.3462 116.436 66.0382 116.501 65.7582 116.632C65.4782 116.763 65.2356 116.949 65.0302 117.192C64.8342 117.425 64.6802 117.71 64.5682 118.046C64.4562 118.382 64.4002 118.751 64.4002 119.152C64.4002 119.544 64.4562 119.908 64.5682 120.244C64.6802 120.571 64.8389 120.855 65.0442 121.098C65.2496 121.331 65.4876 121.513 65.7582 121.644C66.0382 121.775 66.3416 121.84 66.6682 121.84ZM73.4329 120.384C73.4329 120.888 73.5355 121.261 73.7409 121.504C73.9555 121.747 74.2495 121.868 74.6229 121.868C74.8002 121.868 74.9729 121.849 75.1409 121.812C75.3089 121.765 75.4582 121.714 75.5889 121.658L75.8969 122.68C75.7289 122.755 75.5189 122.82 75.2669 122.876C75.0242 122.932 74.7535 122.96 74.4549 122.96C74.1282 122.96 73.8249 122.913 73.5449 122.82C73.2742 122.727 73.0362 122.582 72.8309 122.386C72.6255 122.19 72.4622 121.938 72.3409 121.63C72.2289 121.322 72.1729 120.949 72.1729 120.51V112.432H73.4329V120.384Z" fill="#BDBDBD"/>
<rect opacity="0.3" x="1.45587" y="1.45605" width="97.5441" height="96.0882" rx="48.0441" fill="#E37C00"/>
<g clip-path="url(#clip0_1587_51521)">
<path d="M62.9669 44.8906V50.8652H57.5219C57.3618 50.8524 57.0148 50.6614 56.9347 50.5212L55.5468 48.0116C54.9996 47.018 54.052 46.4575 53.0378 46.5084C52.0235 46.5594 51.1561 47.2091 50.7157 48.2664L48.874 52.6741L48.607 52.0117C47.9531 50.3938 46.0847 49.1709 44.243 49.1709L36.2757 49.2091V44.8906C36.2757 40.2536 39.1717 37.4893 44.0295 37.4893H55.2131C60.0709 37.4893 62.9669 40.2536 62.9669 44.8906Z" fill="white"/>
<path d="M62.9669 55.5657V52.7759H57.5219C56.6277 52.7759 55.5734 52.1644 55.1597 51.4128L53.7718 48.9032C53.3981 48.2281 52.8643 48.2663 52.5707 48.9669L49.5012 56.3683C49.1676 57.1963 48.607 57.1963 48.2601 56.3683L46.7387 52.6995C46.3783 51.8077 45.2573 51.0816 44.2564 51.0816L36.2757 51.1198V55.5657C36.2757 60.1263 39.0783 62.8779 43.7893 62.9543C43.9361 62.9671 44.0962 62.9671 44.243 62.9671H54.9195C55.1197 62.9671 55.3199 62.9671 55.5067 62.9543C60.191 62.8524 62.9669 60.1135 62.9669 55.5657Z" fill="white"/>
<path d="M36.2757 51.1201V55.3367C36.249 54.9291 36.2357 54.4959 36.2357 54.0501V51.1201H36.2757Z" fill="white"/>
</g>
<path d="M65.5855 256.887L62.9675 262.781H61.6515L59.0195 256.887V264.993H57.7595V255.193H59.6215L62.3375 261.395L65.0115 255.193H66.9155V264.993H65.5855V256.887ZM70.0932 261.871C70.1772 262.552 70.4152 263.084 70.8072 263.467C71.1992 263.849 71.7172 264.041 72.3612 264.041C72.7812 264.041 73.1592 263.999 73.4952 263.915C73.8312 263.821 74.1532 263.705 74.4612 263.565L74.7552 264.643C74.4192 264.801 74.0412 264.927 73.6212 265.021C73.2012 265.114 72.7299 265.161 72.2072 265.161C71.6846 265.161 71.2132 265.077 70.7932 264.909C70.3732 264.731 70.0139 264.484 69.7152 264.167C69.4259 263.84 69.2019 263.443 69.0432 262.977C68.8846 262.501 68.8052 261.959 68.8052 261.353C68.8052 260.811 68.8846 260.307 69.0432 259.841C69.2019 259.374 69.4259 258.973 69.7152 258.637C70.0046 258.291 70.3499 258.025 70.7512 257.839C71.1526 257.643 71.6006 257.545 72.0952 257.545C72.6179 257.545 73.0752 257.633 73.4672 257.811C73.8592 257.988 74.1859 258.231 74.4472 258.539C74.7086 258.847 74.9046 259.206 75.0352 259.617C75.1659 260.027 75.2312 260.461 75.2312 260.919C75.2312 261.245 75.2172 261.563 75.1892 261.871H70.0932ZM72.0672 258.637C71.5166 258.637 71.0639 258.823 70.7092 259.197C70.3639 259.57 70.1539 260.121 70.0792 260.849H74.0692C74.0692 260.139 73.8919 259.593 73.5372 259.211C73.1826 258.828 72.6926 258.637 72.0672 258.637ZM78.1285 258.931C78.3898 258.539 78.7211 258.212 79.1225 257.951C79.5331 257.68 80.0185 257.545 80.5785 257.545C81.3998 257.545 82.0111 257.792 82.4125 258.287C82.8231 258.781 83.0285 259.435 83.0285 260.247V264.993H81.7685V260.387C81.7685 259.855 81.6471 259.435 81.4045 259.127C81.1618 258.809 80.8165 258.651 80.3685 258.651C80.1538 258.651 79.9438 258.693 79.7385 258.777C79.5331 258.851 79.3325 258.959 79.1365 259.099C78.9498 259.239 78.7725 259.402 78.6045 259.589C78.4458 259.775 78.3011 259.971 78.1705 260.177V264.993H76.9105V257.713H78.1285V258.931ZM85.7696 255.683H86.7356V257.979H88.7516V259.071H86.7356V262.585C86.7356 262.855 86.7636 263.084 86.8196 263.271C86.885 263.457 86.969 263.607 87.0716 263.719C87.1743 263.831 87.2956 263.915 87.4356 263.971C87.585 264.017 87.739 264.041 87.8976 264.041C88.131 264.041 88.3503 264.003 88.5556 263.929C88.761 263.854 88.957 263.765 89.1436 263.663L89.4936 264.671C89.307 264.783 89.055 264.89 88.7376 264.993C88.4203 265.105 88.089 265.161 87.7436 265.161C87.0436 265.161 86.4883 264.932 86.0776 264.475C85.6763 264.017 85.4756 263.355 85.4756 262.487V259.071H84.2156V257.979H85.5036L85.7696 255.683ZM89.9966 261.395C89.9966 260.853 90.0806 260.349 90.2486 259.883C90.4166 259.407 90.65 258.996 90.9486 258.651C91.2566 258.305 91.6206 258.035 92.0406 257.839C92.47 257.643 92.9366 257.545 93.4406 257.545C93.8606 257.545 94.2386 257.619 94.5746 257.769C94.92 257.909 95.2186 258.086 95.4706 258.301V257.713H96.6186V263.229C96.6186 263.583 96.7026 263.817 96.8706 263.929C97.048 264.031 97.2393 264.083 97.4446 264.083L97.1786 265.063C96.2826 265.063 95.7413 264.699 95.5546 263.971C95.4426 264.12 95.312 264.269 95.1626 264.419C95.0226 264.559 94.8593 264.685 94.6726 264.797C94.486 264.909 94.276 264.997 94.0426 265.063C93.8093 265.128 93.5526 265.161 93.2726 265.161C92.8153 265.161 92.386 265.072 91.9846 264.895C91.5926 264.717 91.2473 264.465 90.9486 264.139C90.6593 263.812 90.426 263.42 90.2486 262.963C90.0806 262.496 89.9966 261.973 89.9966 261.395ZM93.5526 264.041C93.9073 264.041 94.2433 263.957 94.5606 263.789C94.878 263.621 95.144 263.401 95.3586 263.131V259.225C95.1066 259.047 94.8266 258.907 94.5186 258.805C94.22 258.693 93.9026 258.637 93.5666 258.637C93.2306 258.637 92.9226 258.702 92.6426 258.833C92.3626 258.963 92.12 259.15 91.9146 259.393C91.7186 259.626 91.5646 259.911 91.4526 260.247C91.3406 260.583 91.2846 260.951 91.2846 261.353C91.2846 261.745 91.3406 262.109 91.4526 262.445C91.5646 262.771 91.7233 263.056 91.9286 263.299C92.134 263.532 92.372 263.714 92.6426 263.845C92.9226 263.975 93.226 264.041 93.5526 264.041ZM100.317 262.585C100.317 263.089 100.42 263.462 100.625 263.705C100.84 263.947 101.134 264.069 101.507 264.069C101.685 264.069 101.857 264.05 102.025 264.013C102.193 263.966 102.343 263.915 102.473 263.859L102.781 264.881C102.613 264.955 102.403 265.021 102.151 265.077C101.909 265.133 101.638 265.161 101.339 265.161C101.013 265.161 100.709 265.114 100.429 265.021C100.159 264.927 99.9206 264.783 99.7153 264.587C99.5099 264.391 99.3466 264.139 99.2253 263.831C99.1133 263.523 99.0573 263.149 99.0573 262.711V254.633H100.317V262.585Z" fill="#BDBDBD"/>
<rect opacity="0.3" x="36.3235" y="153.324" width="88.6765" height="87.3529" rx="43.6765" fill="#1787E7"/>
<path d="M72.0588 201.918H62.7936C59.1391 201.918 56.1765 198.851 56.1765 195.064C56.1765 191.279 59.1385 188.21 62.7936 188.21C62.7936 183.669 66.3486 179.987 70.7353 179.986C74.3898 176.201 80.3166 176.201 83.9706 179.986C89.8185 179.986 94.5594 184.895 94.5594 190.953V192.061C96.9301 193.484 98.5294 196.134 98.5294 199.178C98.5294 203.719 94.9739 207.402 90.5882 207.402H86.4599C86.9925 210.379 88.3642 213.226 90.5882 215.529H85.2947C82.9901 213.142 81.3082 210.362 80.2139 207.402H77.3519C74.4285 207.402 72.0588 204.947 72.0588 201.918Z" fill="#1787E7"/>
<path d="M170.638 260.899H176.448V262.047H171.968V265.043H175.706V266.135H171.968V270.699H170.638V260.899ZM178.895 270.699H177.635V263.419H178.895V270.699ZM178.265 262.173C178.022 262.173 177.812 262.089 177.635 261.921C177.467 261.744 177.383 261.534 177.383 261.291C177.383 261.021 177.462 260.806 177.621 260.647C177.78 260.489 177.994 260.409 178.265 260.409C178.508 260.409 178.713 260.498 178.881 260.675C179.058 260.843 179.147 261.049 179.147 261.291C179.147 261.562 179.068 261.777 178.909 261.935C178.75 262.094 178.536 262.173 178.265 262.173ZM182.353 264.637C182.614 264.245 182.946 263.919 183.347 263.657C183.758 263.387 184.243 263.251 184.803 263.251C185.624 263.251 186.236 263.499 186.637 263.993C187.048 264.488 187.253 265.141 187.253 265.953V270.699H185.993V266.093C185.993 265.561 185.872 265.141 185.629 264.833C185.386 264.516 185.041 264.357 184.593 264.357C184.378 264.357 184.168 264.399 183.963 264.483C183.758 264.558 183.557 264.665 183.361 264.805C183.174 264.945 182.997 265.109 182.829 265.295C182.67 265.482 182.526 265.678 182.395 265.883V270.699H181.135V263.419H182.353V264.637ZM188.93 267.101C188.93 266.56 189.014 266.056 189.182 265.589C189.35 265.113 189.584 264.703 189.882 264.357C190.19 264.012 190.554 263.741 190.974 263.545C191.404 263.349 191.87 263.251 192.374 263.251C192.794 263.251 193.172 263.326 193.508 263.475C193.854 263.615 194.152 263.793 194.404 264.007V263.419H195.552V268.935C195.552 269.29 195.636 269.523 195.804 269.635C195.982 269.738 196.173 269.789 196.378 269.789L196.112 270.769C195.216 270.769 194.675 270.405 194.488 269.677C194.376 269.827 194.246 269.976 194.096 270.125C193.956 270.265 193.793 270.391 193.606 270.503C193.42 270.615 193.21 270.704 192.976 270.769C192.743 270.835 192.486 270.867 192.206 270.867C191.749 270.867 191.32 270.779 190.918 270.601C190.526 270.424 190.181 270.172 189.882 269.845C189.593 269.519 189.36 269.127 189.182 268.669C189.014 268.203 188.93 267.68 188.93 267.101ZM192.486 269.747C192.841 269.747 193.177 269.663 193.494 269.495C193.812 269.327 194.078 269.108 194.292 268.837V264.931C194.04 264.754 193.76 264.614 193.452 264.511C193.154 264.399 192.836 264.343 192.5 264.343C192.164 264.343 191.856 264.409 191.576 264.539C191.296 264.67 191.054 264.857 190.848 265.099C190.652 265.333 190.498 265.617 190.386 265.953C190.274 266.289 190.218 266.658 190.218 267.059C190.218 267.451 190.274 267.815 190.386 268.151C190.498 268.478 190.657 268.763 190.862 269.005C191.068 269.239 191.306 269.421 191.576 269.551C191.856 269.682 192.16 269.747 192.486 269.747ZM199.279 264.637C199.54 264.245 199.871 263.919 200.273 263.657C200.683 263.387 201.169 263.251 201.729 263.251C202.55 263.251 203.161 263.499 203.563 263.993C203.973 264.488 204.179 265.141 204.179 265.953V270.699H202.919V266.093C202.919 265.561 202.797 265.141 202.555 264.833C202.312 264.516 201.967 264.357 201.519 264.357C201.304 264.357 201.094 264.399 200.889 264.483C200.683 264.558 200.483 264.665 200.287 264.805C200.1 264.945 199.923 265.109 199.755 265.295C199.596 265.482 199.451 265.678 199.321 265.883V270.699H198.061V263.419H199.279V264.637ZM210.994 264.749C210.723 264.619 210.471 264.525 210.238 264.469C210.005 264.404 209.743 264.371 209.454 264.371C209.127 264.371 208.819 264.432 208.53 264.553C208.25 264.675 208.007 264.852 207.802 265.085C207.597 265.309 207.433 265.585 207.312 265.911C207.2 266.238 207.144 266.611 207.144 267.031C207.144 267.414 207.195 267.769 207.298 268.095C207.41 268.422 207.564 268.711 207.76 268.963C207.956 269.206 208.189 269.397 208.46 269.537C208.731 269.677 209.034 269.747 209.37 269.747C209.725 269.747 210.028 269.71 210.28 269.635C210.532 269.561 210.803 269.444 211.092 269.285L211.484 270.349C211.185 270.508 210.859 270.634 210.504 270.727C210.149 270.821 209.743 270.867 209.286 270.867C208.763 270.867 208.292 270.774 207.872 270.587C207.452 270.401 207.093 270.139 206.794 269.803C206.495 269.467 206.262 269.066 206.094 268.599C205.935 268.133 205.856 267.619 205.856 267.059C205.856 266.537 205.935 266.047 206.094 265.589C206.262 265.123 206.5 264.717 206.808 264.371C207.116 264.026 207.485 263.755 207.914 263.559C208.353 263.354 208.843 263.251 209.384 263.251C209.804 263.251 210.168 263.289 210.476 263.363C210.784 263.438 211.083 263.545 211.372 263.685L210.994 264.749ZM214.209 270.699H212.949V263.419H214.209V270.699ZM213.579 262.173C213.337 262.173 213.127 262.089 212.949 261.921C212.781 261.744 212.697 261.534 212.697 261.291C212.697 261.021 212.777 260.806 212.935 260.647C213.094 260.489 213.309 260.409 213.579 260.409C213.822 260.409 214.027 260.498 214.195 260.675C214.373 260.843 214.461 261.049 214.461 261.291C214.461 261.562 214.382 261.777 214.223 261.935C214.065 262.094 213.85 262.173 213.579 262.173ZM215.959 267.101C215.959 266.56 216.043 266.056 216.211 265.589C216.379 265.113 216.613 264.703 216.911 264.357C217.219 264.012 217.583 263.741 218.003 263.545C218.433 263.349 218.899 263.251 219.403 263.251C219.823 263.251 220.201 263.326 220.537 263.475C220.883 263.615 221.181 263.793 221.433 264.007V263.419H222.581V268.935C222.581 269.29 222.665 269.523 222.833 269.635C223.011 269.738 223.202 269.789 223.407 269.789L223.141 270.769C222.245 270.769 221.704 270.405 221.517 269.677C221.405 269.827 221.275 269.976 221.125 270.125C220.985 270.265 220.822 270.391 220.635 270.503C220.449 270.615 220.239 270.704 220.005 270.769C219.772 270.835 219.515 270.867 219.235 270.867C218.778 270.867 218.349 270.779 217.947 270.601C217.555 270.424 217.21 270.172 216.911 269.845C216.622 269.519 216.389 269.127 216.211 268.669C216.043 268.203 215.959 267.68 215.959 267.101ZM219.515 269.747C219.87 269.747 220.206 269.663 220.523 269.495C220.841 269.327 221.107 269.108 221.321 268.837V264.931C221.069 264.754 220.789 264.614 220.481 264.511C220.183 264.399 219.865 264.343 219.529 264.343C219.193 264.343 218.885 264.409 218.605 264.539C218.325 264.67 218.083 264.857 217.877 265.099C217.681 265.333 217.527 265.617 217.415 265.953C217.303 266.289 217.247 266.658 217.247 267.059C217.247 267.451 217.303 267.815 217.415 268.151C217.527 268.478 217.686 268.763 217.891 269.005C218.097 269.239 218.335 269.421 218.605 269.551C218.885 269.682 219.189 269.747 219.515 269.747ZM226.28 268.291C226.28 268.795 226.383 269.169 226.588 269.411C226.803 269.654 227.097 269.775 227.47 269.775C227.647 269.775 227.82 269.757 227.988 269.719C228.156 269.673 228.305 269.621 228.436 269.565L228.744 270.587C228.576 270.662 228.366 270.727 228.114 270.783C227.871 270.839 227.601 270.867 227.302 270.867C226.975 270.867 226.672 270.821 226.392 270.727C226.121 270.634 225.883 270.489 225.678 270.293C225.473 270.097 225.309 269.845 225.188 269.537C225.076 269.229 225.02 268.856 225.02 268.417V260.339H226.28V268.291Z" fill="#BDBDBD"/>
<rect opacity="0.3" x="153.387" y="154.387" width="92.9355" height="91.5484" rx="45.7742" fill="#26DBDC"/>
<path d="M200.391 189.011C199.003 189.011 197.671 188.789 196.339 188.345C195.618 188.123 195.285 187.346 195.507 186.68C195.729 185.958 196.506 185.625 197.172 185.847C198.226 186.236 199.392 186.402 200.502 186.347C201.501 186.347 202.5 186.18 203.443 185.847C204.165 185.625 204.886 186.014 205.108 186.68C205.33 187.401 204.942 188.123 204.276 188.345C203.055 188.733 201.778 188.955 200.502 188.955C200.502 189.011 200.446 189.011 200.391 189.011ZM204.831 179.742C204.22 179.964 203.61 180.075 202.999 180.131C202.888 180.131 202.777 180.131 202.666 180.131C202.611 180.131 202.611 180.131 202.611 180.131C201.778 180.075 200.946 179.853 200.224 179.187C199.17 178.244 198.004 177.911 197.005 177.855H196.95H196.894C195.895 177.855 194.841 178.41 194.008 178.854C193.342 179.243 193.176 180.186 193.62 180.797L196.672 184.904C196.95 184.904 197.227 184.904 197.505 185.015C198.504 185.348 199.503 185.514 200.557 185.514C201.501 185.514 202.389 185.348 203.277 185.07C203.665 184.959 204.109 184.904 204.553 185.015C204.664 184.904 204.775 184.737 204.831 184.515C205.053 183.683 205.663 182.517 206.274 181.352C206.718 180.464 205.83 179.409 204.831 179.742ZM214.266 219.813C214.266 219.813 204.942 221.978 200.391 221.756C195.895 221.978 186.516 219.813 186.516 219.813C180.688 220.035 185.35 216.594 185.35 216.594C185.35 216.594 182.797 210.545 183.963 204.329C186.183 192.174 194.397 189.566 196.117 189.177C197.505 189.621 198.892 189.843 200.391 189.843C200.446 189.843 200.502 189.843 200.613 189.843C201.945 189.843 203.332 189.621 204.609 189.177C206.163 189.843 215.043 194.006 216.153 204.773C216.819 211.044 215.487 216.594 215.487 216.594C215.487 216.594 220.093 220.035 214.266 219.813ZM202.999 205.106C202.278 204.717 201.445 204.384 200.668 204.051C200.224 203.885 199.78 203.663 199.392 203.33C198.67 202.719 198.781 201.776 199.669 201.387C199.891 201.276 200.169 201.221 200.446 201.221C201.445 201.165 202.444 201.332 203.332 201.776C203.776 201.998 203.943 201.942 204.109 201.443C204.276 200.943 204.387 200.444 204.553 199.889C204.664 199.556 204.498 199.334 204.22 199.167C203.61 198.89 202.999 198.723 202.389 198.612C201.556 198.501 201.556 198.501 201.556 197.669C201.556 196.503 201.556 196.503 200.391 196.503C200.224 196.503 200.058 196.503 199.891 196.503C199.336 196.503 199.225 196.614 199.225 197.169C199.225 197.391 199.225 197.669 199.225 197.891C199.225 198.612 199.225 198.612 198.504 198.89C196.783 199.5 195.729 200.666 195.618 202.553C195.507 204.218 196.395 205.328 197.727 206.16C198.559 206.66 199.503 206.937 200.391 207.326C200.724 207.492 201.057 207.659 201.334 207.881C202.167 208.602 202.056 209.768 201.001 210.212C200.446 210.434 199.891 210.489 199.281 210.434C198.393 210.323 197.505 210.101 196.672 209.657C196.173 209.379 196.062 209.49 195.895 209.99C195.729 210.434 195.618 210.878 195.507 211.322C195.34 211.932 195.396 212.043 196.006 212.376C196.728 212.709 197.56 212.931 198.337 213.042C198.948 213.153 199.003 213.153 199.003 213.819C199.003 214.097 199.003 214.43 199.003 214.707C199.003 215.096 199.17 215.318 199.558 215.318C200.002 215.318 200.446 215.318 200.89 215.318C201.223 215.318 201.445 215.096 201.445 214.763C201.445 214.374 201.445 213.93 201.445 213.542C201.445 213.153 201.612 212.931 202 212.82C202.888 212.598 203.721 212.099 204.276 211.377C205.996 209.379 205.386 206.382 202.999 205.106Z" fill="#26DBDC"/>
<path d="M140.262 114.317V122.409H139.002V112.609H140.766L145.092 120.757V112.609H146.352V122.409H144.616L140.262 114.317ZM155.243 122.479C154.795 122.479 154.441 122.39 154.179 122.213C153.918 122.035 153.736 121.779 153.633 121.443C153.307 121.779 152.929 122.054 152.499 122.269C152.079 122.474 151.617 122.577 151.113 122.577C150.796 122.577 150.488 122.525 150.189 122.423C149.9 122.329 149.639 122.175 149.405 121.961C149.181 121.746 148.999 121.466 148.859 121.121C148.729 120.775 148.663 120.355 148.663 119.861V115.129H149.923V119.693C149.923 120.262 150.04 120.701 150.273 121.009C150.516 121.307 150.875 121.457 151.351 121.457C151.743 121.457 152.117 121.382 152.471 121.233C152.826 121.074 153.143 120.864 153.423 120.603V115.129H154.683V120.519C154.683 120.724 154.707 120.892 154.753 121.023C154.8 121.144 154.861 121.242 154.935 121.317C155.01 121.382 155.099 121.429 155.201 121.457C155.304 121.485 155.407 121.499 155.509 121.499L155.243 122.479ZM157.757 113.099H158.723V115.395H160.739V116.487H158.723V120.001C158.723 120.271 158.751 120.5 158.807 120.687C158.872 120.873 158.956 121.023 159.059 121.135C159.161 121.247 159.283 121.331 159.423 121.387C159.572 121.433 159.726 121.457 159.885 121.457C160.118 121.457 160.337 121.419 160.543 121.345C160.748 121.27 160.944 121.181 161.131 121.079L161.481 122.087C161.294 122.199 161.042 122.306 160.725 122.409C160.407 122.521 160.076 122.577 159.731 122.577C159.031 122.577 158.475 122.348 158.065 121.891C157.663 121.433 157.463 120.771 157.463 119.903V116.487H156.203V115.395H157.491L157.757 113.099ZM166.695 116.347C166.518 116.272 166.308 116.235 166.065 116.235C165.804 116.235 165.547 116.291 165.295 116.403C165.052 116.515 164.833 116.683 164.637 116.907C164.45 117.131 164.296 117.42 164.175 117.775C164.063 118.12 164.007 118.531 164.007 119.007V122.409H162.747V115.129H163.965V116.711C164.049 116.487 164.161 116.267 164.301 116.053C164.441 115.838 164.604 115.651 164.791 115.493C164.987 115.334 165.211 115.208 165.463 115.115C165.715 115.012 165.995 114.961 166.303 114.961C166.443 114.961 166.578 114.97 166.709 114.989C166.849 114.998 166.97 115.017 167.073 115.045L166.695 116.347ZM169.599 122.409H168.339V115.129H169.599V122.409ZM168.969 113.883C168.726 113.883 168.516 113.799 168.339 113.631C168.171 113.453 168.087 113.243 168.087 113.001C168.087 112.73 168.166 112.515 168.325 112.357C168.484 112.198 168.698 112.119 168.969 112.119C169.212 112.119 169.417 112.207 169.585 112.385C169.762 112.553 169.851 112.758 169.851 113.001C169.851 113.271 169.772 113.486 169.613 113.645C169.454 113.803 169.24 113.883 168.969 113.883ZM172.413 113.099H173.379V115.395H175.395V116.487H173.379V120.001C173.379 120.271 173.407 120.5 173.463 120.687C173.528 120.873 173.612 121.023 173.715 121.135C173.818 121.247 173.939 121.331 174.079 121.387C174.228 121.433 174.382 121.457 174.541 121.457C174.774 121.457 174.994 121.419 175.199 121.345C175.404 121.27 175.6 121.181 175.787 121.079L176.137 122.087C175.95 122.199 175.698 122.306 175.381 122.409C175.064 122.521 174.732 122.577 174.387 122.577C173.687 122.577 173.132 122.348 172.721 121.891C172.32 121.433 172.119 120.771 172.119 119.903V116.487H170.859V115.395H172.147L172.413 113.099ZM178.663 122.409H177.403V115.129H178.663V122.409ZM178.033 113.883C177.791 113.883 177.581 113.799 177.403 113.631C177.235 113.453 177.151 113.243 177.151 113.001C177.151 112.73 177.231 112.515 177.389 112.357C177.548 112.198 177.763 112.119 178.033 112.119C178.276 112.119 178.481 112.207 178.649 112.385C178.827 112.553 178.915 112.758 178.915 113.001C178.915 113.271 178.836 113.486 178.677 113.645C178.519 113.803 178.304 113.883 178.033 113.883ZM186.307 118.769C186.307 118.405 186.247 118.059 186.125 117.733C186.013 117.406 185.85 117.121 185.635 116.879C185.43 116.636 185.183 116.445 184.893 116.305C184.613 116.155 184.305 116.081 183.969 116.081C183.232 116.081 182.658 116.323 182.247 116.809C181.837 117.294 181.631 117.938 181.631 118.741C181.631 119.105 181.687 119.455 181.799 119.791C181.921 120.117 182.084 120.407 182.289 120.659C182.504 120.901 182.751 121.097 183.031 121.247C183.321 121.387 183.633 121.457 183.969 121.457C184.333 121.457 184.66 121.391 184.949 121.261C185.239 121.13 185.481 120.948 185.677 120.715C185.883 120.472 186.037 120.187 186.139 119.861C186.251 119.534 186.307 119.17 186.307 118.769ZM180.343 118.769C180.343 118.181 180.437 117.653 180.623 117.187C180.81 116.711 181.062 116.309 181.379 115.983C181.706 115.656 182.089 115.404 182.527 115.227C182.975 115.049 183.456 114.961 183.969 114.961C184.473 114.961 184.945 115.049 185.383 115.227C185.831 115.404 186.219 115.656 186.545 115.983C186.872 116.309 187.129 116.706 187.315 117.173C187.502 117.639 187.595 118.162 187.595 118.741C187.595 119.319 187.502 119.847 187.315 120.323C187.138 120.789 186.886 121.191 186.559 121.527C186.233 121.863 185.845 122.124 185.397 122.311C184.959 122.488 184.483 122.577 183.969 122.577C183.447 122.577 182.961 122.483 182.513 122.297C182.075 122.11 181.692 121.849 181.365 121.513C181.048 121.177 180.796 120.775 180.609 120.309C180.432 119.842 180.343 119.329 180.343 118.769ZM190.489 116.347C190.75 115.955 191.081 115.628 191.483 115.367C191.893 115.096 192.379 114.961 192.939 114.961C193.76 114.961 194.371 115.208 194.773 115.703C195.183 116.197 195.389 116.851 195.389 117.663V122.409H194.129V117.803C194.129 117.271 194.007 116.851 193.765 116.543C193.522 116.225 193.177 116.067 192.729 116.067C192.514 116.067 192.304 116.109 192.099 116.193C191.893 116.267 191.693 116.375 191.497 116.515C191.31 116.655 191.133 116.818 190.965 117.005C190.806 117.191 190.661 117.387 190.531 117.593V122.409H189.271V115.129H190.489V116.347ZM197.066 118.811C197.066 118.269 197.15 117.765 197.318 117.299C197.486 116.823 197.719 116.412 198.018 116.067C198.326 115.721 198.69 115.451 199.11 115.255C199.539 115.059 200.006 114.961 200.51 114.961C200.93 114.961 201.308 115.035 201.644 115.185C201.989 115.325 202.288 115.502 202.54 115.717V115.129H203.688V120.645C203.688 120.999 203.772 121.233 203.94 121.345C204.117 121.447 204.308 121.499 204.514 121.499L204.248 122.479C203.352 122.479 202.81 122.115 202.624 121.387C202.512 121.536 202.381 121.685 202.232 121.835C202.092 121.975 201.928 122.101 201.742 122.213C201.555 122.325 201.345 122.413 201.112 122.479C200.878 122.544 200.622 122.577 200.342 122.577C199.884 122.577 199.455 122.488 199.054 122.311C198.662 122.133 198.316 121.881 198.018 121.555C197.728 121.228 197.495 120.836 197.318 120.379C197.15 119.912 197.066 119.389 197.066 118.811ZM200.622 121.457C200.976 121.457 201.312 121.373 201.63 121.205C201.947 121.037 202.213 120.817 202.428 120.547V116.641C202.176 116.463 201.896 116.323 201.588 116.221C201.289 116.109 200.972 116.053 200.636 116.053C200.3 116.053 199.992 116.118 199.712 116.249C199.432 116.379 199.189 116.566 198.984 116.809C198.788 117.042 198.634 117.327 198.522 117.663C198.41 117.999 198.354 118.367 198.354 118.769C198.354 119.161 198.41 119.525 198.522 119.861C198.634 120.187 198.792 120.472 198.998 120.715C199.203 120.948 199.441 121.13 199.712 121.261C199.992 121.391 200.295 121.457 200.622 121.457ZM207.386 120.001C207.386 120.505 207.489 120.878 207.694 121.121C207.909 121.363 208.203 121.485 208.576 121.485C208.754 121.485 208.926 121.466 209.094 121.429C209.262 121.382 209.412 121.331 209.542 121.275L209.85 122.297C209.682 122.371 209.472 122.437 209.22 122.493C208.978 122.549 208.707 122.577 208.408 122.577C208.082 122.577 207.778 122.53 207.498 122.437C207.228 122.343 206.99 122.199 206.784 122.003C206.579 121.807 206.416 121.555 206.294 121.247C206.182 120.939 206.126 120.565 206.126 120.127V112.049H207.386V120.001Z" fill="#BDBDBD"/>
<rect opacity="0.3" x="129.803" y="1.45068" width="97.1972" height="95.7465" rx="47.8732" fill="#FE7762"/>
<path d="M182.862 40.1025C180.925 40.2708 179.032 40.7338 177.306 41.4914C176.506 36.6933 174.654 31.5586 170.361 31.0114C167.205 30.5905 166.7 33.4104 168.636 33.9155C172.171 34.8835 173.855 38.2927 174.57 41.8281C172.634 40.8601 170.488 40.2708 168.299 40.1025C160.092 39.4712 155.63 46.8366 159.04 57.2745C161.607 65.145 166.489 71.0374 172.887 69.7326C173.855 69.5222 174.739 69.1434 175.622 68.6804C176.464 69.1434 177.39 69.5222 178.358 69.7326C184.756 71.0374 189.638 65.145 192.205 57.2745C195.53 46.8366 191.111 39.4291 182.862 40.1025Z" fill="#FE7762"/>
<path d="M179.79 38.5454C181.011 38.1666 182.821 37.3669 183.873 35.7676C184.925 34.2103 184.967 32.2322 184.883 30.9695C184.841 30.2119 184.167 29.749 183.41 30.0015C182.189 30.3803 180.38 31.18 179.327 32.7793C178.275 34.3366 178.191 36.3147 178.317 37.5774C178.401 38.335 179.075 38.7559 179.79 38.5454Z" fill="#FE7762"/>
<defs>
<clipPath id="clip0_1587_51521">
<rect width="32.0294" height="30.5735" fill="white" transform="translate(34.9412 34.9414)"/>
</clipPath>
</defs>
</svg>
