<svg width="343" height="142" viewBox="0 0 343 142" fill="none" xmlns="http://www.w3.org/2000/svg">
<rect width="343" height="141.173" rx="16" fill="#252525"/>
<rect x="75" y="108.669" width="252" height="7.67242" rx="3.83621" fill="#333333"/>
<rect x="75" y="108.669" width="168" height="7.67242" rx="3.83621" fill="#FE7762"/>
<path d="M74.552 32.408L80.696 21.8H82.408L84.856 32.824L83.4 33.16L82.728 29.96H77.544L75.768 33.128L74.552 32.408ZM78.264 28.68H82.456L81.32 23.288L78.264 28.68ZM87.9454 30.12C87.924 30.2693 87.908 30.3973 87.8974 30.504C87.8867 30.6107 87.8814 30.7067 87.8814 30.792C87.8814 31.1653 87.988 31.4533 88.2014 31.656C88.4147 31.848 88.708 31.944 89.0814 31.944C89.2627 31.944 89.444 31.9227 89.6254 31.88C89.8067 31.8373 89.972 31.7787 90.1214 31.704L90.2654 32.872C90.0734 32.968 89.8494 33.0427 89.5934 33.096C89.3374 33.16 89.06 33.192 88.7614 33.192C88.4414 33.192 88.1374 33.144 87.8494 33.048C87.572 32.9627 87.3267 32.8293 87.1134 32.648C86.9107 32.4667 86.7454 32.2373 86.6174 31.96C86.5 31.672 86.4414 31.3413 86.4414 30.968C86.4414 30.8187 86.4467 30.6853 86.4574 30.568C86.468 30.44 86.484 30.3013 86.5054 30.152L88.0734 21.16H89.5134L87.9454 30.12ZM101.899 25.752C101.633 25.752 101.345 25.8267 101.035 25.976C100.726 26.1253 100.427 26.3547 100.139 26.664C99.862 26.9733 99.606 27.368 99.3714 27.848C99.1474 28.328 98.9767 28.8987 98.8594 29.56L98.2514 33H96.8114L97.7234 28.024C97.7767 27.768 97.8087 27.5813 97.8194 27.464C97.83 27.3467 97.8354 27.2293 97.8354 27.112C97.8354 26.696 97.7127 26.3653 97.4674 26.12C97.2327 25.8747 96.9234 25.752 96.5394 25.752C96.262 25.752 95.9687 25.832 95.6594 25.992C95.35 26.1413 95.0514 26.376 94.7634 26.696C94.4754 27.016 94.214 27.4267 93.9794 27.928C93.7554 28.4187 93.5847 29.0053 93.4674 29.688L92.8914 33H91.4514L92.9074 24.68H94.2994L93.9474 26.6C94.2674 25.96 94.6994 25.448 95.2434 25.064C95.7874 24.68 96.358 24.488 96.9554 24.488C97.286 24.488 97.5847 24.5413 97.8514 24.648C98.118 24.7547 98.3474 24.904 98.5394 25.096C98.742 25.2773 98.902 25.5013 99.0194 25.768C99.1367 26.024 99.2114 26.3013 99.2434 26.6C99.606 25.928 100.049 25.4107 100.571 25.048C101.105 24.6747 101.681 24.488 102.299 24.488C102.651 24.488 102.971 24.5467 103.259 24.664C103.547 24.7813 103.793 24.9467 103.995 25.16C104.198 25.3627 104.353 25.6027 104.459 25.88C104.577 26.1573 104.635 26.456 104.635 26.776C104.635 27.0533 104.603 27.3893 104.539 27.784L103.611 33H102.171L103.083 28.024C103.137 27.768 103.169 27.5813 103.179 27.464C103.19 27.3467 103.195 27.2293 103.195 27.112C103.195 26.696 103.073 26.3653 102.827 26.12C102.593 25.8747 102.283 25.752 101.899 25.752ZM109.965 31.912C110.445 31.912 110.871 31.8213 111.245 31.64C111.618 31.4587 111.938 31.208 112.205 30.888C112.471 30.568 112.674 30.1947 112.813 29.768C112.951 29.3413 113.021 28.8773 113.021 28.376C113.021 28.0133 112.962 27.672 112.845 27.352C112.738 27.032 112.578 26.7547 112.365 26.52C112.162 26.2853 111.911 26.104 111.613 25.976C111.314 25.8373 110.973 25.768 110.589 25.768C110.119 25.768 109.693 25.8587 109.309 26.04C108.935 26.2213 108.615 26.472 108.349 26.792C108.082 27.112 107.879 27.4907 107.741 27.928C107.602 28.3547 107.533 28.8133 107.533 29.304C107.533 29.6667 107.586 30.008 107.693 30.328C107.799 30.648 107.954 30.9253 108.157 31.16C108.37 31.3947 108.626 31.5813 108.925 31.72C109.234 31.848 109.581 31.912 109.965 31.912ZM109.917 33.192C109.319 33.192 108.781 33.1013 108.301 32.92C107.831 32.728 107.431 32.4667 107.101 32.136C106.77 31.8053 106.514 31.4107 106.333 30.952C106.151 30.4827 106.061 29.976 106.061 29.432C106.061 28.7387 106.167 28.0933 106.381 27.496C106.594 26.888 106.898 26.3653 107.293 25.928C107.698 25.48 108.183 25.128 108.749 24.872C109.314 24.616 109.943 24.488 110.637 24.488C111.223 24.488 111.757 24.584 112.237 24.776C112.717 24.9573 113.122 25.2133 113.453 25.544C113.783 25.8747 114.039 26.2747 114.221 26.744C114.402 27.2027 114.493 27.704 114.493 28.248C114.493 28.9413 114.386 29.592 114.173 30.2C113.959 30.7973 113.65 31.32 113.245 31.768C112.85 32.2053 112.37 32.552 111.805 32.808C111.239 33.064 110.61 33.192 109.917 33.192ZM121.494 26.488C121.185 26.2747 120.838 26.088 120.454 25.928C120.081 25.768 119.654 25.688 119.174 25.688C118.662 25.688 118.267 25.7733 117.99 25.944C117.723 26.1147 117.59 26.3387 117.59 26.616C117.59 26.744 117.611 26.8613 117.654 26.968C117.707 27.0747 117.793 27.1867 117.91 27.304C118.038 27.4107 118.209 27.528 118.422 27.656C118.635 27.784 118.907 27.9333 119.238 28.104C119.974 28.4773 120.513 28.856 120.854 29.24C121.206 29.6133 121.382 30.088 121.382 30.664C121.382 31.0907 121.297 31.464 121.126 31.784C120.955 32.0933 120.715 32.3547 120.406 32.568C120.107 32.7707 119.755 32.9253 119.35 33.032C118.945 33.1387 118.507 33.192 118.038 33.192C117.387 33.192 116.811 33.112 116.31 32.952C115.819 32.7813 115.393 32.5627 115.03 32.296L115.846 31.112C116.134 31.3467 116.47 31.544 116.854 31.704C117.249 31.864 117.686 31.944 118.166 31.944C118.71 31.944 119.131 31.8427 119.43 31.64C119.739 31.4373 119.894 31.1867 119.894 30.888C119.894 30.7493 119.867 30.6213 119.814 30.504C119.771 30.376 119.686 30.248 119.558 30.12C119.43 29.992 119.254 29.864 119.03 29.736C118.817 29.5973 118.545 29.4427 118.214 29.272C117.809 29.0693 117.473 28.8773 117.206 28.696C116.95 28.504 116.742 28.3067 116.582 28.104C116.433 27.9013 116.326 27.688 116.262 27.464C116.198 27.2293 116.166 26.9733 116.166 26.696C116.166 26.376 116.241 26.0827 116.39 25.816C116.539 25.5387 116.747 25.304 117.014 25.112C117.281 24.92 117.601 24.7707 117.974 24.664C118.347 24.5467 118.758 24.488 119.206 24.488C119.803 24.488 120.337 24.568 120.806 24.728C121.286 24.8773 121.707 25.0587 122.07 25.272L121.494 26.488ZM123.068 24.984H124.539L125.308 22.36H126.411L125.948 24.984H128.252L128.044 26.232H125.724L125.052 30.12C125.009 30.3333 124.988 30.536 124.988 30.728C124.988 31.1013 125.094 31.3947 125.308 31.608C125.532 31.8107 125.83 31.912 126.204 31.912C126.513 31.912 126.769 31.8693 126.972 31.784C127.185 31.688 127.382 31.592 127.564 31.496L127.74 32.744C127.537 32.8613 127.281 32.9627 126.972 33.048C126.673 33.144 126.337 33.192 125.964 33.192C125.665 33.192 125.372 33.144 125.084 33.048C124.796 32.9627 124.54 32.8293 124.316 32.648C124.092 32.456 123.91 32.2107 123.772 31.912C123.633 31.6133 123.564 31.256 123.564 30.84C123.564 30.7227 123.569 30.6053 123.58 30.488C123.59 30.36 123.606 30.216 123.628 30.056L124.284 26.232H122.86L123.068 24.984ZM135.122 27.016C135.133 26.9627 135.138 26.904 135.138 26.84C135.149 26.7653 135.154 26.6907 135.154 26.616C135.154 26.3173 135.069 26.1093 134.898 25.992C134.728 25.864 134.504 25.8 134.226 25.8L134.722 24.68C135.298 24.68 135.736 24.8133 136.034 25.08C136.333 25.3467 136.482 25.752 136.482 26.296V26.616C136.792 25.848 137.186 25.304 137.666 24.984C138.157 24.6533 138.712 24.488 139.33 24.488C139.576 24.488 139.784 24.5093 139.954 24.552C140.136 24.584 140.285 24.6267 140.402 24.68L139.762 26.088C139.634 26.0347 139.501 25.9973 139.362 25.976C139.224 25.9547 139.064 25.944 138.882 25.944C138.594 25.944 138.306 26.0187 138.018 26.168C137.73 26.3067 137.458 26.5467 137.202 26.888C136.946 27.2293 136.712 27.6773 136.498 28.232C136.285 28.7867 136.109 29.4747 135.97 30.296L135.506 33H134.066L135.122 27.016ZM143.739 33.192C143.205 33.192 142.72 33.1067 142.283 32.936C141.845 32.7547 141.467 32.504 141.147 32.184C140.837 31.8533 140.592 31.4533 140.411 30.984C140.24 30.5147 140.155 29.9867 140.155 29.4C140.155 28.7387 140.261 28.1093 140.475 27.512C140.688 26.9147 140.987 26.392 141.371 25.944C141.765 25.496 142.24 25.144 142.795 24.888C143.349 24.6213 143.968 24.488 144.651 24.488C145.109 24.488 145.52 24.5573 145.883 24.696C146.245 24.8347 146.549 25.016 146.795 25.24C147.051 25.464 147.243 25.7253 147.371 26.024C147.509 26.3227 147.579 26.632 147.579 26.952C147.579 27.5493 147.435 28.0347 147.147 28.408C146.869 28.7813 146.517 29.08 146.091 29.304C145.664 29.5173 145.195 29.6667 144.683 29.752C144.171 29.8267 143.685 29.864 143.227 29.864C142.939 29.864 142.651 29.8533 142.363 29.832C142.085 29.8 141.84 29.768 141.627 29.736C141.712 30.44 141.957 30.9787 142.363 31.352C142.779 31.7253 143.317 31.912 143.979 31.912C144.512 31.912 144.987 31.8427 145.403 31.704C145.819 31.5653 146.171 31.4267 146.459 31.288L146.587 32.568C146.267 32.7173 145.861 32.8613 145.371 33C144.891 33.128 144.347 33.192 143.739 33.192ZM144.539 25.704C144.165 25.704 143.813 25.7787 143.483 25.928C143.163 26.0667 142.875 26.264 142.619 26.52C142.373 26.776 142.165 27.08 141.995 27.432C141.835 27.784 141.723 28.168 141.659 28.584C141.904 28.6373 142.149 28.6747 142.395 28.696C142.64 28.7173 142.917 28.728 143.227 28.728C144.133 28.728 144.843 28.6053 145.355 28.36C145.877 28.104 146.139 27.672 146.139 27.064C146.139 26.6907 145.989 26.3707 145.691 26.104C145.403 25.8373 145.019 25.704 144.539 25.704ZM148.436 29.72C148.436 28.952 148.564 28.248 148.82 27.608C149.086 26.9573 149.454 26.4027 149.924 25.944C150.393 25.4853 150.953 25.128 151.604 24.872C152.254 24.616 152.964 24.488 153.732 24.488C154.361 24.488 154.91 24.552 155.38 24.68C155.86 24.808 156.254 24.936 156.564 25.064L155.556 30.744C155.545 30.7973 155.534 30.8613 155.524 30.936C155.524 31 155.524 31.0693 155.524 31.144C155.524 31.4427 155.609 31.656 155.78 31.784C155.95 31.9013 156.174 31.96 156.452 31.96L155.956 33.08C155.38 33.08 154.937 32.9413 154.628 32.664C154.329 32.3867 154.18 31.944 154.18 31.336C153.881 31.848 153.502 32.2853 153.044 32.648C152.596 33.0107 152.068 33.192 151.46 33.192C151.065 33.192 150.686 33.112 150.324 32.952C149.961 32.792 149.636 32.5627 149.348 32.264C149.07 31.9653 148.846 31.6027 148.676 31.176C148.516 30.7387 148.436 30.2533 148.436 29.72ZM154.98 25.912C154.777 25.848 154.564 25.8 154.34 25.768C154.126 25.7253 153.865 25.704 153.556 25.704C153.001 25.704 152.5 25.8 152.052 25.992C151.604 26.184 151.22 26.4507 150.9 26.792C150.58 27.1333 150.334 27.5387 150.164 28.008C149.993 28.4773 149.908 28.9893 149.908 29.544C149.908 29.928 149.961 30.2693 150.068 30.568C150.185 30.856 150.334 31.1013 150.516 31.304C150.697 31.5067 150.9 31.6613 151.124 31.768C151.358 31.864 151.598 31.912 151.844 31.912C152.164 31.912 152.468 31.8267 152.756 31.656C153.054 31.4853 153.321 31.2453 153.556 30.936C153.79 30.616 153.993 30.2427 154.164 29.816C154.334 29.3787 154.462 28.904 154.548 28.392L154.98 25.912ZM164.13 26.36C163.853 26.1893 163.56 26.0507 163.25 25.944C162.952 25.8267 162.616 25.768 162.242 25.768C161.794 25.768 161.389 25.8587 161.026 26.04C160.664 26.2213 160.354 26.472 160.098 26.792C159.842 27.1013 159.645 27.4693 159.506 27.896C159.368 28.3227 159.298 28.7813 159.298 29.272C159.298 30.0827 159.501 30.728 159.906 31.208C160.312 31.6773 160.866 31.912 161.57 31.912C161.976 31.912 162.333 31.864 162.642 31.768C162.952 31.672 163.234 31.56 163.49 31.432L163.666 32.696C163.4 32.8133 163.074 32.9253 162.69 33.032C162.317 33.1387 161.864 33.192 161.33 33.192C160.808 33.192 160.333 33.1067 159.906 32.936C159.48 32.7547 159.112 32.4987 158.802 32.168C158.493 31.8373 158.253 31.448 158.082 31C157.912 30.5413 157.826 30.0293 157.826 29.464C157.826 28.792 157.928 28.1573 158.13 27.56C158.344 26.9627 158.648 26.4347 159.042 25.976C159.437 25.5173 159.912 25.1547 160.466 24.888C161.021 24.6213 161.65 24.488 162.354 24.488C162.856 24.488 163.298 24.552 163.682 24.68C164.066 24.7973 164.413 24.9467 164.722 25.128L164.13 26.36ZM171.73 27.112C171.73 26.7067 171.607 26.3813 171.362 26.136C171.127 25.88 170.818 25.752 170.434 25.752C170.146 25.752 169.836 25.8267 169.506 25.976C169.186 26.1253 168.871 26.36 168.562 26.68C168.263 26.9893 167.991 27.384 167.746 27.864C167.511 28.344 167.335 28.92 167.218 29.592L166.626 33H165.186L167.266 21.16H168.706L167.778 26.424C168.108 25.8373 168.54 25.368 169.074 25.016C169.607 24.664 170.178 24.488 170.786 24.488C171.148 24.488 171.479 24.5467 171.778 24.664C172.076 24.7813 172.327 24.9467 172.53 25.16C172.743 25.3627 172.903 25.6027 173.01 25.88C173.127 26.1573 173.186 26.456 173.186 26.776C173.186 27.0533 173.154 27.3893 173.09 27.784L172.178 33H170.738L171.618 28.024C171.671 27.768 171.703 27.5813 171.714 27.464C171.724 27.3467 171.73 27.2293 171.73 27.112ZM177.104 31.96C176.869 32.7813 176.501 33.4907 176 34.088C175.509 34.696 174.912 35.1867 174.208 35.56L173.456 35.112C173.978 34.568 174.416 34.0187 174.768 33.464C175.13 32.9093 175.45 32.2747 175.728 31.56L177.104 31.96ZM186.281 21.16H187.721L186.857 26.072C187.145 25.5813 187.524 25.1973 187.993 24.92C188.463 24.632 188.991 24.488 189.577 24.488C189.919 24.488 190.233 24.5467 190.521 24.664C190.82 24.7707 191.071 24.92 191.273 25.112C191.487 25.304 191.652 25.5333 191.769 25.8C191.887 26.056 191.945 26.3333 191.945 26.632C191.945 27.0587 191.871 27.4267 191.721 27.736C191.572 28.0453 191.359 28.3013 191.081 28.504C190.815 28.7067 190.495 28.856 190.121 28.952C189.759 29.048 189.359 29.096 188.921 29.096H188.761C188.708 29.096 188.644 29.0907 188.569 29.08L189.929 31.16C190.111 31.4373 190.313 31.64 190.537 31.768C190.772 31.896 191.087 31.96 191.481 31.96L190.985 33.08C190.484 33.08 190.063 33.0107 189.721 32.872C189.391 32.7227 189.092 32.4187 188.825 31.96L186.857 28.568L187.001 28.104C187.161 28.1787 187.364 28.2427 187.609 28.296C187.855 28.3387 188.132 28.36 188.441 28.36C189.145 28.36 189.673 28.216 190.025 27.928C190.377 27.64 190.553 27.2613 190.553 26.792C190.553 26.4613 190.431 26.184 190.185 25.96C189.951 25.7253 189.631 25.608 189.225 25.608C189.001 25.608 188.745 25.6613 188.457 25.768C188.18 25.864 187.903 26.0347 187.625 26.28C187.348 26.5253 187.092 26.856 186.857 27.272C186.633 27.688 186.468 28.216 186.361 28.856L185.641 33H184.201L186.281 21.16ZM196.473 33.192C195.94 33.192 195.454 33.1067 195.017 32.936C194.58 32.7547 194.201 32.504 193.881 32.184C193.572 31.8533 193.326 31.4533 193.145 30.984C192.974 30.5147 192.889 29.9867 192.889 29.4C192.889 28.7387 192.996 28.1093 193.209 27.512C193.422 26.9147 193.721 26.392 194.105 25.944C194.5 25.496 194.974 25.144 195.529 24.888C196.084 24.6213 196.702 24.488 197.385 24.488C197.844 24.488 198.254 24.5573 198.617 24.696C198.98 24.8347 199.284 25.016 199.529 25.24C199.785 25.464 199.977 25.7253 200.105 26.024C200.244 26.3227 200.313 26.632 200.313 26.952C200.313 27.5493 200.169 28.0347 199.881 28.408C199.604 28.7813 199.252 29.08 198.825 29.304C198.398 29.5173 197.929 29.6667 197.417 29.752C196.905 29.8267 196.42 29.864 195.961 29.864C195.673 29.864 195.385 29.8533 195.097 29.832C194.82 29.8 194.574 29.768 194.361 29.736C194.446 30.44 194.692 30.9787 195.097 31.352C195.513 31.7253 196.052 31.912 196.713 31.912C197.246 31.912 197.721 31.8427 198.137 31.704C198.553 31.5653 198.905 31.4267 199.193 31.288L199.321 32.568C199.001 32.7173 198.596 32.8613 198.105 33C197.625 33.128 197.081 33.192 196.473 33.192ZM197.273 25.704C196.9 25.704 196.548 25.7787 196.217 25.928C195.897 26.0667 195.609 26.264 195.353 26.52C195.108 26.776 194.9 27.08 194.729 27.432C194.569 27.784 194.457 28.168 194.393 28.584C194.638 28.6373 194.884 28.6747 195.129 28.696C195.374 28.7173 195.652 28.728 195.961 28.728C196.868 28.728 197.577 28.6053 198.089 28.36C198.612 28.104 198.873 27.672 198.873 27.064C198.873 26.6907 198.724 26.3707 198.425 26.104C198.137 25.8373 197.753 25.704 197.273 25.704ZM204.754 33.192C204.221 33.192 203.735 33.1067 203.298 32.936C202.861 32.7547 202.482 32.504 202.162 32.184C201.853 31.8533 201.607 31.4533 201.426 30.984C201.255 30.5147 201.17 29.9867 201.17 29.4C201.17 28.7387 201.277 28.1093 201.49 27.512C201.703 26.9147 202.002 26.392 202.386 25.944C202.781 25.496 203.255 25.144 203.81 24.888C204.365 24.6213 204.983 24.488 205.666 24.488C206.125 24.488 206.535 24.5573 206.898 24.696C207.261 24.8347 207.565 25.016 207.81 25.24C208.066 25.464 208.258 25.7253 208.386 26.024C208.525 26.3227 208.594 26.632 208.594 26.952C208.594 27.5493 208.45 28.0347 208.162 28.408C207.885 28.7813 207.533 29.08 207.106 29.304C206.679 29.5173 206.21 29.6667 205.698 29.752C205.186 29.8267 204.701 29.864 204.242 29.864C203.954 29.864 203.666 29.8533 203.378 29.832C203.101 29.8 202.855 29.768 202.642 29.736C202.727 30.44 202.973 30.9787 203.378 31.352C203.794 31.7253 204.333 31.912 204.994 31.912C205.527 31.912 206.002 31.8427 206.418 31.704C206.834 31.5653 207.186 31.4267 207.474 31.288L207.602 32.568C207.282 32.7173 206.877 32.8613 206.386 33C205.906 33.128 205.362 33.192 204.754 33.192ZM205.554 25.704C205.181 25.704 204.829 25.7787 204.498 25.928C204.178 26.0667 203.89 26.264 203.634 26.52C203.389 26.776 203.181 27.08 203.01 27.432C202.85 27.784 202.738 28.168 202.674 28.584C202.919 28.6373 203.165 28.6747 203.41 28.696C203.655 28.7173 203.933 28.728 204.242 28.728C205.149 28.728 205.858 28.6053 206.37 28.36C206.893 28.104 207.154 27.672 207.154 27.064C207.154 26.6907 207.005 26.3707 206.706 26.104C206.418 25.8373 206.034 25.704 205.554 25.704ZM210.411 24.68C211.521 24.68 212.075 25.16 212.075 26.12V26.456C212.385 25.88 212.779 25.4107 213.259 25.048C213.75 24.6747 214.326 24.488 214.987 24.488C215.414 24.488 215.803 24.5733 216.155 24.744C216.507 24.9147 216.806 25.1547 217.051 25.464C217.297 25.7627 217.483 26.1253 217.611 26.552C217.75 26.968 217.819 27.432 217.819 27.944C217.819 28.7333 217.702 29.4533 217.467 30.104C217.233 30.744 216.923 31.2933 216.539 31.752C216.155 32.2107 215.713 32.568 215.211 32.824C214.721 33.0693 214.214 33.192 213.691 33.192C213.179 33.192 212.699 33.064 212.251 32.808C211.814 32.552 211.473 32.2373 211.227 31.864L210.411 36.52H208.971L210.635 27C210.667 26.8293 210.683 26.68 210.683 26.552C210.683 26.0507 210.422 25.8 209.899 25.8L210.411 24.68ZM213.563 31.912C213.937 31.912 214.289 31.8213 214.619 31.64C214.961 31.448 215.259 31.1867 215.515 30.856C215.771 30.5147 215.974 30.1093 216.123 29.64C216.273 29.1707 216.347 28.6533 216.347 28.088C216.347 27.352 216.182 26.776 215.851 26.36C215.521 25.944 215.089 25.736 214.555 25.736C214.235 25.736 213.921 25.816 213.611 25.976C213.313 26.1253 213.041 26.3387 212.795 26.616C212.55 26.8933 212.331 27.2347 212.139 27.64C211.958 28.0347 211.825 28.472 211.739 28.952L211.451 30.568C211.686 31.0053 211.985 31.3413 212.347 31.576C212.721 31.8 213.126 31.912 213.563 31.912ZM225.313 33H223.873L225.329 24.68H226.769L225.313 33ZM226.385 23.256C226.087 23.256 225.857 23.1707 225.697 23C225.548 22.8187 225.473 22.6107 225.473 22.376C225.473 22.0347 225.58 21.7627 225.793 21.56C226.007 21.3467 226.273 21.24 226.593 21.24C226.892 21.24 227.116 21.3307 227.265 21.512C227.425 21.6827 227.505 21.8853 227.505 22.12C227.505 22.4613 227.399 22.7387 227.185 22.952C226.972 23.1547 226.705 23.256 226.385 23.256ZM228.239 24.984H229.711L230.479 22.36H231.583L231.119 24.984H233.423L233.215 26.232H230.895L230.223 30.12C230.181 30.3333 230.159 30.536 230.159 30.728C230.159 31.1013 230.266 31.3947 230.479 31.608C230.703 31.8107 231.002 31.912 231.375 31.912C231.685 31.912 231.941 31.8693 232.143 31.784C232.357 31.688 232.554 31.592 232.735 31.496L232.911 32.744C232.709 32.8613 232.453 32.9627 232.143 33.048C231.845 33.144 231.509 33.192 231.135 33.192C230.837 33.192 230.543 33.144 230.255 33.048C229.967 32.9627 229.711 32.8293 229.487 32.648C229.263 32.456 229.082 32.2107 228.943 31.912C228.805 31.6133 228.735 31.256 228.735 30.84C228.735 30.7227 228.741 30.6053 228.751 30.488C228.762 30.36 228.778 30.216 228.799 30.056L229.455 26.232H228.031L228.239 24.984ZM241.51 33.192C241.19 33.192 240.886 33.1387 240.598 33.032C240.321 32.9253 240.07 32.7707 239.846 32.568C239.633 32.3653 239.462 32.12 239.334 31.832C239.217 31.544 239.158 31.2187 239.158 30.856C239.158 30.7173 239.164 30.5787 239.174 30.44C239.185 30.2907 239.201 30.136 239.222 29.976L240.134 24.68H241.574L240.646 29.944C240.625 30.0507 240.609 30.1467 240.598 30.232C240.598 30.3067 240.598 30.392 240.598 30.488C240.598 30.968 240.737 31.3253 241.014 31.56C241.292 31.7947 241.617 31.912 241.99 31.912C242.289 31.912 242.588 31.8427 242.886 31.704C243.196 31.5547 243.478 31.3467 243.734 31.08C243.99 30.8133 244.214 30.488 244.406 30.104C244.609 29.7093 244.753 29.2613 244.838 28.76L245.558 24.68H246.998L245.942 30.744C245.932 30.7973 245.921 30.8613 245.91 30.936C245.91 31 245.91 31.0693 245.91 31.144C245.91 31.4427 245.996 31.656 246.166 31.784C246.337 31.9013 246.561 31.96 246.838 31.96L246.342 33.08C245.766 33.08 245.324 32.9413 245.014 32.664C244.716 32.3867 244.566 31.944 244.566 31.336V31.192C243.788 32.5253 242.769 33.192 241.51 33.192ZM249.224 24.68C250.333 24.68 250.888 25.16 250.888 26.12V26.456C251.197 25.88 251.592 25.4107 252.072 25.048C252.563 24.6747 253.139 24.488 253.8 24.488C254.227 24.488 254.616 24.5733 254.968 24.744C255.32 24.9147 255.619 25.1547 255.864 25.464C256.109 25.7627 256.296 26.1253 256.424 26.552C256.563 26.968 256.632 27.432 256.632 27.944C256.632 28.7333 256.515 29.4533 256.28 30.104C256.045 30.744 255.736 31.2933 255.352 31.752C254.968 32.2107 254.525 32.568 254.024 32.824C253.533 33.0693 253.027 33.192 252.504 33.192C251.992 33.192 251.512 33.064 251.064 32.808C250.627 32.552 250.285 32.2373 250.04 31.864L249.224 36.52H247.784L249.448 27C249.48 26.8293 249.496 26.68 249.496 26.552C249.496 26.0507 249.235 25.8 248.712 25.8L249.224 24.68ZM252.376 31.912C252.749 31.912 253.101 31.8213 253.432 31.64C253.773 31.448 254.072 31.1867 254.328 30.856C254.584 30.5147 254.787 30.1093 254.936 29.64C255.085 29.1707 255.16 28.6533 255.16 28.088C255.16 27.352 254.995 26.776 254.664 26.36C254.333 25.944 253.901 25.736 253.368 25.736C253.048 25.736 252.733 25.816 252.424 25.976C252.125 26.1253 251.853 26.3387 251.608 26.616C251.363 26.8933 251.144 27.2347 250.952 27.64C250.771 28.0347 250.637 28.472 250.552 28.952L250.264 30.568C250.499 31.0053 250.797 31.3413 251.16 31.576C251.533 31.8 251.939 31.912 252.376 31.912ZM260.289 21.336H261.889L261.185 25.32L260.209 29.688H259.025L259.585 25.32L260.289 21.336ZM259.121 33.192C258.812 33.192 258.566 33.1013 258.385 32.92C258.214 32.7387 258.129 32.5253 258.129 32.28C258.129 31.8853 258.246 31.5813 258.481 31.368C258.726 31.1547 259.004 31.048 259.313 31.048C259.622 31.048 259.862 31.1387 260.033 31.32C260.214 31.5013 260.305 31.7147 260.305 31.96C260.305 32.3547 260.182 32.6587 259.937 32.872C259.702 33.0853 259.43 33.192 259.121 33.192Z" fill="white"/>
<path d="M78.626 57.168C78.01 57.168 77.478 57.0887 77.03 56.93C76.5913 56.762 76.2133 56.5613 75.896 56.328L76.47 55.278C76.7313 55.474 77.03 55.6467 77.366 55.796C77.7113 55.9453 78.136 56.02 78.64 56.02C79.256 56.02 79.7413 55.8613 80.096 55.544C80.46 55.2173 80.642 54.8067 80.642 54.312C80.642 54.06 80.5907 53.8173 80.488 53.584C80.3853 53.3507 80.222 53.15 79.998 52.982C79.7833 52.8047 79.508 52.6647 79.172 52.562C78.8453 52.4593 78.4533 52.408 77.996 52.408H77.212V51.386H77.94C78.3507 51.386 78.71 51.3393 79.018 51.246C79.326 51.1433 79.578 51.008 79.774 50.84C79.9793 50.672 80.1287 50.4853 80.222 50.28C80.3247 50.0653 80.376 49.846 80.376 49.622C80.376 49.1833 80.208 48.8287 79.872 48.558C79.5453 48.2873 79.1393 48.152 78.654 48.152C78.206 48.152 77.814 48.2267 77.478 48.376C77.142 48.516 76.8667 48.6747 76.652 48.852L76.134 47.858C76.414 47.6713 76.7733 47.4893 77.212 47.312C77.6507 47.1253 78.164 47.032 78.752 47.032C79.2093 47.032 79.6153 47.0973 79.97 47.228C80.334 47.3587 80.6373 47.536 80.88 47.76C81.132 47.984 81.3233 48.2453 81.454 48.544C81.5847 48.8333 81.65 49.1367 81.65 49.454C81.65 50.014 81.51 50.4807 81.23 50.854C80.9593 51.218 80.572 51.5213 80.068 51.764C80.656 51.988 81.1133 52.3147 81.44 52.744C81.776 53.1733 81.944 53.682 81.944 54.27C81.944 54.634 81.874 54.9933 81.734 55.348C81.6033 55.6933 81.4027 56.0013 81.132 56.272C80.8613 56.5427 80.516 56.762 80.096 56.93C79.676 57.0887 79.186 57.168 78.626 57.168ZM87.6085 47.032C88.1499 47.032 88.6305 47.1487 89.0505 47.382C89.4705 47.606 89.8205 47.9373 90.1005 48.376C90.3805 48.8053 90.5905 49.3373 90.7305 49.972C90.8799 50.5973 90.9545 51.3113 90.9545 52.114C90.9545 53.738 90.6652 54.9887 90.0865 55.866C89.5079 56.734 88.6725 57.168 87.5805 57.168C86.4885 57.168 85.6579 56.7247 85.0885 55.838C84.5192 54.9513 84.2345 53.7007 84.2345 52.086C84.2345 50.462 84.5239 49.216 85.1025 48.348C85.6812 47.4707 86.5165 47.032 87.6085 47.032ZM87.5945 48.18C87.2865 48.18 87.0065 48.25 86.7545 48.39C86.5025 48.5207 86.2879 48.74 86.1105 49.048C85.9332 49.3467 85.7979 49.7433 85.7045 50.238C85.6112 50.7327 85.5645 51.344 85.5645 52.072C85.5645 53.3693 85.7419 54.354 86.0965 55.026C86.4512 55.6887 86.9505 56.02 87.5945 56.02C87.9025 56.02 88.1825 55.9547 88.4345 55.824C88.6865 55.684 88.9012 55.4647 89.0785 55.166C89.2559 54.858 89.3912 54.4567 89.4845 53.962C89.5779 53.4673 89.6245 52.856 89.6245 52.128C89.6245 50.8307 89.4472 49.8507 89.0925 49.188C88.7379 48.516 88.2385 48.18 87.5945 48.18ZM96.0031 47.032C96.5444 47.032 97.0251 47.1487 97.4451 47.382C97.8651 47.606 98.2151 47.9373 98.4951 48.376C98.7751 48.8053 98.9851 49.3373 99.1251 49.972C99.2744 50.5973 99.3491 51.3113 99.3491 52.114C99.3491 53.738 99.0597 54.9887 98.4811 55.866C97.9024 56.734 97.0671 57.168 95.9751 57.168C94.8831 57.168 94.0524 56.7247 93.4831 55.838C92.9137 54.9513 92.6291 53.7007 92.6291 52.086C92.6291 50.462 92.9184 49.216 93.4971 48.348C94.0757 47.4707 94.9111 47.032 96.0031 47.032ZM95.9891 48.18C95.6811 48.18 95.4011 48.25 95.1491 48.39C94.8971 48.5207 94.6824 48.74 94.5051 49.048C94.3277 49.3467 94.1924 49.7433 94.0991 50.238C94.0057 50.7327 93.9591 51.344 93.9591 52.072C93.9591 53.3693 94.1364 54.354 94.4911 55.026C94.8457 55.6887 95.3451 56.02 95.9891 56.02C96.2971 56.02 96.5771 55.9547 96.8291 55.824C97.0811 55.684 97.2957 55.4647 97.4731 55.166C97.6504 54.858 97.7857 54.4567 97.8791 53.962C97.9724 53.4673 98.0191 52.856 98.0191 52.128C98.0191 50.8307 97.8417 49.8507 97.4871 49.188C97.1324 48.516 96.6331 48.18 95.9891 48.18ZM104.398 47.032C104.939 47.032 105.42 47.1487 105.84 47.382C106.26 47.606 106.61 47.9373 106.89 48.376C107.17 48.8053 107.38 49.3373 107.52 49.972C107.669 50.5973 107.744 51.3113 107.744 52.114C107.744 53.738 107.454 54.9887 106.876 55.866C106.297 56.734 105.462 57.168 104.37 57.168C103.278 57.168 102.447 56.7247 101.878 55.838C101.308 54.9513 101.024 53.7007 101.024 52.086C101.024 50.462 101.313 49.216 101.892 48.348C102.47 47.4707 103.306 47.032 104.398 47.032ZM104.384 48.18C104.076 48.18 103.796 48.25 103.544 48.39C103.292 48.5207 103.077 48.74 102.9 49.048C102.722 49.3467 102.587 49.7433 102.494 50.238C102.4 50.7327 102.354 51.344 102.354 52.072C102.354 53.3693 102.531 54.354 102.886 55.026C103.24 55.6887 103.74 56.02 104.384 56.02C104.692 56.02 104.972 55.9547 105.224 55.824C105.476 55.684 105.69 55.4647 105.868 55.166C106.045 54.858 106.18 54.4567 106.274 53.962C106.367 53.4673 106.414 52.856 106.414 52.128C106.414 50.8307 106.236 49.8507 105.882 49.188C105.527 48.516 105.028 48.18 104.384 48.18ZM109.236 57.644L113.184 46.178L114.22 46.528L110.272 57.994L109.236 57.644ZM121.223 54.914V57H119.963V54.914H115.777V53.906L118.703 47.102L119.795 47.564L117.149 53.766H119.963V50.98H121.223V53.766H122.385V54.914H121.223ZM130.485 53.962C130.485 54.4287 130.401 54.858 130.233 55.25C130.075 55.642 129.841 55.9827 129.533 56.272C129.235 56.552 128.875 56.7713 128.455 56.93C128.035 57.0887 127.569 57.168 127.055 57.168C126.477 57.168 125.982 57.1073 125.571 56.986C125.17 56.8553 124.801 56.6733 124.465 56.44L125.123 55.362C125.385 55.5487 125.674 55.7073 125.991 55.838C126.309 55.9593 126.668 56.02 127.069 56.02C127.377 56.02 127.657 55.9733 127.909 55.88C128.171 55.7867 128.39 55.656 128.567 55.488C128.754 55.3107 128.899 55.1053 129.001 54.872C129.104 54.6387 129.155 54.382 129.155 54.102C129.155 53.514 128.955 53.038 128.553 52.674C128.161 52.31 127.597 52.128 126.859 52.128H125.123V47.2H129.967V48.334H126.313V50.994H127.013C127.555 50.994 128.04 51.0687 128.469 51.218C128.899 51.358 129.263 51.5633 129.561 51.834C129.86 52.0953 130.089 52.408 130.247 52.772C130.406 53.136 130.485 53.5327 130.485 53.962ZM135.884 47.032C136.425 47.032 136.906 47.1487 137.326 47.382C137.746 47.606 138.096 47.9373 138.376 48.376C138.656 48.8053 138.866 49.3373 139.006 49.972C139.155 50.5973 139.23 51.3113 139.23 52.114C139.23 53.738 138.941 54.9887 138.362 55.866C137.783 56.734 136.948 57.168 135.856 57.168C134.764 57.168 133.933 56.7247 133.364 55.838C132.795 54.9513 132.51 53.7007 132.51 52.086C132.51 50.462 132.799 49.216 133.378 48.348C133.957 47.4707 134.792 47.032 135.884 47.032ZM135.87 48.18C135.562 48.18 135.282 48.25 135.03 48.39C134.778 48.5207 134.563 48.74 134.386 49.048C134.209 49.3467 134.073 49.7433 133.98 50.238C133.887 50.7327 133.84 51.344 133.84 52.072C133.84 53.3693 134.017 54.354 134.372 55.026C134.727 55.6887 135.226 56.02 135.87 56.02C136.178 56.02 136.458 55.9547 136.71 55.824C136.962 55.684 137.177 55.4647 137.354 55.166C137.531 54.858 137.667 54.4567 137.76 53.962C137.853 53.4673 137.9 52.856 137.9 52.128C137.9 50.8307 137.723 49.8507 137.368 49.188C137.013 48.516 136.514 48.18 135.87 48.18ZM144.278 47.032C144.82 47.032 145.3 47.1487 145.72 47.382C146.14 47.606 146.49 47.9373 146.77 48.376C147.05 48.8053 147.26 49.3373 147.4 49.972C147.55 50.5973 147.624 51.3113 147.624 52.114C147.624 53.738 147.335 54.9887 146.756 55.866C146.178 56.734 145.342 57.168 144.25 57.168C143.158 57.168 142.328 56.7247 141.758 55.838C141.189 54.9513 140.904 53.7007 140.904 52.086C140.904 50.462 141.194 49.216 141.772 48.348C142.351 47.4707 143.186 47.032 144.278 47.032ZM144.264 48.18C143.956 48.18 143.676 48.25 143.424 48.39C143.172 48.5207 142.958 48.74 142.78 49.048C142.603 49.3467 142.468 49.7433 142.374 50.238C142.281 50.7327 142.234 51.344 142.234 52.072C142.234 53.3693 142.412 54.354 142.766 55.026C143.121 55.6887 143.62 56.02 144.264 56.02C144.572 56.02 144.852 55.9547 145.104 55.824C145.356 55.684 145.571 55.4647 145.748 55.166C145.926 54.858 146.061 54.4567 146.154 53.962C146.248 53.4673 146.294 52.856 146.294 52.128C146.294 50.8307 146.117 49.8507 145.762 49.188C145.408 48.516 144.908 48.18 144.264 48.18ZM153.482 49.72C154.341 49.72 154.878 50.0607 155.092 50.742C155.158 50.6393 155.256 50.518 155.386 50.378C155.526 50.238 155.694 50.1073 155.89 49.986C156.086 49.8647 156.31 49.762 156.562 49.678C156.814 49.594 157.094 49.552 157.402 49.552C157.822 49.552 158.224 49.636 158.606 49.804C158.998 49.972 159.339 50.2147 159.628 50.532C159.927 50.8493 160.165 51.2413 160.342 51.708C160.52 52.1747 160.608 52.702 160.608 53.29C160.608 53.8687 160.52 54.396 160.342 54.872C160.174 55.348 159.941 55.7587 159.642 56.104C159.353 56.44 159.017 56.7013 158.634 56.888C158.252 57.0747 157.85 57.168 157.43 57.168C156.992 57.168 156.586 57.084 156.212 56.916C155.848 56.7387 155.545 56.538 155.302 56.314V60.08H154.042V51.582C154.042 51.2647 153.963 51.0407 153.804 50.91C153.655 50.77 153.459 50.7 153.216 50.7L153.482 49.72ZM159.32 53.332C159.32 52.912 159.26 52.5387 159.138 52.212C159.026 51.876 158.868 51.5913 158.662 51.358C158.466 51.1247 158.233 50.9473 157.962 50.826C157.701 50.7047 157.421 50.644 157.122 50.644C156.721 50.644 156.357 50.7467 156.03 50.952C155.713 51.148 155.47 51.3627 155.302 51.596V55.18C155.545 55.432 155.82 55.642 156.128 55.81C156.446 55.9687 156.796 56.048 157.178 56.048C157.496 56.048 157.785 55.9827 158.046 55.852C158.308 55.7213 158.532 55.5393 158.718 55.306C158.914 55.0633 159.064 54.7787 159.166 54.452C159.269 54.116 159.32 53.7427 159.32 53.332ZM162.936 47.69H163.902V49.986H165.918V51.078H163.902V54.592C163.902 54.8627 163.93 55.0913 163.986 55.278C164.052 55.4647 164.136 55.614 164.238 55.726C164.341 55.838 164.462 55.922 164.602 55.978C164.752 56.0247 164.906 56.048 165.064 56.048C165.298 56.048 165.517 56.0107 165.722 55.936C165.928 55.8613 166.124 55.7727 166.31 55.67L166.66 56.678C166.474 56.79 166.222 56.8973 165.904 57C165.587 57.112 165.256 57.168 164.91 57.168C164.21 57.168 163.655 56.9393 163.244 56.482C162.843 56.0247 162.642 55.362 162.642 54.494V51.078H161.382V49.986H162.67L162.936 47.69ZM167.965 55.362C168.208 55.5767 168.511 55.7493 168.875 55.88C169.249 56.0107 169.645 56.076 170.065 56.076C170.588 56.076 170.98 55.992 171.241 55.824C171.512 55.6467 171.647 55.4227 171.647 55.152C171.647 55.012 171.619 54.8813 171.563 54.76C171.517 54.6387 171.423 54.522 171.283 54.41C171.153 54.298 170.971 54.1907 170.737 54.088C170.504 53.976 170.201 53.8547 169.827 53.724C169.137 53.4907 168.623 53.2153 168.287 52.898C167.951 52.5713 167.783 52.1233 167.783 51.554C167.783 51.274 167.844 51.0127 167.965 50.77C168.096 50.5273 168.278 50.3173 168.511 50.14C168.754 49.9533 169.043 49.8087 169.379 49.706C169.725 49.6033 170.117 49.552 170.555 49.552C171.031 49.552 171.447 49.6033 171.801 49.706C172.165 49.7993 172.492 49.9207 172.781 50.07L172.431 51.106C172.179 50.9567 171.89 50.8353 171.563 50.742C171.246 50.6487 170.891 50.602 170.499 50.602C170.014 50.602 169.645 50.7 169.393 50.896C169.141 51.092 169.015 51.3067 169.015 51.54C169.015 51.652 169.034 51.7547 169.071 51.848C169.118 51.9413 169.197 52.03 169.309 52.114C169.421 52.198 169.571 52.282 169.757 52.366C169.944 52.45 170.177 52.5387 170.457 52.632C170.915 52.7907 171.302 52.954 171.619 53.122C171.937 53.2807 172.193 53.458 172.389 53.654C172.585 53.85 172.725 54.0647 172.809 54.298C172.893 54.522 172.935 54.774 172.935 55.054C172.935 55.3807 172.865 55.6747 172.725 55.936C172.585 56.1973 172.389 56.4213 172.137 56.608C171.885 56.7853 171.577 56.9207 171.213 57.014C170.859 57.1167 170.462 57.168 170.023 57.168C169.463 57.168 168.964 57.098 168.525 56.958C168.087 56.818 167.723 56.636 167.433 56.412L167.965 55.362ZM179.383 47.69H180.349V49.986H182.365V51.078H180.349V54.592C180.349 54.8627 180.377 55.0913 180.433 55.278C180.499 55.4647 180.583 55.614 180.685 55.726C180.788 55.838 180.909 55.922 181.049 55.978C181.199 56.0247 181.353 56.048 181.511 56.048C181.745 56.048 181.964 56.0107 182.169 55.936C182.375 55.8613 182.571 55.7727 182.757 55.67L183.107 56.678C182.921 56.79 182.669 56.8973 182.351 57C182.034 57.112 181.703 57.168 181.357 57.168C180.657 57.168 180.102 56.9393 179.691 56.482C179.29 56.0247 179.089 55.362 179.089 54.494V51.078H177.829V49.986H179.117L179.383 47.69ZM189.504 53.36C189.504 52.996 189.444 52.6507 189.322 52.324C189.21 51.9973 189.047 51.7127 188.832 51.47C188.627 51.2273 188.38 51.036 188.09 50.896C187.81 50.7467 187.502 50.672 187.166 50.672C186.429 50.672 185.855 50.9147 185.444 51.4C185.034 51.8853 184.828 52.5293 184.828 53.332C184.828 53.696 184.884 54.046 184.996 54.382C185.118 54.7087 185.281 54.998 185.486 55.25C185.701 55.4927 185.948 55.6887 186.228 55.838C186.518 55.978 186.83 56.048 187.166 56.048C187.53 56.048 187.857 55.9827 188.146 55.852C188.436 55.7213 188.678 55.5393 188.874 55.306C189.08 55.0633 189.234 54.7787 189.336 54.452C189.448 54.1253 189.504 53.7613 189.504 53.36ZM183.54 53.36C183.54 52.772 183.634 52.2447 183.82 51.778C184.007 51.302 184.259 50.9007 184.576 50.574C184.903 50.2473 185.286 49.9953 185.724 49.818C186.172 49.6407 186.653 49.552 187.166 49.552C187.67 49.552 188.142 49.6407 188.58 49.818C189.028 49.9953 189.416 50.2473 189.742 50.574C190.069 50.9007 190.326 51.2973 190.512 51.764C190.699 52.2307 190.792 52.7533 190.792 53.332C190.792 53.9107 190.699 54.438 190.512 54.914C190.335 55.3807 190.083 55.782 189.756 56.118C189.43 56.454 189.042 56.7153 188.594 56.902C188.156 57.0793 187.68 57.168 187.166 57.168C186.644 57.168 186.158 57.0747 185.71 56.888C185.272 56.7013 184.889 56.44 184.562 56.104C184.245 55.768 183.993 55.3667 183.806 54.9C183.629 54.4333 183.54 53.92 183.54 53.36ZM200.613 50.938C200.436 50.8633 200.226 50.826 199.983 50.826C199.722 50.826 199.465 50.882 199.213 50.994C198.97 51.106 198.751 51.274 198.555 51.498C198.368 51.722 198.214 52.0113 198.093 52.366C197.981 52.7113 197.925 53.122 197.925 53.598V57H196.665V49.72H197.883V51.302C197.967 51.078 198.079 50.8587 198.219 50.644C198.359 50.4293 198.522 50.2427 198.709 50.084C198.905 49.9253 199.129 49.7993 199.381 49.706C199.633 49.6033 199.913 49.552 200.221 49.552C200.361 49.552 200.496 49.5613 200.627 49.58C200.767 49.5893 200.888 49.608 200.991 49.636L200.613 50.938ZM202.631 53.878C202.715 54.5593 202.953 55.0913 203.345 55.474C203.737 55.8567 204.255 56.048 204.899 56.048C205.319 56.048 205.697 56.006 206.033 55.922C206.369 55.8287 206.691 55.712 206.999 55.572L207.293 56.65C206.957 56.8087 206.579 56.9347 206.159 57.028C205.739 57.1213 205.268 57.168 204.745 57.168C204.222 57.168 203.751 57.084 203.331 56.916C202.911 56.7387 202.552 56.4913 202.253 56.174C201.964 55.8473 201.74 55.4507 201.581 54.984C201.422 54.508 201.343 53.9667 201.343 53.36C201.343 52.8187 201.422 52.3147 201.581 51.848C201.74 51.3813 201.964 50.98 202.253 50.644C202.542 50.2987 202.888 50.0327 203.289 49.846C203.69 49.65 204.138 49.552 204.633 49.552C205.156 49.552 205.613 49.6407 206.005 49.818C206.397 49.9953 206.724 50.238 206.985 50.546C207.246 50.854 207.442 51.2133 207.573 51.624C207.704 52.0347 207.769 52.4687 207.769 52.926C207.769 53.2527 207.755 53.57 207.727 53.878H202.631ZM204.605 50.644C204.054 50.644 203.602 50.8307 203.247 51.204C202.902 51.5773 202.692 52.128 202.617 52.856H206.607C206.607 52.1467 206.43 51.6007 206.075 51.218C205.72 50.8353 205.23 50.644 204.605 50.644ZM208.958 53.402C208.958 52.8607 209.042 52.3567 209.21 51.89C209.378 51.414 209.611 51.0033 209.91 50.658C210.218 50.3127 210.582 50.042 211.002 49.846C211.431 49.65 211.898 49.552 212.402 49.552C212.822 49.552 213.2 49.6267 213.536 49.776C213.881 49.916 214.18 50.0933 214.432 50.308V49.72H215.58V55.236C215.58 55.5907 215.664 55.824 215.832 55.936C216.009 56.0387 216.201 56.09 216.406 56.09L216.14 57.07C215.244 57.07 214.703 56.706 214.516 55.978C214.404 56.1273 214.273 56.2767 214.124 56.426C213.984 56.566 213.821 56.692 213.634 56.804C213.447 56.916 213.237 57.0047 213.004 57.07C212.771 57.1353 212.514 57.168 212.234 57.168C211.777 57.168 211.347 57.0793 210.946 56.902C210.554 56.7247 210.209 56.4727 209.91 56.146C209.621 55.8193 209.387 55.4273 209.21 54.97C209.042 54.5033 208.958 53.9807 208.958 53.402ZM212.514 56.048C212.869 56.048 213.205 55.964 213.522 55.796C213.839 55.628 214.105 55.4087 214.32 55.138V51.232C214.068 51.0547 213.788 50.9147 213.48 50.812C213.181 50.7 212.864 50.644 212.528 50.644C212.192 50.644 211.884 50.7093 211.604 50.84C211.324 50.9707 211.081 51.1573 210.876 51.4C210.68 51.6333 210.526 51.918 210.414 52.254C210.302 52.59 210.246 52.9587 210.246 53.36C210.246 53.752 210.302 54.116 210.414 54.452C210.526 54.7787 210.685 55.0633 210.89 55.306C211.095 55.5393 211.333 55.7213 211.604 55.852C211.884 55.9827 212.187 56.048 212.514 56.048ZM222.6 51.05C222.329 50.9193 222.077 50.826 221.844 50.77C221.611 50.7047 221.349 50.672 221.06 50.672C220.733 50.672 220.425 50.7327 220.136 50.854C219.856 50.9753 219.613 51.1527 219.408 51.386C219.203 51.61 219.039 51.8853 218.918 52.212C218.806 52.5387 218.75 52.912 218.75 53.332C218.75 53.7147 218.801 54.0693 218.904 54.396C219.016 54.7227 219.17 55.012 219.366 55.264C219.562 55.5067 219.795 55.698 220.066 55.838C220.337 55.978 220.64 56.048 220.976 56.048C221.331 56.048 221.634 56.0107 221.886 55.936C222.138 55.8613 222.409 55.7447 222.698 55.586L223.09 56.65C222.791 56.8087 222.465 56.9347 222.11 57.028C221.755 57.1213 221.349 57.168 220.892 57.168C220.369 57.168 219.898 57.0747 219.478 56.888C219.058 56.7013 218.699 56.44 218.4 56.104C218.101 55.768 217.868 55.3667 217.7 54.9C217.541 54.4333 217.462 53.92 217.462 53.36C217.462 52.8373 217.541 52.3473 217.7 51.89C217.868 51.4233 218.106 51.0173 218.414 50.672C218.722 50.3267 219.091 50.056 219.52 49.86C219.959 49.6547 220.449 49.552 220.99 49.552C221.41 49.552 221.774 49.5893 222.082 49.664C222.39 49.7387 222.689 49.846 222.978 49.986L222.6 51.05ZM225.816 50.882C226.077 50.4993 226.404 50.182 226.796 49.93C227.197 49.678 227.673 49.552 228.224 49.552C229.045 49.552 229.656 49.7993 230.058 50.294C230.468 50.7887 230.674 51.442 230.674 52.254V57H229.414V52.394C229.414 51.862 229.292 51.442 229.05 51.134C228.816 50.8167 228.476 50.658 228.028 50.658C227.813 50.658 227.598 50.7 227.384 50.784C227.178 50.8587 226.982 50.966 226.796 51.106C226.609 51.246 226.432 51.4093 226.264 51.596C226.096 51.7827 225.946 51.9787 225.816 52.184V57H224.556V46.64H225.816V50.882ZM238.228 54.592C238.228 55.096 238.331 55.4693 238.536 55.712C238.751 55.9547 239.045 56.076 239.418 56.076C239.595 56.076 239.768 56.0573 239.936 56.02C240.104 55.9733 240.253 55.922 240.384 55.866L240.692 56.888C240.524 56.9627 240.314 57.028 240.062 57.084C239.819 57.14 239.549 57.168 239.25 57.168C238.923 57.168 238.62 57.1213 238.34 57.028C238.069 56.9347 237.831 56.79 237.626 56.594C237.421 56.398 237.257 56.146 237.136 55.838C237.024 55.53 236.968 55.1567 236.968 54.718V46.64H238.228V54.592ZM242.471 53.878C242.555 54.5593 242.793 55.0913 243.185 55.474C243.577 55.8567 244.095 56.048 244.739 56.048C245.159 56.048 245.537 56.006 245.873 55.922C246.209 55.8287 246.531 55.712 246.839 55.572L247.133 56.65C246.797 56.8087 246.419 56.9347 245.999 57.028C245.579 57.1213 245.107 57.168 244.585 57.168C244.062 57.168 243.591 57.084 243.171 56.916C242.751 56.7387 242.391 56.4913 242.093 56.174C241.803 55.8473 241.579 55.4507 241.421 54.984C241.262 54.508 241.183 53.9667 241.183 53.36C241.183 52.8187 241.262 52.3147 241.421 51.848C241.579 51.3813 241.803 50.98 242.093 50.644C242.382 50.2987 242.727 50.0327 243.129 49.846C243.53 49.65 243.978 49.552 244.473 49.552C244.995 49.552 245.453 49.6407 245.845 49.818C246.237 49.9953 246.563 50.238 246.825 50.546C247.086 50.854 247.282 51.2133 247.413 51.624C247.543 52.0347 247.609 52.4687 247.609 52.926C247.609 53.2527 247.595 53.57 247.567 53.878H242.471ZM244.445 50.644C243.894 50.644 243.441 50.8307 243.087 51.204C242.741 51.5773 242.531 52.128 242.457 52.856H246.447C246.447 52.1467 246.269 51.6007 245.915 51.218C245.56 50.8353 245.07 50.644 244.445 50.644ZM248.308 50.056L249.456 49.58L251.934 55.572L254.412 49.58L255.49 50.056L252.55 57H251.234L248.308 50.056ZM257.277 53.878C257.361 54.5593 257.599 55.0913 257.991 55.474C258.383 55.8567 258.901 56.048 259.545 56.048C259.965 56.048 260.343 56.006 260.679 55.922C261.015 55.8287 261.337 55.712 261.645 55.572L261.939 56.65C261.603 56.8087 261.225 56.9347 260.805 57.028C260.385 57.1213 259.914 57.168 259.391 57.168C258.869 57.168 258.397 57.084 257.977 56.916C257.557 56.7387 257.198 56.4913 256.899 56.174C256.61 55.8473 256.386 55.4507 256.227 54.984C256.069 54.508 255.989 53.9667 255.989 53.36C255.989 52.8187 256.069 52.3147 256.227 51.848C256.386 51.3813 256.61 50.98 256.899 50.644C257.189 50.2987 257.534 50.0327 257.935 49.846C258.337 49.65 258.785 49.552 259.279 49.552C259.802 49.552 260.259 49.6407 260.651 49.818C261.043 49.9953 261.37 50.238 261.631 50.546C261.893 50.854 262.089 51.2133 262.219 51.624C262.35 52.0347 262.415 52.4687 262.415 52.926C262.415 53.2527 262.401 53.57 262.373 53.878H257.277ZM259.251 50.644C258.701 50.644 258.248 50.8307 257.893 51.204C257.548 51.5773 257.338 52.128 257.263 52.856H261.253C261.253 52.1467 261.076 51.6007 260.721 51.218C260.367 50.8353 259.877 50.644 259.251 50.644ZM265.285 54.592C265.285 55.096 265.387 55.4693 265.593 55.712C265.807 55.9547 266.101 56.076 266.475 56.076C266.652 56.076 266.825 56.0573 266.993 56.02C267.161 55.9733 267.31 55.922 267.441 55.866L267.749 56.888C267.581 56.9627 267.371 57.028 267.119 57.084C266.876 57.14 266.605 57.168 266.307 57.168C265.98 57.168 265.677 57.1213 265.397 57.028C265.126 56.9347 264.888 56.79 264.683 56.594C264.477 56.398 264.314 56.146 264.193 55.838C264.081 55.53 264.025 55.1567 264.025 54.718V46.64H265.285V54.592ZM279.222 53.962C279.222 54.4287 279.138 54.858 278.97 55.25C278.811 55.642 278.578 55.9827 278.27 56.272C277.971 56.552 277.612 56.7713 277.192 56.93C276.772 57.0887 276.305 57.168 275.792 57.168C275.213 57.168 274.718 57.1073 274.308 56.986C273.906 56.8553 273.538 56.6733 273.202 56.44L273.86 55.362C274.121 55.5487 274.41 55.7073 274.728 55.838C275.045 55.9593 275.404 56.02 275.806 56.02C276.114 56.02 276.394 55.9733 276.646 55.88C276.907 55.7867 277.126 55.656 277.304 55.488C277.49 55.3107 277.635 55.1053 277.738 54.872C277.84 54.6387 277.892 54.382 277.892 54.102C277.892 53.514 277.691 53.038 277.29 52.674C276.898 52.31 276.333 52.128 275.596 52.128H273.86V47.2H278.704V48.334H275.05V50.994H275.75C276.291 50.994 276.776 51.0687 277.206 51.218C277.635 51.358 277.999 51.5633 278.298 51.834C278.596 52.0953 278.825 52.408 278.984 52.772C279.142 53.136 279.222 53.5327 279.222 53.962Z" fill="#828282"/>
<circle cx="37.5" cy="37.5" r="21.5" fill="#FE7762"/>
<path d="M31.828 41.264V39.716L37.876 31.04H40.36V39.482H42.034V41.264H40.36V44H38.344V41.264H31.828ZM38.434 33.128L34.186 39.482H38.434V33.128Z" fill="white"/>
</svg>
