<svg width="38" height="22" viewBox="0 0 38 22" fill="none" xmlns="http://www.w3.org/2000/svg">
<path d="M0 8C0 3.58172 3.58172 0 8 0H30C34.4183 0 38 3.58172 38 8V14C38 18.4183 34.4183 22 30 22H8C3.58172 22 0 18.4183 0 14V8Z" fill="#E37C00"/>
<path d="M10.1104 7.3H11.1554L9.96741 14.065H13.4984L13.3334 15H8.75741L10.1104 7.3ZM14.3648 15L15.7178 7.3H16.7628L15.4098 15H14.3648ZM17.6369 7.399L18.6819 7.179L20.0129 13.856L23.5109 7.212L24.4349 7.718L20.4419 15H19.2429L17.6369 7.399ZM25.5577 7.3H30.1227L29.9687 8.202H26.4377L26.0307 10.545H29.0557L28.9017 11.425H25.8767L25.4037 14.098H28.9237L28.7697 15H24.2047L25.5577 7.3Z" fill="white"/>
</svg>
