<svg width="24" height="22" viewBox="0 0 24 22" fill="none" xmlns="http://www.w3.org/2000/svg">
<path d="M9 13.9299H3.7497C1.6788 13.9299 0 12.2048 0 10.0757C0 7.94689 1.6785 6.22141 3.7497 6.22141C3.7497 3.66741 5.7642 1.59721 8.25 1.59659C10.3209 -0.532198 13.6794 -0.532198 15.75 1.59659C19.0638 1.59659 21.7503 4.35687 21.7503 7.76342V8.38689C23.0937 9.18704 24 10.6773 24 12.3892C24 14.9422 21.9852 17.0137 19.5 17.0137H17.1606C17.4624 18.6877 18.2397 20.2886 19.5 21.5839H16.5003C15.1944 20.2414 14.2413 18.6781 13.6212 17.0137H11.9994C10.3428 17.0137 9 15.6332 9 13.9299Z" fill="#D0AAD0"/>
</svg>
