<svg width="171" height="148" viewBox="0 0 171 148" fill="none" xmlns="http://www.w3.org/2000/svg">
<path d="M15.7557 135.57L15.9477 134.402H16.4597C16.9824 134.402 17.457 134.354 17.8837 134.258C18.3104 134.162 18.673 134.024 18.9717 133.842C19.2704 133.661 19.4997 133.442 19.6597 133.186C19.8304 132.92 19.9157 132.621 19.9157 132.29C19.9157 131.8 19.745 131.41 19.4037 131.122C19.073 130.824 18.6464 130.674 18.1237 130.674C17.633 130.674 17.2117 130.754 16.8597 130.914C16.5077 131.064 16.193 131.24 15.9157 131.442L15.3557 130.354C15.729 130.088 16.1557 129.869 16.6357 129.698C17.1157 129.517 17.6704 129.426 18.2997 129.426C18.7904 129.426 19.2277 129.501 19.6117 129.65C19.9957 129.789 20.321 129.981 20.5877 130.226C20.8544 130.461 21.057 130.738 21.1957 131.058C21.3344 131.378 21.4037 131.709 21.4037 132.05C21.4037 132.808 21.185 133.416 20.7477 133.874C20.3104 134.333 19.6704 134.69 18.8277 134.946C19.4997 135.192 20.017 135.544 20.3797 136.002C20.7424 136.45 20.9237 136.989 20.9237 137.618C20.9237 138.13 20.8224 138.6 20.6197 139.026C20.417 139.442 20.1344 139.8 19.7717 140.098C19.409 140.386 18.977 140.61 18.4757 140.77C17.9744 140.93 17.4304 141.01 16.8437 141.01C16.2357 141.01 15.6597 140.93 15.1157 140.77C14.5824 140.6 14.129 140.37 13.7557 140.082L14.6037 138.946C14.8704 139.17 15.1904 139.357 15.5637 139.506C15.937 139.656 16.3637 139.73 16.8437 139.73C17.2064 139.73 17.5424 139.688 17.8517 139.602C18.161 139.506 18.4277 139.373 18.6517 139.202C18.8757 139.032 19.0517 138.818 19.1797 138.562C19.3077 138.306 19.3717 138.013 19.3717 137.682C19.3717 137.394 19.313 137.122 19.1957 136.866C19.0784 136.61 18.9024 136.386 18.6677 136.194C18.4437 136.002 18.1557 135.853 17.8037 135.746C17.4517 135.629 17.041 135.57 16.5717 135.57H15.7557ZM22.7734 141.378L29.4614 128.45L30.5814 129.026L23.8934 141.954L22.7734 141.378ZM34.0406 139.538L35.4646 131.49L33.0806 133.154L32.4246 132.002L36.1686 129.618H37.2246L35.4806 139.538H37.3846L37.1606 140.818H31.5286L31.7526 139.538H34.0406ZM41.0903 138.866C41.3783 139.122 41.7143 139.325 42.0983 139.474C42.493 139.624 42.9303 139.698 43.4103 139.698C43.7943 139.698 44.1463 139.645 44.4663 139.538C44.797 139.432 45.0796 139.277 45.3143 139.074C45.5596 138.872 45.7516 138.626 45.8903 138.338C46.029 138.05 46.0983 137.725 46.0983 137.362C46.0983 136.744 45.869 136.237 45.4103 135.842C44.9623 135.448 44.3063 135.25 43.4423 135.25H41.8583L42.8343 129.618H48.3543L48.1303 130.914H43.9703L43.4423 133.954H43.7463C44.397 133.954 44.9676 134.04 45.4583 134.21C45.949 134.381 46.3543 134.616 46.6743 134.914C47.005 135.202 47.2503 135.544 47.4103 135.938C47.5703 136.322 47.6503 136.728 47.6503 137.154C47.6503 137.73 47.5436 138.253 47.3303 138.722C47.1276 139.192 46.8343 139.597 46.4503 139.938C46.077 140.28 45.6236 140.546 45.0903 140.738C44.557 140.92 43.9703 141.01 43.3303 141.01C42.6903 141.01 42.0983 140.93 41.5543 140.77C41.021 140.6 40.5783 140.376 40.2263 140.098L41.0903 138.866ZM59.8329 132.306C60.4729 132.306 61.0276 132.37 61.4969 132.498C61.9769 132.626 62.3716 132.754 62.6809 132.882L61.2889 140.914C61.1609 141.65 60.9636 142.248 60.6969 142.706C60.4303 143.176 60.1263 143.544 59.7849 143.81C59.4436 144.088 59.0809 144.274 58.6969 144.37C58.3129 144.477 57.9343 144.53 57.5609 144.53C56.8356 144.53 56.2169 144.381 55.7049 144.082C55.2036 143.794 54.7929 143.448 54.4729 143.042L55.5929 142.21C56.1156 142.925 56.8036 143.282 57.6569 143.282C58.1903 143.282 58.6596 143.085 59.0649 142.69C59.4703 142.296 59.7583 141.624 59.9289 140.674L60.2009 139.106C59.8916 139.586 59.5183 139.992 59.0809 140.322C58.6436 140.653 58.1476 140.818 57.5929 140.818C57.2089 140.818 56.8356 140.749 56.4729 140.61C56.1103 140.461 55.7849 140.248 55.4969 139.97C55.2089 139.693 54.9796 139.346 54.8089 138.93C54.6383 138.514 54.5529 138.04 54.5529 137.506C54.5529 136.738 54.6863 136.034 54.9529 135.394C55.2196 134.754 55.5876 134.205 56.0569 133.746C56.5263 133.288 57.0809 132.936 57.7209 132.69C58.3716 132.434 59.0756 132.306 59.8329 132.306ZM56.0249 137.346C56.0249 137.709 56.0783 138.029 56.1849 138.306C56.3023 138.573 56.4516 138.802 56.6329 138.994C56.8143 139.176 57.0223 139.314 57.2569 139.41C57.4916 139.496 57.7316 139.538 57.9769 139.538C58.2756 139.538 58.5636 139.458 58.8409 139.298C59.1289 139.128 59.3903 138.893 59.6249 138.594C59.8703 138.285 60.0836 137.917 60.2649 137.49C60.4463 137.064 60.5849 136.584 60.6809 136.05L61.0969 133.73C60.8943 133.666 60.6809 133.618 60.4569 133.586C60.2329 133.544 59.9716 133.522 59.6729 133.522C59.1396 133.522 58.6489 133.624 58.2009 133.826C57.7529 134.018 57.3689 134.285 57.0489 134.626C56.7289 134.968 56.4783 135.373 56.2969 135.842C56.1156 136.301 56.0249 136.802 56.0249 137.346ZM67.6913 139.73C68.1713 139.73 68.598 139.64 68.9713 139.458C69.3446 139.277 69.6646 139.026 69.9313 138.706C70.198 138.386 70.4006 138.013 70.5393 137.586C70.678 137.16 70.7473 136.696 70.7473 136.194C70.7473 135.832 70.6886 135.49 70.5713 135.17C70.4646 134.85 70.3046 134.573 70.0913 134.338C69.8886 134.104 69.638 133.922 69.3393 133.794C69.0406 133.656 68.6993 133.586 68.3153 133.586C67.846 133.586 67.4193 133.677 67.0353 133.858C66.662 134.04 66.342 134.29 66.0753 134.61C65.8086 134.93 65.606 135.309 65.4673 135.746C65.3286 136.173 65.2593 136.632 65.2593 137.122C65.2593 137.485 65.3126 137.826 65.4193 138.146C65.526 138.466 65.6806 138.744 65.8833 138.978C66.0966 139.213 66.3526 139.4 66.6513 139.538C66.9606 139.666 67.3073 139.73 67.6913 139.73ZM67.6433 141.01C67.046 141.01 66.5073 140.92 66.0273 140.738C65.558 140.546 65.158 140.285 64.8273 139.954C64.4966 139.624 64.2406 139.229 64.0593 138.77C63.878 138.301 63.7873 137.794 63.7873 137.25C63.7873 136.557 63.894 135.912 64.1073 135.314C64.3206 134.706 64.6246 134.184 65.0193 133.746C65.4246 133.298 65.91 132.946 66.4753 132.69C67.0406 132.434 67.67 132.306 68.3633 132.306C68.95 132.306 69.4833 132.402 69.9633 132.594C70.4433 132.776 70.8486 133.032 71.1793 133.362C71.51 133.693 71.766 134.093 71.9473 134.562C72.1286 135.021 72.2193 135.522 72.2193 136.066C72.2193 136.76 72.1126 137.41 71.8993 138.018C71.686 138.616 71.3766 139.138 70.9713 139.586C70.5766 140.024 70.0966 140.37 69.5313 140.626C68.966 140.882 68.3366 141.01 67.6433 141.01ZM73.3967 137.538C73.3967 136.77 73.5247 136.066 73.7807 135.426C74.0474 134.776 74.4154 134.221 74.8847 133.762C75.354 133.304 75.914 132.946 76.5647 132.69C77.2154 132.434 77.9247 132.306 78.6927 132.306C79.322 132.306 79.8714 132.37 80.3407 132.498C80.8207 132.626 81.2154 132.754 81.5247 132.882L80.5167 138.562C80.506 138.616 80.4954 138.68 80.4847 138.754C80.4847 138.818 80.4847 138.888 80.4847 138.962C80.4847 139.261 80.57 139.474 80.7407 139.602C80.9114 139.72 81.1354 139.778 81.4127 139.778L80.9167 140.898C80.3407 140.898 79.898 140.76 79.5887 140.482C79.29 140.205 79.1407 139.762 79.1407 139.154C78.842 139.666 78.4634 140.104 78.0047 140.466C77.5567 140.829 77.0287 141.01 76.4207 141.01C76.026 141.01 75.6474 140.93 75.2847 140.77C74.922 140.61 74.5967 140.381 74.3087 140.082C74.0314 139.784 73.8074 139.421 73.6367 138.994C73.4767 138.557 73.3967 138.072 73.3967 137.538ZM79.9407 133.73C79.738 133.666 79.5247 133.618 79.3007 133.586C79.0874 133.544 78.826 133.522 78.5167 133.522C77.962 133.522 77.4607 133.618 77.0127 133.81C76.5647 134.002 76.1807 134.269 75.8607 134.61C75.5407 134.952 75.2954 135.357 75.1247 135.826C74.954 136.296 74.8687 136.808 74.8687 137.362C74.8687 137.746 74.922 138.088 75.0287 138.386C75.146 138.674 75.2954 138.92 75.4767 139.122C75.658 139.325 75.8607 139.48 76.0847 139.586C76.3194 139.682 76.5594 139.73 76.8047 139.73C77.1247 139.73 77.4287 139.645 77.7167 139.474C78.0154 139.304 78.282 139.064 78.5167 138.754C78.7514 138.434 78.954 138.061 79.1247 137.634C79.2954 137.197 79.4234 136.722 79.5087 136.21L79.9407 133.73ZM84.6094 137.938C84.5881 138.088 84.5721 138.216 84.5614 138.322C84.5508 138.429 84.5454 138.525 84.5454 138.61C84.5454 138.984 84.6521 139.272 84.8654 139.474C85.0788 139.666 85.3721 139.762 85.7454 139.762C85.9268 139.762 86.1081 139.741 86.2894 139.698C86.4708 139.656 86.6361 139.597 86.7854 139.522L86.9294 140.69C86.7374 140.786 86.5134 140.861 86.2574 140.914C86.0014 140.978 85.7241 141.01 85.4254 141.01C85.1054 141.01 84.8014 140.962 84.5134 140.866C84.2361 140.781 83.9908 140.648 83.7774 140.466C83.5748 140.285 83.4094 140.056 83.2814 139.778C83.1641 139.49 83.1054 139.16 83.1054 138.786C83.1054 138.637 83.1108 138.504 83.1214 138.386C83.1321 138.258 83.1481 138.12 83.1694 137.97L84.7374 128.978H86.1774L84.6094 137.938ZM93.9394 134.306C93.6301 134.093 93.2834 133.906 92.8994 133.746C92.5261 133.586 92.0994 133.506 91.6194 133.506C91.1074 133.506 90.7128 133.592 90.4354 133.762C90.1688 133.933 90.0354 134.157 90.0354 134.434C90.0354 134.562 90.0568 134.68 90.0994 134.786C90.1528 134.893 90.2381 135.005 90.3554 135.122C90.4834 135.229 90.6541 135.346 90.8674 135.474C91.0808 135.602 91.3528 135.752 91.6834 135.922C92.4194 136.296 92.9581 136.674 93.2994 137.058C93.6514 137.432 93.8274 137.906 93.8274 138.482C93.8274 138.909 93.7421 139.282 93.5714 139.602C93.4008 139.912 93.1608 140.173 92.8514 140.386C92.5528 140.589 92.2008 140.744 91.7954 140.85C91.3901 140.957 90.9528 141.01 90.4834 141.01C89.8328 141.01 89.2568 140.93 88.7554 140.77C88.2648 140.6 87.8381 140.381 87.4754 140.114L88.2914 138.93C88.5794 139.165 88.9154 139.362 89.2994 139.522C89.6941 139.682 90.1314 139.762 90.6114 139.762C91.1554 139.762 91.5768 139.661 91.8754 139.458C92.1848 139.256 92.3394 139.005 92.3394 138.706C92.3394 138.568 92.3128 138.44 92.2594 138.322C92.2168 138.194 92.1314 138.066 92.0034 137.938C91.8754 137.81 91.6994 137.682 91.4754 137.554C91.2621 137.416 90.9901 137.261 90.6594 137.09C90.2541 136.888 89.9181 136.696 89.6514 136.514C89.3954 136.322 89.1874 136.125 89.0274 135.922C88.8781 135.72 88.7714 135.506 88.7074 135.282C88.6434 135.048 88.6114 134.792 88.6114 134.514C88.6114 134.194 88.6861 133.901 88.8354 133.634C88.9848 133.357 89.1928 133.122 89.4594 132.93C89.7261 132.738 90.0461 132.589 90.4194 132.482C90.7928 132.365 91.2034 132.306 91.6514 132.306C92.2488 132.306 92.7821 132.386 93.2514 132.546C93.7314 132.696 94.1528 132.877 94.5154 133.09L93.9394 134.306ZM100.022 137.538C100.022 136.77 100.15 136.066 100.406 135.426C100.672 134.776 101.04 134.221 101.51 133.762C101.979 133.304 102.539 132.946 103.19 132.69C103.84 132.434 104.55 132.306 105.318 132.306C105.947 132.306 106.496 132.37 106.966 132.498C107.446 132.626 107.84 132.754 108.15 132.882L107.142 138.562C107.131 138.616 107.12 138.68 107.11 138.754C107.11 138.818 107.11 138.888 107.11 138.962C107.11 139.261 107.195 139.474 107.366 139.602C107.536 139.72 107.76 139.778 108.038 139.778L107.542 140.898C106.966 140.898 106.523 140.76 106.214 140.482C105.915 140.205 105.766 139.762 105.766 139.154C105.467 139.666 105.088 140.104 104.63 140.466C104.182 140.829 103.654 141.01 103.046 141.01C102.651 141.01 102.272 140.93 101.91 140.77C101.547 140.61 101.222 140.381 100.934 140.082C100.656 139.784 100.432 139.421 100.262 138.994C100.102 138.557 100.022 138.072 100.022 137.538ZM106.566 133.73C106.363 133.666 106.15 133.618 105.926 133.586C105.712 133.544 105.451 133.522 105.142 133.522C104.587 133.522 104.086 133.618 103.638 133.81C103.19 134.002 102.806 134.269 102.486 134.61C102.166 134.952 101.92 135.357 101.75 135.826C101.579 136.296 101.494 136.808 101.494 137.362C101.494 137.746 101.547 138.088 101.654 138.386C101.771 138.674 101.92 138.92 102.102 139.122C102.283 139.325 102.486 139.48 102.71 139.586C102.944 139.682 103.184 139.73 103.43 139.73C103.75 139.73 104.054 139.645 104.342 139.474C104.64 139.304 104.907 139.064 105.142 138.754C105.376 138.434 105.579 138.061 105.75 137.634C105.92 137.197 106.048 136.722 106.134 136.21L106.566 133.73ZM115.716 134.178C115.439 134.008 115.146 133.869 114.836 133.762C114.538 133.645 114.202 133.586 113.828 133.586C113.38 133.586 112.975 133.677 112.612 133.858C112.25 134.04 111.94 134.29 111.684 134.61C111.428 134.92 111.231 135.288 111.092 135.714C110.954 136.141 110.884 136.6 110.884 137.09C110.884 137.901 111.087 138.546 111.492 139.026C111.898 139.496 112.452 139.73 113.156 139.73C113.562 139.73 113.919 139.682 114.228 139.586C114.538 139.49 114.82 139.378 115.076 139.25L115.252 140.514C114.986 140.632 114.66 140.744 114.276 140.85C113.903 140.957 113.45 141.01 112.916 141.01C112.394 141.01 111.919 140.925 111.492 140.754C111.066 140.573 110.698 140.317 110.388 139.986C110.079 139.656 109.839 139.266 109.668 138.818C109.498 138.36 109.412 137.848 109.412 137.282C109.412 136.61 109.514 135.976 109.716 135.378C109.93 134.781 110.234 134.253 110.628 133.794C111.023 133.336 111.498 132.973 112.052 132.706C112.607 132.44 113.236 132.306 113.94 132.306C114.442 132.306 114.884 132.37 115.268 132.498C115.652 132.616 115.999 132.765 116.308 132.946L115.716 134.178ZM123.316 134.93C123.316 134.525 123.193 134.2 122.948 133.954C122.713 133.698 122.404 133.57 122.02 133.57C121.732 133.57 121.422 133.645 121.092 133.794C120.772 133.944 120.457 134.178 120.148 134.498C119.849 134.808 119.577 135.202 119.332 135.682C119.097 136.162 118.921 136.738 118.804 137.41L118.212 140.818H116.772L118.852 128.978H120.292L119.364 134.242C119.694 133.656 120.126 133.186 120.66 132.834C121.193 132.482 121.764 132.306 122.372 132.306C122.734 132.306 123.065 132.365 123.364 132.482C123.662 132.6 123.913 132.765 124.116 132.978C124.329 133.181 124.489 133.421 124.596 133.698C124.713 133.976 124.772 134.274 124.772 134.594C124.772 134.872 124.74 135.208 124.676 135.602L123.764 140.818H122.324L123.204 135.842C123.257 135.586 123.289 135.4 123.3 135.282C123.31 135.165 123.316 135.048 123.316 134.93ZM127.634 140.818H126.194L127.65 132.498H129.09L127.634 140.818ZM128.706 131.074C128.407 131.074 128.178 130.989 128.018 130.818C127.868 130.637 127.794 130.429 127.794 130.194C127.794 129.853 127.9 129.581 128.114 129.378C128.327 129.165 128.594 129.058 128.914 129.058C129.212 129.058 129.436 129.149 129.586 129.33C129.746 129.501 129.826 129.704 129.826 129.938C129.826 130.28 129.719 130.557 129.506 130.77C129.292 130.973 129.026 131.074 128.706 131.074ZM130.272 132.69L131.632 132.338L133.28 139.218L137.264 132.338L138.432 133.026L133.76 140.818H132.272L130.272 132.69ZM141.996 141.01C141.463 141.01 140.978 140.925 140.54 140.754C140.103 140.573 139.724 140.322 139.404 140.002C139.095 139.672 138.85 139.272 138.668 138.802C138.498 138.333 138.412 137.805 138.412 137.218C138.412 136.557 138.519 135.928 138.732 135.33C138.946 134.733 139.244 134.21 139.628 133.762C140.023 133.314 140.498 132.962 141.052 132.706C141.607 132.44 142.226 132.306 142.908 132.306C143.367 132.306 143.778 132.376 144.14 132.514C144.503 132.653 144.807 132.834 145.052 133.058C145.308 133.282 145.5 133.544 145.628 133.842C145.767 134.141 145.836 134.45 145.836 134.77C145.836 135.368 145.692 135.853 145.404 136.226C145.127 136.6 144.775 136.898 144.348 137.122C143.922 137.336 143.452 137.485 142.94 137.57C142.428 137.645 141.943 137.682 141.484 137.682C141.196 137.682 140.908 137.672 140.62 137.65C140.343 137.618 140.098 137.586 139.884 137.554C139.97 138.258 140.215 138.797 140.62 139.17C141.036 139.544 141.575 139.73 142.236 139.73C142.77 139.73 143.244 139.661 143.66 139.522C144.076 139.384 144.428 139.245 144.716 139.106L144.844 140.386C144.524 140.536 144.119 140.68 143.628 140.818C143.148 140.946 142.604 141.01 141.996 141.01ZM142.796 133.522C142.423 133.522 142.071 133.597 141.74 133.746C141.42 133.885 141.132 134.082 140.876 134.338C140.631 134.594 140.423 134.898 140.252 135.25C140.092 135.602 139.98 135.986 139.916 136.402C140.162 136.456 140.407 136.493 140.652 136.514C140.898 136.536 141.175 136.546 141.484 136.546C142.391 136.546 143.1 136.424 143.612 136.178C144.135 135.922 144.396 135.49 144.396 134.882C144.396 134.509 144.247 134.189 143.948 133.922C143.66 133.656 143.276 133.522 142.796 133.522ZM154.406 140.898C153.83 140.898 153.387 140.76 153.078 140.482C152.779 140.194 152.63 139.746 152.63 139.138C152.32 139.65 151.931 140.093 151.462 140.466C150.992 140.829 150.448 141.01 149.83 141.01C149.424 141.01 149.035 140.93 148.662 140.77C148.299 140.61 147.974 140.381 147.686 140.082C147.408 139.784 147.184 139.421 147.014 138.994C146.854 138.557 146.774 138.072 146.774 137.538C146.774 136.728 146.896 135.997 147.142 135.346C147.398 134.696 147.723 134.146 148.118 133.698C148.523 133.25 148.976 132.909 149.478 132.674C149.979 132.429 150.486 132.306 150.998 132.306C151.574 132.306 152.064 132.445 152.47 132.722C152.875 133 153.19 133.341 153.414 133.746L154.262 128.978H155.702L154.006 138.562C153.995 138.616 153.984 138.68 153.974 138.754C153.974 138.818 153.974 138.888 153.974 138.962C153.974 139.261 154.059 139.474 154.23 139.602C154.4 139.72 154.624 139.778 154.902 139.778L154.406 140.898ZM150.214 139.73C150.512 139.73 150.806 139.661 151.094 139.522C151.382 139.373 151.643 139.165 151.878 138.898C152.123 138.621 152.331 138.29 152.502 137.906C152.683 137.522 152.816 137.096 152.902 136.626L153.19 134.978C152.976 134.53 152.688 134.184 152.326 133.938C151.963 133.682 151.563 133.554 151.126 133.554C150.752 133.554 150.39 133.64 150.038 133.81C149.696 133.981 149.392 134.232 149.126 134.562C148.859 134.882 148.646 135.277 148.486 135.746C148.326 136.216 148.246 136.744 148.246 137.33C148.246 137.725 148.299 138.072 148.406 138.37C148.523 138.669 148.672 138.92 148.854 139.122C149.035 139.325 149.243 139.48 149.478 139.586C149.712 139.682 149.958 139.73 150.214 139.73Z" fill="#F2F2F2"/>
<path d="M11.089 103.05C11.425 103.466 11.713 103.802 11.953 104.058C12.209 104.314 12.449 104.514 12.673 104.658C12.897 104.802 13.113 104.906 13.321 104.97C13.545 105.018 13.793 105.042 14.065 105.042L13.225 106.986C12.521 106.986 11.913 106.842 11.401 106.554C10.905 106.266 10.377 105.77 9.81703 105.066L5.11303 99.0664L3.74503 106.818H1.46503L4.41703 90.0184H6.69703L5.37703 97.4824L13.345 90.0664L14.737 91.6024L7.29703 98.2744L11.089 103.05ZM20.5726 107.106C19.7726 107.106 19.0446 106.978 18.3886 106.722C17.7326 106.45 17.1646 106.074 16.6846 105.594C16.2206 105.098 15.8526 104.498 15.5806 103.794C15.3246 103.09 15.1966 102.298 15.1966 101.418C15.1966 100.426 15.3566 99.4824 15.6766 98.5864C15.9966 97.6904 16.4446 96.9064 17.0206 96.2344C17.6126 95.5624 18.3246 95.0344 19.1566 94.6504C19.9886 94.2504 20.9166 94.0504 21.9406 94.0504C22.6286 94.0504 23.2446 94.1544 23.7886 94.3624C24.3326 94.5704 24.7886 94.8424 25.1566 95.1784C25.5406 95.5144 25.8286 95.9064 26.0206 96.3544C26.2286 96.8024 26.3326 97.2664 26.3326 97.7464C26.3326 98.6424 26.1166 99.3704 25.6846 99.9304C25.2686 100.49 24.7406 100.938 24.1006 101.274C23.4606 101.594 22.7566 101.818 21.9886 101.946C21.2206 102.058 20.4926 102.114 19.8046 102.114C19.3726 102.114 18.9406 102.098 18.5086 102.066C18.0926 102.018 17.7246 101.97 17.4046 101.922C17.5326 102.978 17.9006 103.786 18.5086 104.346C19.1326 104.906 19.9406 105.186 20.9326 105.186C21.7326 105.186 22.4446 105.082 23.0686 104.874C23.6926 104.666 24.2206 104.458 24.6526 104.25L24.8446 106.17C24.3646 106.394 23.7566 106.61 23.0206 106.818C22.3006 107.01 21.4846 107.106 20.5726 107.106ZM21.7726 95.8744C21.2126 95.8744 20.6846 95.9864 20.1886 96.2104C19.7086 96.4184 19.2766 96.7144 18.8926 97.0984C18.5246 97.4824 18.2126 97.9384 17.9566 98.4664C17.7166 98.9944 17.5486 99.5704 17.4526 100.194C17.8206 100.274 18.1886 100.33 18.5566 100.362C18.9246 100.394 19.3406 100.41 19.8046 100.41C21.1646 100.41 22.2286 100.226 22.9966 99.8584C23.7806 99.4744 24.1726 98.8264 24.1726 97.9144C24.1726 97.3544 23.9486 96.8744 23.5006 96.4744C23.0686 96.0744 22.4926 95.8744 21.7726 95.8744ZM32.9945 107.106C32.1945 107.106 31.4665 106.978 30.8105 106.722C30.1545 106.45 29.5865 106.074 29.1065 105.594C28.6425 105.098 28.2745 104.498 28.0025 103.794C27.7465 103.09 27.6185 102.298 27.6185 101.418C27.6185 100.426 27.7785 99.4824 28.0985 98.5864C28.4185 97.6904 28.8665 96.9064 29.4425 96.2344C30.0345 95.5624 30.7465 95.0344 31.5785 94.6504C32.4105 94.2504 33.3385 94.0504 34.3625 94.0504C35.0505 94.0504 35.6665 94.1544 36.2105 94.3624C36.7545 94.5704 37.2105 94.8424 37.5785 95.1784C37.9625 95.5144 38.2505 95.9064 38.4425 96.3544C38.6505 96.8024 38.7545 97.2664 38.7545 97.7464C38.7545 98.6424 38.5385 99.3704 38.1065 99.9304C37.6905 100.49 37.1625 100.938 36.5225 101.274C35.8825 101.594 35.1785 101.818 34.4105 101.946C33.6425 102.058 32.9145 102.114 32.2265 102.114C31.7945 102.114 31.3625 102.098 30.9305 102.066C30.5145 102.018 30.1465 101.97 29.8265 101.922C29.9545 102.978 30.3225 103.786 30.9305 104.346C31.5545 104.906 32.3625 105.186 33.3545 105.186C34.1545 105.186 34.8665 105.082 35.4905 104.874C36.1145 104.666 36.6425 104.458 37.0745 104.25L37.2665 106.17C36.7865 106.394 36.1785 106.61 35.4425 106.818C34.7225 107.01 33.9065 107.106 32.9945 107.106ZM34.1945 95.8744C33.6345 95.8744 33.1065 95.9864 32.6105 96.2104C32.1305 96.4184 31.6985 96.7144 31.3145 97.0984C30.9465 97.4824 30.6345 97.9384 30.3785 98.4664C30.1385 98.9944 29.9705 99.5704 29.8745 100.194C30.2425 100.274 30.6105 100.33 30.9785 100.362C31.3465 100.394 31.7625 100.41 32.2265 100.41C33.5865 100.41 34.6505 100.226 35.4185 99.8584C36.2025 99.4744 36.5945 98.8264 36.5945 97.9144C36.5945 97.3544 36.3705 96.8744 35.9225 96.4744C35.4905 96.0744 34.9145 95.8744 34.1945 95.8744ZM41.4803 94.3384C43.1443 94.3384 43.9763 95.0584 43.9763 96.4984V97.0024C44.4403 96.1384 45.0323 95.4344 45.7523 94.8904C46.4883 94.3304 47.3523 94.0504 48.3443 94.0504C48.9843 94.0504 49.5683 94.1784 50.0963 94.4344C50.6243 94.6904 51.0723 95.0504 51.4403 95.5144C51.8083 95.9624 52.0883 96.5064 52.2803 97.1464C52.4883 97.7704 52.5923 98.4664 52.5923 99.2344C52.5923 100.418 52.4163 101.498 52.0643 102.474C51.7123 103.434 51.2483 104.258 50.6723 104.946C50.0963 105.634 49.4323 106.17 48.6803 106.554C47.9443 106.922 47.1843 107.106 46.4003 107.106C45.6323 107.106 44.9123 106.914 44.2403 106.53C43.5843 106.146 43.0723 105.674 42.7043 105.114L41.4803 112.098H39.3203L41.8163 97.8184C41.8643 97.5624 41.8883 97.3384 41.8883 97.1464C41.8883 96.3944 41.4963 96.0184 40.7123 96.0184L41.4803 94.3384ZM46.2083 105.186C46.7683 105.186 47.2963 105.05 47.7923 104.778C48.3043 104.49 48.7523 104.098 49.1363 103.602C49.5203 103.09 49.8243 102.482 50.0483 101.778C50.2723 101.074 50.3843 100.298 50.3843 99.4504C50.3843 98.3464 50.1363 97.4824 49.6403 96.8584C49.1443 96.2344 48.4963 95.9224 47.6963 95.9224C47.2163 95.9224 46.7443 96.0424 46.2803 96.2824C45.8323 96.5064 45.4243 96.8264 45.0563 97.2424C44.6883 97.6584 44.3603 98.1704 44.0723 98.7784C43.8003 99.3704 43.6003 100.026 43.4723 100.746L43.0403 103.17C43.3923 103.826 43.8403 104.33 44.3843 104.682C44.9443 105.018 45.5523 105.186 46.2083 105.186ZM63.8332 106.818H61.6732L63.8572 94.3384H66.0172L63.8332 106.818ZM65.4412 92.2024C64.9932 92.2024 64.6492 92.0744 64.4092 91.8184C64.1852 91.5464 64.0732 91.2344 64.0732 90.8824C64.0732 90.3704 64.2332 89.9624 64.5532 89.6584C64.8732 89.3384 65.2732 89.1784 65.7532 89.1784C66.2012 89.1784 66.5372 89.3144 66.7612 89.5864C67.0012 89.8424 67.1212 90.1464 67.1212 90.4984C67.1212 91.0104 66.9612 91.4264 66.6412 91.7464C66.3212 92.0504 65.9212 92.2024 65.4412 92.2024ZM68.2223 94.7944H70.4303L71.5823 90.8584H73.2383L72.5423 94.7944H75.9983L75.6863 96.6664H72.2063L71.1983 102.498C71.1343 102.818 71.1023 103.122 71.1023 103.41C71.1023 103.97 71.2623 104.41 71.5823 104.73C71.9183 105.034 72.3663 105.186 72.9263 105.186C73.3903 105.186 73.7743 105.122 74.0783 104.994C74.3983 104.85 74.6943 104.706 74.9663 104.562L75.2303 106.434C74.9263 106.61 74.5423 106.762 74.0783 106.89C73.6303 107.034 73.1263 107.106 72.5663 107.106C72.1183 107.106 71.6783 107.034 71.2463 106.89C70.8143 106.762 70.4303 106.562 70.0943 106.29C69.7583 106.002 69.4863 105.634 69.2783 105.186C69.0703 104.738 68.9663 104.202 68.9663 103.578C68.9663 103.402 68.9743 103.226 68.9903 103.05C69.0063 102.858 69.0303 102.642 69.0623 102.402L70.0463 96.6664H67.9103L68.2223 94.7944ZM88.1287 107.106C87.6487 107.106 87.1927 107.026 86.7607 106.866C86.3447 106.706 85.9687 106.474 85.6327 106.17C85.3127 105.866 85.0567 105.498 84.8647 105.066C84.6887 104.634 84.6007 104.146 84.6007 103.602C84.6007 103.394 84.6087 103.186 84.6247 102.978C84.6407 102.754 84.6647 102.522 84.6967 102.282L86.0647 94.3384H88.2247L86.8327 102.234C86.8007 102.394 86.7767 102.538 86.7607 102.666C86.7607 102.778 86.7607 102.906 86.7607 103.05C86.7607 103.77 86.9687 104.306 87.3847 104.658C87.8007 105.01 88.2887 105.186 88.8487 105.186C89.2967 105.186 89.7447 105.082 90.1927 104.874C90.6567 104.65 91.0807 104.338 91.4647 103.938C91.8487 103.538 92.1847 103.05 92.4727 102.474C92.7767 101.882 92.9927 101.21 93.1207 100.458L94.2007 94.3384H96.3607L94.7767 103.434C94.7607 103.514 94.7447 103.61 94.7287 103.722C94.7287 103.818 94.7287 103.922 94.7287 104.034C94.7287 104.482 94.8567 104.802 95.1127 104.994C95.3687 105.17 95.7047 105.258 96.1207 105.258L95.3767 106.938C94.5127 106.938 93.8487 106.73 93.3847 106.314C92.9367 105.898 92.7127 105.234 92.7127 104.322V104.106C91.5447 106.106 90.0167 107.106 88.1287 107.106ZM99.6991 94.3384C101.363 94.3384 102.195 95.0584 102.195 96.4984V97.0024C102.659 96.1384 103.251 95.4344 103.971 94.8904C104.707 94.3304 105.571 94.0504 106.563 94.0504C107.203 94.0504 107.787 94.1784 108.315 94.4344C108.843 94.6904 109.291 95.0504 109.659 95.5144C110.027 95.9624 110.307 96.5064 110.499 97.1464C110.707 97.7704 110.811 98.4664 110.811 99.2344C110.811 100.418 110.635 101.498 110.283 102.474C109.931 103.434 109.467 104.258 108.891 104.946C108.315 105.634 107.651 106.17 106.899 106.554C106.163 106.922 105.403 107.106 104.619 107.106C103.851 107.106 103.131 106.914 102.459 106.53C101.803 106.146 101.291 105.674 100.923 105.114L99.6991 112.098H97.5391L100.035 97.8184C100.083 97.5624 100.107 97.3384 100.107 97.1464C100.107 96.3944 99.7151 96.0184 98.9311 96.0184L99.6991 94.3384ZM104.427 105.186C104.987 105.186 105.515 105.05 106.011 104.778C106.523 104.49 106.971 104.098 107.355 103.602C107.739 103.09 108.043 102.482 108.267 101.778C108.491 101.074 108.603 100.298 108.603 99.4504C108.603 98.3464 108.355 97.4824 107.859 96.8584C107.363 96.2344 106.715 95.9224 105.915 95.9224C105.435 95.9224 104.963 96.0424 104.499 96.2824C104.051 96.5064 103.643 96.8264 103.275 97.2424C102.907 97.6584 102.579 98.1704 102.291 98.7784C102.019 99.3704 101.819 100.026 101.691 100.746L101.259 103.17C101.611 103.826 102.059 104.33 102.603 104.682C103.163 105.018 103.771 105.186 104.427 105.186ZM115.972 105.258C115.62 106.49 115.068 107.554 114.316 108.45C113.58 109.362 112.684 110.098 111.628 110.658L110.5 109.986C111.284 109.17 111.94 108.346 112.468 107.514C113.012 106.682 113.492 105.73 113.908 104.658L115.972 105.258ZM125.058 105.93L134.274 90.0184H136.842L140.514 106.554L138.33 107.058L137.322 102.258H129.546L126.882 107.01L125.058 105.93ZM130.626 100.338H136.914L135.21 92.2504L130.626 100.338ZM145.149 102.498C145.117 102.722 145.093 102.914 145.077 103.074C145.061 103.234 145.053 103.378 145.053 103.506C145.053 104.066 145.213 104.498 145.533 104.802C145.853 105.09 146.293 105.234 146.853 105.234C147.125 105.234 147.397 105.202 147.669 105.138C147.941 105.074 148.189 104.986 148.413 104.874L148.629 106.626C148.341 106.77 148.005 106.882 147.621 106.962C147.237 107.058 146.821 107.106 146.373 107.106C145.893 107.106 145.437 107.034 145.005 106.89C144.589 106.762 144.221 106.562 143.901 106.29C143.597 106.018 143.349 105.674 143.157 105.258C142.981 104.826 142.893 104.33 142.893 103.77C142.893 103.546 142.901 103.346 142.917 103.17C142.933 102.978 142.957 102.77 142.989 102.546L145.341 89.0584H147.501L145.149 102.498ZM149.681 101.898C149.681 100.746 149.873 99.6904 150.257 98.7304C150.657 97.7544 151.209 96.9224 151.913 96.2344C152.617 95.5464 153.457 95.0104 154.433 94.6264C155.409 94.2424 156.473 94.0504 157.625 94.0504C158.569 94.0504 159.393 94.1464 160.097 94.3384C160.817 94.5304 161.409 94.7224 161.873 94.9144L160.361 103.434C160.345 103.514 160.329 103.61 160.313 103.722C160.313 103.818 160.313 103.922 160.313 104.034C160.313 104.482 160.441 104.802 160.697 104.994C160.953 105.17 161.289 105.258 161.705 105.258L160.961 106.938C160.097 106.938 159.433 106.73 158.969 106.314C158.521 105.898 158.297 105.234 158.297 104.322C157.849 105.09 157.281 105.746 156.593 106.29C155.921 106.834 155.129 107.106 154.217 107.106C153.625 107.106 153.057 106.986 152.513 106.746C151.969 106.506 151.481 106.162 151.049 105.714C150.633 105.266 150.297 104.722 150.041 104.082C149.801 103.426 149.681 102.698 149.681 101.898ZM159.497 96.1864C159.193 96.0904 158.873 96.0184 158.537 95.9704C158.217 95.9064 157.825 95.8744 157.361 95.8744C156.529 95.8744 155.777 96.0184 155.105 96.3064C154.433 96.5944 153.857 96.9944 153.377 97.5064C152.897 98.0184 152.529 98.6264 152.273 99.3304C152.017 100.034 151.889 100.802 151.889 101.634C151.889 102.21 151.969 102.722 152.129 103.17C152.305 103.602 152.529 103.97 152.801 104.274C153.073 104.578 153.377 104.81 153.713 104.97C154.065 105.114 154.425 105.186 154.793 105.186C155.273 105.186 155.729 105.058 156.161 104.802C156.609 104.546 157.009 104.186 157.361 103.722C157.713 103.242 158.017 102.682 158.273 102.042C158.529 101.386 158.721 100.674 158.849 99.9064L159.497 96.1864ZM167.484 89.3224H169.884L168.828 95.2984L167.364 101.85H165.588L166.428 95.2984L167.484 89.3224ZM165.732 107.106C165.268 107.106 164.9 106.97 164.628 106.698C164.372 106.426 164.244 106.106 164.244 105.738C164.244 105.146 164.42 104.69 164.772 104.37C165.14 104.05 165.556 103.89 166.02 103.89C166.484 103.89 166.844 104.026 167.1 104.298C167.372 104.57 167.508 104.89 167.508 105.258C167.508 105.85 167.324 106.306 166.956 106.626C166.604 106.946 166.196 107.106 165.732 107.106Z" fill="white"/>
<g filter="url(#filter0_f_1279_39688)">
<ellipse cx="74.6411" cy="9.89723" rx="0.470447" ry="0.469915" transform="rotate(-90 74.6411 9.89723)" fill="#F6CE42"/>
</g>
<g filter="url(#filter1_f_1279_39688)">
<ellipse cx="72.1566" cy="8.32951" rx="0.156816" ry="0.156638" transform="rotate(-90 72.1566 8.32951)" fill="#FE7762"/>
</g>
<g filter="url(#filter2_f_1279_39688)">
<ellipse cx="94.482" cy="7.28361" rx="0.156816" ry="0.156638" transform="rotate(-90 94.482 7.28361)" fill="#FE7762"/>
</g>
<g filter="url(#filter3_f_1279_39688)">
<ellipse cx="87.0153" cy="13.2952" rx="0.522719" ry="0.522127" transform="rotate(-90 87.0153 13.2952)" fill="#F6CE42"/>
</g>
<g filter="url(#filter4_f_1279_39688)">
<ellipse cx="83.0476" cy="3.23661" rx="0.418175" ry="0.417702" transform="rotate(-90 83.0476 3.23661)" fill="#F6CE42"/>
</g>
<g filter="url(#filter5_f_1279_39688)">
<ellipse cx="98.4154" cy="4.09501" rx="0.418175" ry="0.417702" transform="rotate(-90 98.4154 4.09501)" fill="#F6CE42"/>
</g>
<rect x="82.6" y="46.6182" width="4.8" height="9.6" fill="url(#paint0_linear_1279_39688)"/>
<path fill-rule="evenodd" clip-rule="evenodd" d="M109 20.2183H82.6V39.4183H100C104.971 39.4183 109 35.3888 109 30.4183V20.2183ZM106.8 22.3507H84.8V37.284H99.8C103.666 37.284 106.8 34.15 106.8 30.284V22.3507Z" fill="url(#paint1_linear_1279_39688)"/>
<path fill-rule="evenodd" clip-rule="evenodd" d="M87.4 20.2183H61V30.4183C61 35.3888 65.0294 39.4183 70 39.4183H87.4V20.2183ZM85.1996 22.3507H63.1996V30.284C63.1996 34.15 66.3336 37.284 70.1996 37.284H85.1996V22.3507Z" fill="url(#paint2_linear_1279_39688)"/>
<path d="M75.4 63.2183C75.4 59.3523 78.534 56.2183 82.4 56.2183H87.6C91.466 56.2183 94.6 59.3523 94.6 63.2183V65.8183H75.4V63.2183Z" fill="url(#paint3_linear_1279_39688)"/>
<path d="M68.2 17.8184H101.8V32.6184C101.8 40.3503 95.532 46.6184 87.8 46.6184H82.2C74.468 46.6184 68.2 40.3503 68.2 32.6184V17.8184Z" fill="url(#paint4_linear_1279_39688)"/>
<path d="M84.5277 26.3772C84.6834 25.9295 85.3166 25.9295 85.4723 26.3772L86.5786 29.5599C86.6472 29.7575 86.8316 29.8914 87.0407 29.8957L90.4095 29.9643C90.8834 29.974 91.0791 30.5763 90.7013 30.8627L88.0163 32.8983C87.8496 33.0247 87.7792 33.2414 87.8398 33.4415L88.8155 36.6667C88.9528 37.1204 88.4405 37.4926 88.0513 37.2219L85.2856 35.2973C85.1139 35.1778 84.8861 35.1778 84.7144 35.2973L81.9486 37.2219C81.5595 37.4926 81.0472 37.1204 81.1845 36.6667L82.1602 33.4415C82.2208 33.2414 82.1503 33.0247 81.9837 32.8983L79.2986 30.8627C78.9209 30.5763 79.1166 29.974 79.5905 29.9643L82.9593 29.8957C83.1684 29.8914 83.3527 29.7575 83.4214 29.5599L84.5277 26.3772Z" fill="url(#paint5_linear_1279_39688)"/>
<defs>
<filter id="filter0_f_1279_39688" x="73.1712" y="8.42676" width="2.93982" height="2.94092" filterUnits="userSpaceOnUse" color-interpolation-filters="sRGB">
<feFlood flood-opacity="0" result="BackgroundImageFix"/>
<feBlend mode="normal" in="SourceGraphic" in2="BackgroundImageFix" result="shape"/>
<feGaussianBlur stdDeviation="0.5" result="effect1_foregroundBlur_1279_39688"/>
</filter>
<filter id="filter1_f_1279_39688" x="71" y="7.17285" width="2.31326" height="2.31348" filterUnits="userSpaceOnUse" color-interpolation-filters="sRGB">
<feFlood flood-opacity="0" result="BackgroundImageFix"/>
<feBlend mode="normal" in="SourceGraphic" in2="BackgroundImageFix" result="shape"/>
<feGaussianBlur stdDeviation="0.5" result="effect1_foregroundBlur_1279_39688"/>
</filter>
<filter id="filter2_f_1279_39688" x="93.3254" y="6.12695" width="2.31326" height="2.31348" filterUnits="userSpaceOnUse" color-interpolation-filters="sRGB">
<feFlood flood-opacity="0" result="BackgroundImageFix"/>
<feBlend mode="normal" in="SourceGraphic" in2="BackgroundImageFix" result="shape"/>
<feGaussianBlur stdDeviation="0.5" result="effect1_foregroundBlur_1279_39688"/>
</filter>
<filter id="filter3_f_1279_39688" x="85.4932" y="11.7725" width="3.04425" height="3.04541" filterUnits="userSpaceOnUse" color-interpolation-filters="sRGB">
<feFlood flood-opacity="0" result="BackgroundImageFix"/>
<feBlend mode="normal" in="SourceGraphic" in2="BackgroundImageFix" result="shape"/>
<feGaussianBlur stdDeviation="0.5" result="effect1_foregroundBlur_1279_39688"/>
</filter>
<filter id="filter4_f_1279_39688" x="81.6299" y="1.81836" width="2.83542" height="2.83643" filterUnits="userSpaceOnUse" color-interpolation-filters="sRGB">
<feFlood flood-opacity="0" result="BackgroundImageFix"/>
<feBlend mode="normal" in="SourceGraphic" in2="BackgroundImageFix" result="shape"/>
<feGaussianBlur stdDeviation="0.5" result="effect1_foregroundBlur_1279_39688"/>
</filter>
<filter id="filter5_f_1279_39688" x="96.9977" y="2.67676" width="2.83542" height="2.83643" filterUnits="userSpaceOnUse" color-interpolation-filters="sRGB">
<feFlood flood-opacity="0" result="BackgroundImageFix"/>
<feBlend mode="normal" in="SourceGraphic" in2="BackgroundImageFix" result="shape"/>
<feGaussianBlur stdDeviation="0.5" result="effect1_foregroundBlur_1279_39688"/>
</filter>
<linearGradient id="paint0_linear_1279_39688" x1="82.6" y1="50.0182" x2="87.4" y2="50.0182" gradientUnits="userSpaceOnUse">
<stop stop-color="#FE7762"/>
<stop offset="1" stop-color="#F6CE42"/>
</linearGradient>
<linearGradient id="paint1_linear_1279_39688" x1="82.6" y1="27.0183" x2="109" y2="27.0183" gradientUnits="userSpaceOnUse">
<stop stop-color="#FE7762"/>
<stop offset="1" stop-color="#F6CE42"/>
</linearGradient>
<linearGradient id="paint2_linear_1279_39688" x1="61" y1="27.0183" x2="87.4" y2="27.0183" gradientUnits="userSpaceOnUse">
<stop stop-color="#FE7762"/>
<stop offset="1" stop-color="#F6CE42"/>
</linearGradient>
<linearGradient id="paint3_linear_1279_39688" x1="75.4" y1="59.6183" x2="94.6" y2="59.6183" gradientUnits="userSpaceOnUse">
<stop stop-color="#FE7762"/>
<stop offset="1" stop-color="#F6CE42"/>
</linearGradient>
<linearGradient id="paint4_linear_1279_39688" x1="68.2" y1="28.0184" x2="101.8" y2="28.0184" gradientUnits="userSpaceOnUse">
<stop stop-color="#FE7762"/>
<stop offset="1" stop-color="#F6CE42"/>
</linearGradient>
<linearGradient id="paint5_linear_1279_39688" x1="77.8" y1="30.1186" x2="92.2" y2="30.1186" gradientUnits="userSpaceOnUse">
<stop stop-color="#F6CE42"/>
<stop offset="1" stop-color="white"/>
</linearGradient>
</defs>
</svg>
