<svg width="25" height="32" viewBox="0 0 25 32" fill="none" xmlns="http://www.w3.org/2000/svg">
<path d="M12.4932 7.95736C11.4617 7.95736 10.4715 7.799 9.48137 7.48229C8.94502 7.32394 8.69748 6.76969 8.86251 6.29463C9.02754 5.77997 9.60514 5.54244 10.1002 5.70079C10.8841 5.97792 11.7505 6.09668 12.5757 6.05709C13.3183 6.05709 14.0609 5.93833 14.7623 5.70079C15.2986 5.54244 15.835 5.81956 16 6.29463C16.1651 6.80928 15.8763 7.32394 15.3812 7.48229C14.4735 7.75941 13.5246 7.91776 12.5757 7.91776C12.5757 7.95735 12.5344 7.95736 12.4932 7.95736ZM15.7937 1.34602C15.3399 1.50438 14.8861 1.58356 14.4322 1.62314C14.3497 1.62314 14.2672 1.62314 14.1847 1.62314C14.1434 1.62314 14.1434 1.62314 14.1434 1.62314C13.5246 1.58356 12.9057 1.4252 12.3694 0.950135C11.5855 0.277125 10.7191 0.0395888 9.97645 0H9.9352H9.89394C9.15131 0 8.36742 0.395889 7.74856 0.7126C7.25347 0.989722 7.1297 1.66273 7.45976 2.09821L9.72891 5.02778C9.9352 5.02778 10.1415 5.02778 10.3478 5.10696C11.0904 5.34449 11.833 5.46326 12.6169 5.46326C13.3183 5.46326 13.9784 5.34449 14.6385 5.14655C14.9273 5.06737 15.2574 5.02778 15.5875 5.10696C15.67 5.02778 15.7525 4.90901 15.7937 4.75066C15.9588 4.15683 16.4126 3.32546 16.8664 2.4941C17.1965 1.86068 16.5364 1.10849 15.7937 1.34602ZM22.8075 29.9291C22.8075 29.9291 15.8763 31.4731 12.4932 31.3148C9.15131 31.4731 2.17883 29.9291 2.17883 29.9291C-2.15319 30.0875 1.31242 27.633 1.31242 27.633C1.31242 27.633 -0.585416 23.3178 0.280987 18.8839C1.93128 10.2139 8.03736 8.35324 9.31634 8.07612C10.3478 8.39283 11.3792 8.55119 12.4932 8.55119C12.5344 8.55119 12.5757 8.55119 12.6582 8.55119C13.6484 8.55119 14.6798 8.39283 15.6287 8.07612C16.7839 8.55119 23.3851 11.5203 24.2102 19.2006C24.7053 23.6741 23.7151 27.633 23.7151 27.633C23.7151 27.633 27.1395 30.0875 22.8075 29.9291ZM14.4322 19.4381C13.8959 19.161 13.277 18.9235 12.6994 18.6859C12.3694 18.5672 12.0393 18.4088 11.7505 18.1713C11.2142 17.7358 11.2967 17.0628 11.9568 16.7857C12.1218 16.7065 12.3281 16.6669 12.5344 16.6669C13.277 16.6273 14.0197 16.7461 14.6798 17.0628C15.0098 17.2211 15.1336 17.1815 15.2574 16.8252C15.3812 16.4689 15.4637 16.1127 15.5875 15.7168C15.67 15.4792 15.5462 15.3209 15.3399 15.2021C14.8861 15.0042 14.4322 14.8854 13.9784 14.8062C13.3596 14.727 13.3596 14.727 13.3596 14.1332C13.3596 13.3018 13.3596 13.3018 12.4932 13.3018C12.3694 13.3018 12.2456 13.3018 12.1218 13.3018C11.7093 13.3018 11.6267 13.381 11.6267 13.7769C11.6267 13.9353 11.6267 14.1332 11.6267 14.2916C11.6267 14.8062 11.6268 14.8062 11.0904 15.0042C9.81143 15.4396 9.02754 16.271 8.94502 17.617C8.86251 18.8047 9.52262 19.5965 10.5128 20.1903C11.1317 20.5466 11.833 20.7445 12.4932 21.0217C12.7407 21.1404 12.9882 21.2592 13.1945 21.4176C13.8134 21.9322 13.7309 22.7636 12.947 23.0803C12.5344 23.2386 12.1218 23.2782 11.668 23.2386C11.0079 23.1595 10.3478 23.0011 9.72891 22.6844C9.3576 22.4865 9.27508 22.5656 9.15131 22.9219C9.02754 23.2386 8.94502 23.5554 8.86251 23.8721C8.73874 24.3075 8.78 24.3867 9.23383 24.6243C9.77017 24.8618 10.389 25.0201 10.9666 25.0993C11.4205 25.1785 11.4617 25.1785 11.4617 25.6536C11.4617 25.8515 11.4617 26.089 11.4617 26.287C11.4617 26.5641 11.5855 26.7225 11.8743 26.7225C12.2044 26.7225 12.5344 26.7225 12.8645 26.7225C13.112 26.7225 13.277 26.5641 13.277 26.3266C13.277 26.0494 13.277 25.7327 13.277 25.4556C13.277 25.1785 13.4008 25.0201 13.6896 24.941C14.3497 24.7826 14.9686 24.4263 15.3812 23.9116C16.6601 22.4864 16.2063 20.3487 14.4322 19.4381Z" fill="white"/>
</svg>
