<svg width="24" height="24" viewBox="0 0 24 24" fill="none" xmlns="http://www.w3.org/2000/svg">
<path d="M12 22.5001C13.6569 22.5001 15 21.1569 15 19.5001C15 19.472 14.9996 19.444 14.9988 19.416C14.9922 19.1741 14.7823 18.9981 14.5403 18.9953L9.47169 18.9378C9.22965 18.9351 9.01585 19.1063 9.00379 19.348C9.00127 19.3984 9 19.4491 9 19.5001C9 21.1569 10.3431 22.5001 12 22.5001Z" fill="white"/>
<path d="M5 9C5 5.13401 8.13401 1.5 12 1.5C15.866 1.5 19 5.13401 19 9V11.4607C19 12.7578 19.5547 13.9931 20.5242 14.8549C21.5645 15.7796 20.9104 17.5 19.5185 17.5H4.48147C3.08955 17.5 2.43545 15.7796 3.47579 14.8549C4.4453 13.9931 5 12.7578 5 11.4607V9Z" fill="white"/>
<circle cx="17" cy="5" r="3.5" fill="#FE7762" stroke="#121212"/>
</svg>
