<svg width="24" height="28" viewBox="0 0 24 28" fill="none" xmlns="http://www.w3.org/2000/svg">
<path d="M16.9172 6.88925C15.6058 7.00329 14.3229 7.3169 13.154 7.83008C12.6124 4.57992 11.358 1.10168 8.45009 0.731046C6.31194 0.445944 5.96983 2.35613 7.28123 2.69825C9.67596 3.35398 10.8163 5.66331 11.301 8.05817C9.98956 7.40243 8.53561 7.00329 7.05316 6.88925C1.49397 6.46159 -1.52795 11.4509 0.781251 18.5214C2.52028 23.8528 5.82729 27.8442 10.1606 26.9604C10.8163 26.8179 11.415 26.5613 12.0137 26.2477C12.5838 26.5613 13.211 26.8179 13.8667 26.9604C18.2001 27.8442 21.5071 23.8528 23.2461 18.5214C25.4983 11.4509 22.5049 6.43308 16.9172 6.88925Z" fill="#8AC47D"/>
<path d="M14.8364 5.83455C15.6632 5.57796 16.8891 5.03627 17.6018 3.95288C18.3145 2.898 18.343 1.55802 18.286 0.702719C18.2575 0.189535 17.8013 -0.124077 17.2882 0.0469841C16.4614 0.303576 15.2356 0.84527 14.5229 1.92866C13.8101 2.98353 13.7531 4.32351 13.8386 5.17882C13.8957 5.692 14.3518 5.97711 14.8364 5.83455Z" fill="#8AC47D"/>
</svg>
