<svg width="163" height="163" viewBox="0 0 163 163" fill="none" xmlns="http://www.w3.org/2000/svg">
<circle opacity="0.1" cx="81.5" cy="81.5" r="81.5" fill="#FE7762"/>
<circle cx="81.5" cy="81.5" r="81.5" fill="#FE7762"/>
<path opacity="0.1" fill-rule="evenodd" clip-rule="evenodd" d="M119.121 152.817C145.196 139.224 163 111.941 163 80.5C163 59.3079 154.912 40.005 141.653 25.51C111.309 33.7801 89 61.5348 89 94.5C89 118.568 100.892 139.859 119.121 152.817Z" fill="white"/>
<path opacity="0.1" fill-rule="evenodd" clip-rule="evenodd" d="M49.3803 6C60.129 14.7084 67 28.0151 67 42.9265C67 69.16 45.7335 90.4265 19.5 90.4265C12.619 90.4265 6.07975 88.9634 0.176362 86.3312C0.0594005 84.5447 0 82.7426 0 80.9265C0 47.3207 20.3398 18.4655 49.3803 6Z" fill="white"/>
<circle opacity="0.08" r="4" transform="matrix(1 0 0 -1 30 51)" fill="white"/>
<circle opacity="0.08" r="42" transform="matrix(1 0 0 -1 84 81)" stroke="white" stroke-width="2"/>
<circle r="5" transform="matrix(1 0 0 -1 109 46)" fill="#FE7762"/>
<mask id="mask0_349_277" style="mask-type:alpha" maskUnits="userSpaceOnUse" x="0" y="0" width="163" height="163">
<circle cx="81.5" cy="81.5" r="81.5" fill="white"/>
</mask>
<g mask="url(#mask0_349_277)">
<path fill-rule="evenodd" clip-rule="evenodd" d="M106 80H58C55.8783 80 53.8434 80.8429 52.3431 82.3431C50.8429 83.8434 50 85.8783 50 88V184C50 186.122 50.8429 188.157 52.3431 189.657C53.8434 191.157 55.8783 192 58 192H106C108.122 192 110.157 191.157 111.657 189.657C113.157 188.157 114 186.122 114 184V88C114 85.8783 113.157 83.8434 111.657 82.3431C110.157 80.8429 108.122 80 106 80ZM58 72C53.7565 72 49.6869 73.6857 46.6863 76.6863C43.6857 79.6869 42 83.7565 42 88V184C42 188.243 43.6857 192.313 46.6863 195.314C49.6869 198.314 53.7565 200 58 200H106C110.243 200 114.313 198.314 117.314 195.314C120.314 192.313 122 188.243 122 184V88C122 83.7565 120.314 79.6869 117.314 76.6863C114.313 73.6857 110.243 72 106 72H58Z" fill="white"/>
<path fill-rule="evenodd" clip-rule="evenodd" d="M64 124C65.5913 124 67.1174 123.368 68.2426 122.243C69.3679 121.117 70 119.591 70 118C70 116.409 69.3679 114.883 68.2426 113.757C67.1174 112.632 65.5913 112 64 112C62.4087 112 60.8826 112.632 59.7574 113.757C58.6321 114.883 58 116.409 58 118C58 119.591 58.6321 121.117 59.7574 122.243C60.8826 123.368 62.4087 124 64 124Z" fill="white"/>
<path fill-rule="evenodd" clip-rule="evenodd" d="M82 124C83.5913 124 85.1174 123.368 86.2426 122.243C87.3679 121.117 88 119.591 88 118C88 116.409 87.3679 114.883 86.2426 113.757C85.1174 112.632 83.5913 112 82 112C80.4087 112 78.8826 112.632 77.7574 113.757C76.6321 114.883 76 116.409 76 118C76 119.591 76.6321 121.117 77.7574 122.243C78.8826 123.368 80.4087 124 82 124Z" fill="white"/>
<path fill-rule="evenodd" clip-rule="evenodd" d="M100 124C101.591 124 103.117 123.368 104.243 122.243C105.368 121.117 106 119.591 106 118C106 116.409 105.368 114.883 104.243 113.757C103.117 112.632 101.591 112 100 112C98.4087 112 96.8826 112.632 95.7574 113.757C94.6321 114.883 94 116.409 94 118C94 119.591 94.6321 121.117 95.7574 122.243C96.8826 123.368 98.4087 124 100 124Z" fill="white"/>
</g>
<circle cx="135" cy="28" r="26" fill="#E37C00" stroke="#121212" stroke-width="4"/>
<path d="M129.598 40.1332C129.038 40.1332 128.525 39.9466 128.105 39.5266L118.818 30.2399C117.978 29.3999 117.978 28.0933 118.818 27.2533C119.658 26.4133 120.965 26.4133 121.805 27.2533L129.645 35.0466L148.265 16.4733C149.105 15.6333 150.412 15.6333 151.252 16.4733C152.092 17.3133 152.092 18.6199 151.252 19.4599L131.138 39.5266C130.672 39.9466 130.158 40.1332 129.598 40.1332Z" fill="white"/>
</svg>
