<svg width="24" height="25" viewBox="0 0 24 25" fill="none" xmlns="http://www.w3.org/2000/svg">
<path d="M21 2.06006H6C4.896 2.06006 4 2.95606 4 4.06006V7.06006H2V9.06006H4V11.0601H2V13.0601H4V15.0601H2V17.0601H4V20.0601C4 21.1641 4.896 22.0601 6 22.0601H21C21.553 22.0601 22 21.6131 22 21.0601V3.06006C22 2.50706 21.553 2.06006 21 2.06006ZM13 5.05906C14.648 5.05906 16 6.41006 16 8.05906C16 9.70706 14.648 11.0601 13 11.0601C11.353 11.0601 10 9.70706 10 8.05906C10 6.41006 11.353 5.05906 13 5.05906ZM19 18.0601H7V17.3101C7 15.0911 9.705 12.8101 13 12.8101C16.295 12.8101 19 15.0911 19 17.3101V18.0601Z" fill="#E37C00"/>
</svg>
