<svg width="24" height="27" viewBox="0 0 24 27" fill="none" xmlns="http://www.w3.org/2000/svg">
<path d="M15.6666 12.672C12.7935 12.672 10.2553 14.2249 8.75659 16.5828V11.4035C8.75659 10.7038 9.29213 10.1347 9.95033 10.1347C11.3935 10.1347 12.5674 8.88706 12.5674 7.35366V6.08511H8.04502C7.65199 6.08511 7.33345 5.74641 7.33345 5.32894V4.51902C7.33345 4.10135 7.65199 3.76285 8.04502 3.76285C8.43787 3.76285 8.75659 4.10135 8.75659 4.51902V4.57277H12.5674V3.30403C12.5674 1.77043 11.3935 0.522949 9.95033 0.522949H6.13953C5.46446 0.522949 4.7905 0.794894 4.24182 1.28877C3.69313 1.78283 3.32993 2.44448 3.21893 3.1522L0.0346428 23.4555C-0.0820996 24.1989 0.0993143 24.9365 0.532002 25.4794C0.96469 26.0221 1.61956 26.3334 2.32872 26.3334H21.3829C22.8261 26.3334 24 25.086 24 23.5524V21.5275C24 16.6447 20.2617 12.672 15.6666 12.672Z" fill="#E89925"/>
</svg>
