<svg width="323" height="68" viewBox="0 0 323 68" fill="none" xmlns="http://www.w3.org/2000/svg">
<path d="M68 34C68 52.7777 52.7777 68 34 68C15.2223 68 0 52.7777 0 34C0 15.2223 15.2223 0 34 0C52.7777 0 68 15.2223 68 34ZM6.8 34C6.8 49.0221 18.9779 61.2 34 61.2C49.0221 61.2 61.2 49.0221 61.2 34C61.2 18.9779 49.0221 6.8 34 6.8C18.9779 6.8 6.8 18.9779 6.8 34Z" fill="#333333"/>
<path d="M34 3.4C34 1.52223 35.526 -0.0176096 37.3944 0.169857C41.3562 0.567366 45.2264 1.65867 48.8255 3.40252C52.4245 5.14637 55.6795 7.50749 58.4467 10.3704C59.7517 11.7206 59.489 13.8725 58.0153 15.0362C56.5416 16.1999 54.4171 15.9304 53.0787 14.6133C50.9715 12.5396 48.5346 10.8178 45.8604 9.52202C43.1861 8.22624 40.3246 7.38083 37.3912 7.01222C35.5281 6.77811 34 5.27777 34 3.4Z" fill="#FE7762"/>
<path d="M34 36.4C32.0904 36.4 30.2591 35.6414 28.9088 34.2912C27.5586 32.9409 26.8 31.1096 26.8 29.2C26.8 27.2904 27.5586 25.4591 28.9088 24.1088C30.2591 22.7586 32.0904 22 34 22C35.9096 22 37.7409 22.7586 39.0912 24.1088C40.4414 25.4591 41.2 27.2904 41.2 29.2C41.2 31.1096 40.4414 32.9409 39.0912 34.2912C37.7409 35.6414 35.9096 36.4 34 36.4ZM34 32.8C34.9548 32.8 35.8704 32.4207 36.5456 31.7456C37.2207 31.0705 37.6 30.1548 37.6 29.2C37.6 28.2452 37.2207 27.3295 36.5456 26.6544C35.8704 25.9793 34.9548 25.6 34 25.6C33.0452 25.6 32.1295 25.9793 31.4544 26.6544C30.7793 27.3295 30.4 28.2452 30.4 29.2C30.4 30.1548 30.7793 31.0705 31.4544 31.7456C32.1295 32.4207 33.0452 32.8 34 32.8ZM37.152 37.1851C37.8784 36.8283 38.8 37.3126 38.8 38.1219V43.5858C38.8 44.4767 37.7229 44.9229 37.0929 44.2929L34.7071 41.9071C34.3166 41.5166 33.6834 41.5166 33.2929 41.9071L30.9071 44.2929C30.2771 44.9229 29.2 44.4767 29.2 43.5858V38.1219C29.2 37.3126 30.1216 36.8283 30.848 37.1851C31.8436 37.6741 32.9135 38 34 38C35.0865 38 36.1564 37.6741 37.152 37.1851Z" fill="white"/>
<path d="M92.66 15.98L92.14 19H90.38L90.9 15.98H84.94L85.18 14.58L91.04 4.86L92.58 5.52L87.28 14.38H91.18L91.9 10.4H93.66L92.94 14.38H94.66L94.38 15.98H92.66ZM95.9922 19.7L104.352 3.54L105.752 4.26L97.3922 20.42L95.9922 19.7ZM108.216 12.44L108.456 10.98H109.096C109.749 10.98 110.343 10.92 110.876 10.8C111.409 10.68 111.863 10.5067 112.236 10.28C112.609 10.0533 112.896 9.78 113.096 9.46C113.309 9.12667 113.416 8.75333 113.416 8.34C113.416 7.72667 113.203 7.24 112.776 6.88C112.363 6.50667 111.829 6.32 111.176 6.32C110.563 6.32 110.036 6.42 109.596 6.62C109.156 6.80667 108.763 7.02667 108.416 7.28L107.716 5.92C108.183 5.58667 108.716 5.31333 109.316 5.1C109.916 4.87333 110.609 4.76 111.396 4.76C112.009 4.76 112.556 4.85333 113.036 5.04C113.516 5.21333 113.923 5.45333 114.256 5.76C114.589 6.05333 114.843 6.4 115.016 6.8C115.189 7.2 115.276 7.61333 115.276 8.04C115.276 8.98667 115.003 9.74667 114.456 10.32C113.909 10.8933 113.109 11.34 112.056 11.66C112.896 11.9667 113.543 12.4067 113.996 12.98C114.449 13.54 114.676 14.2133 114.676 15C114.676 15.64 114.549 16.2267 114.296 16.76C114.043 17.28 113.689 17.7267 113.236 18.1C112.783 18.46 112.243 18.74 111.616 18.94C110.989 19.14 110.309 19.24 109.576 19.24C108.816 19.24 108.096 19.14 107.416 18.94C106.749 18.7267 106.183 18.44 105.716 18.08L106.776 16.66C107.109 16.94 107.509 17.1733 107.976 17.36C108.443 17.5467 108.976 17.64 109.576 17.64C110.029 17.64 110.449 17.5867 110.836 17.48C111.223 17.36 111.556 17.1933 111.836 16.98C112.116 16.7667 112.336 16.5 112.496 16.18C112.656 15.86 112.736 15.4933 112.736 15.08C112.736 14.72 112.663 14.38 112.516 14.06C112.369 13.74 112.149 13.46 111.856 13.22C111.576 12.98 111.216 12.7933 110.776 12.66C110.336 12.5133 109.823 12.44 109.236 12.44H108.216ZM122.408 17.6C123.048 17.6 123.608 17.3867 124.088 16.96C124.582 16.5333 124.988 15.9667 125.308 15.26C125.642 14.5533 125.895 13.7333 126.068 12.8C126.242 11.8667 126.328 10.8933 126.328 9.88C126.328 8.74667 126.128 7.88667 125.728 7.3C125.342 6.7 124.755 6.4 123.968 6.4C123.328 6.4 122.762 6.61333 122.268 7.04C121.788 7.46667 121.382 8.03333 121.048 8.74C120.728 9.44667 120.482 10.2667 120.308 11.2C120.135 12.1333 120.048 13.1067 120.048 14.12C120.048 15.2533 120.242 16.12 120.628 16.72C121.028 17.3067 121.622 17.6 122.408 17.6ZM122.208 19.24C120.875 19.24 119.855 18.7733 119.148 17.84C118.455 16.8933 118.108 15.6133 118.108 14C118.108 12.88 118.228 11.7667 118.468 10.66C118.708 9.55333 119.075 8.56667 119.568 7.7C120.062 6.82 120.688 6.11333 121.448 5.58C122.222 5.03333 123.128 4.76 124.168 4.76C125.502 4.76 126.515 5.23333 127.208 6.18C127.915 7.11333 128.268 8.38667 128.268 10C128.268 11.12 128.148 12.2333 127.908 13.34C127.668 14.4467 127.302 15.44 126.808 16.32C126.315 17.1867 125.682 17.8933 124.908 18.44C124.148 18.9733 123.248 19.24 122.208 19.24ZM145.797 12.2C145.797 13.2 145.617 14.1267 145.257 14.98C144.91 15.8333 144.423 16.58 143.797 17.22C143.17 17.8467 142.423 18.34 141.557 18.7C140.69 19.06 139.743 19.24 138.717 19.24C138.09 19.24 137.517 19.18 136.997 19.06C136.49 18.9533 136.063 18.8133 135.717 18.64L138.257 4.2H140.057L138.917 10.7C139.303 9.98 139.797 9.41333 140.397 9C141.01 8.57333 141.697 8.36 142.457 8.36C142.937 8.36 143.377 8.45333 143.777 8.64C144.19 8.82667 144.543 9.09333 144.837 9.44C145.143 9.77333 145.377 10.1733 145.537 10.64C145.71 11.1067 145.797 11.6267 145.797 12.2ZM141.997 9.92C141.637 9.92 141.263 10.0133 140.877 10.2C140.49 10.3733 140.123 10.6733 139.777 11.1C139.43 11.5133 139.11 12.06 138.817 12.74C138.523 13.42 138.29 14.26 138.117 15.26L137.717 17.48C137.93 17.5333 138.15 17.5733 138.377 17.6C138.617 17.6267 138.87 17.64 139.137 17.64C139.817 17.64 140.45 17.5067 141.037 17.24C141.637 16.9733 142.15 16.6067 142.577 16.14C143.003 15.6733 143.337 15.1267 143.577 14.5C143.83 13.86 143.957 13.1733 143.957 12.44C143.957 11.6667 143.777 11.0533 143.417 10.6C143.057 10.1467 142.583 9.92 141.997 9.92ZM147.181 14.9C147.181 13.94 147.341 13.06 147.661 12.26C147.995 11.4467 148.455 10.7533 149.041 10.18C149.628 9.60667 150.328 9.16 151.141 8.84C151.955 8.52 152.841 8.36 153.801 8.36C154.588 8.36 155.275 8.44 155.861 8.6C156.461 8.76 156.955 8.92 157.341 9.08L156.081 16.18C156.068 16.2467 156.055 16.3267 156.041 16.42C156.041 16.5 156.041 16.5867 156.041 16.68C156.041 17.0533 156.148 17.32 156.361 17.48C156.575 17.6267 156.855 17.7 157.201 17.7L156.581 19.1C155.861 19.1 155.308 18.9267 154.921 18.58C154.548 18.2333 154.361 17.68 154.361 16.92C153.988 17.56 153.515 18.1067 152.941 18.56C152.381 19.0133 151.721 19.24 150.961 19.24C150.468 19.24 149.995 19.14 149.541 18.94C149.088 18.74 148.681 18.4533 148.321 18.08C147.975 17.7067 147.695 17.2533 147.481 16.72C147.281 16.1733 147.181 15.5667 147.181 14.9ZM155.361 10.14C155.108 10.06 154.841 10 154.561 9.96C154.295 9.90667 153.968 9.88 153.581 9.88C152.888 9.88 152.261 10 151.701 10.24C151.141 10.48 150.661 10.8133 150.261 11.24C149.861 11.6667 149.555 12.1733 149.341 12.76C149.128 13.3467 149.021 13.9867 149.021 14.68C149.021 15.16 149.088 15.5867 149.221 15.96C149.368 16.32 149.555 16.6267 149.781 16.88C150.008 17.1333 150.261 17.3267 150.541 17.46C150.835 17.58 151.135 17.64 151.441 17.64C151.841 17.64 152.221 17.5333 152.581 17.32C152.955 17.1067 153.288 16.8067 153.581 16.42C153.875 16.02 154.128 15.5533 154.341 15.02C154.555 14.4733 154.715 13.88 154.821 13.24L155.361 10.14ZM168.56 19.1C167.84 19.1 167.286 18.9267 166.9 18.58C166.526 18.22 166.34 17.66 166.34 16.9C165.953 17.54 165.466 18.0933 164.88 18.56C164.293 19.0133 163.613 19.24 162.84 19.24C162.333 19.24 161.846 19.14 161.38 18.94C160.926 18.74 160.52 18.4533 160.16 18.08C159.813 17.7067 159.533 17.2533 159.32 16.72C159.12 16.1733 159.02 15.5667 159.02 14.9C159.02 13.8867 159.173 12.9733 159.48 12.16C159.8 11.3467 160.206 10.66 160.7 10.1C161.206 9.54 161.773 9.11333 162.4 8.82C163.026 8.51333 163.66 8.36 164.3 8.36C165.02 8.36 165.633 8.53333 166.14 8.88C166.646 9.22667 167.04 9.65333 167.32 10.16L168.38 4.2H170.18L168.06 16.18C168.046 16.2467 168.033 16.3267 168.02 16.42C168.02 16.5 168.02 16.5867 168.02 16.68C168.02 17.0533 168.126 17.32 168.34 17.48C168.553 17.6267 168.833 17.7 169.18 17.7L168.56 19.1ZM163.32 17.64C163.693 17.64 164.06 17.5533 164.42 17.38C164.78 17.1933 165.106 16.9333 165.4 16.6C165.706 16.2533 165.966 15.84 166.18 15.36C166.406 14.88 166.573 14.3467 166.68 13.76L167.04 11.7C166.773 11.14 166.413 10.7067 165.96 10.4C165.506 10.08 165.006 9.92 164.46 9.92C163.993 9.92 163.54 10.0267 163.1 10.24C162.673 10.4533 162.293 10.7667 161.96 11.18C161.626 11.58 161.36 12.0733 161.16 12.66C160.96 13.2467 160.86 13.9067 160.86 14.64C160.86 15.1333 160.926 15.5667 161.06 15.94C161.206 16.3133 161.393 16.6267 161.62 16.88C161.846 17.1333 162.106 17.3267 162.4 17.46C162.693 17.58 163 17.64 163.32 17.64ZM177.57 8.36C178.37 8.36 179.064 8.44 179.65 8.6C180.25 8.76 180.744 8.92 181.13 9.08L179.39 19.12C179.23 20.04 178.984 20.7867 178.65 21.36C178.317 21.9467 177.937 22.4067 177.51 22.74C177.084 23.0867 176.63 23.32 176.15 23.44C175.67 23.5733 175.197 23.64 174.73 23.64C173.824 23.64 173.05 23.4533 172.41 23.08C171.784 22.72 171.27 22.2867 170.87 21.78L172.27 20.74C172.924 21.6333 173.784 22.08 174.85 22.08C175.517 22.08 176.104 21.8333 176.61 21.34C177.117 20.8467 177.477 20.0067 177.69 18.82L178.03 16.86C177.644 17.46 177.177 17.9667 176.63 18.38C176.084 18.7933 175.464 19 174.77 19C174.29 19 173.824 18.9133 173.37 18.74C172.917 18.5533 172.51 18.2867 172.15 17.94C171.79 17.5933 171.504 17.16 171.29 16.64C171.077 16.12 170.97 15.5267 170.97 14.86C170.97 13.9 171.137 13.02 171.47 12.22C171.804 11.42 172.264 10.7333 172.85 10.16C173.437 9.58667 174.13 9.14667 174.93 8.84C175.744 8.52 176.624 8.36 177.57 8.36ZM172.81 14.66C172.81 15.1133 172.877 15.5133 173.01 15.86C173.157 16.1933 173.344 16.48 173.57 16.72C173.797 16.9467 174.057 17.12 174.35 17.24C174.644 17.3467 174.944 17.4 175.25 17.4C175.624 17.4 175.984 17.3 176.33 17.1C176.69 16.8867 177.017 16.5933 177.31 16.22C177.617 15.8333 177.884 15.3733 178.11 14.84C178.337 14.3067 178.51 13.7067 178.63 13.04L179.15 10.14C178.897 10.06 178.63 10 178.35 9.96C178.07 9.90667 177.744 9.88 177.37 9.88C176.704 9.88 176.09 10.0067 175.53 10.26C174.97 10.5 174.49 10.8333 174.09 11.26C173.69 11.6867 173.377 12.1933 173.15 12.78C172.924 13.3533 172.81 13.98 172.81 14.66ZM186.993 19.24C186.327 19.24 185.72 19.1333 185.173 18.92C184.627 18.6933 184.153 18.38 183.753 17.98C183.367 17.5667 183.06 17.0667 182.833 16.48C182.62 15.8933 182.513 15.2333 182.513 14.5C182.513 13.6733 182.647 12.8867 182.913 12.14C183.18 11.3933 183.553 10.74 184.033 10.18C184.527 9.62 185.12 9.18 185.813 8.86C186.507 8.52667 187.28 8.36 188.133 8.36C188.707 8.36 189.22 8.44667 189.673 8.62C190.127 8.79333 190.507 9.02 190.813 9.3C191.133 9.58 191.373 9.90667 191.533 10.28C191.707 10.6533 191.793 11.04 191.793 11.44C191.793 12.1867 191.613 12.7933 191.253 13.26C190.907 13.7267 190.467 14.1 189.933 14.38C189.4 14.6467 188.813 14.8333 188.173 14.94C187.533 15.0333 186.927 15.08 186.353 15.08C185.993 15.08 185.633 15.0667 185.273 15.04C184.927 15 184.62 14.96 184.353 14.92C184.46 15.8 184.767 16.4733 185.273 16.94C185.793 17.4067 186.467 17.64 187.293 17.64C187.96 17.64 188.553 17.5533 189.073 17.38C189.593 17.2067 190.033 17.0333 190.393 16.86L190.553 18.46C190.153 18.6467 189.647 18.8267 189.033 19C188.433 19.16 187.753 19.24 186.993 19.24ZM187.993 9.88C187.527 9.88 187.087 9.97333 186.673 10.16C186.273 10.3333 185.913 10.58 185.593 10.9C185.287 11.22 185.027 11.6 184.813 12.04C184.613 12.48 184.473 12.96 184.393 13.48C184.7 13.5467 185.007 13.5933 185.313 13.62C185.62 13.6467 185.967 13.66 186.353 13.66C187.487 13.66 188.373 13.5067 189.013 13.2C189.667 12.88 189.993 12.34 189.993 11.58C189.993 11.1133 189.807 10.7133 189.433 10.38C189.073 10.0467 188.593 9.88 187.993 9.88ZM200.145 10.86C199.758 10.5933 199.325 10.36 198.845 10.16C198.378 9.96 197.845 9.86 197.245 9.86C196.605 9.86 196.112 9.96667 195.765 10.18C195.432 10.3933 195.265 10.6733 195.265 11.02C195.265 11.18 195.292 11.3267 195.345 11.46C195.412 11.5933 195.518 11.7333 195.665 11.88C195.825 12.0133 196.038 12.16 196.305 12.32C196.572 12.48 196.912 12.6667 197.325 12.88C198.245 13.3467 198.918 13.82 199.345 14.3C199.785 14.7667 200.005 15.36 200.005 16.08C200.005 16.6133 199.898 17.08 199.685 17.48C199.472 17.8667 199.172 18.1933 198.785 18.46C198.412 18.7133 197.972 18.9067 197.465 19.04C196.958 19.1733 196.412 19.24 195.825 19.24C195.012 19.24 194.292 19.14 193.665 18.94C193.052 18.7267 192.518 18.4533 192.065 18.12L193.085 16.64C193.445 16.9333 193.865 17.18 194.345 17.38C194.838 17.58 195.385 17.68 195.985 17.68C196.665 17.68 197.192 17.5533 197.565 17.3C197.952 17.0467 198.145 16.7333 198.145 16.36C198.145 16.1867 198.112 16.0267 198.045 15.88C197.992 15.72 197.885 15.56 197.725 15.4C197.565 15.24 197.345 15.08 197.065 14.92C196.798 14.7467 196.458 14.5533 196.045 14.34C195.538 14.0867 195.118 13.8467 194.785 13.62C194.465 13.38 194.205 13.1333 194.005 12.88C193.818 12.6267 193.685 12.36 193.605 12.08C193.525 11.7867 193.485 11.4667 193.485 11.12C193.485 10.72 193.578 10.3533 193.765 10.02C193.952 9.67333 194.212 9.38 194.545 9.14C194.878 8.9 195.278 8.71333 195.745 8.58C196.212 8.43333 196.725 8.36 197.285 8.36C198.032 8.36 198.698 8.46 199.285 8.66C199.885 8.84667 200.412 9.07333 200.865 9.34L200.145 10.86ZM215.628 10.7C215.281 10.4867 214.914 10.3133 214.528 10.18C214.154 10.0333 213.734 9.96 213.268 9.96C212.708 9.96 212.201 10.0733 211.748 10.3C211.294 10.5267 210.908 10.84 210.588 11.24C210.268 11.6267 210.021 12.0867 209.848 12.62C209.674 13.1533 209.588 13.7267 209.588 14.34C209.588 15.3533 209.841 16.16 210.348 16.76C210.854 17.3467 211.548 17.64 212.428 17.64C212.934 17.64 213.381 17.58 213.768 17.46C214.154 17.34 214.508 17.2 214.828 17.04L215.048 18.62C214.714 18.7667 214.308 18.9067 213.828 19.04C213.361 19.1733 212.794 19.24 212.128 19.24C211.474 19.24 210.881 19.1333 210.348 18.92C209.814 18.6933 209.354 18.3733 208.968 17.96C208.581 17.5467 208.281 17.06 208.068 16.5C207.854 15.9267 207.748 15.2867 207.748 14.58C207.748 13.74 207.874 12.9467 208.128 12.2C208.394 11.4533 208.774 10.7933 209.268 10.22C209.761 9.64667 210.354 9.19333 211.048 8.86C211.741 8.52667 212.528 8.36 213.408 8.36C214.034 8.36 214.588 8.44 215.068 8.6C215.548 8.74667 215.981 8.93333 216.368 9.16L215.628 10.7ZM221.534 17.64C222.134 17.64 222.667 17.5267 223.134 17.3C223.601 17.0733 224.001 16.76 224.334 16.36C224.667 15.96 224.921 15.4933 225.094 14.96C225.267 14.4267 225.354 13.8467 225.354 13.22C225.354 12.7667 225.281 12.34 225.134 11.94C225.001 11.54 224.801 11.1933 224.534 10.9C224.281 10.6067 223.967 10.38 223.594 10.22C223.221 10.0467 222.794 9.96 222.314 9.96C221.727 9.96 221.194 10.0733 220.714 10.3C220.247 10.5267 219.847 10.84 219.514 11.24C219.181 11.64 218.927 12.1133 218.754 12.66C218.581 13.1933 218.494 13.7667 218.494 14.38C218.494 14.8333 218.561 15.26 218.694 15.66C218.827 16.06 219.021 16.4067 219.274 16.7C219.541 16.9933 219.861 17.2267 220.234 17.4C220.621 17.56 221.054 17.64 221.534 17.64ZM221.474 19.24C220.727 19.24 220.054 19.1267 219.454 18.9C218.867 18.66 218.367 18.3333 217.954 17.92C217.541 17.5067 217.221 17.0133 216.994 16.44C216.767 15.8533 216.654 15.22 216.654 14.54C216.654 13.6733 216.787 12.8667 217.054 12.12C217.321 11.36 217.701 10.7067 218.194 10.16C218.701 9.6 219.307 9.16 220.014 8.84C220.721 8.52 221.507 8.36 222.374 8.36C223.107 8.36 223.774 8.48 224.374 8.72C224.974 8.94667 225.481 9.26667 225.894 9.68C226.307 10.0933 226.627 10.5933 226.854 11.18C227.081 11.7533 227.194 12.38 227.194 13.06C227.194 13.9267 227.061 14.74 226.794 15.5C226.527 16.2467 226.141 16.9 225.634 17.46C225.141 18.0067 224.541 18.44 223.834 18.76C223.127 19.08 222.341 19.24 221.474 19.24ZM230.846 15.4C230.819 15.5867 230.799 15.7467 230.786 15.88C230.772 16.0133 230.766 16.1333 230.766 16.24C230.766 16.7067 230.899 17.0667 231.166 17.32C231.432 17.56 231.799 17.68 232.266 17.68C232.492 17.68 232.719 17.6533 232.946 17.6C233.172 17.5467 233.379 17.4733 233.566 17.38L233.746 18.84C233.506 18.96 233.226 19.0533 232.906 19.12C232.586 19.2 232.239 19.24 231.866 19.24C231.466 19.24 231.086 19.18 230.726 19.06C230.379 18.9533 230.072 18.7867 229.806 18.56C229.552 18.3333 229.346 18.0467 229.186 17.7C229.039 17.34 228.966 16.9267 228.966 16.46C228.966 16.2733 228.972 16.1067 228.986 15.96C228.999 15.8 229.019 15.6267 229.046 15.44L231.006 4.2H232.806L230.846 15.4ZM237.115 15.4C237.089 15.5867 237.069 15.7467 237.055 15.88C237.042 16.0133 237.035 16.1333 237.035 16.24C237.035 16.7067 237.169 17.0667 237.435 17.32C237.702 17.56 238.069 17.68 238.535 17.68C238.762 17.68 238.989 17.6533 239.215 17.6C239.442 17.5467 239.649 17.4733 239.835 17.38L240.015 18.84C239.775 18.96 239.495 19.0533 239.175 19.12C238.855 19.2 238.509 19.24 238.135 19.24C237.735 19.24 237.355 19.18 236.995 19.06C236.649 18.9533 236.342 18.7867 236.075 18.56C235.822 18.3333 235.615 18.0467 235.455 17.7C235.309 17.34 235.235 16.9267 235.235 16.46C235.235 16.2733 235.242 16.1067 235.255 15.96C235.269 15.8 235.289 15.6267 235.315 15.44L237.275 4.2H239.075L237.115 15.4ZM245.372 19.24C244.706 19.24 244.099 19.1333 243.552 18.92C243.006 18.6933 242.532 18.38 242.132 17.98C241.746 17.5667 241.439 17.0667 241.212 16.48C240.999 15.8933 240.892 15.2333 240.892 14.5C240.892 13.6733 241.026 12.8867 241.292 12.14C241.559 11.3933 241.932 10.74 242.412 10.18C242.906 9.62 243.499 9.18 244.192 8.86C244.886 8.52667 245.659 8.36 246.512 8.36C247.086 8.36 247.599 8.44667 248.052 8.62C248.506 8.79333 248.886 9.02 249.192 9.3C249.512 9.58 249.752 9.90667 249.912 10.28C250.086 10.6533 250.172 11.04 250.172 11.44C250.172 12.1867 249.992 12.7933 249.632 13.26C249.286 13.7267 248.846 14.1 248.312 14.38C247.779 14.6467 247.192 14.8333 246.552 14.94C245.912 15.0333 245.306 15.08 244.732 15.08C244.372 15.08 244.012 15.0667 243.652 15.04C243.306 15 242.999 14.96 242.732 14.92C242.839 15.8 243.146 16.4733 243.652 16.94C244.172 17.4067 244.846 17.64 245.672 17.64C246.339 17.64 246.932 17.5533 247.452 17.38C247.972 17.2067 248.412 17.0333 248.772 16.86L248.932 18.46C248.532 18.6467 248.026 18.8267 247.412 19C246.812 19.16 246.132 19.24 245.372 19.24ZM246.372 9.88C245.906 9.88 245.466 9.97333 245.052 10.16C244.652 10.3333 244.292 10.58 243.972 10.9C243.666 11.22 243.406 11.6 243.192 12.04C242.992 12.48 242.852 12.96 242.772 13.48C243.079 13.5467 243.386 13.5933 243.692 13.62C243.999 13.6467 244.346 13.66 244.732 13.66C245.866 13.66 246.752 13.5067 247.392 13.2C248.046 12.88 248.372 12.34 248.372 11.58C248.372 11.1133 248.186 10.7133 247.812 10.38C247.452 10.0467 246.972 9.88 246.372 9.88ZM259.124 10.7C258.777 10.4867 258.411 10.3133 258.024 10.18C257.651 10.0333 257.231 9.96 256.764 9.96C256.204 9.96 255.697 10.0733 255.244 10.3C254.791 10.5267 254.404 10.84 254.084 11.24C253.764 11.6267 253.517 12.0867 253.344 12.62C253.171 13.1533 253.084 13.7267 253.084 14.34C253.084 15.3533 253.337 16.16 253.844 16.76C254.351 17.3467 255.044 17.64 255.924 17.64C256.431 17.64 256.877 17.58 257.264 17.46C257.651 17.34 258.004 17.2 258.324 17.04L258.544 18.62C258.211 18.7667 257.804 18.9067 257.324 19.04C256.857 19.1733 256.291 19.24 255.624 19.24C254.971 19.24 254.377 19.1333 253.844 18.92C253.311 18.6933 252.851 18.3733 252.464 17.96C252.077 17.5467 251.777 17.06 251.564 16.5C251.351 15.9267 251.244 15.2867 251.244 14.58C251.244 13.74 251.371 12.9467 251.624 12.2C251.891 11.4533 252.271 10.7933 252.764 10.22C253.257 9.64667 253.851 9.19333 254.544 8.86C255.237 8.52667 256.024 8.36 256.904 8.36C257.531 8.36 258.084 8.44 258.564 8.6C259.044 8.74667 259.477 8.93333 259.864 9.16L259.124 10.7ZM260.803 8.98H262.643L263.603 5.7H264.983L264.403 8.98H267.283L267.023 10.54H264.123L263.283 15.4C263.23 15.6667 263.203 15.92 263.203 16.16C263.203 16.6267 263.336 16.9933 263.603 17.26C263.883 17.5133 264.256 17.64 264.723 17.64C265.11 17.64 265.43 17.5867 265.683 17.48C265.95 17.36 266.196 17.24 266.423 17.12L266.643 18.68C266.39 18.8267 266.07 18.9533 265.683 19.06C265.31 19.18 264.89 19.24 264.423 19.24C264.05 19.24 263.683 19.18 263.323 19.06C262.963 18.9533 262.643 18.7867 262.363 18.56C262.083 18.32 261.856 18.0133 261.683 17.64C261.51 17.2667 261.423 16.82 261.423 16.3C261.423 16.1533 261.43 16.0067 261.443 15.86C261.456 15.7 261.476 15.52 261.503 15.32L262.323 10.54H260.543L260.803 8.98ZM272.54 19.24C271.874 19.24 271.267 19.1333 270.72 18.92C270.174 18.6933 269.7 18.38 269.3 17.98C268.914 17.5667 268.607 17.0667 268.38 16.48C268.167 15.8933 268.06 15.2333 268.06 14.5C268.06 13.6733 268.194 12.8867 268.46 12.14C268.727 11.3933 269.1 10.74 269.58 10.18C270.074 9.62 270.667 9.18 271.36 8.86C272.054 8.52667 272.827 8.36 273.68 8.36C274.254 8.36 274.767 8.44667 275.22 8.62C275.674 8.79333 276.054 9.02 276.36 9.3C276.68 9.58 276.92 9.90667 277.08 10.28C277.254 10.6533 277.34 11.04 277.34 11.44C277.34 12.1867 277.16 12.7933 276.8 13.26C276.454 13.7267 276.014 14.1 275.48 14.38C274.947 14.6467 274.36 14.8333 273.72 14.94C273.08 15.0333 272.474 15.08 271.9 15.08C271.54 15.08 271.18 15.0667 270.82 15.04C270.474 15 270.167 14.96 269.9 14.92C270.007 15.8 270.314 16.4733 270.82 16.94C271.34 17.4067 272.014 17.64 272.84 17.64C273.507 17.64 274.1 17.5533 274.62 17.38C275.14 17.2067 275.58 17.0333 275.94 16.86L276.1 18.46C275.7 18.6467 275.194 18.8267 274.58 19C273.98 19.16 273.3 19.24 272.54 19.24ZM273.54 9.88C273.074 9.88 272.634 9.97333 272.22 10.16C271.82 10.3333 271.46 10.58 271.14 10.9C270.834 11.22 270.574 11.6 270.36 12.04C270.16 12.48 270.02 12.96 269.94 13.48C270.247 13.5467 270.554 13.5933 270.86 13.62C271.167 13.6467 271.514 13.66 271.9 13.66C273.034 13.66 273.92 13.5067 274.56 13.2C275.214 12.88 275.54 12.34 275.54 11.58C275.54 11.1133 275.354 10.7133 274.98 10.38C274.62 10.0467 274.14 9.88 273.54 9.88ZM288.052 19.1C287.332 19.1 286.779 18.9267 286.392 18.58C286.019 18.22 285.832 17.66 285.832 16.9C285.445 17.54 284.959 18.0933 284.372 18.56C283.785 19.0133 283.105 19.24 282.332 19.24C281.825 19.24 281.339 19.14 280.872 18.94C280.419 18.74 280.012 18.4533 279.652 18.08C279.305 17.7067 279.025 17.2533 278.812 16.72C278.612 16.1733 278.512 15.5667 278.512 14.9C278.512 13.8867 278.665 12.9733 278.972 12.16C279.292 11.3467 279.699 10.66 280.192 10.1C280.699 9.54 281.265 9.11333 281.892 8.82C282.519 8.51333 283.152 8.36 283.792 8.36C284.512 8.36 285.125 8.53333 285.632 8.88C286.139 9.22667 286.532 9.65333 286.812 10.16L287.872 4.2H289.672L287.552 16.18C287.539 16.2467 287.525 16.3267 287.512 16.42C287.512 16.5 287.512 16.5867 287.512 16.68C287.512 17.0533 287.619 17.32 287.832 17.48C288.045 17.6267 288.325 17.7 288.672 17.7L288.052 19.1ZM282.812 17.64C283.185 17.64 283.552 17.5533 283.912 17.38C284.272 17.1933 284.599 16.9333 284.892 16.6C285.199 16.2533 285.459 15.84 285.672 15.36C285.899 14.88 286.065 14.3467 286.172 13.76L286.532 11.7C286.265 11.14 285.905 10.7067 285.452 10.4C284.999 10.08 284.499 9.92 283.952 9.92C283.485 9.92 283.032 10.0267 282.592 10.24C282.165 10.4533 281.785 10.7667 281.452 11.18C281.119 11.58 280.852 12.0733 280.652 12.66C280.452 13.2467 280.352 13.9067 280.352 14.64C280.352 15.1333 280.419 15.5667 280.552 15.94C280.699 16.3133 280.885 16.6267 281.112 16.88C281.339 17.1333 281.599 17.3267 281.892 17.46C282.185 17.58 282.492 17.64 282.812 17.64Z" fill="white"/>
<path d="M85.248 46.776C85.632 47.096 86.064 47.3573 86.544 47.56C87.024 47.7627 87.584 47.864 88.224 47.864C88.992 47.864 89.6 47.704 90.048 47.384C90.496 47.064 90.72 46.632 90.72 46.088C90.72 45.864 90.688 45.656 90.624 45.464C90.56 45.272 90.432 45.0907 90.24 44.92C90.0587 44.7387 89.7973 44.5627 89.456 44.392C89.1253 44.2107 88.6933 44.0187 88.16 43.816C87.584 43.592 87.0933 43.3733 86.688 43.16C86.2933 42.936 85.9733 42.696 85.728 42.44C85.4827 42.1733 85.3067 41.8853 85.2 41.576C85.0933 41.256 85.04 40.8933 85.04 40.488C85.04 40.0933 85.12 39.72 85.28 39.368C85.4507 39.016 85.696 38.712 86.016 38.456C86.3467 38.1893 86.7467 37.9813 87.216 37.832C87.696 37.6827 88.24 37.608 88.848 37.608C89.5093 37.608 90.1013 37.6773 90.624 37.816C91.1467 37.944 91.664 38.1307 92.176 38.376L91.616 39.672C91.2533 39.4587 90.8267 39.2827 90.336 39.144C89.856 38.9947 89.3493 38.92 88.816 38.92C88.112 38.92 87.5573 39.0587 87.152 39.336C86.7467 39.6027 86.544 39.96 86.544 40.408C86.544 40.6213 86.5707 40.8133 86.624 40.984C86.688 41.144 86.8053 41.304 86.976 41.464C87.1573 41.6133 87.4027 41.768 87.712 41.928C88.032 42.088 88.4533 42.264 88.976 42.456C89.5947 42.6907 90.1173 42.9307 90.544 43.176C90.9707 43.4213 91.312 43.6827 91.568 43.96C91.824 44.2373 92.0053 44.536 92.112 44.856C92.2293 45.176 92.288 45.528 92.288 45.912C92.288 46.4347 92.1867 46.8987 91.984 47.304C91.7813 47.7093 91.4987 48.056 91.136 48.344C90.784 48.6213 90.3573 48.8347 89.856 48.984C89.3547 49.1227 88.8107 49.192 88.224 49.192C87.4453 49.192 86.736 49.0907 86.096 48.888C85.456 48.6747 84.9173 48.3973 84.48 48.056L85.248 46.776ZM95.0298 38.36H96.1338V40.984H98.4378V42.232H96.1338V46.248C96.1338 46.5573 96.1658 46.8187 96.2298 47.032C96.3044 47.2453 96.4004 47.416 96.5178 47.544C96.6351 47.672 96.7738 47.768 96.9338 47.832C97.1044 47.8853 97.2804 47.912 97.4618 47.912C97.7284 47.912 97.9791 47.8693 98.2138 47.784C98.4484 47.6987 98.6724 47.5973 98.8858 47.48L99.2858 48.632C99.0724 48.76 98.7844 48.8827 98.4218 49C98.0591 49.128 97.6804 49.192 97.2858 49.192C96.4858 49.192 95.8511 48.9307 95.3818 48.408C94.9231 47.8853 94.6938 47.128 94.6938 46.136V42.232H93.2538V40.984H94.7258L95.0298 38.36ZM99.8606 44.888C99.8606 44.2693 99.9566 43.6933 100.149 43.16C100.341 42.616 100.607 42.1467 100.949 41.752C101.301 41.3573 101.717 41.048 102.197 40.824C102.687 40.6 103.221 40.488 103.797 40.488C104.277 40.488 104.709 40.5733 105.093 40.744C105.487 40.904 105.829 41.1067 106.117 41.352V40.68H107.429V46.984C107.429 47.3893 107.525 47.656 107.717 47.784C107.919 47.9013 108.138 47.96 108.373 47.96L108.069 49.08C107.045 49.08 106.426 48.664 106.213 47.832C106.085 48.0027 105.935 48.1733 105.765 48.344C105.605 48.504 105.418 48.648 105.205 48.776C104.991 48.904 104.751 49.0053 104.485 49.08C104.218 49.1547 103.925 49.192 103.605 49.192C103.082 49.192 102.591 49.0907 102.133 48.888C101.685 48.6853 101.29 48.3973 100.949 48.024C100.618 47.6507 100.351 47.2027 100.149 46.68C99.9566 46.1467 99.8606 45.5493 99.8606 44.888ZM103.925 47.912C104.33 47.912 104.714 47.816 105.077 47.624C105.439 47.432 105.743 47.1813 105.989 46.872V42.408C105.701 42.2053 105.381 42.0453 105.029 41.928C104.687 41.8 104.325 41.736 103.941 41.736C103.557 41.736 103.205 41.8107 102.885 41.96C102.565 42.1093 102.287 42.3227 102.053 42.6C101.829 42.8667 101.653 43.192 101.525 43.576C101.397 43.96 101.333 44.3813 101.333 44.84C101.333 45.288 101.397 45.704 101.525 46.088C101.653 46.4613 101.834 46.7867 102.069 47.064C102.303 47.3307 102.575 47.5387 102.885 47.688C103.205 47.8373 103.551 47.912 103.925 47.912ZM110.191 52.712C109.871 52.712 109.588 52.68 109.343 52.616C109.108 52.552 108.922 52.4773 108.783 52.392L109.103 51.192C109.231 51.2667 109.386 51.3307 109.567 51.384C109.759 51.4373 109.978 51.464 110.223 51.464C110.447 51.464 110.655 51.432 110.847 51.368C111.05 51.304 111.242 51.192 111.423 51.032C111.604 50.872 111.775 50.6533 111.935 50.376C112.106 50.0987 112.271 49.752 112.431 49.336L112.799 48.376H112.031L108.783 41.064L110.063 40.488L113.167 47.416L115.583 40.552L116.911 41.064L113.855 49.416C113.62 50.056 113.37 50.584 113.103 51C112.847 51.4267 112.57 51.768 112.271 52.024C111.972 52.28 111.647 52.456 111.295 52.552C110.954 52.6587 110.586 52.712 110.191 52.712ZM127.811 38.712C127.587 38.5947 127.347 38.488 127.091 38.392C126.835 38.296 126.552 38.248 126.243 38.248C125.795 38.248 125.432 38.392 125.155 38.68C124.888 38.9573 124.755 39.368 124.755 39.912V40.984H127.219V42.232H124.755V49H123.315V42.232H122.035V40.984H123.315V40.008C123.315 39.5387 123.384 39.1173 123.523 38.744C123.662 38.3707 123.854 38.0507 124.099 37.784C124.344 37.5173 124.643 37.3147 124.995 37.176C125.347 37.0373 125.731 36.968 126.147 36.968C126.595 36.968 126.979 37.0213 127.299 37.128C127.63 37.224 127.944 37.3467 128.243 37.496L127.811 38.712ZM130.158 49H128.718V40.68H130.158V49ZM129.438 39.256C129.16 39.256 128.92 39.16 128.718 38.968C128.526 38.7653 128.43 38.5253 128.43 38.248C128.43 37.9387 128.52 37.6933 128.702 37.512C128.883 37.3307 129.128 37.24 129.438 37.24C129.715 37.24 129.95 37.3413 130.142 37.544C130.344 37.736 130.446 37.9707 130.446 38.248C130.446 38.5573 130.355 38.8027 130.174 38.984C129.992 39.1653 129.747 39.256 129.438 39.256ZM133.374 38.36H134.478V40.984H136.782V42.232H134.478V46.248C134.478 46.5573 134.51 46.8187 134.574 47.032C134.648 47.2453 134.744 47.416 134.862 47.544C134.979 47.672 135.118 47.768 135.278 47.832C135.448 47.8853 135.624 47.912 135.806 47.912C136.072 47.912 136.323 47.8693 136.558 47.784C136.792 47.6987 137.016 47.5973 137.23 47.48L137.63 48.632C137.416 48.76 137.128 48.8827 136.766 49C136.403 49.128 136.024 49.192 135.63 49.192C134.83 49.192 134.195 48.9307 133.726 48.408C133.267 47.8853 133.038 47.128 133.038 46.136V42.232H131.598V40.984H133.07L133.374 38.36ZM143.314 44.888C143.314 44.2693 143.41 43.6933 143.602 43.16C143.794 42.616 144.06 42.1467 144.402 41.752C144.754 41.3573 145.17 41.048 145.65 40.824C146.14 40.6 146.674 40.488 147.25 40.488C147.73 40.488 148.162 40.5733 148.546 40.744C148.94 40.904 149.282 41.1067 149.57 41.352V40.68H150.882V46.984C150.882 47.3893 150.978 47.656 151.17 47.784C151.372 47.9013 151.591 47.96 151.826 47.96L151.522 49.08C150.498 49.08 149.879 48.664 149.666 47.832C149.538 48.0027 149.388 48.1733 149.218 48.344C149.058 48.504 148.871 48.648 148.658 48.776C148.444 48.904 148.204 49.0053 147.938 49.08C147.671 49.1547 147.378 49.192 147.058 49.192C146.535 49.192 146.044 49.0907 145.586 48.888C145.138 48.6853 144.743 48.3973 144.402 48.024C144.071 47.6507 143.804 47.2027 143.602 46.68C143.41 46.1467 143.314 45.5493 143.314 44.888ZM147.378 47.912C147.783 47.912 148.167 47.816 148.53 47.624C148.892 47.432 149.196 47.1813 149.442 46.872V42.408C149.154 42.2053 148.834 42.0453 148.482 41.928C148.14 41.8 147.778 41.736 147.394 41.736C147.01 41.736 146.658 41.8107 146.338 41.96C146.018 42.1093 145.74 42.3227 145.506 42.6C145.282 42.8667 145.106 43.192 144.978 43.576C144.85 43.96 144.786 44.3813 144.786 44.84C144.786 45.288 144.85 45.704 144.978 46.088C145.106 46.4613 145.287 46.7867 145.522 47.064C145.756 47.3307 146.028 47.5387 146.338 47.688C146.658 47.8373 147.004 47.912 147.378 47.912ZM155.141 42.072C155.439 41.624 155.818 41.2507 156.277 40.952C156.746 40.6427 157.301 40.488 157.941 40.488C158.879 40.488 159.578 40.7707 160.037 41.336C160.506 41.9013 160.741 42.648 160.741 43.576V49H159.301V43.736C159.301 43.128 159.162 42.648 158.885 42.296C158.607 41.9333 158.213 41.752 157.701 41.752C157.455 41.752 157.215 41.8 156.981 41.896C156.746 41.9813 156.517 42.104 156.293 42.264C156.079 42.424 155.877 42.6107 155.685 42.824C155.503 43.0373 155.338 43.2613 155.189 43.496V49H153.749V40.68H155.141V42.072ZM166.37 49.192C165.858 49.192 165.372 49.0907 164.914 48.888C164.466 48.6853 164.071 48.3973 163.73 48.024C163.399 47.6507 163.138 47.2027 162.946 46.68C162.754 46.1467 162.658 45.5493 162.658 44.888C162.658 44.2587 162.754 43.6773 162.946 43.144C163.148 42.6 163.415 42.136 163.746 41.752C164.087 41.3573 164.482 41.048 164.93 40.824C165.378 40.6 165.852 40.488 166.354 40.488C166.908 40.488 167.383 40.6 167.778 40.824C168.183 41.048 168.498 41.2773 168.722 41.512V37.16H170.161V46.984C170.161 47.3893 170.258 47.656 170.45 47.784C170.652 47.9013 170.871 47.96 171.106 47.96L170.802 49.08C169.788 49.08 169.17 48.6747 168.946 47.864C168.7 48.2053 168.37 48.5147 167.954 48.792C167.538 49.0587 167.01 49.192 166.37 49.192ZM166.69 47.912C167.084 47.912 167.458 47.8213 167.81 47.64C168.172 47.448 168.476 47.2027 168.722 46.904V42.776C168.519 42.52 168.236 42.2853 167.874 42.072C167.522 41.848 167.122 41.736 166.674 41.736C166.29 41.736 165.938 41.816 165.618 41.976C165.308 42.136 165.042 42.3547 164.818 42.632C164.594 42.9093 164.423 43.24 164.306 43.624C164.188 43.9973 164.13 44.4027 164.13 44.84C164.13 45.288 164.194 45.6987 164.322 46.072C164.45 46.4453 164.626 46.7707 164.85 47.048C165.084 47.3147 165.356 47.528 165.666 47.688C165.986 47.8373 166.327 47.912 166.69 47.912ZM183.139 42.2C182.83 42.0507 182.542 41.944 182.275 41.88C182.008 41.8053 181.71 41.768 181.379 41.768C181.006 41.768 180.654 41.8373 180.323 41.976C180.003 42.1147 179.726 42.3173 179.491 42.584C179.256 42.84 179.07 43.1547 178.931 43.528C178.803 43.9013 178.739 44.328 178.739 44.808C178.739 45.2453 178.798 45.6507 178.915 46.024C179.043 46.3973 179.219 46.728 179.443 47.016C179.667 47.2933 179.934 47.512 180.243 47.672C180.552 47.832 180.899 47.912 181.283 47.912C181.688 47.912 182.035 47.8693 182.323 47.784C182.611 47.6987 182.92 47.5653 183.251 47.384L183.699 48.6C183.358 48.7813 182.984 48.9253 182.579 49.032C182.174 49.1387 181.71 49.192 181.187 49.192C180.59 49.192 180.051 49.0853 179.571 48.872C179.091 48.6587 178.68 48.36 178.339 47.976C177.998 47.592 177.731 47.1333 177.539 46.6C177.358 46.0667 177.267 45.48 177.267 44.84C177.267 44.2427 177.358 43.6827 177.539 43.16C177.731 42.6267 178.003 42.1627 178.355 41.768C178.707 41.3733 179.128 41.064 179.619 40.84C180.12 40.6053 180.68 40.488 181.299 40.488C181.779 40.488 182.195 40.5307 182.547 40.616C182.899 40.7013 183.24 40.824 183.571 40.984L183.139 42.2ZM191.394 44.84C191.394 44.424 191.324 44.0293 191.186 43.656C191.058 43.2827 190.871 42.9573 190.626 42.68C190.391 42.4027 190.108 42.184 189.778 42.024C189.458 41.8533 189.106 41.768 188.722 41.768C187.879 41.768 187.223 42.0453 186.754 42.6C186.284 43.1547 186.049 43.8907 186.049 44.808C186.049 45.224 186.114 45.624 186.242 46.008C186.38 46.3813 186.567 46.712 186.802 47C187.047 47.2773 187.33 47.5013 187.65 47.672C187.98 47.832 188.338 47.912 188.722 47.912C189.138 47.912 189.511 47.8373 189.842 47.688C190.172 47.5387 190.45 47.3307 190.674 47.064C190.908 46.7867 191.084 46.4613 191.202 46.088C191.33 45.7147 191.394 45.2987 191.394 44.84ZM184.578 44.84C184.578 44.168 184.684 43.5653 184.898 43.032C185.111 42.488 185.399 42.0293 185.762 41.656C186.135 41.2827 186.572 40.9947 187.074 40.792C187.586 40.5893 188.135 40.488 188.722 40.488C189.298 40.488 189.836 40.5893 190.338 40.792C190.85 40.9947 191.292 41.2827 191.666 41.656C192.039 42.0293 192.332 42.4827 192.546 43.016C192.759 43.5493 192.866 44.1467 192.866 44.808C192.866 45.4693 192.759 46.072 192.546 46.616C192.343 47.1493 192.055 47.608 191.682 47.992C191.308 48.376 190.866 48.6747 190.354 48.888C189.852 49.0907 189.308 49.192 188.722 49.192C188.124 49.192 187.57 49.0853 187.058 48.872C186.556 48.6587 186.119 48.36 185.746 47.976C185.383 47.592 185.095 47.1333 184.882 46.6C184.679 46.0667 184.578 45.48 184.578 44.84ZM196.14 46.248C196.14 46.824 196.257 47.2507 196.492 47.528C196.737 47.8053 197.073 47.944 197.5 47.944C197.703 47.944 197.9 47.9227 198.092 47.88C198.284 47.8267 198.455 47.768 198.604 47.704L198.956 48.872C198.764 48.9573 198.524 49.032 198.236 49.096C197.959 49.16 197.649 49.192 197.308 49.192C196.935 49.192 196.588 49.1387 196.268 49.032C195.959 48.9253 195.687 48.76 195.452 48.536C195.217 48.312 195.031 48.024 194.892 47.672C194.764 47.32 194.7 46.8933 194.7 46.392V37.16H196.14V46.248ZM201.515 46.248C201.515 46.824 201.632 47.2507 201.867 47.528C202.112 47.8053 202.448 47.944 202.875 47.944C203.078 47.944 203.275 47.9227 203.467 47.88C203.659 47.8267 203.83 47.768 203.979 47.704L204.331 48.872C204.139 48.9573 203.899 49.032 203.611 49.096C203.334 49.16 203.024 49.192 202.683 49.192C202.31 49.192 201.963 49.1387 201.643 49.032C201.334 48.9253 201.062 48.76 200.827 48.536C200.592 48.312 200.406 48.024 200.267 47.672C200.139 47.32 200.075 46.8933 200.075 46.392V37.16H201.515V46.248ZM206.364 45.432C206.46 46.2107 206.732 46.8187 207.18 47.256C207.628 47.6933 208.22 47.912 208.956 47.912C209.436 47.912 209.868 47.864 210.252 47.768C210.636 47.6613 211.004 47.528 211.356 47.368L211.692 48.6C211.308 48.7813 210.876 48.9253 210.396 49.032C209.916 49.1387 209.377 49.192 208.78 49.192C208.183 49.192 207.644 49.096 207.164 48.904C206.684 48.7013 206.273 48.4187 205.932 48.056C205.601 47.6827 205.345 47.2293 205.164 46.696C204.983 46.152 204.892 45.5333 204.892 44.84C204.892 44.2213 204.983 43.6453 205.164 43.112C205.345 42.5787 205.601 42.12 205.932 41.736C206.263 41.3413 206.657 41.0373 207.116 40.824C207.575 40.6 208.087 40.488 208.652 40.488C209.249 40.488 209.772 40.5893 210.22 40.792C210.668 40.9947 211.041 41.272 211.34 41.624C211.639 41.976 211.863 42.3867 212.012 42.856C212.161 43.3253 212.236 43.8213 212.236 44.344C212.236 44.7173 212.22 45.08 212.188 45.432H206.364ZM208.62 41.736C207.991 41.736 207.473 41.9493 207.068 42.376C206.673 42.8027 206.433 43.432 206.348 44.264H210.908C210.908 43.4533 210.705 42.8293 210.3 42.392C209.895 41.9547 209.335 41.736 208.62 41.736ZM219.467 42.2C219.158 42.0507 218.87 41.944 218.603 41.88C218.336 41.8053 218.038 41.768 217.707 41.768C217.334 41.768 216.982 41.8373 216.651 41.976C216.331 42.1147 216.054 42.3173 215.819 42.584C215.584 42.84 215.398 43.1547 215.259 43.528C215.131 43.9013 215.067 44.328 215.067 44.808C215.067 45.2453 215.126 45.6507 215.243 46.024C215.371 46.3973 215.547 46.728 215.771 47.016C215.995 47.2933 216.262 47.512 216.571 47.672C216.88 47.832 217.227 47.912 217.611 47.912C218.016 47.912 218.363 47.8693 218.651 47.784C218.939 47.6987 219.248 47.5653 219.579 47.384L220.027 48.6C219.686 48.7813 219.312 48.9253 218.907 49.032C218.502 49.1387 218.038 49.192 217.515 49.192C216.918 49.192 216.379 49.0853 215.899 48.872C215.419 48.6587 215.008 48.36 214.667 47.976C214.326 47.592 214.059 47.1333 213.867 46.6C213.686 46.0667 213.595 45.48 213.595 44.84C213.595 44.2427 213.686 43.6827 213.867 43.16C214.059 42.6267 214.331 42.1627 214.683 41.768C215.035 41.3733 215.456 41.064 215.947 40.84C216.448 40.6053 217.008 40.488 217.627 40.488C218.107 40.488 218.523 40.5307 218.875 40.616C219.227 40.7013 219.568 40.824 219.899 40.984L219.467 42.2ZM222.358 38.36H223.462V40.984H225.766V42.232H223.462V46.248C223.462 46.5573 223.494 46.8187 223.558 47.032C223.633 47.2453 223.729 47.416 223.846 47.544C223.963 47.672 224.102 47.768 224.262 47.832C224.433 47.8853 224.609 47.912 224.79 47.912C225.057 47.912 225.307 47.8693 225.542 47.784C225.777 47.6987 226.001 47.5973 226.214 47.48L226.614 48.632C226.401 48.76 226.113 48.8827 225.75 49C225.387 49.128 225.009 49.192 224.614 49.192C223.814 49.192 223.179 48.9307 222.71 48.408C222.251 47.8853 222.022 47.128 222.022 46.136V42.232H220.582V40.984H222.054L222.358 38.36ZM234.25 42.072C234.549 41.624 234.922 41.2507 235.37 40.952C235.829 40.6427 236.357 40.488 236.954 40.488C237.615 40.488 238.154 40.648 238.57 40.968C238.986 41.2773 239.285 41.704 239.466 42.248C239.797 41.7573 240.186 41.3413 240.634 41C241.093 40.6587 241.658 40.488 242.33 40.488C242.778 40.488 243.167 40.5627 243.498 40.712C243.839 40.8613 244.122 41.0747 244.346 41.352C244.57 41.6187 244.735 41.944 244.842 42.328C244.959 42.7013 245.018 43.1173 245.018 43.576V49H243.578V43.688C243.578 43.112 243.445 42.648 243.178 42.296C242.911 41.9333 242.543 41.752 242.074 41.752C241.829 41.752 241.594 41.8 241.37 41.896C241.146 41.992 240.933 42.1253 240.73 42.296C240.527 42.456 240.335 42.648 240.154 42.872C239.973 43.0853 239.807 43.3093 239.658 43.544V49H238.218V43.688C238.218 43.112 238.085 42.648 237.818 42.296C237.551 41.9333 237.183 41.752 236.714 41.752C236.479 41.752 236.25 41.8 236.026 41.896C235.802 41.9813 235.583 42.104 235.37 42.264C235.167 42.424 234.975 42.6107 234.794 42.824C234.613 43.0373 234.447 43.2613 234.298 43.496V49H232.858V40.68H234.25V42.072ZM253.675 44.84C253.675 44.424 253.605 44.0293 253.467 43.656C253.339 43.2827 253.152 42.9573 252.907 42.68C252.672 42.4027 252.389 42.184 252.059 42.024C251.739 41.8533 251.387 41.768 251.003 41.768C250.16 41.768 249.504 42.0453 249.035 42.6C248.565 43.1547 248.331 43.8907 248.331 44.808C248.331 45.224 248.395 45.624 248.523 46.008C248.661 46.3813 248.848 46.712 249.083 47C249.328 47.2773 249.611 47.5013 249.931 47.672C250.261 47.832 250.619 47.912 251.003 47.912C251.419 47.912 251.792 47.8373 252.123 47.688C252.453 47.5387 252.731 47.3307 252.955 47.064C253.189 46.7867 253.365 46.4613 253.483 46.088C253.611 45.7147 253.675 45.2987 253.675 44.84ZM246.859 44.84C246.859 44.168 246.965 43.5653 247.179 43.032C247.392 42.488 247.68 42.0293 248.043 41.656C248.416 41.2827 248.853 40.9947 249.355 40.792C249.867 40.5893 250.416 40.488 251.003 40.488C251.579 40.488 252.117 40.5893 252.619 40.792C253.131 40.9947 253.573 41.2827 253.947 41.656C254.32 42.0293 254.613 42.4827 254.827 43.016C255.04 43.5493 255.147 44.1467 255.147 44.808C255.147 45.4693 255.04 46.072 254.827 46.616C254.624 47.1493 254.336 47.608 253.963 47.992C253.589 48.376 253.147 48.6747 252.635 48.888C252.133 49.0907 251.589 49.192 251.003 49.192C250.405 49.192 249.851 49.0853 249.339 48.872C248.837 48.6587 248.4 48.36 248.027 47.976C247.664 47.592 247.376 47.1333 247.163 46.6C246.96 46.0667 246.859 45.48 246.859 44.84ZM261.573 42.072C261.371 41.9867 261.131 41.944 260.853 41.944C260.555 41.944 260.261 42.008 259.973 42.136C259.696 42.264 259.445 42.456 259.221 42.712C259.008 42.968 258.832 43.2987 258.693 43.704C258.565 44.0987 258.501 44.568 258.501 45.112V49H257.061V40.68H258.453V42.488C258.549 42.232 258.677 41.9813 258.837 41.736C258.997 41.4907 259.184 41.2773 259.397 41.096C259.621 40.9147 259.877 40.7707 260.165 40.664C260.453 40.5467 260.773 40.488 261.125 40.488C261.285 40.488 261.44 40.4987 261.589 40.52C261.749 40.5307 261.888 40.552 262.005 40.584L261.573 42.072ZM263.88 45.432C263.976 46.2107 264.248 46.8187 264.696 47.256C265.144 47.6933 265.736 47.912 266.472 47.912C266.952 47.912 267.384 47.864 267.768 47.768C268.152 47.6613 268.52 47.528 268.872 47.368L269.208 48.6C268.824 48.7813 268.392 48.9253 267.912 49.032C267.432 49.1387 266.893 49.192 266.296 49.192C265.698 49.192 265.16 49.096 264.68 48.904C264.2 48.7013 263.789 48.4187 263.448 48.056C263.117 47.6827 262.861 47.2293 262.68 46.696C262.498 46.152 262.408 45.5333 262.408 44.84C262.408 44.2213 262.498 43.6453 262.68 43.112C262.861 42.5787 263.117 42.12 263.448 41.736C263.778 41.3413 264.173 41.0373 264.632 40.824C265.09 40.6 265.602 40.488 266.168 40.488C266.765 40.488 267.288 40.5893 267.736 40.792C268.184 40.9947 268.557 41.272 268.856 41.624C269.154 41.976 269.378 42.3867 269.528 42.856C269.677 43.3253 269.752 43.8213 269.752 44.344C269.752 44.7173 269.736 45.08 269.704 45.432H263.88ZM266.136 41.736C265.506 41.736 264.989 41.9493 264.584 42.376C264.189 42.8027 263.949 43.432 263.864 44.264H268.424C268.424 43.4533 268.221 42.8293 267.816 42.392C267.41 41.9547 266.85 41.736 266.136 41.736ZM276.468 37.16H277.908V41.544C278.014 41.4267 278.148 41.304 278.308 41.176C278.468 41.048 278.644 40.936 278.836 40.84C279.038 40.7333 279.262 40.648 279.508 40.584C279.753 40.52 280.02 40.488 280.308 40.488C280.788 40.488 281.246 40.584 281.684 40.776C282.132 40.968 282.521 41.2453 282.852 41.608C283.193 41.9707 283.465 42.4187 283.668 42.952C283.87 43.4853 283.972 44.088 283.972 44.76C283.972 45.4213 283.865 46.024 283.652 46.568C283.438 47.112 283.156 47.5813 282.804 47.976C282.452 48.36 282.046 48.6587 281.588 48.872C281.14 49.0853 280.681 49.192 280.212 49.192C279.732 49.192 279.278 49.1067 278.852 48.936C278.436 48.7653 278.089 48.5573 277.812 48.312V49H276.468V37.16ZM282.5 44.808C282.5 44.328 282.43 43.9013 282.292 43.528C282.164 43.144 281.982 42.8187 281.748 42.552C281.524 42.2853 281.257 42.0827 280.948 41.944C280.649 41.8053 280.329 41.736 279.988 41.736C279.529 41.736 279.113 41.8533 278.74 42.088C278.377 42.312 278.1 42.5573 277.908 42.824V47.272C278.153 47.464 278.441 47.6187 278.772 47.736C279.102 47.8533 279.454 47.912 279.828 47.912C280.212 47.912 280.569 47.8373 280.9 47.688C281.23 47.5387 281.513 47.3307 281.748 47.064C281.982 46.7867 282.164 46.4613 282.292 46.088C282.43 45.704 282.5 45.2773 282.5 44.808ZM285.408 44.888C285.408 44.2693 285.504 43.6933 285.696 43.16C285.888 42.616 286.154 42.1467 286.496 41.752C286.848 41.3573 287.264 41.048 287.744 40.824C288.234 40.6 288.768 40.488 289.344 40.488C289.824 40.488 290.256 40.5733 290.64 40.744C291.034 40.904 291.376 41.1067 291.664 41.352V40.68H292.976V46.984C292.976 47.3893 293.072 47.656 293.264 47.784C293.466 47.9013 293.685 47.96 293.92 47.96L293.616 49.08C292.592 49.08 291.973 48.664 291.76 47.832C291.632 48.0027 291.482 48.1733 291.312 48.344C291.152 48.504 290.965 48.648 290.752 48.776C290.538 48.904 290.298 49.0053 290.032 49.08C289.765 49.1547 289.472 49.192 289.152 49.192C288.629 49.192 288.138 49.0907 287.68 48.888C287.232 48.6853 286.837 48.3973 286.496 48.024C286.165 47.6507 285.898 47.2027 285.696 46.68C285.504 46.1467 285.408 45.5493 285.408 44.888ZM289.472 47.912C289.877 47.912 290.261 47.816 290.624 47.624C290.986 47.432 291.29 47.1813 291.536 46.872V42.408C291.248 42.2053 290.928 42.0453 290.576 41.928C290.234 41.8 289.872 41.736 289.488 41.736C289.104 41.736 288.752 41.8107 288.432 41.96C288.112 42.1093 287.834 42.3227 287.6 42.6C287.376 42.8667 287.2 43.192 287.072 43.576C286.944 43.96 286.88 44.3813 286.88 44.84C286.88 45.288 286.944 45.704 287.072 46.088C287.2 46.4613 287.381 46.7867 287.616 47.064C287.85 47.3307 288.122 47.5387 288.432 47.688C288.752 47.8373 289.098 47.912 289.472 47.912ZM298.838 49.192C298.326 49.192 297.841 49.0907 297.382 48.888C296.934 48.6853 296.54 48.3973 296.198 48.024C295.868 47.6507 295.606 47.2027 295.414 46.68C295.222 46.1467 295.126 45.5493 295.126 44.888C295.126 44.2587 295.222 43.6773 295.414 43.144C295.617 42.6 295.884 42.136 296.214 41.752C296.556 41.3573 296.95 41.048 297.398 40.824C297.846 40.6 298.321 40.488 298.822 40.488C299.377 40.488 299.852 40.6 300.246 40.824C300.652 41.048 300.966 41.2773 301.19 41.512V37.16H302.63V46.984C302.63 47.3893 302.726 47.656 302.918 47.784C303.121 47.9013 303.34 47.96 303.574 47.96L303.27 49.08C302.257 49.08 301.638 48.6747 301.414 47.864C301.169 48.2053 300.838 48.5147 300.422 48.792C300.006 49.0587 299.478 49.192 298.838 49.192ZM299.158 47.912C299.553 47.912 299.926 47.8213 300.278 47.64C300.641 47.448 300.945 47.2027 301.19 46.904V42.776C300.988 42.52 300.705 42.2853 300.342 42.072C299.99 41.848 299.59 41.736 299.142 41.736C298.758 41.736 298.406 41.816 298.086 41.976C297.777 42.136 297.51 42.3547 297.286 42.632C297.062 42.9093 296.892 43.24 296.774 43.624C296.657 43.9973 296.598 44.4027 296.598 44.84C296.598 45.288 296.662 45.6987 296.79 46.072C296.918 46.4453 297.094 46.7707 297.318 47.048C297.553 47.3147 297.825 47.528 298.134 47.688C298.454 47.8373 298.796 47.912 299.158 47.912ZM308.639 40.488C309.119 40.488 309.545 40.568 309.919 40.728C310.303 40.888 310.633 41.0853 310.911 41.32V40.68H312.223V48.808C312.223 49.5013 312.132 50.0933 311.951 50.584C311.769 51.0747 311.508 51.4747 311.167 51.784C310.836 52.104 310.436 52.3387 309.967 52.488C309.497 52.6373 308.975 52.712 308.399 52.712C307.897 52.712 307.417 52.6533 306.959 52.536C306.5 52.4187 306.089 52.2427 305.727 52.008L306.255 50.76C306.511 50.9627 306.809 51.128 307.151 51.256C307.492 51.3947 307.908 51.464 308.399 51.464C309.156 51.464 309.748 51.2667 310.175 50.872C310.612 50.4773 310.831 49.8373 310.831 48.952V47.928C310.617 48.184 310.308 48.4293 309.903 48.664C309.508 48.888 309.033 49 308.479 49C308.009 49 307.551 48.9093 307.103 48.728C306.655 48.536 306.26 48.264 305.919 47.912C305.577 47.5493 305.3 47.112 305.087 46.6C304.884 46.0773 304.783 45.48 304.783 44.808C304.783 44.1893 304.884 43.6187 305.087 43.096C305.289 42.5627 305.561 42.104 305.903 41.72C306.255 41.336 306.665 41.0373 307.135 40.824C307.604 40.6 308.105 40.488 308.639 40.488ZM308.799 47.72C309.225 47.72 309.609 47.624 309.951 47.432C310.292 47.24 310.569 47.016 310.783 46.76V42.408C310.537 42.2373 310.255 42.0827 309.935 41.944C309.615 41.8053 309.231 41.736 308.783 41.736C308.452 41.736 308.132 41.8053 307.823 41.944C307.524 42.072 307.257 42.264 307.023 42.52C306.788 42.776 306.601 43.0907 306.463 43.464C306.324 43.8267 306.255 44.248 306.255 44.728C306.255 45.1867 306.324 45.6027 306.463 45.976C306.601 46.3387 306.788 46.6533 307.023 46.92C307.257 47.176 307.524 47.3733 307.823 47.512C308.132 47.6507 308.457 47.72 308.799 47.72ZM315.614 45.432C315.71 46.2107 315.982 46.8187 316.43 47.256C316.878 47.6933 317.47 47.912 318.206 47.912C318.686 47.912 319.118 47.864 319.502 47.768C319.886 47.6613 320.254 47.528 320.606 47.368L320.942 48.6C320.558 48.7813 320.126 48.9253 319.646 49.032C319.166 49.1387 318.627 49.192 318.03 49.192C317.433 49.192 316.894 49.096 316.414 48.904C315.934 48.7013 315.523 48.4187 315.182 48.056C314.851 47.6827 314.595 47.2293 314.414 46.696C314.233 46.152 314.142 45.5333 314.142 44.84C314.142 44.2213 314.233 43.6453 314.414 43.112C314.595 42.5787 314.851 42.12 315.182 41.736C315.513 41.3413 315.907 41.0373 316.366 40.824C316.825 40.6 317.337 40.488 317.902 40.488C318.499 40.488 319.022 40.5893 319.47 40.792C319.918 40.9947 320.291 41.272 320.59 41.624C320.889 41.976 321.113 42.3867 321.262 42.856C321.411 43.3253 321.486 43.8213 321.486 44.344C321.486 44.7173 321.47 45.08 321.438 45.432H315.614ZM317.87 41.736C317.241 41.736 316.723 41.9493 316.318 42.376C315.923 42.8027 315.683 43.432 315.598 44.264H320.158C320.158 43.4533 319.955 42.8293 319.55 42.392C319.145 41.9547 318.585 41.736 317.87 41.736Z" fill="#828282"/>
</svg>
