<svg width="24" height="25" viewBox="0 0 24 25" fill="none" xmlns="http://www.w3.org/2000/svg">
<path fill-rule="evenodd" clip-rule="evenodd" d="M4.87214 5.1513C5.34912 4.71011 6.06846 4.70714 6.5998 5.08109L7.09817 5.43184C7.58306 5.77309 8.21859 5.78466 8.76064 5.54433C8.878 5.49229 8.99685 5.443 9.1171 5.39653C9.67009 5.18282 10.1112 4.72529 10.2128 4.14121L10.3171 3.54118C10.4284 2.90077 10.9396 2.39422 11.5891 2.36922C11.7254 2.36398 11.8624 2.36133 12 2.36133C12.1376 2.36133 12.2746 2.36398 12.4109 2.36922C13.0604 2.39422 13.5716 2.90077 13.6829 3.54118L13.7872 4.14121C13.8888 4.72529 14.3299 5.18282 14.8829 5.39653C15.0032 5.443 15.122 5.49229 15.2394 5.54433C15.7814 5.78466 16.4169 5.77309 16.9018 5.43184L17.4002 5.08109C17.9315 4.70715 18.6509 4.71011 19.1279 5.1513C19.3294 5.33771 19.5236 5.53194 19.7101 5.73348C20.1512 6.21047 20.1542 6.92981 19.7803 7.46114L19.4295 7.95952C19.0882 8.44441 19.0767 9.07994 19.317 9.62198C19.369 9.73934 19.4183 9.85819 19.4648 9.97844C19.6785 10.5314 20.136 10.9726 20.7201 11.0741L21.3202 11.1784C21.9606 11.2898 22.4671 11.8009 22.4921 12.4504C22.4974 12.5867 22.5 12.7237 22.5 12.8613C22.5 12.9989 22.4974 13.1359 22.4921 13.2723C22.4671 13.9218 21.9606 14.4329 21.3202 14.5443L20.7201 14.6486C20.136 14.7501 19.6785 15.1913 19.4648 15.7442C19.4183 15.8645 19.369 15.9833 19.317 16.1007C19.0767 16.6427 19.0882 17.2783 19.4295 17.7632L19.7802 18.2615C20.1542 18.7929 20.1512 19.5122 19.71 19.9892C19.5236 20.1907 19.3294 20.385 19.1278 20.5714C18.6509 21.0126 17.9315 21.0155 17.4002 20.6416L16.9018 20.2908C16.4169 19.9496 15.7814 19.938 15.2393 20.1783C15.122 20.2304 15.0031 20.2797 14.8829 20.3261C14.3299 20.5398 13.8888 20.9974 13.7872 21.5815L13.6829 22.1815C13.5716 22.8219 13.0604 23.3284 12.4109 23.3534C12.2746 23.3587 12.1376 23.3613 12 23.3613C11.8624 23.3613 11.7254 23.3587 11.5891 23.3534C10.9396 23.3284 10.4284 22.8219 10.3171 22.1815L10.2128 21.5815C10.1112 20.9974 9.67008 20.5398 9.1171 20.3261C8.99685 20.2797 8.87801 20.2304 8.76065 20.1783C8.2186 19.938 7.58308 19.9496 7.09819 20.2908L6.59982 20.6416C6.06848 21.0155 5.34914 21.0126 4.87216 20.5714C4.67061 20.385 4.47638 20.1907 4.28996 19.9892C3.84878 19.5122 3.84581 18.7929 4.21976 18.2615L4.5705 17.7632C4.91176 17.2783 4.92332 16.6427 4.68299 16.1007C4.63096 15.9833 4.58167 15.8645 4.5352 15.7442C4.32149 15.1913 3.86396 14.7501 3.27988 14.6486L2.67985 14.5443C2.03945 14.4329 1.53289 13.9218 1.50789 13.2723C1.50265 13.1359 1.5 12.9989 1.5 12.8613C1.5 12.7237 1.50265 12.5868 1.50789 12.4504C1.53289 11.8009 2.03944 11.2898 2.67985 11.1784L3.27987 11.0741C3.86396 10.9726 4.32148 10.5314 4.53519 9.97844C4.58166 9.85819 4.63096 9.73934 4.68299 9.62198C4.92332 9.07993 4.91175 8.44441 4.5705 7.95952L4.21975 7.46114C3.8458 6.92981 3.84877 6.21046 4.28995 5.73348C4.47637 5.53194 4.67059 5.33771 4.87214 5.1513ZM16 12.8613C16 15.0705 14.2091 16.8613 12 16.8613C9.79086 16.8613 8 15.0705 8 12.8613C8 10.6522 9.79086 8.86133 12 8.86133C14.2091 8.86133 16 10.6522 16 12.8613Z" fill="#E37C00"/>
</svg>
