<svg width="349" height="242" viewBox="0 0 349 242" fill="none" xmlns="http://www.w3.org/2000/svg">
<rect x="9.28125" y="199.764" width="16" height="16" rx="4" fill="#F4F4F6"/>
<path d="M35.373 204.411H37.1777C38.1914 204.411 38.8066 204.985 38.8066 205.928C38.8066 206.895 38.2266 207.452 37.2129 207.452H35.373V204.411ZM35.373 208.512H37.1777L38.9004 211.764H40.4121L38.5195 208.307C39.5508 207.961 40.1602 207.036 40.1602 205.893C40.1602 204.317 39.0762 203.309 37.3359 203.309H34.0605V211.764H35.373V208.512ZM46.7988 210.627H42.7441V208.002H46.582V206.912H42.7441V204.44H46.7988V203.309H41.4316V211.764H46.7988V210.627ZM56.7012 211.764V203.309H55.1777L52.4473 209.983H52.4004L49.6641 203.309H48.1465V211.764H49.3418V205.541H49.3828L51.9375 211.7H52.9102L55.459 205.541H55.5V211.764H56.7012ZM60.3223 209.409C60.4043 210.938 61.6699 211.905 63.5449 211.905C65.5488 211.905 66.8086 210.914 66.8086 209.332C66.8086 208.096 66.0879 207.399 64.3535 206.989L63.4219 206.76C62.332 206.491 61.8867 206.139 61.8867 205.541C61.8867 204.791 62.584 204.276 63.6035 204.276C64.623 204.276 65.3203 204.786 65.3965 205.629H66.6738C66.6328 204.17 65.4082 203.168 63.6211 203.168C61.8164 203.168 60.5449 204.17 60.5449 205.629C60.5449 206.807 61.2656 207.534 62.8184 207.909L63.9141 208.172C65.0098 208.442 65.4727 208.834 65.4727 209.491C65.4727 210.246 64.7051 210.797 63.6387 210.797C62.5254 210.797 61.7109 210.246 61.6172 209.409H60.3223ZM67.8809 211.764H69.1465V203.309H67.8809V211.764ZM73.0254 206.508C73.9102 206.508 74.5078 207.17 74.5371 208.114H71.4551C71.5195 207.182 72.1406 206.508 73.0254 206.508ZM74.5312 209.953C74.3613 210.493 73.8281 210.856 73.1074 210.856C72.0938 210.856 71.4492 210.147 71.4492 209.075V208.998H75.8027V208.565C75.8027 206.696 74.7363 205.489 73.0254 205.489C71.2852 205.489 70.1719 206.778 70.1719 208.711C70.1719 210.657 71.2676 211.881 73.0781 211.881C74.4902 211.881 75.5566 211.078 75.7324 209.953H74.5312ZM79.3652 206.508C80.25 206.508 80.8477 207.17 80.877 208.114H77.7949C77.8594 207.182 78.4805 206.508 79.3652 206.508ZM80.8711 209.953C80.7012 210.493 80.168 210.856 79.4473 210.856C78.4336 210.856 77.7891 210.147 77.7891 209.075V208.998H82.1426V208.565C82.1426 206.696 81.0762 205.489 79.3652 205.489C77.625 205.489 76.5117 206.778 76.5117 208.711C76.5117 210.657 77.6074 211.881 79.418 211.881C80.8301 211.881 81.8965 211.078 82.0723 209.953H80.8711ZM86.3379 205.5C85.4473 205.5 84.7383 205.952 84.375 206.661H84.3516V205.6H83.127V213.803H84.3926V210.75H84.4219C84.7734 211.436 85.4766 211.87 86.3613 211.87C87.9082 211.87 88.9336 210.633 88.9336 208.682C88.9336 206.731 87.9023 205.5 86.3379 205.5ZM86.0039 210.797C85.0312 210.797 84.3867 209.965 84.3867 208.682C84.3867 207.411 85.0371 206.567 86.0039 206.567C87.0059 206.567 87.6328 207.393 87.6328 208.682C87.6328 209.977 87.0059 210.797 86.0039 210.797Z" fill="#6C727F"/>
<path d="M34.2812 227.467H34.6719C34.7188 225.858 35.9766 224.694 37.6641 224.694C39.3359 224.694 40.6172 225.866 40.6172 227.389C40.6172 228.475 40.1328 229.28 38.3359 231.17L34.3203 235.444V235.764H41.5V235.397H34.8984V235.366L38.6172 231.42C40.4688 229.467 41.0078 228.561 41.0078 227.381C41.0078 225.655 39.5625 224.334 37.6719 224.334C35.75 224.334 34.3359 225.639 34.2812 227.467ZM47.9375 235.764H48.3203V232.803H50.1719V232.444H48.3203V224.436L47.7891 224.444C45.6406 227.28 43.8516 229.795 42.0938 232.436V232.803H47.9375V235.764ZM42.5625 232.42C44.1406 230.053 45.9688 227.452 47.9219 224.905H47.9375V232.444H42.5625V232.42ZM54.7812 227.092C54.7812 225.444 54.0625 224.42 52.9141 224.42C51.7578 224.42 51.0469 225.444 51.0469 227.092C51.0469 228.733 51.7578 229.756 52.9141 229.756C54.0625 229.756 54.7812 228.733 54.7812 227.092ZM52.9141 229.428C52 229.428 51.4219 228.53 51.4219 227.092C51.4219 225.647 52 224.748 52.9141 224.748C53.8281 224.748 54.3984 225.647 54.3984 227.092C54.3984 228.53 53.8281 229.428 52.9141 229.428ZM52.0469 235.764L56.1953 230.225L60.4922 224.491H60.0234L55.8906 230.022L51.5859 235.764H52.0469ZM61.0312 233.178C61.0312 231.53 60.3203 230.514 59.1641 230.514C58.0156 230.514 57.2969 231.53 57.2969 233.178C57.2969 234.827 58.0156 235.842 59.1641 235.842C60.3203 235.842 61.0312 234.827 61.0312 233.178ZM59.1641 235.514C58.25 235.514 57.6797 234.616 57.6797 233.178C57.6797 231.741 58.25 230.842 59.1641 230.842C60.0781 230.842 60.6562 231.741 60.6562 233.178C60.6562 234.616 60.0781 235.514 59.1641 235.514Z" fill="#192126"/>
<rect x="111.545" y="199.764" width="16" height="16" rx="4" fill="#D3D5DA"/>
<path d="M136.324 203.309V211.764H139.307C141.826 211.764 143.309 210.193 143.309 207.521C143.309 204.855 141.82 203.309 139.307 203.309H136.324ZM137.637 204.439H139.184C140.971 204.439 141.967 205.541 141.967 207.533C141.967 209.531 140.977 210.627 139.184 210.627H137.637V204.439ZM146.988 206.508C147.873 206.508 148.471 207.17 148.5 208.113H145.418C145.482 207.182 146.103 206.508 146.988 206.508ZM148.494 209.953C148.324 210.492 147.791 210.855 147.07 210.855C146.057 210.855 145.412 210.146 145.412 209.074V208.998H149.766V208.564C149.766 206.695 148.699 205.488 146.988 205.488C145.248 205.488 144.135 206.777 144.135 208.711C144.135 210.656 145.23 211.881 147.041 211.881C148.453 211.881 149.52 211.078 149.695 209.953H148.494ZM153.328 206.508C154.213 206.508 154.811 207.17 154.84 208.113H151.758C151.822 207.182 152.443 206.508 153.328 206.508ZM154.834 209.953C154.664 210.492 154.131 210.855 153.41 210.855C152.396 210.855 151.752 210.146 151.752 209.074V208.998H156.105V208.564C156.105 206.695 155.039 205.488 153.328 205.488C151.588 205.488 150.475 206.777 150.475 208.711C150.475 210.656 151.57 211.881 153.381 211.881C154.793 211.881 155.859 211.078 156.035 209.953H154.834ZM160.301 205.5C159.41 205.5 158.701 205.951 158.338 206.66H158.314V205.6H157.09V213.803H158.355V210.75H158.385C158.736 211.436 159.439 211.869 160.324 211.869C161.871 211.869 162.896 210.633 162.896 208.682C162.896 206.73 161.865 205.5 160.301 205.5ZM159.967 210.797C158.994 210.797 158.35 209.965 158.35 208.682C158.35 207.41 159 206.566 159.967 206.566C160.969 206.566 161.596 207.393 161.596 208.682C161.596 209.977 160.969 210.797 159.967 210.797ZM166.09 209.408C166.172 210.938 167.437 211.904 169.312 211.904C171.316 211.904 172.576 210.914 172.576 209.332C172.576 208.096 171.855 207.398 170.121 206.988L169.189 206.76C168.1 206.49 167.654 206.139 167.654 205.541C167.654 204.791 168.352 204.275 169.371 204.275C170.391 204.275 171.088 204.785 171.164 205.629H172.441C172.4 204.17 171.176 203.168 169.389 203.168C167.584 203.168 166.312 204.17 166.312 205.629C166.312 206.807 167.033 207.533 168.586 207.908L169.682 208.172C170.777 208.441 171.24 208.834 171.24 209.49C171.24 210.246 170.473 210.797 169.406 210.797C168.293 210.797 167.478 210.246 167.385 209.408H166.09ZM173.648 211.764H174.914V203.309H173.648V211.764ZM178.793 206.508C179.678 206.508 180.275 207.17 180.305 208.113H177.223C177.287 207.182 177.908 206.508 178.793 206.508ZM180.299 209.953C180.129 210.492 179.596 210.855 178.875 210.855C177.861 210.855 177.217 210.146 177.217 209.074V208.998H181.57V208.564C181.57 206.695 180.504 205.488 178.793 205.488C177.053 205.488 175.939 206.777 175.939 208.711C175.939 210.656 177.035 211.881 178.846 211.881C180.258 211.881 181.324 211.078 181.5 209.953H180.299ZM185.133 206.508C186.018 206.508 186.615 207.17 186.645 208.113H183.562C183.627 207.182 184.248 206.508 185.133 206.508ZM186.639 209.953C186.469 210.492 185.936 210.855 185.215 210.855C184.201 210.855 183.557 210.146 183.557 209.074V208.998H187.91V208.564C187.91 206.695 186.844 205.488 185.133 205.488C183.393 205.488 182.279 206.777 182.279 208.711C182.279 210.656 183.375 211.881 185.186 211.881C186.598 211.881 187.664 211.078 187.84 209.953H186.639ZM192.105 205.5C191.215 205.5 190.506 205.951 190.143 206.66H190.119V205.6H188.895V213.803H190.16V210.75H190.189C190.541 211.436 191.244 211.869 192.129 211.869C193.676 211.869 194.701 210.633 194.701 208.682C194.701 206.73 193.67 205.5 192.105 205.5ZM191.771 210.797C190.799 210.797 190.154 209.965 190.154 208.682C190.154 207.41 190.805 206.566 191.771 206.566C192.773 206.566 193.4 207.393 193.4 208.682C193.4 209.977 192.773 210.797 191.771 210.797Z" fill="#6C727F"/>
<path d="M141.92 235.764H142.303V232.803H144.154V232.443H142.303V224.436L141.771 224.443C139.623 227.279 137.834 229.795 136.076 232.436V232.803H141.92V235.764ZM136.545 232.42C138.123 230.053 139.951 227.451 141.904 224.904H141.92V232.443H136.545V232.42ZM153.123 232.295C153.123 230.193 151.607 228.725 149.443 228.725C148.467 228.725 147.584 229.021 146.943 229.584L146.857 229.576C147.084 229.162 147.225 228.959 147.592 228.467L150.592 224.49H150.139L147.295 228.232C146.154 229.74 145.639 230.975 145.639 232.217C145.639 234.373 147.209 235.928 149.404 235.928C151.584 235.928 153.123 234.42 153.123 232.295ZM146.021 232.217C146.021 230.365 147.389 229.076 149.357 229.076C151.35 229.076 152.74 230.396 152.74 232.287C152.74 234.186 151.342 235.561 149.42 235.561C147.475 235.561 146.021 234.139 146.021 232.217ZM157.748 227.092C157.748 225.443 157.029 224.42 155.881 224.42C154.725 224.42 154.014 225.443 154.014 227.092C154.014 228.732 154.725 229.756 155.881 229.756C157.029 229.756 157.748 228.732 157.748 227.092ZM155.881 229.428C154.967 229.428 154.389 228.529 154.389 227.092C154.389 225.646 154.967 224.748 155.881 224.748C156.795 224.748 157.365 225.646 157.365 227.092C157.365 228.529 156.795 229.428 155.881 229.428ZM155.014 235.764L159.162 230.225L163.459 224.49H162.99L158.857 230.021L154.553 235.764H155.014ZM163.998 233.178C163.998 231.529 163.287 230.514 162.131 230.514C160.982 230.514 160.264 231.529 160.264 233.178C160.264 234.826 160.982 235.842 162.131 235.842C163.287 235.842 163.998 234.826 163.998 233.178ZM162.131 235.514C161.217 235.514 160.646 234.615 160.646 233.178C160.646 231.74 161.217 230.842 162.131 230.842C163.045 230.842 163.623 231.74 163.623 233.178C163.623 234.615 163.045 235.514 162.131 235.514Z" fill="#192126"/>
<rect x="213.81" y="199.764" width="16" height="16" rx="4" fill="#E5E6EB"/>
<path d="M243.839 210.627H239.901V203.309H238.589V211.764H243.839V210.627ZM244.852 211.764H246.118V205.6H244.852V211.764ZM245.485 204.697C245.895 204.697 246.224 204.375 246.224 203.977C246.224 203.572 245.895 203.25 245.485 203.25C245.081 203.25 244.753 203.572 244.753 203.977C244.753 204.375 245.081 204.697 245.485 204.697ZM250.038 210.738C249.065 210.738 248.433 209.953 248.433 208.664C248.433 207.381 249.065 206.566 250.038 206.566C251.028 206.566 251.679 207.398 251.679 208.664C251.679 209.936 251.028 210.738 250.038 210.738ZM250.05 214.084C251.808 214.084 252.944 213.123 252.944 211.652V205.6H251.714V206.654H251.69C251.315 205.939 250.601 205.5 249.727 205.5C248.145 205.5 247.138 206.719 247.138 208.658C247.138 210.58 248.151 211.787 249.698 211.787C250.577 211.787 251.304 211.348 251.649 210.68H251.673V211.693C251.673 212.537 251.087 213.1 250.097 213.1C249.376 213.1 248.813 212.76 248.632 212.244H247.36C247.518 213.311 248.597 214.084 250.05 214.084ZM254.245 211.764H255.511V208.201C255.511 207.229 256.085 206.584 257.022 206.584C257.913 206.584 258.37 207.129 258.37 208.037V211.764H259.642V207.791C259.642 206.396 258.833 205.494 257.479 205.494C256.542 205.494 255.868 205.91 255.528 206.631H255.499V203.309H254.245V211.764ZM261.235 204.141V205.6H260.339V206.602H261.235V210.141C261.235 211.33 261.722 211.805 262.97 211.805C263.251 211.805 263.532 211.781 263.673 211.746V210.744C263.591 210.762 263.386 210.773 263.257 210.773C262.741 210.773 262.507 210.533 262.507 210V206.602H263.679V205.6H262.507V204.141H261.235ZM266.936 209.408C267.018 210.938 268.284 211.904 270.159 211.904C272.163 211.904 273.423 210.914 273.423 209.332C273.423 208.096 272.702 207.398 270.968 206.988L270.036 206.76C268.946 206.49 268.501 206.139 268.501 205.541C268.501 204.791 269.198 204.275 270.218 204.275C271.237 204.275 271.935 204.785 272.011 205.629H273.288C273.247 204.17 272.022 203.168 270.235 203.168C268.431 203.168 267.159 204.17 267.159 205.629C267.159 206.807 267.88 207.533 269.433 207.908L270.528 208.172C271.624 208.441 272.087 208.834 272.087 209.49C272.087 210.246 271.319 210.797 270.253 210.797C269.14 210.797 268.325 210.246 268.231 209.408H266.936ZM274.495 211.764H275.761V203.309H274.495V211.764ZM279.64 206.508C280.524 206.508 281.122 207.17 281.151 208.113H278.069C278.134 207.182 278.755 206.508 279.64 206.508ZM281.145 209.953C280.976 210.492 280.442 210.855 279.722 210.855C278.708 210.855 278.063 210.146 278.063 209.074V208.998H282.417V208.564C282.417 206.695 281.351 205.488 279.64 205.488C277.899 205.488 276.786 206.777 276.786 208.711C276.786 210.656 277.882 211.881 279.692 211.881C281.104 211.881 282.171 211.078 282.347 209.953H281.145ZM285.979 206.508C286.864 206.508 287.462 207.17 287.491 208.113H284.409C284.474 207.182 285.095 206.508 285.979 206.508ZM287.485 209.953C287.315 210.492 286.782 210.855 286.061 210.855C285.048 210.855 284.403 210.146 284.403 209.074V208.998H288.757V208.564C288.757 206.695 287.69 205.488 285.979 205.488C284.239 205.488 283.126 206.777 283.126 208.711C283.126 210.656 284.222 211.881 286.032 211.881C287.444 211.881 288.511 211.078 288.686 209.953H287.485ZM292.952 205.5C292.061 205.5 291.352 205.951 290.989 206.66H290.966V205.6H289.741V213.803H291.007V210.75H291.036C291.388 211.436 292.091 211.869 292.976 211.869C294.522 211.869 295.548 210.633 295.548 208.682C295.548 206.73 294.517 205.5 292.952 205.5ZM292.618 210.797C291.645 210.797 291.001 209.965 291.001 208.682C291.001 207.41 291.651 206.566 292.618 206.566C293.62 206.566 294.247 207.393 294.247 208.682C294.247 209.977 293.62 210.797 292.618 210.797Z" fill="#6C727F"/>
<path d="M240.747 230.076H241.981C244.208 230.076 245.544 231.061 245.544 232.709C245.544 234.357 244.114 235.561 242.2 235.561C240.349 235.561 238.888 234.428 238.864 232.975H238.474C238.497 234.639 240.099 235.92 242.192 235.92C244.349 235.92 245.935 234.561 245.935 232.709C245.935 231.107 244.794 230.006 243.028 229.896V229.865C244.528 229.584 245.442 228.568 245.442 227.17C245.442 225.545 244.013 224.334 242.091 224.334C240.247 224.334 238.825 225.529 238.739 227.146H239.122C239.216 225.748 240.489 224.693 242.091 224.693C243.786 224.693 245.052 225.764 245.052 227.186C245.052 228.678 243.802 229.717 241.981 229.717H240.747V230.076ZM251.216 235.92C253.645 235.92 255.161 233.686 255.161 230.123C255.161 226.568 253.645 224.334 251.216 224.334C248.794 224.334 247.27 226.568 247.27 230.123C247.27 233.686 248.786 235.92 251.216 235.92ZM251.216 235.561C249.028 235.561 247.661 233.459 247.661 230.123C247.661 226.795 249.036 224.693 251.216 224.693C253.403 224.693 254.77 226.795 254.77 230.123C254.77 233.459 253.403 235.561 251.216 235.561ZM259.966 227.092C259.966 225.443 259.247 224.42 258.099 224.42C256.942 224.42 256.231 225.443 256.231 227.092C256.231 228.732 256.942 229.756 258.099 229.756C259.247 229.756 259.966 228.732 259.966 227.092ZM258.099 229.428C257.185 229.428 256.606 228.529 256.606 227.092C256.606 225.646 257.185 224.748 258.099 224.748C259.013 224.748 259.583 225.646 259.583 227.092C259.583 228.529 259.013 229.428 258.099 229.428ZM257.231 235.764L261.38 230.225L265.677 224.49H265.208L261.075 230.021L256.77 235.764H257.231ZM266.216 233.178C266.216 231.529 265.505 230.514 264.349 230.514C263.2 230.514 262.481 231.529 262.481 233.178C262.481 234.826 263.2 235.842 264.349 235.842C265.505 235.842 266.216 234.826 266.216 233.178ZM264.349 235.514C263.435 235.514 262.864 234.615 262.864 233.178C262.864 231.74 263.435 230.842 264.349 230.842C265.263 230.842 265.841 231.74 265.841 233.178C265.841 234.615 265.263 235.514 264.349 235.514Z" fill="#192126"/>
<path d="M5.34311 175.525H6.36264V167.07H5.33139L3.08139 168.687V169.8L5.31967 168.189H5.34311V175.525ZM11.4662 175.666C13.4349 175.666 14.5716 173.961 14.5716 171.289C14.5716 168.634 13.429 166.929 11.4662 166.929C9.50326 166.929 8.34896 168.646 8.34896 171.295C8.34896 173.966 9.49154 175.666 11.4662 175.666ZM11.4662 174.746C10.1419 174.746 9.40951 173.398 9.40951 171.289C9.40951 169.226 10.1595 167.855 11.4662 167.855C12.7728 167.855 13.5111 169.214 13.5111 171.295C13.5111 173.404 12.7845 174.746 11.4662 174.746ZM18.3802 167.07V175.525H19.4349V172.507H21.3861C22.974 172.507 24.1048 171.388 24.1048 169.783C24.1048 168.183 22.9857 167.07 21.3978 167.07H18.3802ZM19.4349 168.007H21.1224C22.3353 168.007 23.0208 168.664 23.0208 169.783C23.0208 170.908 22.3294 171.57 21.1224 171.57H19.4349V168.007ZM33.6497 175.525V167.07H32.4251L29.5072 174.125H29.4603L26.5423 167.07H25.3177V175.525H26.3021V169.009H26.3431L29.0384 175.466H29.929L32.6244 169.009H32.6654V175.525H33.6497Z" fill="#9EA3AE"/>
<path d="M55.2942 175.524H56.3137V167.069H55.2825L53.0325 168.686V169.799L55.2707 168.188H55.2942V175.524ZM60.6145 175.524H61.634V167.069H60.6028L58.3528 168.686V169.799L60.5911 168.188H60.6145V175.524ZM66.3743 167.069V175.524H67.429V172.506H69.3801C70.968 172.506 72.0989 171.387 72.0989 169.782C72.0989 168.182 70.9797 167.069 69.3918 167.069H66.3743ZM67.429 168.006H69.1165C70.3293 168.006 71.0149 168.663 71.0149 169.782C71.0149 170.907 70.3235 171.569 69.1165 171.569H67.429V168.006ZM81.6438 175.524V167.069H80.4192L77.5012 174.124H77.4543L74.5364 167.069H73.3118V175.524H74.2961V169.008H74.3372L77.0325 175.465H77.9231L80.6184 169.008H80.6594V175.524H81.6438Z" fill="#9EA3AE"/>
<path d="M103.042 175.524H104.062V167.069H103.03L100.78 168.686V169.799L103.019 168.188H103.042V175.524ZM106.153 169.506V169.512H107.173V169.506C107.173 168.563 107.923 167.848 108.913 167.848C109.845 167.848 110.589 168.499 110.589 169.313C110.589 170.016 110.319 170.467 109.183 171.663L106.206 174.797V175.524H111.784V174.586H107.665V174.563L109.804 172.354C111.216 170.895 111.644 170.192 111.644 169.249C111.644 167.954 110.454 166.928 108.942 166.928C107.349 166.928 106.153 168.03 106.153 169.506ZM115.599 167.069V175.524H116.653V172.506H118.605C120.192 172.506 121.323 171.387 121.323 169.782C121.323 168.182 120.204 167.069 118.616 167.069H115.599ZM116.653 168.006H118.341C119.554 168.006 120.239 168.663 120.239 169.782C120.239 170.907 119.548 171.569 118.341 171.569H116.653V168.006ZM130.868 175.524V167.069H129.644L126.726 174.124H126.679L123.761 167.069H122.536V175.524H123.521V169.008H123.562L126.257 175.465H127.147L129.843 169.008H129.884V175.524H130.868Z" fill="#9EA3AE"/>
<path d="M152.671 175.524H153.691V167.069H152.659L150.409 168.686V169.799L152.648 168.188H152.671V175.524ZM163.927 175.524H165.034L161.917 167.069H160.874L157.757 175.524H158.864L159.714 173.104H163.077L163.927 175.524ZM161.378 168.352H161.413L162.767 172.208H160.025L161.378 168.352ZM174.333 175.524V167.069H173.109L170.191 174.124H170.144L167.226 167.069H166.001V175.524H166.986V169.008H167.027L169.722 175.465H170.612L173.308 169.008H173.349V175.524H174.333Z" fill="#9EA3AE"/>
<path d="M194.334 169.506V169.512H195.354V169.506C195.354 168.563 196.104 167.848 197.094 167.848C198.026 167.848 198.77 168.499 198.77 169.313C198.77 170.016 198.5 170.467 197.363 171.663L194.387 174.797V175.524H199.965V174.586H195.846V174.563L197.985 172.354C199.397 170.895 199.824 170.192 199.824 169.249C199.824 167.954 198.635 166.928 197.123 166.928C195.529 166.928 194.334 168.03 194.334 169.506ZM209.276 175.524H210.383L207.266 167.069H206.223L203.106 175.524H204.213L205.063 173.104H208.426L209.276 175.524ZM206.727 168.352H206.762L208.115 172.208H205.373L206.727 168.352ZM219.682 175.524V167.069H218.457L215.539 174.124H215.492L212.574 167.069H211.35V175.524H212.334V169.008H212.375L215.07 175.465H215.961L218.656 169.008H218.697V175.524H219.682Z" fill="#9EA3AE"/>
<path d="M242.02 171.622H243.08C244.287 171.622 245.037 172.237 245.037 173.233C245.037 174.118 244.234 174.75 243.115 174.75C241.979 174.75 241.258 174.153 241.164 173.286H240.15C240.227 174.686 241.357 175.665 243.127 175.665C244.785 175.665 246.109 174.651 246.109 173.198C246.109 172.008 245.289 171.217 244.012 171.141V171.118C245.066 170.93 245.746 170.168 245.746 169.108C245.746 167.836 244.604 166.928 243.092 166.928C241.504 166.928 240.437 167.848 240.32 169.284H241.334C241.428 168.399 242.072 167.842 243.045 167.842C244.117 167.842 244.686 168.411 244.686 169.249C244.686 170.104 244.006 170.731 243.033 170.731H242.02V171.622ZM255.49 175.524H256.598L253.48 167.069H252.437L249.32 175.524H250.428L251.277 173.104H254.641L255.49 175.524ZM252.941 168.352H252.977L254.33 172.208H251.588L252.941 168.352ZM265.896 175.524V167.069H264.672L261.754 174.124H261.707L258.789 167.069H257.564V175.524H258.549V169.008H258.59L261.285 175.465H262.176L264.871 169.008H264.912V175.524H265.896Z" fill="#9EA3AE"/>
<path d="M290.782 175.524H291.801V173.766H292.997V172.84H291.801V167.069H290.243C288.245 169.934 287.254 171.475 286.534 172.811V173.766H290.782V175.524ZM287.577 172.817C288.245 171.645 289.165 170.233 290.764 167.948H290.782V172.84H287.577V172.817ZM302.12 175.524H303.227L300.11 167.069H299.067L295.95 175.524H297.057L297.907 173.104H301.27L302.12 175.524ZM299.571 168.352H299.606L300.959 172.208H298.217L299.571 168.352ZM312.526 175.524V167.069H311.301L308.383 174.124H308.336L305.418 167.069H304.194V175.524H305.178V169.008H305.219L307.915 175.465H308.805L311.501 169.008H311.542V175.524H312.526Z" fill="#9EA3AE"/>
<line x1="2" y1="37.201" x2="316" y2="37.201" stroke="#F9FAFB"/>
<line x1="2" y1="77.201" x2="316" y2="77.201" stroke="#F9FAFB"/>
<line x1="2" y1="117.201" x2="316" y2="117.201" stroke="#F9FAFB"/>
<line x1="2" y1="157.201" x2="316" y2="157.201" stroke="#F9FAFB"/>
<rect x="2" y="37.701" width="19.3949" height="114.386" rx="6" fill="#F4F4F6"/>
<rect x="56.306" y="37.701" width="58.1848" height="114.386" rx="6" fill="#E5E6EB"/>
<rect x="33.0303" y="37.701" width="3.87898" height="114.386" rx="1.93949" fill="#D3D5DA"/>
<rect x="126.127" y="37.701" width="34.9109" height="114.386" rx="6" fill="#D3D5DA"/>
<rect x="188.191" y="37.701" width="11.637" height="114.386" rx="4" fill="#E5E6EB"/>
<rect x="222.134" y="37.701" width="5.81848" height="114.386" rx="2.90924" fill="#F4F4F6"/>
<rect x="235.71" y="37.701" width="21.3344" height="114.386" rx="6" fill="#D3D5DA"/>
<rect x="264.8" y="37.701" width="54.3058" height="114.386" rx="6" fill="#F4F4F6"/>
<path d="M2 108.862L9.87929 115.152C10.1313 115.353 10.4649 115.421 10.7752 115.333L33.146 109.008C33.4683 108.917 33.8148 108.993 34.069 109.211L57.905 129.649C58.2565 129.95 58.7688 129.971 59.1435 129.699L97.5652 101.804C97.8145 101.623 98.1223 101.563 98.4183 101.649C123.246 108.782 172.001 122.065 172.001 119.145C172.001 116.268 181.963 89.2143 187.256 75.2162C187.444 74.7195 187.984 74.4655 188.49 74.6262L215.028 83.0508C215.239 83.1177 215.466 83.1129 215.673 83.0372L319.107 45.3264" stroke="#D3D5DA" stroke-width="2"/>
<path d="M2 108.863L9.87929 115.153C10.1313 115.354 10.4649 115.421 10.7752 115.334L33.146 109.009C33.4683 108.918 33.8148 108.994 34.069 109.212L57.905 129.65C58.2565 129.951 58.7688 129.972 59.1435 129.7L97.5652 101.804C97.8145 101.624 98.1226 101.565 98.4188 101.649C121.325 108.198 164.599 117.557 171.159 118.966C171.656 119.073 172.12 118.789 172.282 118.307C173.936 113.372 182.492 87.9252 187.258 75.2159C187.444 74.7188 187.984 74.4665 188.49 74.6271L215.353 83.1549" stroke="#192126" stroke-width="4"/>
<ellipse cx="215.345" cy="83.4538" rx="7.75797" ry="7.62575" fill="#BBF246"/>
<path d="M215.345 95.0795C221.774 95.0795 227.103 89.939 227.103 83.4538C227.103 76.9685 221.774 71.828 215.345 71.828C208.916 71.828 203.587 76.9685 203.587 83.4538C203.587 89.939 208.916 95.0795 215.345 95.0795Z" stroke="#BBF246" stroke-opacity="0.4" stroke-width="8"/>
<path d="M215.347 87.8159C217.758 87.8159 219.756 85.8882 219.756 83.4562C219.756 81.0242 217.758 79.0966 215.347 79.0966C212.936 79.0966 210.938 81.0242 210.938 83.4562C210.938 85.8882 212.936 87.8159 215.347 87.8159Z" fill="white" stroke="#192126" stroke-width="3"/>
<rect x="184.314" y="36.7471" width="63.0335" height="26.6901" rx="6" fill="#BBF246"/>
<path d="M201.087 52.0225C201.087 50.4639 199.974 49.3096 198.462 49.3096C197.9 49.3096 197.296 49.5381 197.009 49.8721L196.921 49.8369C196.986 49.7139 197.103 49.5439 197.191 49.4209C197.302 49.2627 199.47 46.3975 199.57 46.292H198.023C197.935 46.3975 196.224 48.7764 196.16 48.8643C195.322 50.042 194.964 50.9854 194.964 51.9814C194.964 53.7217 196.224 54.9404 198.035 54.9404C199.828 54.9404 201.087 53.7393 201.087 52.0225ZM196.253 52.0635C196.253 51.0615 197.021 50.2939 198.029 50.2939C199.037 50.2939 199.81 51.0615 199.81 52.0635C199.81 53.0713 199.037 53.8389 198.029 53.8389C197.021 53.8389 196.253 53.0713 196.253 52.0635ZM206.384 54.7471H207.644V53.0771H208.804V51.9756H207.644V46.292H205.746C203.841 49.0459 202.88 50.5635 202.154 51.9287V53.0771H206.384V54.7471ZM203.378 51.9639C204.052 50.7393 204.908 49.4209 206.372 47.3057H206.396V51.9932H203.378V51.9639ZM215.507 54.8525C217.072 54.8525 218.079 53.6221 218.079 51.665C218.079 49.7139 217.066 48.4834 215.513 48.4834C214.64 48.4834 213.937 48.917 213.568 49.6318H213.538V46.292H212.273V54.7471H213.503V53.6982H213.527C213.908 54.4131 214.605 54.8525 215.507 54.8525ZM215.167 49.5498C216.163 49.5498 216.779 50.3701 216.779 51.665C216.779 52.9717 216.163 53.7803 215.167 53.7803C214.206 53.7803 213.533 52.9482 213.533 51.665C213.533 50.3936 214.206 49.5498 215.167 49.5498ZM222.281 48.4834C221.39 48.4834 220.681 48.9346 220.318 49.6436H220.294V48.583H219.07V56.7861H220.335V53.7334H220.365C220.716 54.4189 221.419 54.8525 222.304 54.8525C223.851 54.8525 224.876 53.6162 224.876 51.665C224.876 49.7139 223.845 48.4834 222.281 48.4834ZM221.947 53.7803C220.974 53.7803 220.329 52.9482 220.329 51.665C220.329 50.3936 220.98 49.5498 221.947 49.5498C222.949 49.5498 223.576 50.376 223.576 51.665C223.576 52.96 222.949 53.7803 221.947 53.7803ZM225.855 54.7471H227.121V50.9385C227.121 50.1475 227.654 49.5615 228.404 49.5615C229.119 49.5615 229.57 50.0127 229.57 50.7217V54.7471H230.812V50.8975C230.812 50.1182 231.333 49.5615 232.083 49.5615C232.833 49.5615 233.261 50.0186 233.261 50.8154V54.7471H234.533V50.5107C234.533 49.2861 233.736 48.4775 232.517 48.4775C231.638 48.4775 230.912 48.9346 230.595 49.6846H230.566C230.32 48.917 229.699 48.4775 228.843 48.4775C228.011 48.4775 227.367 48.9346 227.091 49.6201H227.062V48.583H225.855V54.7471Z" fill="#192126"/>
<path d="M217.416 68.5543C216.822 69.1972 215.806 69.1972 215.212 68.5543L211.712 64.7649C210.824 63.8042 211.505 62.2471 212.813 62.2471L219.814 62.2471C221.122 62.2471 221.804 63.8042 220.916 64.7649L217.416 68.5543Z" fill="#BBF246"/>
<path d="M316.197 48.6839C318.072 48.6839 319.606 47.1878 319.606 45.3243C319.606 43.4607 318.072 41.9646 316.197 41.9646C314.322 41.9646 312.788 43.4607 312.788 45.3243C312.788 47.1878 314.322 48.6839 316.197 48.6839Z" fill="white" stroke="#6C727F"/>
<path d="M9.64453 15.7656C9.73242 18.4121 11.8906 20.0234 15.2793 20.0234C18.7754 20.0234 20.9922 18.2949 20.9922 15.5605C20.9922 13.4121 19.7617 12.2012 16.9395 11.5957L15.2305 11.2344C13.6094 10.8633 12.9258 10.375 12.9258 9.50586C12.9258 8.46094 13.9023 7.76758 15.3574 7.76758C16.832 7.76758 17.877 8.49023 17.9746 9.68164H20.7383C20.6895 7.13281 18.6289 5.44336 15.3477 5.44336C12.2031 5.44336 9.95703 7.16211 9.95703 9.75977C9.95703 11.8203 11.2363 13.1387 13.834 13.6953L15.6699 14.0957C17.3691 14.4766 18.043 14.9844 18.043 15.9023C18.043 16.9375 16.9688 17.6895 15.3965 17.6895C13.834 17.6895 12.623 16.9277 12.4863 15.7656H9.64453ZM22.6328 19.7793H25.4844V5.6875H22.6328V19.7793ZM32.1055 11.1953C33.375 11.1953 34.2441 12.1133 34.3027 13.4512H29.8594C29.957 12.1426 30.8555 11.1953 32.1055 11.1953ZM34.3418 16.5762C34.0781 17.377 33.2773 17.8945 32.2324 17.8945C30.7773 17.8945 29.8301 16.8691 29.8301 15.375V15.1992H37.0469V14.3301C37.0469 11.1465 35.123 9.08594 32.0762 9.08594C28.9805 9.08594 27.0273 11.2539 27.0273 14.5938C27.0273 17.9434 28.9609 20.0039 32.1836 20.0039C34.7715 20.0039 36.6465 18.627 36.959 16.5762H34.3418ZM43.2188 11.1953C44.4883 11.1953 45.3574 12.1133 45.416 13.4512H40.9727C41.0703 12.1426 41.9688 11.1953 43.2188 11.1953ZM45.4551 16.5762C45.1914 17.377 44.3906 17.8945 43.3457 17.8945C41.8906 17.8945 40.9434 16.8691 40.9434 15.375V15.1992H48.1602V14.3301C48.1602 11.1465 46.2363 9.08594 43.1895 9.08594C40.0938 9.08594 38.1406 11.2539 38.1406 14.5938C38.1406 17.9434 40.0742 20.0039 43.2969 20.0039C45.8848 20.0039 47.7598 18.627 48.0723 16.5762H45.4551ZM55.748 9.14453C54.2344 9.14453 53.0723 9.90625 52.5059 11.1367H52.4473V9.31055H49.6348V23.1973H52.4863V18.0215H52.5449C53.1016 19.2031 54.2734 19.9453 55.7969 19.9453C58.4141 19.9453 60.0352 17.9141 60.0352 14.5449C60.0352 11.166 58.4043 9.14453 55.748 9.14453ZM54.791 17.6504C53.3945 17.6504 52.4766 16.4395 52.4766 14.5449C52.4766 12.6699 53.3945 11.4297 54.791 11.4297C56.2168 11.4297 57.1152 12.6504 57.1152 14.5449C57.1152 16.4492 56.2168 17.6504 54.791 17.6504ZM74.9473 19.7793H78.082L73.1797 5.6875H69.7129L64.8203 19.7793H67.8477L68.9219 16.3613H73.873L74.9473 19.7793ZM71.3633 8.38281H71.4316L73.2383 14.1543H69.5566L71.3633 8.38281ZM79.2832 19.7793H82.1348V13.7734C82.1348 12.416 82.9453 11.4785 84.2246 11.4785C85.5039 11.4785 86.1484 12.2598 86.1484 13.627V19.7793H89V13.0312C89 10.5801 87.6914 9.11523 85.3672 9.11523C83.7559 9.11523 82.6523 9.87695 82.0957 11.1758H82.0371V9.31055H79.2832V19.7793ZM94.8496 17.8848C93.8828 17.8848 93.2383 17.3965 93.2383 16.6152C93.2383 15.873 93.8438 15.3945 94.9082 15.3164L97.1152 15.1797V15.9414C97.1152 17.0742 96.0898 17.8848 94.8496 17.8848ZM93.9121 19.9453C95.2207 19.9453 96.5195 19.291 97.1055 18.1777H97.1641V19.7793H99.918V12.582C99.918 10.4727 98.1699 9.08594 95.4844 9.08594C92.7109 9.08594 90.9824 10.4824 90.875 12.5137H93.4824C93.6191 11.7422 94.293 11.2148 95.3574 11.2148C96.4316 11.2148 97.1152 11.7812 97.1152 12.7578V13.4512L94.4785 13.6074C91.8711 13.7637 90.4062 14.8672 90.4062 16.7715C90.4062 18.6562 91.9199 19.9453 93.9121 19.9453ZM101.832 19.7793H104.684V5.6875H101.832V19.7793ZM107.945 23.6562C110.621 23.6562 111.93 22.6992 112.828 20.0137L116.432 9.31055H113.424L111.197 17.4941H111.148L108.922 9.31055H105.787L109.43 19.7891C109.449 19.8281 109.342 20.248 109.342 20.2871C109.146 21.1172 108.629 21.4492 107.584 21.4492C107.477 21.4492 106.959 21.4492 106.871 21.4297V23.627C106.959 23.6465 107.848 23.6562 107.945 23.6562ZM117.232 12.3867C117.232 13.9297 118.248 14.9648 120.23 15.4141L122.164 15.8438C123.102 16.0684 123.453 16.3613 123.453 16.8887C123.453 17.5723 122.799 18.002 121.715 18.002C120.582 18.002 119.889 17.4941 119.752 16.6152H116.969C117.125 18.6562 118.844 20.0039 121.637 20.0039C124.4 20.0039 126.295 18.6465 126.295 16.5859C126.295 15.0234 125.445 14.1934 123.346 13.7246L121.344 13.2949C120.426 13.0801 119.977 12.7285 119.977 12.2109C119.977 11.5371 120.621 11.0879 121.607 11.0879C122.662 11.0879 123.336 11.6055 123.395 12.4453H126.021C125.982 10.4141 124.273 9.08594 121.646 9.08594C118.961 9.08594 117.232 10.3945 117.232 12.3867ZM127.77 19.7793H130.621V9.31055H127.77V19.7793ZM129.195 8.1582C130.055 8.1582 130.719 7.50391 130.719 6.68359C130.719 5.85352 130.055 5.20898 129.195 5.20898C128.336 5.20898 127.672 5.85352 127.672 6.68359C127.672 7.50391 128.336 8.1582 129.195 8.1582ZM132.35 12.3867C132.35 13.9297 133.365 14.9648 135.348 15.4141L137.281 15.8438C138.219 16.0684 138.57 16.3613 138.57 16.8887C138.57 17.5723 137.916 18.002 136.832 18.002C135.699 18.002 135.006 17.4941 134.869 16.6152H132.086C132.242 18.6562 133.961 20.0039 136.754 20.0039C139.518 20.0039 141.412 18.6465 141.412 16.5859C141.412 15.0234 140.562 14.1934 138.463 13.7246L136.461 13.2949C135.543 13.0801 135.094 12.7285 135.094 12.2109C135.094 11.5371 135.738 11.0879 136.725 11.0879C137.779 11.0879 138.453 11.6055 138.512 12.4453H141.139C141.1 10.4141 139.391 9.08594 136.764 9.08594C134.078 9.08594 132.35 10.3945 132.35 12.3867Z" fill="#192126"/>
</svg>
