<svg width="32" height="24" viewBox="0 0 32 24" fill="none" xmlns="http://www.w3.org/2000/svg">
<circle cx="9.04663" cy="8" r="5" fill="white"/>
<path fill-rule="evenodd" clip-rule="evenodd" d="M2.35746 22.6334C0.673098 21.9118 -0.0103585 19.8776 1.1042 18.4231C2.93185 16.038 5.80961 14.5 9.04659 14.5C12.2836 14.5 15.1613 16.038 16.989 18.4231C18.1035 19.8776 17.4201 21.9118 15.7357 22.6334C13.6827 23.513 11.4215 24 9.04659 24C6.67167 24 4.41049 23.513 2.35746 22.6334Z" fill="white"/>
<circle cx="23.0466" cy="5" r="5" fill="white"/>
<path fill-rule="evenodd" clip-rule="evenodd" d="M16.3575 19.6334C14.6731 18.9118 13.9896 16.8776 15.1042 15.4231C16.9319 13.038 19.8096 11.5 23.0466 11.5C26.2836 11.5 29.1613 13.038 30.989 15.4231C32.1035 16.8776 31.4201 18.9118 29.7357 19.6334C27.6827 20.513 25.4215 21 23.0466 21C20.6717 21 18.4105 20.513 16.3575 19.6334Z" fill="white"/>
</svg>
