<svg width="40" height="40" viewBox="0 0 40 40" fill="none" xmlns="http://www.w3.org/2000/svg">
<circle cx="20" cy="20" r="20" fill="#F6CE42"/>
<g clip-path="url(#clip0_1279_39728)">
<path d="M14.5144 28.6794C14.0319 28.9269 13.4844 28.4931 13.5819 27.9394L14.6194 22.0269L10.2157 17.8319C9.80442 17.4394 10.0182 16.7219 10.5694 16.6444L16.6919 15.7744L19.4219 10.3656C19.6682 9.87813 20.3344 9.87813 20.5807 10.3656L23.3107 15.7744L29.4332 16.6444C29.9844 16.7219 30.1982 17.4394 29.7869 17.8319L25.3832 22.0269L26.4207 27.9394C26.5182 28.4931 25.9707 28.9269 25.4882 28.6794L19.9994 25.8594L14.5132 28.6794H14.5144Z" fill="white"/>
</g>
<defs>
<clipPath id="clip0_1279_39728">
<rect width="20" height="20" fill="white" transform="translate(10 10)"/>
</clipPath>
</defs>
</svg>
