<svg width="147" height="174" viewBox="0 0 147 174" fill="none" xmlns="http://www.w3.org/2000/svg">
<path d="M60.9642 17.08C60.3669 17.08 59.9136 16.9413 59.6042 16.664C59.3056 16.3867 59.1562 15.944 59.1562 15.336V14.984C58.7189 15.656 58.2122 16.1947 57.6362 16.6C57.0602 16.9947 56.3776 17.192 55.5882 17.192C55.1829 17.192 54.7989 17.128 54.4362 17C54.0736 16.8613 53.7536 16.664 53.4762 16.408C53.2096 16.1413 52.9962 15.816 52.8362 15.432C52.6762 15.048 52.5962 14.6053 52.5962 14.104C52.5962 13.8587 52.6069 13.6347 52.6282 13.432C52.6496 13.2187 52.6816 12.984 52.7242 12.728L53.9082 5.8H55.4282L54.1962 13.064C54.1642 13.256 54.1429 13.4213 54.1322 13.56C54.1216 13.688 54.1162 13.832 54.1162 13.992C54.1162 14.568 54.2869 15.0267 54.6282 15.368C54.9696 15.6987 55.4336 15.864 56.0202 15.864C56.3829 15.864 56.7509 15.7787 57.1242 15.608C57.4976 15.4373 57.8442 15.192 58.1642 14.872C58.4842 14.5413 58.7616 14.136 58.9962 13.656C59.2416 13.176 59.4176 12.6267 59.5242 12.008L60.6282 5.8H62.1482L60.5802 14.664C60.5696 14.7173 60.5589 14.7813 60.5482 14.856C60.5482 14.92 60.5482 14.9893 60.5482 15.064C60.5482 15.352 60.6282 15.56 60.7882 15.688C60.9589 15.816 61.1936 15.88 61.4922 15.88L60.9642 17.08ZM68.3189 9.752C68.0415 9.752 67.7375 9.832 67.4069 9.992C67.0869 10.1413 66.7722 10.376 66.4629 10.696C66.1642 11.016 65.8922 11.4267 65.6469 11.928C65.4015 12.4187 65.2202 13.0053 65.1029 13.688L64.5269 17H63.0869L64.5429 8.68H65.9349L65.5829 10.6C65.9135 9.96 66.3562 9.448 66.9109 9.064C67.4655 8.68 68.0575 8.488 68.6869 8.488C69.0495 8.488 69.3802 8.54667 69.6789 8.664C69.9775 8.78133 70.2282 8.94667 70.4309 9.16C70.6442 9.36267 70.8042 9.60267 70.9109 9.88C71.0282 10.1573 71.0869 10.456 71.0869 10.776C71.0869 11.0533 71.0549 11.3893 70.9909 11.784L70.0789 17H68.6389L69.5189 12.024C69.5722 11.768 69.6042 11.5813 69.6149 11.464C69.6255 11.3467 69.6309 11.2293 69.6309 11.112C69.6309 10.696 69.5082 10.3653 69.2629 10.12C69.0282 9.87467 68.7135 9.752 68.3189 9.752ZM80.2207 17.08C79.6447 17.08 79.2021 16.9413 78.8927 16.664C78.5941 16.376 78.4447 15.928 78.4447 15.32C78.1354 15.832 77.7461 16.2747 77.2767 16.648C76.8074 17.0107 76.2634 17.192 75.6447 17.192C75.2394 17.192 74.8501 17.112 74.4767 16.952C74.1141 16.792 73.7887 16.5627 73.5007 16.264C73.2234 15.9653 72.9994 15.6027 72.8287 15.176C72.6687 14.7387 72.5887 14.2533 72.5887 13.72C72.5887 12.9093 72.7114 12.1787 72.9567 11.528C73.2127 10.8773 73.5381 10.328 73.9327 9.88C74.3381 9.432 74.7914 9.09067 75.2927 8.856C75.7941 8.61067 76.3007 8.488 76.8127 8.488C77.3887 8.488 77.8794 8.62667 78.2847 8.904C78.6901 9.18133 79.0047 9.52267 79.2287 9.928L80.0767 5.16H81.5167L79.8207 14.744C79.8101 14.7973 79.7994 14.8613 79.7887 14.936C79.7887 15 79.7887 15.0693 79.7887 15.144C79.7887 15.4427 79.8741 15.656 80.0447 15.784C80.2154 15.9013 80.4394 15.96 80.7167 15.96L80.2207 17.08ZM76.0287 15.912C76.3274 15.912 76.6207 15.8427 76.9087 15.704C77.1967 15.5547 77.4581 15.3467 77.6927 15.08C77.9381 14.8027 78.1461 14.472 78.3167 14.088C78.4981 13.704 78.6314 13.2773 78.7167 12.808L79.0047 11.16C78.7914 10.712 78.5034 10.3653 78.1407 10.12C77.7781 9.864 77.3781 9.736 76.9407 9.736C76.5674 9.736 76.2047 9.82133 75.8527 9.992C75.5114 10.1627 75.2074 10.4133 74.9407 10.744C74.6741 11.064 74.4607 11.4587 74.3007 11.928C74.1407 12.3973 74.0607 12.9253 74.0607 13.512C74.0607 13.9067 74.1141 14.2533 74.2207 14.552C74.3381 14.8507 74.4874 15.1013 74.6687 15.304C74.8501 15.5067 75.0581 15.6613 75.2927 15.768C75.5274 15.864 75.7727 15.912 76.0287 15.912ZM85.7334 17.192C85.2 17.192 84.7147 17.1067 84.2774 16.936C83.84 16.7547 83.4614 16.504 83.1414 16.184C82.832 15.8533 82.5867 15.4533 82.4054 14.984C82.2347 14.5147 82.1494 13.9867 82.1494 13.4C82.1494 12.7387 82.256 12.1093 82.4694 11.512C82.6827 10.9147 82.9814 10.392 83.3654 9.944C83.76 9.496 84.2347 9.144 84.7894 8.888C85.344 8.62133 85.9627 8.488 86.6454 8.488C87.104 8.488 87.5147 8.55733 87.8774 8.696C88.24 8.83467 88.544 9.016 88.7894 9.24C89.0454 9.464 89.2374 9.72533 89.3654 10.024C89.504 10.3227 89.5734 10.632 89.5734 10.952C89.5734 11.5493 89.4294 12.0347 89.1414 12.408C88.864 12.7813 88.512 13.08 88.0854 13.304C87.6587 13.5173 87.1894 13.6667 86.6774 13.752C86.1654 13.8267 85.68 13.864 85.2214 13.864C84.9334 13.864 84.6454 13.8533 84.3574 13.832C84.08 13.8 83.8347 13.768 83.6214 13.736C83.7067 14.44 83.952 14.9787 84.3574 15.352C84.7734 15.7253 85.312 15.912 85.9734 15.912C86.5067 15.912 86.9814 15.8427 87.3974 15.704C87.8134 15.5653 88.1654 15.4267 88.4534 15.288L88.5814 16.568C88.2614 16.7173 87.856 16.8613 87.3654 17C86.8854 17.128 86.3414 17.192 85.7334 17.192ZM86.5334 9.704C86.16 9.704 85.808 9.77867 85.4774 9.928C85.1574 10.0667 84.8694 10.264 84.6134 10.52C84.368 10.776 84.16 11.08 83.9894 11.432C83.8294 11.784 83.7174 12.168 83.6534 12.584C83.8987 12.6373 84.144 12.6747 84.3894 12.696C84.6347 12.7173 84.912 12.728 85.2214 12.728C86.128 12.728 86.8374 12.6053 87.3494 12.36C87.872 12.104 88.1334 11.672 88.1334 11.064C88.1334 10.6907 87.984 10.3707 87.6854 10.104C87.3974 9.83733 87.0134 9.704 86.5334 9.704ZM91.7266 11.016C91.7373 10.9627 91.7426 10.904 91.7426 10.84C91.7533 10.7653 91.7586 10.6907 91.7586 10.616C91.7586 10.3173 91.6733 10.1093 91.5026 9.992C91.332 9.864 91.108 9.8 90.8306 9.8L91.3266 8.68C91.9026 8.68 92.34 8.81333 92.6386 9.08C92.9373 9.34667 93.0866 9.752 93.0866 10.296V10.616C93.396 9.848 93.7906 9.304 94.2706 8.984C94.7613 8.65333 95.316 8.488 95.9346 8.488C96.18 8.488 96.388 8.50933 96.5586 8.552C96.74 8.584 96.8893 8.62667 97.0066 8.68L96.3666 10.088C96.2386 10.0347 96.1053 9.99733 95.9666 9.976C95.828 9.95467 95.668 9.944 95.4866 9.944C95.1986 9.944 94.9106 10.0187 94.6226 10.168C94.3346 10.3067 94.0626 10.5467 93.8066 10.888C93.5506 11.2293 93.316 11.6773 93.1026 12.232C92.8893 12.7867 92.7133 13.4747 92.5746 14.296L92.1106 17H90.6706L91.7266 11.016Z" fill="#E89925"/>
<path d="M20.9714 133.603C21.4034 133.987 21.9074 134.291 22.4834 134.515C23.0754 134.739 23.7314 134.851 24.4514 134.851C25.0274 134.851 25.5554 134.771 26.0354 134.611C26.5314 134.451 26.9554 134.219 27.3074 133.915C27.6754 133.611 27.9634 133.243 28.1714 132.811C28.3794 132.379 28.4834 131.891 28.4834 131.347C28.4834 130.419 28.1394 129.659 27.4514 129.067C26.7794 128.475 25.7954 128.179 24.4994 128.179H22.1234L23.5874 119.731H31.8674L31.5314 121.675H25.2914L24.4994 126.235H24.9554C25.9314 126.235 26.7874 126.363 27.5234 126.619C28.2594 126.875 28.8674 127.227 29.3474 127.675C29.8434 128.107 30.2114 128.619 30.4514 129.211C30.6914 129.787 30.8114 130.395 30.8114 131.035C30.8114 131.899 30.6514 132.683 30.3314 133.387C30.0274 134.091 29.5874 134.699 29.0114 135.211C28.4514 135.723 27.7714 136.123 26.9714 136.411C26.1714 136.683 25.2914 136.819 24.3314 136.819C23.3714 136.819 22.4834 136.699 21.6674 136.459C20.8674 136.203 20.2034 135.867 19.6754 135.451L20.9714 133.603ZM39.178 134.611L41.314 122.539L37.738 125.035L36.754 123.307L42.37 119.731H43.954L41.338 134.611H44.194L43.858 136.531H35.41L35.746 134.611H39.178ZM60.4087 123.499C60.4087 124.347 60.2007 125.099 59.7847 125.755C59.3847 126.395 58.8727 126.995 58.2487 127.555C57.6407 128.099 56.9687 128.627 56.2327 129.139C55.4967 129.635 54.7927 130.155 54.1207 130.699C53.4487 131.227 52.8567 131.803 52.3447 132.427C51.8327 133.051 51.5047 133.763 51.3607 134.563H58.9927L58.6567 136.531H49.0087C48.9767 136.403 48.9527 136.259 48.9367 136.099C48.9367 135.939 48.9367 135.787 48.9367 135.643C48.9367 134.539 49.1607 133.563 49.6087 132.715C50.0567 131.851 50.6167 131.083 51.2887 130.411C51.9767 129.723 52.7127 129.107 53.4967 128.563C54.2967 128.003 55.0327 127.467 55.7047 126.955C56.3927 126.427 56.9607 125.907 57.4087 125.395C57.8567 124.867 58.0807 124.291 58.0807 123.667C58.0807 122.947 57.8407 122.387 57.3607 121.987C56.8967 121.571 56.3047 121.363 55.5847 121.363C54.8967 121.363 54.2727 121.491 53.7127 121.747C53.1687 122.003 52.6247 122.363 52.0807 122.827L51.0727 121.195C51.7287 120.667 52.4327 120.243 53.1847 119.923C53.9527 119.603 54.8407 119.443 55.8487 119.443C56.5207 119.443 57.1367 119.547 57.6967 119.755C58.2567 119.947 58.7367 120.227 59.1367 120.595C59.5367 120.947 59.8487 121.371 60.0727 121.867C60.2967 122.363 60.4087 122.907 60.4087 123.499ZM78.3226 132.283C78.3226 131.947 78.2746 131.643 78.1786 131.371C78.0826 131.083 77.9066 130.795 77.6506 130.507C77.3946 130.219 77.0506 129.923 76.6186 129.619C76.2026 129.299 75.6586 128.955 74.9866 128.587C74.3626 128.235 73.8346 127.891 73.4026 127.555C72.9706 127.219 72.6106 126.867 72.3226 126.499C72.0506 126.131 71.8506 125.731 71.7226 125.299C71.6106 124.867 71.5546 124.387 71.5546 123.859C71.5546 123.187 71.6906 122.579 71.9626 122.035C72.2346 121.491 72.6186 121.027 73.1146 120.643C73.6106 120.259 74.2026 119.963 74.8906 119.755C75.5786 119.547 76.3386 119.443 77.1706 119.443C78.1786 119.443 79.0826 119.571 79.8826 119.827C80.6986 120.067 81.4666 120.395 82.1866 120.811L81.0106 122.683C80.4346 122.315 79.8266 122.011 79.1866 121.771C78.5626 121.531 77.8266 121.411 76.9786 121.411C76.0186 121.411 75.2506 121.619 74.6746 122.035C74.1146 122.435 73.8346 122.963 73.8346 123.619C73.8346 123.923 73.8826 124.203 73.9786 124.459C74.0746 124.715 74.2266 124.963 74.4346 125.203C74.6586 125.443 74.9546 125.691 75.3226 125.947C75.6906 126.203 76.1546 126.475 76.7146 126.763C77.4986 127.179 78.1466 127.595 78.6586 128.011C79.1706 128.411 79.5706 128.819 79.8586 129.235C80.1626 129.651 80.3706 130.091 80.4826 130.555C80.5946 131.019 80.6506 131.523 80.6506 132.067C80.6506 132.803 80.5066 133.467 80.2186 134.059C79.9306 134.651 79.5226 135.155 78.9946 135.571C78.4666 135.971 77.8346 136.283 77.0986 136.507C76.3626 136.715 75.5546 136.819 74.6746 136.819C73.5226 136.819 72.4826 136.667 71.5546 136.363C70.6266 136.043 69.8106 135.603 69.1066 135.043L70.5946 133.195C71.1386 133.691 71.7706 134.091 72.4906 134.395C73.2266 134.683 74.0346 134.827 74.9146 134.827C75.9546 134.827 76.7786 134.603 77.3866 134.155C78.0106 133.691 78.3226 133.067 78.3226 132.283ZM82.9645 124.507H85.1725L86.3245 120.571H87.9805L87.2845 124.507H90.7405L90.4285 126.379H86.9485L85.9405 132.211C85.8765 132.531 85.8445 132.835 85.8445 133.123C85.8445 133.683 86.0045 134.123 86.3245 134.443C86.6605 134.747 87.1085 134.899 87.6685 134.899C88.1325 134.899 88.5165 134.835 88.8205 134.707C89.1405 134.563 89.4365 134.419 89.7085 134.275L89.9725 136.147C89.6685 136.323 89.2845 136.475 88.8205 136.603C88.3725 136.747 87.8685 136.819 87.3085 136.819C86.8605 136.819 86.4205 136.747 85.9885 136.603C85.5565 136.475 85.1725 136.275 84.8365 136.003C84.5005 135.715 84.2285 135.347 84.0205 134.899C83.8125 134.451 83.7085 133.915 83.7085 133.291C83.7085 133.115 83.7165 132.939 83.7325 132.763C83.7485 132.571 83.7725 132.355 83.8045 132.115L84.7885 126.379H82.6525L82.9645 124.507ZM97.0492 136.819C96.2492 136.819 95.5212 136.691 94.8652 136.435C94.2092 136.163 93.6412 135.787 93.1612 135.307C92.6972 134.811 92.3292 134.211 92.0572 133.507C91.8012 132.803 91.6732 132.011 91.6732 131.131C91.6732 130.139 91.8332 129.195 92.1532 128.299C92.4732 127.403 92.9212 126.619 93.4972 125.947C94.0892 125.275 94.8012 124.747 95.6332 124.363C96.4652 123.963 97.3932 123.763 98.4172 123.763C99.1052 123.763 99.7212 123.867 100.265 124.075C100.809 124.283 101.265 124.555 101.633 124.891C102.017 125.227 102.305 125.619 102.497 126.067C102.705 126.515 102.809 126.979 102.809 127.459C102.809 128.355 102.593 129.083 102.161 129.643C101.745 130.203 101.217 130.651 100.577 130.987C99.9372 131.307 99.2332 131.531 98.4652 131.659C97.6972 131.771 96.9692 131.827 96.2812 131.827C95.8492 131.827 95.4172 131.811 94.9852 131.779C94.5692 131.731 94.2012 131.683 93.8812 131.635C94.0092 132.691 94.3772 133.499 94.9852 134.059C95.6092 134.619 96.4172 134.899 97.4092 134.899C98.2092 134.899 98.9212 134.795 99.5452 134.587C100.169 134.379 100.697 134.171 101.129 133.963L101.321 135.883C100.841 136.107 100.233 136.323 99.4972 136.531C98.7772 136.723 97.9612 136.819 97.0492 136.819ZM98.2492 125.587C97.6892 125.587 97.1612 125.699 96.6652 125.923C96.1852 126.131 95.7532 126.427 95.3692 126.811C95.0012 127.195 94.6892 127.651 94.4332 128.179C94.1932 128.707 94.0252 129.283 93.9292 129.907C94.2972 129.987 94.6652 130.043 95.0332 130.075C95.4012 130.107 95.8172 130.123 96.2812 130.123C97.6412 130.123 98.7052 129.939 99.4732 129.571C100.257 129.187 100.649 128.539 100.649 127.627C100.649 127.067 100.425 126.587 99.9772 126.187C99.5452 125.787 98.9692 125.587 98.2492 125.587ZM105.535 124.051C107.199 124.051 108.031 124.771 108.031 126.211V126.715C108.495 125.851 109.087 125.147 109.807 124.603C110.543 124.043 111.407 123.763 112.399 123.763C113.039 123.763 113.623 123.891 114.151 124.147C114.679 124.403 115.127 124.763 115.495 125.227C115.863 125.675 116.143 126.219 116.335 126.859C116.543 127.483 116.647 128.179 116.647 128.947C116.647 130.131 116.471 131.211 116.119 132.187C115.767 133.147 115.303 133.971 114.727 134.659C114.151 135.347 113.487 135.883 112.735 136.267C111.999 136.635 111.239 136.819 110.455 136.819C109.687 136.819 108.967 136.627 108.295 136.243C107.639 135.859 107.127 135.387 106.759 134.827L105.535 141.811H103.375L105.871 127.531C105.919 127.275 105.943 127.051 105.943 126.859C105.943 126.107 105.551 125.731 104.767 125.731L105.535 124.051ZM110.263 134.899C110.823 134.899 111.351 134.763 111.847 134.491C112.359 134.203 112.807 133.811 113.191 133.315C113.575 132.803 113.879 132.195 114.103 131.491C114.327 130.787 114.439 130.011 114.439 129.163C114.439 128.059 114.191 127.195 113.695 126.571C113.199 125.947 112.551 125.635 111.751 125.635C111.271 125.635 110.799 125.755 110.335 125.995C109.887 126.219 109.479 126.539 109.111 126.955C108.743 127.371 108.415 127.883 108.127 128.491C107.855 129.083 107.655 129.739 107.527 130.459L107.095 132.883C107.447 133.539 107.895 134.043 108.439 134.395C108.999 134.731 109.607 134.899 110.263 134.899ZM127.269 126.763C126.805 126.443 126.285 126.163 125.709 125.923C125.149 125.683 124.509 125.563 123.789 125.563C123.021 125.563 122.429 125.691 122.013 125.947C121.613 126.203 121.413 126.539 121.413 126.955C121.413 127.147 121.445 127.323 121.509 127.483C121.589 127.643 121.717 127.811 121.893 127.987C122.085 128.147 122.341 128.323 122.661 128.515C122.981 128.707 123.389 128.931 123.885 129.187C124.989 129.747 125.797 130.315 126.309 130.891C126.837 131.451 127.101 132.163 127.101 133.027C127.101 133.667 126.973 134.227 126.717 134.707C126.461 135.171 126.101 135.563 125.637 135.883C125.189 136.187 124.661 136.419 124.053 136.579C123.445 136.739 122.789 136.819 122.085 136.819C121.109 136.819 120.245 136.699 119.493 136.459C118.757 136.203 118.117 135.875 117.573 135.475L118.797 133.699C119.229 134.051 119.733 134.347 120.309 134.587C120.901 134.827 121.557 134.947 122.277 134.947C123.093 134.947 123.725 134.795 124.173 134.491C124.637 134.187 124.869 133.811 124.869 133.363C124.869 133.155 124.829 132.963 124.749 132.787C124.685 132.595 124.557 132.403 124.365 132.211C124.173 132.019 123.909 131.827 123.573 131.635C123.253 131.427 122.845 131.195 122.349 130.939C121.741 130.635 121.237 130.347 120.837 130.075C120.453 129.787 120.141 129.491 119.901 129.187C119.677 128.883 119.517 128.563 119.421 128.227C119.325 127.875 119.277 127.491 119.277 127.075C119.277 126.595 119.389 126.155 119.613 125.755C119.837 125.339 120.149 124.987 120.549 124.699C120.949 124.411 121.429 124.187 121.989 124.027C122.549 123.851 123.165 123.763 123.837 123.763C124.733 123.763 125.533 123.883 126.237 124.123C126.957 124.347 127.589 124.619 128.133 124.939L127.269 126.763Z" fill="white"/>
<path d="M24.1022 149.529C23.9062 149.426 23.6962 149.333 23.4722 149.249C23.2482 149.165 23.0009 149.123 22.7302 149.123C22.3382 149.123 22.0209 149.249 21.7782 149.501C21.5449 149.743 21.4282 150.103 21.4282 150.579V151.517H23.5842V152.609H21.4282V158.531H20.1682V152.609H19.0482V151.517H20.1682V150.663C20.1682 150.252 20.2289 149.883 20.3502 149.557C20.4715 149.23 20.6395 148.95 20.8542 148.717C21.0689 148.483 21.3302 148.306 21.6382 148.185C21.9462 148.063 22.2822 148.003 22.6462 148.003C23.0382 148.003 23.3742 148.049 23.6542 148.143C23.9435 148.227 24.2189 148.334 24.4802 148.465L24.1022 149.529ZM28.8434 152.469C28.6661 152.394 28.4561 152.357 28.2134 152.357C27.9521 152.357 27.6954 152.413 27.4434 152.525C27.2007 152.637 26.9814 152.805 26.7854 153.029C26.5987 153.253 26.4447 153.542 26.3234 153.897C26.2114 154.242 26.1554 154.653 26.1554 155.129V158.531H24.8954V151.251H26.1134V152.833C26.1974 152.609 26.3094 152.389 26.4494 152.175C26.5894 151.96 26.7527 151.773 26.9394 151.615C27.1354 151.456 27.3594 151.33 27.6114 151.237C27.8634 151.134 28.1434 151.083 28.4514 151.083C28.5914 151.083 28.7267 151.092 28.8574 151.111C28.9974 151.12 29.1187 151.139 29.2214 151.167L28.8434 152.469ZM35.4674 154.891C35.4674 154.527 35.4067 154.181 35.2854 153.855C35.1734 153.528 35.01 153.243 34.7954 153.001C34.59 152.758 34.3427 152.567 34.0534 152.427C33.7734 152.277 33.4654 152.203 33.1294 152.203C32.392 152.203 31.818 152.445 31.4074 152.931C30.9967 153.416 30.7914 154.06 30.7914 154.863C30.7914 155.227 30.8474 155.577 30.9594 155.913C31.0807 156.239 31.244 156.529 31.4494 156.781C31.664 157.023 31.9114 157.219 32.1914 157.369C32.4807 157.509 32.7934 157.579 33.1294 157.579C33.4934 157.579 33.82 157.513 34.1094 157.383C34.3987 157.252 34.6414 157.07 34.8374 156.837C35.0427 156.594 35.1967 156.309 35.2994 155.983C35.4114 155.656 35.4674 155.292 35.4674 154.891ZM29.5034 154.891C29.5034 154.303 29.5967 153.775 29.7834 153.309C29.97 152.833 30.222 152.431 30.5394 152.105C30.866 151.778 31.2487 151.526 31.6874 151.349C32.1354 151.171 32.616 151.083 33.1294 151.083C33.6334 151.083 34.1047 151.171 34.5434 151.349C34.9914 151.526 35.3787 151.778 35.7054 152.105C36.032 152.431 36.2887 152.828 36.4754 153.295C36.662 153.761 36.7554 154.284 36.7554 154.863C36.7554 155.441 36.662 155.969 36.4754 156.445C36.298 156.911 36.046 157.313 35.7194 157.649C35.3927 157.985 35.0054 158.246 34.5574 158.433C34.1187 158.61 33.6427 158.699 33.1294 158.699C32.6067 158.699 32.1214 158.605 31.6734 158.419C31.2347 158.232 30.852 157.971 30.5254 157.635C30.208 157.299 29.956 156.897 29.7694 156.431C29.592 155.964 29.5034 155.451 29.5034 154.891ZM39.6485 152.469C39.9099 152.077 40.2365 151.75 40.6285 151.489C41.0299 151.218 41.4919 151.083 42.0145 151.083C42.5932 151.083 43.0645 151.223 43.4285 151.503C43.7925 151.773 44.0539 152.147 44.2125 152.623C44.5019 152.193 44.8425 151.829 45.2345 151.531C45.6359 151.232 46.1305 151.083 46.7185 151.083C47.1105 151.083 47.4512 151.148 47.7405 151.279C48.0392 151.409 48.2865 151.596 48.4825 151.839C48.6785 152.072 48.8232 152.357 48.9165 152.693C49.0192 153.019 49.0705 153.383 49.0705 153.785V158.531H47.8105V153.883C47.8105 153.379 47.6939 152.973 47.4605 152.665C47.2272 152.347 46.9052 152.189 46.4945 152.189C46.2799 152.189 46.0745 152.231 45.8785 152.315C45.6825 152.399 45.4959 152.515 45.3185 152.665C45.1412 152.805 44.9732 152.973 44.8145 153.169C44.6559 153.355 44.5112 153.551 44.3805 153.757V158.531H43.1205V153.883C43.1205 153.379 43.0039 152.973 42.7705 152.665C42.5372 152.347 42.2152 152.189 41.8045 152.189C41.5992 152.189 41.3985 152.231 41.2025 152.315C41.0065 152.389 40.8152 152.497 40.6285 152.637C40.4512 152.777 40.2832 152.94 40.1245 153.127C39.9659 153.313 39.8212 153.509 39.6905 153.715V158.531H38.4305V151.251H39.6485V152.469ZM55.5504 158.531C55.5224 158.363 55.5084 158.19 55.5084 158.013C55.5084 157.415 55.6157 156.874 55.8304 156.389C56.0544 155.903 56.3297 155.465 56.6564 155.073C56.983 154.671 57.333 154.303 57.7064 153.967C58.089 153.621 58.4437 153.295 58.7704 152.987C59.097 152.669 59.3677 152.357 59.5824 152.049C59.8064 151.731 59.9184 151.395 59.9184 151.041C59.9184 150.649 59.7737 150.327 59.4844 150.075C59.195 149.813 58.8217 149.683 58.3644 149.683C57.9724 149.683 57.613 149.762 57.2864 149.921C56.969 150.07 56.6704 150.275 56.3904 150.537L55.6904 149.683C56.0637 149.347 56.4744 149.076 56.9224 148.871C57.3797 148.665 57.907 148.563 58.5044 148.563C58.915 148.563 59.2884 148.623 59.6244 148.745C59.9697 148.866 60.259 149.039 60.4924 149.263C60.735 149.477 60.9217 149.729 61.0524 150.019C61.183 150.308 61.2484 150.621 61.2484 150.957C61.2484 151.405 61.1457 151.82 60.9404 152.203C60.7444 152.576 60.4924 152.935 60.1844 153.281C59.8857 153.617 59.5544 153.943 59.1904 154.261C58.8357 154.569 58.4997 154.886 58.1824 155.213C57.865 155.539 57.585 155.88 57.3424 156.235C57.109 156.589 56.969 156.972 56.9224 157.383H61.2344V158.531H55.5504ZM69.9229 155.493C69.9229 155.959 69.8389 156.389 69.6709 156.781C69.5122 157.173 69.2789 157.513 68.9709 157.803C68.6722 158.083 68.3129 158.302 67.8929 158.461C67.4729 158.619 67.0062 158.699 66.4929 158.699C65.9142 158.699 65.4196 158.638 65.0089 158.517C64.6076 158.386 64.2389 158.204 63.9029 157.971L64.5609 156.893C64.8222 157.079 65.1116 157.238 65.4289 157.369C65.7462 157.49 66.1056 157.551 66.5069 157.551C66.8149 157.551 67.0949 157.504 67.3469 157.411C67.6082 157.317 67.8276 157.187 68.0049 157.019C68.1916 156.841 68.3362 156.636 68.4389 156.403C68.5416 156.169 68.5929 155.913 68.5929 155.633C68.5929 155.045 68.3922 154.569 67.9909 154.205C67.5989 153.841 67.0342 153.659 66.2969 153.659H64.5609V148.731H69.4049V149.865H65.7509V152.525H66.4509C66.9922 152.525 67.4776 152.599 67.9069 152.749C68.3362 152.889 68.7002 153.094 68.9989 153.365C69.2976 153.626 69.5262 153.939 69.6849 154.303C69.8436 154.667 69.9229 155.063 69.9229 155.493ZM77.1274 149.851C76.1008 149.851 75.2608 150.163 74.6074 150.789C73.9541 151.405 73.5528 152.254 73.4034 153.337C73.6648 153.085 73.9961 152.856 74.3974 152.651C74.8081 152.436 75.2794 152.329 75.8114 152.329C76.2034 152.329 76.5628 152.399 76.8894 152.539C77.2254 152.679 77.5148 152.875 77.7574 153.127C78.0001 153.379 78.1914 153.687 78.3314 154.051C78.4714 154.405 78.5414 154.807 78.5414 155.255C78.5414 155.768 78.4621 156.239 78.3034 156.669C78.1448 157.089 77.9254 157.448 77.6454 157.747C77.3654 158.045 77.0294 158.279 76.6374 158.447C76.2454 158.615 75.8208 158.699 75.3634 158.699C74.9154 158.699 74.4908 158.619 74.0894 158.461C73.6974 158.293 73.3521 158.041 73.0534 157.705C72.7548 157.359 72.5168 156.925 72.3394 156.403C72.1714 155.88 72.0874 155.264 72.0874 154.555C72.0874 153.761 72.1948 153.01 72.4094 152.301C72.6241 151.591 72.9414 150.971 73.3614 150.439C73.7814 149.907 74.3041 149.487 74.9294 149.179C75.5548 148.861 76.2828 148.703 77.1134 148.703C77.1974 148.703 77.2861 148.707 77.3794 148.717C77.4821 148.717 77.5708 148.721 77.6454 148.731V149.879C77.5708 149.869 77.4868 149.865 77.3934 149.865C77.3001 149.855 77.2114 149.851 77.1274 149.851ZM75.4894 153.379C75.0788 153.379 74.6914 153.477 74.3274 153.673C73.9728 153.869 73.6554 154.13 73.3754 154.457V154.765C73.3848 155.203 73.4408 155.595 73.5434 155.941C73.6554 156.286 73.8001 156.58 73.9774 156.823C74.1641 157.056 74.3788 157.238 74.6214 157.369C74.8734 157.49 75.1394 157.551 75.4194 157.551C75.6994 157.551 75.9514 157.499 76.1754 157.397C76.4088 157.285 76.6048 157.135 76.7634 156.949C76.9314 156.753 77.0574 156.524 77.1414 156.263C77.2348 156.001 77.2814 155.717 77.2814 155.409C77.2814 154.802 77.1181 154.312 76.7914 153.939C76.4648 153.565 76.0308 153.379 75.4894 153.379ZM83.716 148.563C84.2573 148.563 84.738 148.679 85.158 148.913C85.578 149.137 85.928 149.468 86.208 149.907C86.488 150.336 86.698 150.868 86.838 151.503C86.9873 152.128 87.062 152.842 87.062 153.645C87.062 155.269 86.7726 156.519 86.194 157.397C85.6153 158.265 84.78 158.699 83.688 158.699C82.596 158.699 81.7653 158.255 81.196 157.369C80.6266 156.482 80.342 155.231 80.342 153.617C80.342 151.993 80.6313 150.747 81.21 149.879C81.7886 149.001 82.624 148.563 83.716 148.563ZM83.702 149.711C83.394 149.711 83.114 149.781 82.862 149.921C82.61 150.051 82.3953 150.271 82.218 150.579C82.0406 150.877 81.9053 151.274 81.812 151.769C81.7186 152.263 81.672 152.875 81.672 153.603C81.672 154.9 81.8493 155.885 82.204 156.557C82.5586 157.219 83.058 157.551 83.702 157.551C84.01 157.551 84.29 157.485 84.542 157.355C84.794 157.215 85.0086 156.995 85.186 156.697C85.3633 156.389 85.4986 155.987 85.592 155.493C85.6853 154.998 85.732 154.387 85.732 153.659C85.732 152.361 85.5546 151.381 85.2 150.719C84.8453 150.047 84.346 149.711 83.702 149.711ZM93.1858 156.585C93.5218 156.865 93.8998 157.093 94.3198 157.271C94.7398 157.448 95.2298 157.537 95.7897 157.537C96.4618 157.537 96.9938 157.397 97.3858 157.117C97.7778 156.837 97.9738 156.459 97.9738 155.983C97.9738 155.787 97.9458 155.605 97.8898 155.437C97.8338 155.269 97.7218 155.11 97.5538 154.961C97.3951 154.802 97.1664 154.648 96.8678 154.499C96.5784 154.34 96.2004 154.172 95.7338 153.995C95.2298 153.799 94.8004 153.607 94.4458 153.421C94.1004 153.225 93.8204 153.015 93.6058 152.791C93.3911 152.557 93.2371 152.305 93.1438 152.035C93.0504 151.755 93.0038 151.437 93.0038 151.083C93.0038 150.737 93.0738 150.411 93.2138 150.103C93.3631 149.795 93.5778 149.529 93.8578 149.305C94.1471 149.071 94.4971 148.889 94.9078 148.759C95.3278 148.628 95.8038 148.563 96.3358 148.563C96.9144 148.563 97.4324 148.623 97.8898 148.745C98.3471 148.857 98.7998 149.02 99.2478 149.235L98.7578 150.369C98.4404 150.182 98.0671 150.028 97.6378 149.907C97.2178 149.776 96.7744 149.711 96.3078 149.711C95.6918 149.711 95.2064 149.832 94.8518 150.075C94.4971 150.308 94.3198 150.621 94.3198 151.013C94.3198 151.199 94.3431 151.367 94.3898 151.517C94.4458 151.657 94.5484 151.797 94.6978 151.937C94.8564 152.067 95.0711 152.203 95.3418 152.343C95.6218 152.483 95.9904 152.637 96.4478 152.805C96.9891 153.01 97.4464 153.22 97.8198 153.435C98.1931 153.649 98.4918 153.878 98.7158 154.121C98.9398 154.363 99.0984 154.625 99.1918 154.905C99.2944 155.185 99.3458 155.493 99.3458 155.829C99.3458 156.286 99.2571 156.692 99.0798 157.047C98.9024 157.401 98.6551 157.705 98.3378 157.957C98.0298 158.199 97.6564 158.386 97.2178 158.517C96.7791 158.638 96.3031 158.699 95.7897 158.699C95.1084 158.699 94.4878 158.61 93.9278 158.433C93.3678 158.246 92.8964 158.003 92.5138 157.705L93.1858 156.585ZM101.745 149.221H102.711V151.517H104.727V152.609H102.711V156.123C102.711 156.393 102.739 156.622 102.795 156.809C102.86 156.995 102.944 157.145 103.047 157.257C103.149 157.369 103.271 157.453 103.411 157.509C103.56 157.555 103.714 157.579 103.873 157.579C104.106 157.579 104.325 157.541 104.531 157.467C104.736 157.392 104.932 157.303 105.119 157.201L105.469 158.209C105.282 158.321 105.03 158.428 104.713 158.531C104.395 158.643 104.064 158.699 103.719 158.699C103.019 158.699 102.463 158.47 102.053 158.013C101.651 157.555 101.451 156.893 101.451 156.025V152.609H100.191V151.517H101.479L101.745 149.221ZM107.26 155.409C107.344 156.09 107.582 156.622 107.974 157.005C108.366 157.387 108.884 157.579 109.528 157.579C109.948 157.579 110.326 157.537 110.662 157.453C110.998 157.359 111.32 157.243 111.628 157.103L111.922 158.181C111.586 158.339 111.208 158.465 110.788 158.559C110.368 158.652 109.896 158.699 109.374 158.699C108.851 158.699 108.38 158.615 107.96 158.447C107.54 158.269 107.18 158.022 106.882 157.705C106.592 157.378 106.368 156.981 106.21 156.515C106.051 156.039 105.972 155.497 105.972 154.891C105.972 154.349 106.051 153.845 106.21 153.379C106.368 152.912 106.592 152.511 106.882 152.175C107.171 151.829 107.516 151.563 107.918 151.377C108.319 151.181 108.767 151.083 109.262 151.083C109.784 151.083 110.242 151.171 110.634 151.349C111.026 151.526 111.352 151.769 111.614 152.077C111.875 152.385 112.071 152.744 112.202 153.155C112.332 153.565 112.398 153.999 112.398 154.457C112.398 154.783 112.384 155.101 112.356 155.409H107.26ZM109.234 152.175C108.683 152.175 108.23 152.361 107.876 152.735C107.53 153.108 107.32 153.659 107.246 154.387H111.236C111.236 153.677 111.058 153.131 110.704 152.749C110.349 152.366 109.859 152.175 109.234 152.175ZM113.783 151.251C114.642 151.251 115.178 151.591 115.393 152.273C115.458 152.17 115.556 152.049 115.687 151.909C115.827 151.769 115.995 151.638 116.191 151.517C116.387 151.395 116.611 151.293 116.863 151.209C117.115 151.125 117.395 151.083 117.703 151.083C118.123 151.083 118.524 151.167 118.907 151.335C119.299 151.503 119.64 151.745 119.929 152.063C120.228 152.38 120.466 152.772 120.643 153.239C120.82 153.705 120.909 154.233 120.909 154.821C120.909 155.399 120.82 155.927 120.643 156.403C120.475 156.879 120.242 157.289 119.943 157.635C119.654 157.971 119.318 158.232 118.935 158.419C118.552 158.605 118.151 158.699 117.731 158.699C117.292 158.699 116.886 158.615 116.513 158.447C116.149 158.269 115.846 158.069 115.603 157.845V161.611H114.343V153.113C114.343 152.795 114.264 152.571 114.105 152.441C113.956 152.301 113.76 152.231 113.517 152.231L113.783 151.251ZM119.621 154.863C119.621 154.443 119.56 154.069 119.439 153.743C119.327 153.407 119.168 153.122 118.963 152.889C118.767 152.655 118.534 152.478 118.263 152.357C118.002 152.235 117.722 152.175 117.423 152.175C117.022 152.175 116.658 152.277 116.331 152.483C116.014 152.679 115.771 152.893 115.603 153.127V156.711C115.846 156.963 116.121 157.173 116.429 157.341C116.746 157.499 117.096 157.579 117.479 157.579C117.796 157.579 118.086 157.513 118.347 157.383C118.608 157.252 118.832 157.07 119.019 156.837C119.215 156.594 119.364 156.309 119.467 155.983C119.57 155.647 119.621 155.273 119.621 154.863ZM122.565 156.893C122.808 157.107 123.111 157.28 123.475 157.411C123.848 157.541 124.245 157.607 124.665 157.607C125.188 157.607 125.58 157.523 125.841 157.355C126.112 157.177 126.247 156.953 126.247 156.683C126.247 156.543 126.219 156.412 126.163 156.291C126.116 156.169 126.023 156.053 125.883 155.941C125.752 155.829 125.57 155.721 125.337 155.619C125.104 155.507 124.8 155.385 124.427 155.255C123.736 155.021 123.223 154.746 122.887 154.429C122.551 154.102 122.383 153.654 122.383 153.085C122.383 152.805 122.444 152.543 122.565 152.301C122.696 152.058 122.878 151.848 123.111 151.671C123.354 151.484 123.643 151.339 123.979 151.237C124.324 151.134 124.716 151.083 125.155 151.083C125.631 151.083 126.046 151.134 126.401 151.237C126.765 151.33 127.092 151.451 127.381 151.601L127.031 152.637C126.779 152.487 126.49 152.366 126.163 152.273C125.846 152.179 125.491 152.133 125.099 152.133C124.614 152.133 124.245 152.231 123.993 152.427C123.741 152.623 123.615 152.837 123.615 153.071C123.615 153.183 123.634 153.285 123.671 153.379C123.718 153.472 123.797 153.561 123.909 153.645C124.021 153.729 124.17 153.813 124.357 153.897C124.544 153.981 124.777 154.069 125.057 154.163C125.514 154.321 125.902 154.485 126.219 154.653C126.536 154.811 126.793 154.989 126.989 155.185C127.185 155.381 127.325 155.595 127.409 155.829C127.493 156.053 127.535 156.305 127.535 156.585C127.535 156.911 127.465 157.205 127.325 157.467C127.185 157.728 126.989 157.952 126.737 158.139C126.485 158.316 126.177 158.451 125.813 158.545C125.458 158.647 125.062 158.699 124.623 158.699C124.063 158.699 123.564 158.629 123.125 158.489C122.686 158.349 122.322 158.167 122.033 157.943L122.565 156.893Z" fill="#9EA3AE"/>
<path d="M84.8636 100.385C84.8636 106.675 79.773 111.769 73.5 111.769C67.227 111.769 62.1364 106.675 62.1364 100.385C62.1364 94.0941 67.227 89 73.5 89C79.773 89 84.8636 94.0941 84.8636 100.385Z" fill="#384046" stroke="#192126" stroke-width="4"/>
<mask id="path-5-inside-1_2208_52747" fill="white">
<path d="M147 100.385C147 80.8606 139.256 62.1362 125.472 48.3307C111.688 34.5251 92.9934 26.7692 73.5 26.7692C54.0066 26.7692 35.3116 34.5251 21.5277 48.3307C7.74373 62.1362 2.94342e-06 80.8606 0 100.385L14.7 100.385C14.7 84.7654 20.895 69.7859 31.9221 58.7415C42.9493 47.697 57.9053 41.4923 73.5 41.4923C89.0947 41.4923 104.051 47.697 115.078 58.7415C126.105 69.7859 132.3 84.7654 132.3 100.385H147Z"/>
</mask>
<path d="M147 100.385C147 80.8606 139.256 62.1362 125.472 48.3307C111.688 34.5251 92.9934 26.7692 73.5 26.7692C54.0066 26.7692 35.3116 34.5251 21.5277 48.3307C7.74373 62.1362 2.94342e-06 80.8606 0 100.385L14.7 100.385C14.7 84.7654 20.895 69.7859 31.9221 58.7415C42.9493 47.697 57.9053 41.4923 73.5 41.4923C89.0947 41.4923 104.051 47.697 115.078 58.7415C126.105 69.7859 132.3 84.7654 132.3 100.385H147Z" stroke="#384046" stroke-width="24" mask="url(#path-5-inside-1_2208_52747)"/>
<mask id="path-6-inside-2_2208_52747" fill="white">
<path d="M0 100.385C1.3062e-06 85.42 4.55355 70.8107 13.0538 58.5038C21.554 46.1969 33.5973 36.777 47.5784 31.4993L54.0588 48.7206C43.5729 52.6789 34.5405 59.7439 28.1654 68.974C21.7902 78.2042 18.375 89.1611 18.375 100.385L0 100.385Z"/>
</mask>
<path d="M0 100.385C1.3062e-06 85.42 4.55355 70.8107 13.0538 58.5038C21.554 46.1969 33.5973 36.777 47.5784 31.4993L54.0588 48.7206C43.5729 52.6789 34.5405 59.7439 28.1654 68.974C21.7902 78.2042 18.375 89.1611 18.375 100.385L0 100.385Z" stroke="#E89925" stroke-width="32" mask="url(#path-6-inside-2_2208_52747)"/>
<mask id="path-7-inside-3_2208_52747" fill="white">
<path d="M117.6 100.385C117.6 88.6702 112.954 77.4356 104.683 69.1523C96.413 60.8689 85.196 56.2154 73.5 56.2154C61.8039 56.2154 50.5869 60.8689 42.3166 69.1523C34.0462 77.4356 29.4 88.6702 29.4 100.385L30.282 100.385C30.282 88.9045 34.8353 77.8946 42.9403 69.7769C51.0452 61.6592 62.0379 57.0988 73.5 57.0988C84.9621 57.0988 95.9548 61.6592 104.06 69.7769C112.165 77.8946 116.718 88.9045 116.718 100.385H117.6Z"/>
</mask>
<path d="M117.6 100.385C117.6 88.6702 112.954 77.4356 104.683 69.1523C96.413 60.8689 85.196 56.2154 73.5 56.2154C61.8039 56.2154 50.5869 60.8689 42.3166 69.1523C34.0462 77.4356 29.4 88.6702 29.4 100.385L30.282 100.385C30.282 88.9045 34.8353 77.8946 42.9403 69.7769C51.0452 61.6592 62.0379 57.0988 73.5 57.0988C84.9621 57.0988 95.9548 61.6592 104.06 69.7769C112.165 77.8946 116.718 88.9045 116.718 100.385H117.6Z" stroke="#394150" stroke-width="4" mask="url(#path-7-inside-3_2208_52747)"/>
<path d="M62.9041 67.9709C62.6839 66.7978 64.3326 66.2928 64.8047 67.3887L78.3002 98.7158C79.4293 101.337 78.0301 104.36 75.301 105.196V105.196C72.572 106.032 69.7248 104.31 69.1982 101.504L62.9041 67.9709Z" fill="white"/>
<ellipse rx="2.00554" ry="2.00669" transform="matrix(0.95612 -0.292977 0.291768 0.956489 73.742 100.078)" fill="#192126"/>
</svg>
