<svg width="25" height="24" viewBox="0 0 25 24" fill="none" xmlns="http://www.w3.org/2000/svg">
<g clip-path="url(#clip0_1789_43571)">
<path d="M21.0466 7.81V12.5H16.9666C16.8466 12.49 16.5866 12.34 16.5266 12.23L15.4866 10.26C15.0766 9.48 14.3666 9.04 13.6066 9.08C12.8466 9.12 12.1966 9.63 11.8666 10.46L10.4866 13.92L10.2866 13.4C9.79663 12.13 8.39663 11.17 7.01663 11.17L1.04663 11.2V7.81C1.04663 4.17 3.21663 2 6.85663 2H15.2366C18.8766 2 21.0466 4.17 21.0466 7.81Z" fill="white"/>
<path d="M21.0466 16.19V14H16.9666C16.2966 14 15.5066 13.52 15.1966 12.93L14.1566 10.96C13.8766 10.43 13.4766 10.46 13.2566 11.01L10.9566 16.82C10.7066 17.47 10.2866 17.47 10.0266 16.82L8.88663 13.94C8.61663 13.24 7.77663 12.67 7.02663 12.67L1.04663 12.7V16.19C1.04663 19.77 3.14663 21.93 6.67663 21.99C6.78663 22 6.90663 22 7.01663 22H15.0166C15.1666 22 15.3166 22 15.4566 21.99C18.9666 21.91 21.0466 19.76 21.0466 16.19Z" fill="white"/>
<path d="M1.0466 12.7V16.01C1.0266 15.69 1.0166 15.35 1.0166 15V12.7H1.0466Z" fill="white"/>
</g>
<defs>
<clipPath id="clip0_1789_43571">
<rect width="24" height="24" fill="white" transform="translate(0.0466309)"/>
</clipPath>
</defs>
</svg>
