<svg width="40" height="40" viewBox="0 0 40 40" fill="none" xmlns="http://www.w3.org/2000/svg">
<circle cx="20" cy="20" r="20" fill="#1787E7"/>
<g clip-path="url(#clip0_1279_39721)">
<path d="M21.0886 10H18.2247C17.846 10 17.5383 10.3077 17.5383 10.6864C17.5383 11.0651 17.846 11.3728 18.2247 11.3728H21.0886C21.4672 11.3728 21.7749 11.0651 21.7749 10.6864C21.7749 10.3077 21.4672 10 21.0886 10Z" fill="white"/>
<path d="M28.7335 14.5206L26.8637 12.6508C26.6034 12.3905 26.1773 12.3905 25.8933 12.6508C25.633 12.9112 25.633 13.3372 25.8933 13.6212L27.7395 15.4674C27.8815 15.6094 28.0472 15.6568 28.2129 15.6568C28.3785 15.6568 28.5679 15.5858 28.6862 15.4674C28.9939 15.207 28.9939 14.781 28.7335 14.5206Z" fill="white"/>
<path d="M19.6448 12.8638C14.9111 12.8638 11.0767 16.6981 11.0767 21.4318C11.0767 26.1656 14.9111 29.9999 19.6448 29.9999C24.3785 29.9999 28.2128 26.1656 28.2128 21.4318C28.2128 16.6981 24.3785 12.8638 19.6448 12.8638ZM23.1951 22.3549H19.6448C19.2661 22.3549 18.9584 22.0472 18.9584 21.6685V17.2188C18.9584 16.8401 19.2661 16.5324 19.6448 16.5324C20.0235 16.5324 20.3312 16.8401 20.3312 17.2188V21.0058H23.1951C23.5738 21.0058 23.8815 21.3135 23.8815 21.6922C23.8815 22.0472 23.5738 22.3549 23.1951 22.3549Z" fill="white"/>
</g>
<defs>
<clipPath id="clip0_1279_39721">
<rect width="20" height="20" fill="white" transform="translate(10 10)"/>
</clipPath>
</defs>
</svg>
